%FSLAX44Y44*%
%MOMM*%
G71*
G01*
G75*
%ADD10C,0.2000*%
%ADD11C,0.4000*%
%ADD12C,0.3300*%
%ADD13C,0.2540*%
%ADD14C,0.2286*%
%ADD15C,1.4500*%
%ADD16R,1.4500X1.4500*%
%ADD17C,1.5000*%
%ADD18R,1.5000X1.5000*%
%ADD19R,0.6000X0.5000*%
%ADD20C,1.0000*%
%ADD21C,0.3000*%
%ADD22C,0.7000*%
%ADD23C,0.1500*%
%ADD24C,0.3500*%
%ADD25C,0.1270*%
D10*
X2391536Y2406777D02*
X2404236D01*
X2397886Y2400427D02*
X2404236Y2406777D01*
X2391536D02*
X2397886Y2400427D01*
X2289936Y1924177D02*
X2296286Y1917827D01*
X2302636Y1924177D01*
X2289936D02*
X2302636D01*
D13*
X2303386Y2377727D02*
Y2397727D01*
X2290886Y2387727D02*
X2303386Y2397727D01*
X2290886Y2387727D02*
X2303386Y2377727D01*
X2258186Y2375027D02*
X2283586D01*
X2258186Y2400427D02*
X2283586D01*
X2258186Y1892427D02*
Y2400427D01*
X2283586Y1892427D02*
Y2400427D01*
X2258186Y1892427D02*
X2283586D01*
X2410586Y2400427D02*
X2435986D01*
X2410586Y1892427D02*
Y2400427D01*
X2435986Y1892427D02*
Y2400427D01*
X2410586Y1892427D02*
X2435986D01*
D23*
X2297476Y2256997D02*
Y2261997D01*
X2287476Y2256997D02*
Y2261997D01*
Y2271997D02*
Y2276997D01*
X2297476Y2271997D02*
Y2276997D01*
X2287476Y2256997D02*
X2297476D01*
X2287476Y2276997D02*
X2297476D01*
X2404156Y2043637D02*
Y2048637D01*
X2394156Y2043637D02*
Y2048637D01*
Y2058637D02*
Y2063637D01*
X2404156Y2058637D02*
Y2063637D01*
X2394156Y2043637D02*
X2404156D01*
X2394156Y2063637D02*
X2404156D01*
X2297476Y2013157D02*
Y2018157D01*
X2287476Y2013157D02*
Y2018157D01*
Y2028157D02*
Y2033157D01*
X2297476Y2028157D02*
Y2033157D01*
X2287476Y2013157D02*
X2297476D01*
X2287476Y2033157D02*
X2297476D01*
Y1982677D02*
Y1987677D01*
X2287476Y1982677D02*
Y1987677D01*
Y1997677D02*
Y2002677D01*
X2297476Y1997677D02*
Y2002677D01*
X2287476Y1982677D02*
X2297476D01*
X2287476Y2002677D02*
X2297476D01*
X2404156Y1982677D02*
Y1987677D01*
X2394156Y1982677D02*
Y1987677D01*
Y1997677D02*
Y2002677D01*
X2404156Y1997677D02*
Y2002677D01*
X2394156Y1982677D02*
X2404156D01*
X2394156Y2002677D02*
X2404156D01*
Y2008077D02*
Y2013077D01*
X2394156Y2008077D02*
Y2013077D01*
Y2023077D02*
Y2028077D01*
X2404156Y2023077D02*
Y2028077D01*
X2394156Y2008077D02*
X2404156D01*
X2394156Y2028077D02*
X2404156D01*
X2367016Y1914520D02*
X2369515Y1919519D01*
X2374513Y1924517D01*
X2379512D01*
X2382011Y1922018D01*
Y1917019D01*
X2379512Y1914520D01*
X2377012D01*
X2374513Y1917019D01*
Y1924517D01*
X2369515Y1909522D02*
X2367016Y1907023D01*
Y1902024D01*
X2369515Y1899525D01*
X2372014D01*
X2374513Y1902024D01*
X2377012Y1899525D01*
X2379512D01*
X2382011Y1902024D01*
Y1907023D01*
X2379512Y1909522D01*
X2377012D01*
X2374513Y1907023D01*
X2372014Y1909522D01*
X2369515D01*
X2374513Y1907023D02*
Y1902024D01*
X2331415Y1924517D02*
X2328916Y1922018D01*
Y1917019D01*
X2331415Y1914520D01*
X2333914D01*
X2336413Y1917019D01*
Y1919519D01*
Y1917019D01*
X2338912Y1914520D01*
X2341411D01*
X2343911Y1917019D01*
Y1922018D01*
X2341411Y1924517D01*
X2343911Y1902024D02*
X2328916D01*
X2336413Y1909522D01*
Y1899525D01*
X2324861Y2375367D02*
Y2370369D01*
Y2372868D01*
X2309866D01*
X2312365Y2375367D01*
X2350465Y2394417D02*
X2347966Y2391918D01*
Y2386919D01*
X2350465Y2384420D01*
X2352964D01*
X2355463Y2386919D01*
Y2389419D01*
Y2386919D01*
X2357962Y2384420D01*
X2360461D01*
X2362961Y2386919D01*
Y2391918D01*
X2360461Y2394417D01*
X2347966Y2369425D02*
Y2379422D01*
X2355463D01*
X2352964Y2374424D01*
Y2371924D01*
X2355463Y2369425D01*
X2360461D01*
X2362961Y2371924D01*
Y2376923D01*
X2360461Y2379422D01*
D25*
X2296416Y1978817D02*
X2288418D01*
Y1974818D01*
X2289751Y1973485D01*
X2292417D01*
X2293750Y1974818D01*
Y1978817D01*
Y1976151D02*
X2296416Y1973485D01*
X2288418Y1965488D02*
Y1970820D01*
X2292417D01*
X2291084Y1968154D01*
Y1966821D01*
X2292417Y1965488D01*
X2295083D01*
X2296416Y1966821D01*
Y1969487D01*
X2295083Y1970820D01*
X2296207Y2049325D02*
X2288210D01*
Y2045326D01*
X2289543Y2043993D01*
X2292208D01*
X2293541Y2045326D01*
Y2049325D01*
Y2046659D02*
X2296207Y2043993D01*
X2289543Y2041327D02*
X2288210Y2039994D01*
Y2037329D01*
X2289543Y2035996D01*
X2290876D01*
X2292208Y2037329D01*
Y2038661D01*
Y2037329D01*
X2293541Y2035996D01*
X2294874D01*
X2296207Y2037329D01*
Y2039994D01*
X2294874Y2041327D01*
X2402948Y1979349D02*
X2394951D01*
Y1975351D01*
X2396283Y1974018D01*
X2398949D01*
X2400282Y1975351D01*
Y1979349D01*
Y1976684D02*
X2402948Y1974018D01*
X2394951Y1966020D02*
X2396283Y1968686D01*
X2398949Y1971352D01*
X2401615D01*
X2402948Y1970019D01*
Y1967353D01*
X2401615Y1966020D01*
X2400282D01*
X2398949Y1967353D01*
Y1971352D01*
X2405171Y2031058D02*
Y2039056D01*
X2401172D01*
X2399839Y2037723D01*
Y2035057D01*
X2401172Y2033724D01*
X2405171D01*
X2402505D02*
X2399839Y2031058D01*
X2393175D02*
Y2039056D01*
X2397173Y2035057D01*
X2391842D01*
X2296661Y2253568D02*
X2288663D01*
Y2249569D01*
X2289996Y2248237D01*
X2292662D01*
X2293995Y2249569D01*
Y2253568D01*
Y2250902D02*
X2296661Y2248237D01*
Y2245571D02*
Y2242905D01*
Y2244238D01*
X2288663D01*
X2289996Y2245571D01*
X2403120Y2080817D02*
X2395123D01*
Y2076818D01*
X2396456Y2075485D01*
X2399121D01*
X2400454Y2076818D01*
Y2080817D01*
Y2078151D02*
X2403120Y2075485D01*
Y2067488D02*
Y2072820D01*
X2397788Y2067488D01*
X2396456D01*
X2395123Y2068821D01*
Y2071487D01*
X2396456Y2072820D01*
M02*
