%FSLAX44Y44*%
%MOMM*%
G71*
G01*
G75*
%ADD10C,0.2000*%
%ADD11C,0.4000*%
%ADD12C,0.3300*%
%ADD13C,0.2540*%
%ADD14C,0.2286*%
%ADD15C,1.4500*%
%ADD16R,1.4500X1.4500*%
%ADD17C,1.5000*%
%ADD18R,1.5000X1.5000*%
%ADD19R,0.6000X0.5000*%
%ADD20C,1.0000*%
%ADD21C,0.3000*%
%ADD22C,0.7000*%
%ADD23C,0.1500*%
%ADD24C,0.3500*%
%ADD25C,0.1270*%
%ADD26C,1.6532*%
%ADD27R,1.6532X1.6532*%
%ADD28C,1.7032*%
%ADD29R,1.7032X1.7032*%
%ADD30R,0.8032X0.7032*%
%ADD31C,2.0000*%
%ADD32C,0.1778*%
%ADD33C,0.2032*%
%ADD34C,0.6350*%
%ADD35C,0.1524*%
%ADD36C,0.1693*%
D25*
X2333311Y2343617D02*
X2341811D01*
X2337561Y2339367D02*
Y2347867D01*
X2314261Y2330917D02*
X2322761D01*
X2318511Y2326667D02*
Y2335167D01*
X2371411Y2343617D02*
X2379911D01*
X2375661Y2339367D02*
Y2347867D01*
X2352361Y2330917D02*
X2360861D01*
X2356611Y2326667D02*
Y2335167D01*
X2333311Y2318217D02*
X2341811D01*
X2337561Y2313967D02*
Y2322467D01*
X2314261Y2305517D02*
X2322761D01*
X2318511Y2301267D02*
Y2309767D01*
X2371411Y2318217D02*
X2379911D01*
X2375661Y2313967D02*
Y2322467D01*
X2352361Y2305517D02*
X2360861D01*
X2356611Y2301267D02*
Y2309767D01*
X2333311Y2292817D02*
X2341811D01*
X2337561Y2288567D02*
Y2297067D01*
X2314261Y2280117D02*
X2322761D01*
X2318511Y2275867D02*
Y2284367D01*
X2371411Y2292817D02*
X2379911D01*
X2375661Y2288567D02*
Y2297067D01*
X2352361Y2280117D02*
X2360861D01*
X2356611Y2275867D02*
Y2284367D01*
X2333311Y2267417D02*
X2341811D01*
X2337561Y2263167D02*
Y2271667D01*
X2314261Y2254717D02*
X2322761D01*
X2318511Y2250467D02*
Y2258967D01*
X2371411Y2267417D02*
X2379911D01*
X2375661Y2263167D02*
Y2271667D01*
X2352361Y2254717D02*
X2360861D01*
X2356611Y2250467D02*
Y2258967D01*
X2333311Y2242017D02*
X2341811D01*
X2337561Y2237767D02*
Y2246267D01*
X2314261Y2229317D02*
X2322761D01*
X2318511Y2225067D02*
Y2233567D01*
X2371411Y2242017D02*
X2379911D01*
X2375661Y2237767D02*
Y2246267D01*
X2352361Y2229317D02*
X2360861D01*
X2356611Y2225067D02*
Y2233567D01*
X2333311Y2216617D02*
X2341811D01*
X2337561Y2212367D02*
Y2220867D01*
X2314261Y2203917D02*
X2322761D01*
X2318511Y2199667D02*
Y2208167D01*
X2371411Y2216617D02*
X2379911D01*
X2375661Y2212367D02*
Y2220867D01*
X2352361Y2203917D02*
X2360861D01*
X2356611Y2199667D02*
Y2208167D01*
X2333311Y2191217D02*
X2341811D01*
X2337561Y2186967D02*
Y2195467D01*
X2314261Y2178517D02*
X2322761D01*
X2318511Y2174267D02*
Y2182767D01*
X2371411Y2191217D02*
X2379911D01*
X2375661Y2186967D02*
Y2195467D01*
X2352361Y2178517D02*
X2360861D01*
X2356611Y2174267D02*
Y2182767D01*
X2333311Y2165817D02*
X2341811D01*
X2337561Y2161567D02*
Y2170067D01*
X2314261Y2153117D02*
X2322761D01*
X2318511Y2148867D02*
Y2157367D01*
X2371411Y2165817D02*
X2379911D01*
X2375661Y2161567D02*
Y2170067D01*
X2352361Y2153117D02*
X2360861D01*
X2356611Y2148867D02*
Y2157367D01*
X2333311Y2140417D02*
X2341811D01*
X2337561Y2136167D02*
Y2144667D01*
X2314261Y2127717D02*
X2322761D01*
X2318511Y2123467D02*
Y2131967D01*
X2371411Y2140417D02*
X2379911D01*
X2375661Y2136167D02*
Y2144667D01*
X2352361Y2127717D02*
X2360861D01*
X2356611Y2123467D02*
Y2131967D01*
X2333311Y2115017D02*
X2341811D01*
X2337561Y2110767D02*
Y2119267D01*
X2314261Y2102317D02*
X2322761D01*
X2318511Y2098067D02*
Y2106567D01*
X2371411Y2115017D02*
X2379911D01*
X2375661Y2110767D02*
Y2119267D01*
X2352361Y2102317D02*
X2360861D01*
X2356611Y2098067D02*
Y2106567D01*
X2333311Y2089617D02*
X2341811D01*
X2337561Y2085367D02*
Y2093867D01*
X2314261Y2076917D02*
X2322761D01*
X2318511Y2072667D02*
Y2081167D01*
X2371411Y2089617D02*
X2379911D01*
X2375661Y2085367D02*
Y2093867D01*
X2352361Y2076917D02*
X2360861D01*
X2356611Y2072667D02*
Y2081167D01*
X2314261Y2051517D02*
X2322761D01*
X2318511Y2047267D02*
Y2055767D01*
X2371411Y2064217D02*
X2379911D01*
X2375661Y2059967D02*
Y2068467D01*
X2352361Y2051517D02*
X2360861D01*
X2356611Y2047267D02*
Y2055767D01*
X2333311Y2038817D02*
X2341811D01*
X2337561Y2034567D02*
Y2043067D01*
X2314261Y2026117D02*
X2322761D01*
X2318511Y2021867D02*
Y2030367D01*
X2371411Y2038817D02*
X2379911D01*
X2375661Y2034567D02*
Y2043067D01*
X2352361Y2026117D02*
X2360861D01*
X2356611Y2021867D02*
Y2030367D01*
X2333311Y2013417D02*
X2341811D01*
X2337561Y2009167D02*
Y2017667D01*
X2314261Y2000717D02*
X2322761D01*
X2318511Y1996467D02*
Y2004967D01*
X2371411Y2013417D02*
X2379911D01*
X2375661Y2009167D02*
Y2017667D01*
X2352361Y2000717D02*
X2360861D01*
X2356611Y1996467D02*
Y2004967D01*
X2333311Y1988017D02*
X2341811D01*
X2337561Y1983767D02*
Y1992267D01*
X2314261Y1975317D02*
X2322761D01*
X2318511Y1971067D02*
Y1979567D01*
X2352361Y1975317D02*
X2360861D01*
X2356611Y1971067D02*
Y1979567D01*
X2333311Y1962617D02*
X2341811D01*
X2337561Y1958367D02*
Y1966867D01*
X2314261Y1949917D02*
X2322761D01*
X2318511Y1945667D02*
Y1954167D01*
X2371411Y1962617D02*
X2379911D01*
X2375661Y1958367D02*
Y1966867D01*
X2352361Y1949917D02*
X2360861D01*
X2356611Y1945667D02*
Y1954167D01*
X2333311Y1937217D02*
X2341811D01*
X2337561Y1932967D02*
Y1941467D01*
X2371411Y1937217D02*
X2379911D01*
X2375661Y1932967D02*
Y1941467D01*
X2314261Y2356317D02*
X2322761D01*
X2318511Y2352067D02*
Y2360567D01*
X2352361Y2356317D02*
X2360861D01*
X2356611Y2352067D02*
Y2360567D01*
X2333311Y2064217D02*
X2341811D01*
X2337561Y2059967D02*
Y2068467D01*
X2371411Y1988017D02*
X2379911D01*
X2375661Y1983767D02*
Y1992267D01*
X2418786Y2311527D02*
X2427786D01*
X2423286Y2307027D02*
Y2316027D01*
X2418786Y2387727D02*
X2427786D01*
X2423286Y2383227D02*
Y2392227D01*
X2418786Y2336927D02*
X2427786D01*
X2423286Y2332427D02*
Y2341427D01*
X2418786Y2362327D02*
X2427786D01*
X2423286Y2357827D02*
Y2366827D01*
X2418786Y1981327D02*
X2427786D01*
X2423286Y1976827D02*
Y1985827D01*
X2418786Y1955927D02*
X2427786D01*
X2423286Y1951427D02*
Y1960427D01*
X2266386Y1955927D02*
X2275386D01*
X2270886Y1951427D02*
Y1960427D01*
X2266386Y2133727D02*
X2275386D01*
X2270886Y2129227D02*
Y2138227D01*
X2418786Y2108327D02*
X2427786D01*
X2423286Y2103827D02*
Y2112827D01*
X2266386Y1930527D02*
X2275386D01*
X2270886Y1926027D02*
Y1935027D01*
X2266386Y1905127D02*
X2275386D01*
X2270886Y1900627D02*
Y1909627D01*
X2418786Y1905127D02*
X2427786D01*
X2423286Y1900627D02*
Y1909627D01*
X2266386Y2032127D02*
X2275386D01*
X2270886Y2027627D02*
Y2036627D01*
X2418786Y1930527D02*
X2427786D01*
X2423286Y1926027D02*
Y1935027D01*
X2266386Y2057527D02*
X2275386D01*
X2270886Y2053027D02*
Y2062027D01*
X2418786Y2032127D02*
X2427786D01*
X2423286Y2027627D02*
Y2036627D01*
X2266386Y2082927D02*
X2275386D01*
X2270886Y2078427D02*
Y2087427D01*
X2418786Y2057527D02*
X2427786D01*
X2423286Y2053027D02*
Y2062027D01*
X2418786Y2082927D02*
X2427786D01*
X2423286Y2078427D02*
Y2087427D01*
X2266386Y2108327D02*
X2275386D01*
X2270886Y2103827D02*
Y2112827D01*
X2418786Y2133727D02*
X2427786D01*
X2423286Y2129227D02*
Y2138227D01*
X2418786Y2159127D02*
X2427786D01*
X2423286Y2154627D02*
Y2163627D01*
X2266386Y2159127D02*
X2275386D01*
X2270886Y2154627D02*
Y2163627D01*
X2418786Y2184527D02*
X2427786D01*
X2423286Y2180027D02*
Y2189027D01*
X2266386Y2184527D02*
X2275386D01*
X2270886Y2180027D02*
Y2189027D01*
X2418786Y2209927D02*
X2427786D01*
X2423286Y2205427D02*
Y2214427D01*
X2266386Y2209927D02*
X2275386D01*
X2270886Y2205427D02*
Y2214427D01*
X2418786Y2235327D02*
X2427786D01*
X2423286Y2230827D02*
Y2239827D01*
X2266386Y2235327D02*
X2275386D01*
X2270886Y2230827D02*
Y2239827D01*
X2418786Y2260727D02*
X2427786D01*
X2423286Y2256227D02*
Y2265227D01*
X2418786Y2286127D02*
X2427786D01*
X2423286Y2281627D02*
Y2290627D01*
X2266386Y2286127D02*
X2275386D01*
X2270886Y2281627D02*
Y2290627D01*
X2266386Y2311527D02*
X2275386D01*
X2270886Y2307027D02*
Y2316027D01*
X2266386Y2336927D02*
X2275386D01*
X2270886Y2332427D02*
Y2341427D01*
X2266386Y2362327D02*
X2275386D01*
X2270886Y2357827D02*
Y2366827D01*
X2266386Y2387727D02*
X2275386D01*
X2270886Y2383227D02*
Y2392227D01*
X2266386Y2006727D02*
X2275386D01*
X2270886Y2002227D02*
Y2011227D01*
X2266386Y1981327D02*
X2275386D01*
X2270886Y1976827D02*
Y1985827D01*
X2418786Y2006727D02*
X2427786D01*
X2423286Y2002227D02*
Y2011227D01*
X2266386Y2260727D02*
X2275386D01*
X2270886Y2256227D02*
Y2265227D01*
M02*
