M71
M48
T1F00S00C0.4000
T2F00S00C0.8000
T3F00S00C0.8500
T4F00S00C0.9000
T5F00S00C1.0000
T6F00S00C2.4000
T7F00S00C2.5000
%
T01
X0097282Y007874
X0075438Y0084328
X0077216Y0086868
X0068072Y00889
X0081Y0087376
X008763Y00889
X0088646Y0091186
X0086614Y0093726
Y0096012
X0088392Y0096774
X0089408Y0106934
X0087376
X0099695Y0107061
X0099568Y01039876
X0099822Y0101854
X0103886Y0101092
X0105156Y0099822
X0104902Y010287
X0103378Y0104394
Y0106934
Y0109474
X010399Y01104444
X009779Y0110236
X00966676Y01103269
X0096774Y01143
X0095758Y0115415
X0099568Y0118618
X01016Y0117856
X0103378Y0117348
X0107696Y01143
X0108712Y0115316
X0110236Y01143
X011303Y0118364
X0117602Y0118872
X0116586Y0116586
X0117602Y0113792
X011811Y0112522
X011303Y0108204
Y0103124
X0111252Y0100838
X01087529Y00973059
X01049875Y00936569
X0103378Y0090678
Y0088138
Y0085598
Y0083058
X01103214Y00818782
X0095758Y0080518
X0094488Y0082042
X0088646Y008128
X008763Y0079756
X0095758Y0089916
Y0092456
X0097282Y0090932
X0098552Y0091948
X00993101Y00933101
X0100076Y0096266
X0136144
X0135128Y0094996
Y0100076
X0136144Y0100838
X0134874Y0104902
X0134112Y0107188
X0137922Y0109347
Y01109218
X013589Y0114554
X0137668Y011684
X01401532Y01185316
X0144272Y011811
X0145542
X01477772Y01173988
X014859Y0118364
X01505849Y01170832
X01558Y0118
X0157734Y0115824
X01552913Y01096833
X0149098Y0108458
X0148008Y01072869
X0148336Y0112268
X0145288Y0112776
X01437894Y01122934
X01445768Y0114046
X0141478Y01133348
X01416845Y01072923
X01421892Y0106172
X0139954Y0104902
X01402303Y01037487
X0140462Y0102616
X01407627Y00981628
X01407672Y00968708
X0143764Y009525
Y0093726
X014478Y0092456
Y0091186
Y0089916
X01445952Y00872799
X01430346Y00872799
X01448797Y00832387
X01436595Y00814861
X01355257Y00857632
X0151638Y0086614
X0151892Y0093472
X0150876Y0094234
X014986Y0094996
X0149606Y0097536
X015367Y0095504
X01504Y0104014
X0145034Y0102108
X0145796Y0100838
X01435811Y01090486
X01454091Y01109126
X01217Y01128512
X0126746Y0118872
X0159004Y0117856
X0160266Y01067334
X0159004Y0094488
X0161544
X0160782Y0091866
X0164592Y0089916
X0161798Y0126746
X0160528Y0127508
X0156464Y0127762
X0155702Y0125476
X01545666Y01252329
X01579729Y0125281
X015494Y0129286
X0153924
X0152908
X0150622Y013081
X0149352
X01480871Y01306872
X0145542Y0128016
X0144272Y0128778
X0141732Y013081
X0136652Y0131318
X0134366Y0130302
X0136652Y0125222
X01389672Y01210212
X01429766Y0121412
X01452871Y01215516
X0146812Y0121412
X014856Y01197854
X0150622Y0119126
X01487143Y012492
X0127508Y0122682
X012319
X01221021Y01261021
X012319Y0127254
Y0128524
Y0131064
X01212511Y01340668
X01268973Y01346025
X01292742Y01396778
X011938Y0124968
X0117348Y0124206
X011684Y0122174
X0113284Y0122936
X01133782Y01243782
X01134513Y01259993
X0109728Y0126746
Y01294
X0109474Y0132588
X0108458Y013335
X011049Y0134112
X01117639Y01344356
X0112776Y0133604
X0117Y01323
X01162875Y0129013
X0117348Y0128524
X0114808Y0137922
X0106172Y0135382
X0104902Y0132842
X0103886Y0131572
Y0128778
X010575Y0129794
X0105918Y0126492
X0105Y0124206
X01049Y01225245
X010414Y0120142
X010922Y0121158
Y0122936
X0108458Y0122174
X0112014Y011938
X0099822Y012573
X0099314Y0126746
X009779Y0124968
X0094742Y0122936
X01016Y013589
T02
X0088392Y010908
Y011162
Y011416
Y01167
X0114808Y0116332
Y0113792
Y0111252
Y0108712
Y0106172
Y0103632
Y0101092
Y0098552
Y0096012
Y0093472
Y0090932
Y0088392
Y0085852
Y0118872
X0130048
Y0116332
Y0113792
Y0111252
Y0108712
Y0106172
Y0103632
Y0101092
Y0098552
Y0096012
Y0093472
Y0090932
Y0088392
Y0085852
Y0121412
Y0123952
Y0126492
Y0129032
Y0131572
Y0134112
X0114808
Y0131572
Y0129032
Y0126492
Y0123952
Y0121412
X0088392Y012178
Y011924
Y012432
Y012686
Y01294
T03
X0073285Y0090015
Y0092555
Y0095095
Y0097635
Y0100175
Y0102715
Y0105255
Y0107795
Y0110335
Y0112875
Y0115415
Y0117955
X007519Y0116685
Y0114145
Y0111605
Y0109065
Y0106525
Y0103985
Y0101445
Y0098905
Y0096365
Y0093825
Y0091285
Y0088745
X0077095Y0090015
Y0092555
Y0095095
Y0097635
Y0100175
Y0102715
Y0105255
Y0107795
Y0110335
Y0112875
Y0115415
Y0117955
X0079Y0116685
Y0114145
Y0111605
Y0109065
Y0106525
Y0103985
Y0101445
Y0098905
Y0096365
Y0093825
Y0091285
Y0088745
Y0119225
Y0121765
Y0124305
Y0126845
Y0129385
X0077095Y0128115
Y0125575
Y0123035
Y0120495
X007519Y0119225
Y0121765
Y0124305
Y0126845
Y0129385
X0073285Y0128115
Y0130655
X0077095
X0073285Y0125575
Y0123035
Y0120495
T04
X0143256Y0138176
X0145796
X0148336
X0150876
X0153416
T05
X016385Y010845
X016585
Y011095
X016385
T06
X016856Y010368
Y011572
T07
X00653Y00797
X01243
X01613
Y01397
X01243
X00653
M30
