%FSLAX44Y44*%
%MOMM*%
G71*
G01*
G75*
%ADD10C,0.2000*%
%ADD11O,0.6000X2.2000*%
%ADD12O,0.6000X2.2000*%
%ADD13R,1.5240X1.5240*%
%ADD14R,1.5240X1.2700*%
%ADD15R,1.2700X1.5240*%
%ADD16O,2.0320X0.6096*%
%ADD17R,0.4064X1.9050*%
%ADD18R,1.9050X0.4064*%
%ADD19C,1.0000*%
%ADD20R,0.9144X0.9144*%
%ADD21R,1.2700X0.9144*%
%ADD22R,1.5000X0.4000*%
%ADD23R,0.9144X1.2700*%
%ADD24C,0.2540*%
%ADD25C,0.3000*%
%ADD26C,1.0000*%
%ADD27C,0.5000*%
%ADD28C,0.8000*%
%ADD29C,0.6000*%
%ADD30C,0.2286*%
%ADD31C,1.6000*%
%ADD32R,1.6000X1.6000*%
%ADD33C,1.5000*%
%ADD34R,1.5000X1.5000*%
%ADD35C,1.4500*%
%ADD36R,1.4500X1.4500*%
%ADD37C,1.6510*%
%ADD38C,3.6000*%
%ADD39C,0.8000*%
%ADD40O,2.5400X0.7500*%
%ADD41R,2.5400X0.7500*%
%ADD42C,0.4000*%
%ADD43C,0.7000*%
%ADD44C,0.2500*%
%ADD45C,0.3048*%
%ADD46C,0.1500*%
D11*
X3013836Y2465197D02*
D03*
X2924936Y2373197D02*
D03*
X2937636D02*
D03*
X2950336D02*
D03*
X2963036D02*
D03*
X3051936D02*
D03*
X3064636D02*
D03*
X2975736Y2465197D02*
D03*
X2912236D02*
D03*
X2899536D02*
D03*
X3039236D02*
D03*
X3026536D02*
D03*
X3051936D02*
D03*
X2912236Y2373197D02*
D03*
X2950336Y2465197D02*
D03*
X2937636D02*
D03*
X2899536Y2373197D02*
D03*
X2924936Y2465197D02*
D03*
X3001136D02*
D03*
X2988436D02*
D03*
X2975736Y2373197D02*
D03*
X3039236D02*
D03*
X3013836D02*
D03*
X3001136D02*
D03*
X2988436D02*
D03*
X3026536D02*
D03*
X2963036Y2465197D02*
D03*
D12*
X3064636D02*
D03*
D13*
X3181630Y2373197D02*
D03*
X3147340D02*
D03*
X2871596Y1952117D02*
D03*
X2905886D02*
D03*
X2988436D02*
D03*
X3022726D02*
D03*
D14*
X3096542Y2373197D02*
D03*
X3119402D02*
D03*
X2810518Y2516121D02*
D03*
X2787658D02*
D03*
X2871506Y1987483D02*
D03*
X2894366D02*
D03*
X2914776Y2145157D02*
D03*
X2937636D02*
D03*
X2940176Y2340737D02*
D03*
X2963036D02*
D03*
X2488056Y2368677D02*
D03*
X2465196D02*
D03*
X2947796Y2109597D02*
D03*
X2970656D02*
D03*
X2416936Y2445867D02*
D03*
X2439796D02*
D03*
X2416936Y2420467D02*
D03*
X2439796D02*
D03*
X2322930Y2306167D02*
D03*
X2345790D02*
D03*
Y2280767D02*
D03*
X2322930D02*
D03*
X2414396Y2293467D02*
D03*
X2437256D02*
D03*
X2322930Y2255367D02*
D03*
X2345790D02*
D03*
X2322930Y2229967D02*
D03*
X2345790D02*
D03*
D15*
X2882168Y2538981D02*
D03*
Y2516121D02*
D03*
X3039236Y2058797D02*
D03*
Y2035937D02*
D03*
X3156076Y2086737D02*
D03*
Y2063877D02*
D03*
X3044316Y2188337D02*
D03*
Y2211197D02*
D03*
X3013836Y2058797D02*
D03*
Y2035937D02*
D03*
X2856356Y2256917D02*
D03*
Y2234057D02*
D03*
X2854753Y2516121D02*
D03*
Y2538981D02*
D03*
D16*
X2571876Y2378837D02*
D03*
Y2391537D02*
D03*
Y2455037D02*
D03*
X2515996Y2404237D02*
D03*
Y2378837D02*
D03*
Y2416937D02*
D03*
Y2391537D02*
D03*
X2571876Y2404237D02*
D03*
Y2429637D02*
D03*
X2515996D02*
D03*
Y2442337D02*
D03*
X2571876Y2416937D02*
D03*
Y2442337D02*
D03*
X2515996Y2455037D02*
D03*
D17*
X2956686Y2297557D02*
D03*
X2980562D02*
D03*
X2972688Y2183511D02*
D03*
X2980562D02*
D03*
X2964560D02*
D03*
X2956686D02*
D03*
X2988436Y2297557D02*
D03*
X2964560D02*
D03*
X2924682D02*
D03*
X2916808D02*
D03*
X2908680D02*
D03*
X2916808Y2183511D02*
D03*
X2924682D02*
D03*
X2932810D02*
D03*
X2988436D02*
D03*
X2932810Y2297557D02*
D03*
X2948558Y2183511D02*
D03*
X2940684Y2297557D02*
D03*
X2972688D02*
D03*
X2948558D02*
D03*
X2940684Y2183511D02*
D03*
X2908680D02*
D03*
D18*
X3005454Y2224659D02*
D03*
Y2232787D02*
D03*
Y2240661D02*
D03*
Y2200783D02*
D03*
Y2280539D02*
D03*
X2891662D02*
D03*
Y2272665D02*
D03*
Y2256663D02*
D03*
Y2240661D02*
D03*
X3005454Y2208657D02*
D03*
Y2248535D02*
D03*
Y2256663D02*
D03*
Y2264537D02*
D03*
Y2272665D02*
D03*
X2891662Y2264537D02*
D03*
Y2248535D02*
D03*
Y2224659D02*
D03*
Y2216785D02*
D03*
Y2208657D02*
D03*
Y2200783D02*
D03*
Y2232787D02*
D03*
X3005454Y2216785D02*
D03*
D20*
X2861436Y2409317D02*
D03*
Y2428367D02*
D03*
X2949066Y2084197D02*
D03*
X2968116D02*
D03*
D21*
X2841116Y2418969D02*
D03*
D22*
X3067596Y2051477D02*
D03*
Y2057977D02*
D03*
X3125596Y2044977D02*
D03*
Y2038477D02*
D03*
Y2051477D02*
D03*
Y2083977D02*
D03*
X3067596Y2038477D02*
D03*
Y2044977D02*
D03*
Y2064477D02*
D03*
Y2070977D02*
D03*
Y2077477D02*
D03*
Y2083977D02*
D03*
X3125596Y2057977D02*
D03*
Y2064477D02*
D03*
Y2077477D02*
D03*
Y2070977D02*
D03*
D23*
X2958464Y2063877D02*
D03*
D30*
X2872684Y1389144D02*
X2871596Y1388055D01*
X2872684Y1386967D01*
X2873772Y1388055D01*
X2872684Y1389144D01*
X2895104Y1404380D02*
X2894016Y1406557D01*
X2891839Y1408734D01*
X2889662Y1409822D01*
X2885309D01*
X2883132Y1408734D01*
X2880956Y1406557D01*
X2879867Y1404380D01*
X2878779Y1401115D01*
Y1395674D01*
X2879867Y1392409D01*
X2880956Y1390232D01*
X2883132Y1388055D01*
X2885309Y1386967D01*
X2889662D01*
X2891839Y1388055D01*
X2894016Y1390232D01*
X2895104Y1392409D01*
Y1395674D01*
X2889662D02*
X2895104D01*
X2907946Y1409822D02*
Y1386967D01*
X2900328Y1409822D02*
X2915565D01*
X2918286Y1397850D02*
X2928080D01*
X2931346Y1398939D01*
X2932434Y1400027D01*
X2933522Y1402204D01*
Y1405469D01*
X2932434Y1407645D01*
X2931346Y1408734D01*
X2928080Y1409822D01*
X2918286D01*
Y1386967D01*
M02*
