%FSLAX44Y44*%
%MOMM*%
G71*
G01*
G75*
%ADD10C,0.2000*%
%ADD11O,0.6000X2.2000*%
%ADD12O,0.6000X2.2000*%
%ADD13R,1.5240X1.5240*%
%ADD14R,1.5240X1.2700*%
%ADD15R,1.2700X1.5240*%
%ADD16O,2.0320X0.6096*%
%ADD17R,0.4064X1.9050*%
%ADD18R,1.9050X0.4064*%
%ADD19C,1.0000*%
%ADD20R,0.9144X0.9144*%
%ADD21R,1.2700X0.9144*%
%ADD22R,1.5000X0.4000*%
%ADD23R,0.9144X1.2700*%
%ADD24C,0.2540*%
%ADD25C,0.3000*%
%ADD26C,1.0000*%
%ADD27C,0.5000*%
%ADD28C,0.8000*%
%ADD29C,0.6000*%
%ADD30C,0.2286*%
%ADD31C,1.6000*%
%ADD32R,1.6000X1.6000*%
%ADD33C,1.5000*%
%ADD34R,1.5000X1.5000*%
%ADD35C,1.4500*%
%ADD36R,1.4500X1.4500*%
%ADD37C,1.6510*%
%ADD38C,3.6000*%
%ADD39C,0.8000*%
%ADD40O,2.5400X0.7500*%
%ADD41R,2.5400X0.7500*%
%ADD42C,0.4000*%
%ADD43C,0.7000*%
%ADD44C,0.2500*%
%ADD45C,0.3048*%
%ADD46C,0.1500*%
%ADD47O,0.8032X2.4032*%
%ADD48O,0.8032X2.4032*%
%ADD49R,1.7272X1.7272*%
%ADD50R,1.7272X1.4732*%
%ADD51R,1.4732X1.7272*%
%ADD52O,2.2352X0.8128*%
%ADD53R,0.6096X2.1082*%
%ADD54R,2.1082X0.6096*%
%ADD55C,2.0000*%
%ADD56R,1.1176X1.1176*%
%ADD57R,1.4732X1.1176*%
%ADD58R,1.7032X0.6032*%
%ADD59R,1.1176X1.4732*%
%ADD60C,1.8032*%
%ADD61C,0.2032*%
%ADD62R,1.8032X1.8032*%
%ADD63C,1.7032*%
%ADD64R,1.7032X1.7032*%
%ADD65C,1.6532*%
%ADD66R,1.6532X1.6532*%
%ADD67C,1.8542*%
%ADD68C,3.8032*%
%ADD69O,2.7432X0.9532*%
%ADD70R,2.7432X0.9532*%
%ADD71C,0.6350*%
%ADD72C,0.2032*%
%ADD73C,0.1270*%
%ADD74C,0.1524*%
%ADD75C,0.1693*%
D24*
X3303716Y1941952D02*
Y1926717D01*
X3311333D01*
X3313872Y1929256D01*
Y1939413D01*
X3311333Y1941952D01*
X3303716D01*
X3318951Y1936874D02*
Y1926717D01*
Y1931795D01*
X3321490Y1934335D01*
X3324029Y1936874D01*
X3326568D01*
X3334186Y1926717D02*
X3339264D01*
X3336725D01*
Y1936874D01*
X3334186D01*
X3346882Y1926717D02*
X3351960D01*
X3349421D01*
Y1941952D01*
X3346882D01*
X3359578Y1926717D02*
X3364656D01*
X3362117D01*
Y1941952D01*
X3359578D01*
X3387509D02*
Y1926717D01*
X3395126D01*
X3397665Y1929256D01*
Y1939413D01*
X3395126Y1941952D01*
X3387509D01*
X3402744Y1936874D02*
Y1926717D01*
Y1931795D01*
X3405283Y1934335D01*
X3407822Y1936874D01*
X3410361D01*
X3420518D02*
X3425596D01*
X3428135Y1934335D01*
Y1926717D01*
X3420518D01*
X3417979Y1929256D01*
X3420518Y1931795D01*
X3428135D01*
X3433214Y1936874D02*
Y1929256D01*
X3435753Y1926717D01*
X3438292Y1929256D01*
X3440831Y1926717D01*
X3443370Y1929256D01*
Y1936874D01*
X3448449Y1926717D02*
X3453527D01*
X3450988D01*
Y1936874D01*
X3448449D01*
X3461145Y1926717D02*
Y1936874D01*
X3468762D01*
X3471302Y1934335D01*
Y1926717D01*
X3481458Y1921639D02*
X3483997D01*
X3486537Y1924178D01*
Y1936874D01*
X3478919D01*
X3476380Y1934335D01*
Y1929256D01*
X3478919Y1926717D01*
X3486537D01*
X3491615D02*
Y1929256D01*
X3494154D01*
Y1926717D01*
X3491615D01*
X3357056Y2165477D02*
X3362134D01*
X3359595D01*
Y2180712D01*
X3357056Y2178173D01*
X3369752D02*
X3372291Y2180712D01*
X3377369D01*
X3379908Y2178173D01*
Y2175634D01*
X3377369Y2173094D01*
X3379908Y2170555D01*
Y2168016D01*
X3377369Y2165477D01*
X3372291D01*
X3369752Y2168016D01*
Y2170555D01*
X3372291Y2173094D01*
X3369752Y2175634D01*
Y2178173D01*
X3372291Y2173094D02*
X3377369D01*
X3384987Y2178173D02*
X3387526Y2180712D01*
X3392604D01*
X3395143Y2178173D01*
Y2175634D01*
X3392604Y2173094D01*
X3395143Y2170555D01*
Y2168016D01*
X3392604Y2165477D01*
X3387526D01*
X3384987Y2168016D01*
Y2170555D01*
X3387526Y2173094D01*
X3384987Y2175634D01*
Y2178173D01*
X3387526Y2173094D02*
X3392604D01*
X3481516Y2165477D02*
X3486594D01*
X3484055D01*
Y2180712D01*
X3481516Y2178173D01*
X3504368Y2180712D02*
X3494212D01*
Y2173094D01*
X3499290Y2175634D01*
X3501829D01*
X3504368Y2173094D01*
Y2168016D01*
X3501829Y2165477D01*
X3496751D01*
X3494212Y2168016D01*
X3509447Y2165477D02*
Y2168016D01*
X3511986D01*
Y2165477D01*
X3509447D01*
X3522143Y2180712D02*
X3532299D01*
Y2178173D01*
X3522143Y2168016D01*
Y2165477D01*
X3544995D02*
Y2180712D01*
X3537378Y2173094D01*
X3547534D01*
X3552613Y2178173D02*
X3555152Y2180712D01*
X3560230D01*
X3562769Y2178173D01*
Y2175634D01*
X3560230Y2173094D01*
X3562769Y2170555D01*
Y2168016D01*
X3560230Y2165477D01*
X3555152D01*
X3552613Y2168016D01*
Y2170555D01*
X3555152Y2173094D01*
X3552613Y2175634D01*
Y2178173D01*
X3555152Y2173094D02*
X3560230D01*
X3567848Y2165477D02*
Y2175634D01*
X3570387D01*
X3572926Y2173094D01*
Y2165477D01*
Y2173094D01*
X3575465Y2175634D01*
X3578004Y2173094D01*
Y2165477D01*
X3583083D02*
X3588161D01*
X3585622D01*
Y2175634D01*
X3583083D01*
X3595779Y2165477D02*
X3600857D01*
X3598318D01*
Y2180712D01*
X3595779D01*
X3659316Y2178173D02*
X3661855Y2180712D01*
X3666933D01*
X3669472Y2178173D01*
Y2168016D01*
X3666933Y2165477D01*
X3661855D01*
X3659316Y2168016D01*
Y2178173D01*
X3674551Y2165477D02*
Y2168016D01*
X3677090D01*
Y2165477D01*
X3674551D01*
X3694864D02*
Y2180712D01*
X3687247Y2173094D01*
X3697403D01*
X3702482Y2165477D02*
Y2175634D01*
X3705021D01*
X3707560Y2173094D01*
Y2165477D01*
Y2173094D01*
X3710099Y2175634D01*
X3712639Y2173094D01*
Y2165477D01*
X3717717D02*
Y2175634D01*
X3720256D01*
X3722795Y2173094D01*
Y2165477D01*
Y2173094D01*
X3725334Y2175634D01*
X3727874Y2173094D01*
Y2165477D01*
X3837116D02*
Y2180712D01*
X3844733D01*
X3847272Y2178173D01*
Y2173094D01*
X3844733Y2170555D01*
X3837116D01*
X3852351Y2180712D02*
X3862508D01*
X3857429D01*
Y2165477D01*
X3867586Y2180712D02*
Y2165477D01*
Y2173094D01*
X3877743D01*
Y2180712D01*
Y2165477D01*
X3364673Y2134997D02*
Y2150232D01*
X3357056Y2142614D01*
X3367213D01*
X3372291Y2137536D02*
X3374830Y2134997D01*
X3379908D01*
X3382448Y2137536D01*
Y2147693D01*
X3379908Y2150232D01*
X3374830D01*
X3372291Y2147693D01*
Y2145154D01*
X3374830Y2142614D01*
X3382448D01*
X3481516Y2147693D02*
X3484055Y2150232D01*
X3489133D01*
X3491672Y2147693D01*
Y2145154D01*
X3489133Y2142614D01*
X3486594D01*
X3489133D01*
X3491672Y2140075D01*
Y2137536D01*
X3489133Y2134997D01*
X3484055D01*
X3481516Y2137536D01*
X3496751Y2134997D02*
X3501829D01*
X3499290D01*
Y2150232D01*
X3496751Y2147693D01*
X3509447Y2134997D02*
Y2137536D01*
X3511986D01*
Y2134997D01*
X3509447D01*
X3529760D02*
Y2150232D01*
X3522143Y2142614D01*
X3532299D01*
X3537378Y2137536D02*
X3539917Y2134997D01*
X3544995D01*
X3547534Y2137536D01*
Y2147693D01*
X3544995Y2150232D01*
X3539917D01*
X3537378Y2147693D01*
Y2145154D01*
X3539917Y2142614D01*
X3547534D01*
X3562769Y2150232D02*
X3557691Y2147693D01*
X3552613Y2142614D01*
Y2137536D01*
X3555152Y2134997D01*
X3560230D01*
X3562769Y2137536D01*
Y2140075D01*
X3560230Y2142614D01*
X3552613D01*
X3567848Y2134997D02*
Y2145154D01*
X3570387D01*
X3572926Y2142614D01*
Y2134997D01*
Y2142614D01*
X3575465Y2145154D01*
X3578004Y2142614D01*
Y2134997D01*
X3583083D02*
X3588161D01*
X3585622D01*
Y2145154D01*
X3583083D01*
X3595779Y2134997D02*
X3600857D01*
X3598318D01*
Y2150232D01*
X3595779D01*
X3659316Y2147693D02*
X3661855Y2150232D01*
X3666933D01*
X3669472Y2147693D01*
Y2137536D01*
X3666933Y2134997D01*
X3661855D01*
X3659316Y2137536D01*
Y2147693D01*
X3674551Y2134997D02*
Y2137536D01*
X3677090D01*
Y2134997D01*
X3674551D01*
X3687247Y2147693D02*
X3689786Y2150232D01*
X3694864D01*
X3697403Y2147693D01*
Y2145154D01*
X3694864Y2142614D01*
X3697403Y2140075D01*
Y2137536D01*
X3694864Y2134997D01*
X3689786D01*
X3687247Y2137536D01*
Y2140075D01*
X3689786Y2142614D01*
X3687247Y2145154D01*
Y2147693D01*
X3689786Y2142614D02*
X3694864D01*
X3702482Y2134997D02*
Y2145154D01*
X3705021D01*
X3707560Y2142614D01*
Y2134997D01*
Y2142614D01*
X3710099Y2145154D01*
X3712639Y2142614D01*
Y2134997D01*
X3717717D02*
Y2145154D01*
X3720256D01*
X3722795Y2142614D01*
Y2134997D01*
Y2142614D01*
X3725334Y2145154D01*
X3727874Y2142614D01*
Y2134997D01*
X3837116D02*
Y2150232D01*
X3844733D01*
X3847272Y2147693D01*
Y2142614D01*
X3844733Y2140075D01*
X3837116D01*
X3852351Y2150232D02*
X3862508D01*
X3857429D01*
Y2134997D01*
X3867586Y2150232D02*
Y2134997D01*
Y2142614D01*
X3877743D01*
Y2150232D01*
Y2134997D01*
X3367213Y2119752D02*
X3362134Y2117213D01*
X3357056Y2112135D01*
Y2107056D01*
X3359595Y2104517D01*
X3364673D01*
X3367213Y2107056D01*
Y2109595D01*
X3364673Y2112135D01*
X3357056D01*
X3372291Y2117213D02*
X3374830Y2119752D01*
X3379908D01*
X3382448Y2117213D01*
Y2114674D01*
X3379908Y2112135D01*
X3382448Y2109595D01*
Y2107056D01*
X3379908Y2104517D01*
X3374830D01*
X3372291Y2107056D01*
Y2109595D01*
X3374830Y2112135D01*
X3372291Y2114674D01*
Y2117213D01*
X3374830Y2112135D02*
X3379908D01*
X3481516Y2117213D02*
X3484055Y2119752D01*
X3489133D01*
X3491672Y2117213D01*
Y2114674D01*
X3489133Y2112135D01*
X3486594D01*
X3489133D01*
X3491672Y2109595D01*
Y2107056D01*
X3489133Y2104517D01*
X3484055D01*
X3481516Y2107056D01*
X3496751Y2117213D02*
X3499290Y2119752D01*
X3504368D01*
X3506907Y2117213D01*
Y2114674D01*
X3504368Y2112135D01*
X3501829D01*
X3504368D01*
X3506907Y2109595D01*
Y2107056D01*
X3504368Y2104517D01*
X3499290D01*
X3496751Y2107056D01*
X3511986Y2104517D02*
Y2107056D01*
X3514525D01*
Y2104517D01*
X3511986D01*
X3532299D02*
Y2119752D01*
X3524682Y2112135D01*
X3534839D01*
X3550074Y2119752D02*
X3544995Y2117213D01*
X3539917Y2112135D01*
Y2107056D01*
X3542456Y2104517D01*
X3547534D01*
X3550074Y2107056D01*
Y2109595D01*
X3547534Y2112135D01*
X3539917D01*
X3565309Y2119752D02*
X3555152D01*
Y2112135D01*
X3560230Y2114674D01*
X3562769D01*
X3565309Y2112135D01*
Y2107056D01*
X3562769Y2104517D01*
X3557691D01*
X3555152Y2107056D01*
X3570387Y2104517D02*
Y2114674D01*
X3572926D01*
X3575465Y2112135D01*
Y2104517D01*
Y2112135D01*
X3578004Y2114674D01*
X3580544Y2112135D01*
Y2104517D01*
X3585622D02*
X3590700D01*
X3588161D01*
Y2114674D01*
X3585622D01*
X3598318Y2104517D02*
X3603396D01*
X3600857D01*
Y2119752D01*
X3598318D01*
X3659316Y2117213D02*
X3661855Y2119752D01*
X3666933D01*
X3669472Y2117213D01*
Y2107056D01*
X3666933Y2104517D01*
X3661855D01*
X3659316Y2107056D01*
Y2117213D01*
X3674551Y2104517D02*
Y2107056D01*
X3677090D01*
Y2104517D01*
X3674551D01*
X3687247Y2117213D02*
X3689786Y2119752D01*
X3694864D01*
X3697403Y2117213D01*
Y2114674D01*
X3694864Y2112135D01*
X3697403Y2109595D01*
Y2107056D01*
X3694864Y2104517D01*
X3689786D01*
X3687247Y2107056D01*
Y2109595D01*
X3689786Y2112135D01*
X3687247Y2114674D01*
Y2117213D01*
X3689786Y2112135D02*
X3694864D01*
X3712639Y2119752D02*
X3702482D01*
Y2112135D01*
X3707560Y2114674D01*
X3710099D01*
X3712639Y2112135D01*
Y2107056D01*
X3710099Y2104517D01*
X3705021D01*
X3702482Y2107056D01*
X3717717Y2104517D02*
Y2114674D01*
X3720256D01*
X3722795Y2112135D01*
Y2104517D01*
Y2112135D01*
X3725334Y2114674D01*
X3727874Y2112135D01*
Y2104517D01*
X3732952D02*
Y2114674D01*
X3735491D01*
X3738030Y2112135D01*
Y2104517D01*
Y2112135D01*
X3740569Y2114674D01*
X3743109Y2112135D01*
Y2104517D01*
X3837116D02*
Y2119752D01*
X3844733D01*
X3847272Y2117213D01*
Y2112135D01*
X3844733Y2109595D01*
X3837116D01*
X3852351Y2119752D02*
X3862508D01*
X3857429D01*
Y2104517D01*
X3867586Y2119752D02*
Y2104517D01*
Y2112135D01*
X3877743D01*
Y2119752D01*
Y2104517D01*
X3367213Y2089272D02*
X3357056D01*
Y2081655D01*
X3362134Y2084194D01*
X3364673D01*
X3367213Y2081655D01*
Y2076576D01*
X3364673Y2074037D01*
X3359595D01*
X3357056Y2076576D01*
X3481516Y2086733D02*
X3484055Y2089272D01*
X3489133D01*
X3491672Y2086733D01*
Y2084194D01*
X3489133Y2081655D01*
X3486594D01*
X3489133D01*
X3491672Y2079115D01*
Y2076576D01*
X3489133Y2074037D01*
X3484055D01*
X3481516Y2076576D01*
X3506907Y2089272D02*
X3496751D01*
Y2081655D01*
X3501829Y2084194D01*
X3504368D01*
X3506907Y2081655D01*
Y2076576D01*
X3504368Y2074037D01*
X3499290D01*
X3496751Y2076576D01*
X3511986Y2074037D02*
Y2076576D01*
X3514525D01*
Y2074037D01*
X3511986D01*
X3532299D02*
Y2089272D01*
X3524682Y2081655D01*
X3534839D01*
X3539917Y2086733D02*
X3542456Y2089272D01*
X3547534D01*
X3550074Y2086733D01*
Y2084194D01*
X3547534Y2081655D01*
X3544995D01*
X3547534D01*
X3550074Y2079115D01*
Y2076576D01*
X3547534Y2074037D01*
X3542456D01*
X3539917Y2076576D01*
X3555152Y2086733D02*
X3557691Y2089272D01*
X3562769D01*
X3565309Y2086733D01*
Y2084194D01*
X3562769Y2081655D01*
X3560230D01*
X3562769D01*
X3565309Y2079115D01*
Y2076576D01*
X3562769Y2074037D01*
X3557691D01*
X3555152Y2076576D01*
X3570387Y2074037D02*
Y2084194D01*
X3572926D01*
X3575465Y2081655D01*
Y2074037D01*
Y2081655D01*
X3578004Y2084194D01*
X3580544Y2081655D01*
Y2074037D01*
X3585622D02*
X3590700D01*
X3588161D01*
Y2084194D01*
X3585622D01*
X3598318Y2074037D02*
X3603396D01*
X3600857D01*
Y2089272D01*
X3598318D01*
X3659316Y2086733D02*
X3661855Y2089272D01*
X3666933D01*
X3669472Y2086733D01*
Y2076576D01*
X3666933Y2074037D01*
X3661855D01*
X3659316Y2076576D01*
Y2086733D01*
X3674551Y2074037D02*
Y2076576D01*
X3677090D01*
Y2074037D01*
X3674551D01*
X3687247Y2076576D02*
X3689786Y2074037D01*
X3694864D01*
X3697403Y2076576D01*
Y2086733D01*
X3694864Y2089272D01*
X3689786D01*
X3687247Y2086733D01*
Y2084194D01*
X3689786Y2081655D01*
X3697403D01*
X3702482Y2074037D02*
Y2084194D01*
X3705021D01*
X3707560Y2081655D01*
Y2074037D01*
Y2081655D01*
X3710099Y2084194D01*
X3712639Y2081655D01*
Y2074037D01*
X3717717D02*
Y2084194D01*
X3720256D01*
X3722795Y2081655D01*
Y2074037D01*
Y2081655D01*
X3725334Y2084194D01*
X3727874Y2081655D01*
Y2074037D01*
X3837116D02*
Y2089272D01*
X3844733D01*
X3847272Y2086733D01*
Y2081655D01*
X3844733Y2079115D01*
X3837116D01*
X3852351Y2089272D02*
X3862508D01*
X3857429D01*
Y2074037D01*
X3867586Y2089272D02*
Y2074037D01*
Y2081655D01*
X3877743D01*
Y2089272D01*
Y2074037D01*
X3364673Y2043557D02*
Y2058792D01*
X3357056Y2051174D01*
X3367213D01*
X3481516Y2056253D02*
X3484055Y2058792D01*
X3489133D01*
X3491672Y2056253D01*
Y2053714D01*
X3489133Y2051174D01*
X3486594D01*
X3489133D01*
X3491672Y2048635D01*
Y2046096D01*
X3489133Y2043557D01*
X3484055D01*
X3481516Y2046096D01*
X3496751D02*
X3499290Y2043557D01*
X3504368D01*
X3506907Y2046096D01*
Y2056253D01*
X3504368Y2058792D01*
X3499290D01*
X3496751Y2056253D01*
Y2053714D01*
X3499290Y2051174D01*
X3506907D01*
X3511986Y2043557D02*
Y2046096D01*
X3514525D01*
Y2043557D01*
X3511986D01*
X3524682Y2056253D02*
X3527221Y2058792D01*
X3532299D01*
X3534839Y2056253D01*
Y2053714D01*
X3532299Y2051174D01*
X3529760D01*
X3532299D01*
X3534839Y2048635D01*
Y2046096D01*
X3532299Y2043557D01*
X3527221D01*
X3524682Y2046096D01*
X3539917Y2058792D02*
X3550074D01*
Y2056253D01*
X3539917Y2046096D01*
Y2043557D01*
X3555152D02*
Y2053714D01*
X3557691D01*
X3560230Y2051174D01*
Y2043557D01*
Y2051174D01*
X3562769Y2053714D01*
X3565309Y2051174D01*
Y2043557D01*
X3570387D02*
X3575465D01*
X3572926D01*
Y2053714D01*
X3570387D01*
X3583083Y2043557D02*
X3588161D01*
X3585622D01*
Y2058792D01*
X3583083D01*
X3659316Y2043557D02*
X3664394D01*
X3661855D01*
Y2058792D01*
X3659316Y2056253D01*
X3672012Y2043557D02*
Y2053714D01*
X3674551D01*
X3677090Y2051174D01*
Y2043557D01*
Y2051174D01*
X3679629Y2053714D01*
X3682168Y2051174D01*
Y2043557D01*
X3687247D02*
Y2053714D01*
X3689786D01*
X3692325Y2051174D01*
Y2043557D01*
Y2051174D01*
X3694864Y2053714D01*
X3697403Y2051174D01*
Y2043557D01*
X3837116D02*
Y2058792D01*
X3844733D01*
X3847272Y2056253D01*
Y2051174D01*
X3844733Y2048635D01*
X3837116D01*
X3852351Y2058792D02*
X3862508D01*
X3857429D01*
Y2043557D01*
X3867586Y2058792D02*
Y2043557D01*
Y2051174D01*
X3877743D01*
Y2058792D01*
Y2043557D01*
X3367213Y2013077D02*
X3357056D01*
X3367213Y2023234D01*
Y2025773D01*
X3364673Y2028312D01*
X3359595D01*
X3357056Y2025773D01*
X3481516Y2015616D02*
X3484055Y2013077D01*
X3489133D01*
X3491672Y2015616D01*
Y2025773D01*
X3489133Y2028312D01*
X3484055D01*
X3481516Y2025773D01*
Y2023234D01*
X3484055Y2020694D01*
X3491672D01*
X3504368Y2013077D02*
Y2028312D01*
X3496751Y2020694D01*
X3506907D01*
X3511986Y2013077D02*
Y2015616D01*
X3514525D01*
Y2013077D01*
X3511986D01*
X3532299D02*
Y2028312D01*
X3524682Y2020694D01*
X3534839D01*
X3539917Y2025773D02*
X3542456Y2028312D01*
X3547534D01*
X3550074Y2025773D01*
Y2023234D01*
X3547534Y2020694D01*
X3550074Y2018155D01*
Y2015616D01*
X3547534Y2013077D01*
X3542456D01*
X3539917Y2015616D01*
Y2018155D01*
X3542456Y2020694D01*
X3539917Y2023234D01*
Y2025773D01*
X3542456Y2020694D02*
X3547534D01*
X3555152Y2025773D02*
X3557691Y2028312D01*
X3562769D01*
X3565309Y2025773D01*
Y2023234D01*
X3562769Y2020694D01*
X3565309Y2018155D01*
Y2015616D01*
X3562769Y2013077D01*
X3557691D01*
X3555152Y2015616D01*
Y2018155D01*
X3557691Y2020694D01*
X3555152Y2023234D01*
Y2025773D01*
X3557691Y2020694D02*
X3562769D01*
X3570387Y2013077D02*
Y2023234D01*
X3572926D01*
X3575465Y2020694D01*
Y2013077D01*
Y2020694D01*
X3578004Y2023234D01*
X3580544Y2020694D01*
Y2013077D01*
X3585622D02*
X3590700D01*
X3588161D01*
Y2023234D01*
X3585622D01*
X3598318Y2013077D02*
X3603396D01*
X3600857D01*
Y2028312D01*
X3598318D01*
X3669472Y2013077D02*
X3659316D01*
X3669472Y2023234D01*
Y2025773D01*
X3666933Y2028312D01*
X3661855D01*
X3659316Y2025773D01*
X3674551Y2013077D02*
Y2015616D01*
X3677090D01*
Y2013077D01*
X3674551D01*
X3694864D02*
Y2028312D01*
X3687247Y2020694D01*
X3697403D01*
X3702482Y2013077D02*
Y2023234D01*
X3705021D01*
X3707560Y2020694D01*
Y2013077D01*
Y2020694D01*
X3710099Y2023234D01*
X3712639Y2020694D01*
Y2013077D01*
X3717717D02*
Y2023234D01*
X3720256D01*
X3722795Y2020694D01*
Y2013077D01*
Y2020694D01*
X3725334Y2023234D01*
X3727874Y2020694D01*
Y2013077D01*
X3837116D02*
Y2028312D01*
X3844733D01*
X3847272Y2025773D01*
Y2020694D01*
X3844733Y2018155D01*
X3837116D01*
X3852351Y2028312D02*
X3862508D01*
X3857429D01*
Y2013077D01*
X3867586Y2028312D02*
Y2013077D01*
Y2020694D01*
X3877743D01*
Y2028312D01*
Y2013077D01*
X3367213Y1997832D02*
X3362134Y1995293D01*
X3357056Y1990215D01*
Y1985136D01*
X3359595Y1982597D01*
X3364673D01*
X3367213Y1985136D01*
Y1987675D01*
X3364673Y1990215D01*
X3357056D01*
X3481516Y1985136D02*
X3484055Y1982597D01*
X3489133D01*
X3491672Y1985136D01*
Y1995293D01*
X3489133Y1997832D01*
X3484055D01*
X3481516Y1995293D01*
Y1992754D01*
X3484055Y1990215D01*
X3491672D01*
X3496751Y1995293D02*
X3499290Y1997832D01*
X3504368D01*
X3506907Y1995293D01*
Y1992754D01*
X3504368Y1990215D01*
X3506907Y1987675D01*
Y1985136D01*
X3504368Y1982597D01*
X3499290D01*
X3496751Y1985136D01*
Y1987675D01*
X3499290Y1990215D01*
X3496751Y1992754D01*
Y1995293D01*
X3499290Y1990215D02*
X3504368D01*
X3511986Y1982597D02*
Y1985136D01*
X3514525D01*
Y1982597D01*
X3511986D01*
X3532299D02*
Y1997832D01*
X3524682Y1990215D01*
X3534839D01*
X3550074Y1982597D02*
X3539917D01*
X3550074Y1992754D01*
Y1995293D01*
X3547534Y1997832D01*
X3542456D01*
X3539917Y1995293D01*
X3565309Y1997832D02*
X3555152D01*
Y1990215D01*
X3560230Y1992754D01*
X3562769D01*
X3565309Y1990215D01*
Y1985136D01*
X3562769Y1982597D01*
X3557691D01*
X3555152Y1985136D01*
X3570387Y1982597D02*
Y1992754D01*
X3572926D01*
X3575465Y1990215D01*
Y1982597D01*
Y1990215D01*
X3578004Y1992754D01*
X3580544Y1990215D01*
Y1982597D01*
X3585622D02*
X3590700D01*
X3588161D01*
Y1992754D01*
X3585622D01*
X3598318Y1982597D02*
X3603396D01*
X3600857D01*
Y1997832D01*
X3598318D01*
X3669472Y1982597D02*
X3659316D01*
X3669472Y1992754D01*
Y1995293D01*
X3666933Y1997832D01*
X3661855D01*
X3659316Y1995293D01*
X3674551Y1982597D02*
Y1985136D01*
X3677090D01*
Y1982597D01*
X3674551D01*
X3697403Y1997832D02*
X3687247D01*
Y1990215D01*
X3692325Y1992754D01*
X3694864D01*
X3697403Y1990215D01*
Y1985136D01*
X3694864Y1982597D01*
X3689786D01*
X3687247Y1985136D01*
X3702482Y1982597D02*
Y1992754D01*
X3705021D01*
X3707560Y1990215D01*
Y1982597D01*
Y1990215D01*
X3710099Y1992754D01*
X3712639Y1990215D01*
Y1982597D01*
X3717717D02*
Y1992754D01*
X3720256D01*
X3722795Y1990215D01*
Y1982597D01*
Y1990215D01*
X3725334Y1992754D01*
X3727874Y1990215D01*
Y1982597D01*
X3837116D02*
Y1997832D01*
X3847272Y1982597D01*
Y1997832D01*
X3852351Y1982597D02*
Y1997832D01*
X3859968D01*
X3862508Y1995293D01*
Y1990215D01*
X3859968Y1987675D01*
X3852351D01*
X3867586Y1997832D02*
X3877743D01*
X3872664D01*
Y1982597D01*
X3882821Y1997832D02*
Y1982597D01*
Y1990215D01*
X3892978D01*
Y1997832D01*
Y1982597D01*
X3357056Y1964813D02*
X3359595Y1967352D01*
X3364673D01*
X3367213Y1964813D01*
Y1962274D01*
X3364673Y1959734D01*
X3362134D01*
X3364673D01*
X3367213Y1957195D01*
Y1954656D01*
X3364673Y1952117D01*
X3359595D01*
X3357056Y1954656D01*
X3382448Y1952117D02*
X3372291D01*
X3382448Y1962274D01*
Y1964813D01*
X3379908Y1967352D01*
X3374830D01*
X3372291Y1964813D01*
X3397682Y1952117D02*
X3387526D01*
X3397682Y1962274D01*
Y1964813D01*
X3395143Y1967352D01*
X3390065D01*
X3387526Y1964813D01*
X3481516Y1967352D02*
X3491672D01*
X3486594D01*
Y1952117D01*
X3499290D02*
X3504368D01*
X3506907Y1954656D01*
Y1959734D01*
X3504368Y1962274D01*
X3499290D01*
X3496751Y1959734D01*
Y1954656D01*
X3499290Y1952117D01*
X3514525Y1964813D02*
Y1962274D01*
X3511986D01*
X3517064D01*
X3514525D01*
Y1954656D01*
X3517064Y1952117D01*
X3527221Y1962274D02*
X3532299D01*
X3534839Y1959734D01*
Y1952117D01*
X3527221D01*
X3524682Y1954656D01*
X3527221Y1957195D01*
X3534839D01*
X3539917Y1952117D02*
X3544995D01*
X3542456D01*
Y1967352D01*
X3539917D01*
D73*
X2637916Y2348357D02*
Y2358517D01*
X2648076D01*
Y2348357D01*
X2637916D01*
Y1992757D02*
Y2002917D01*
X2648076D01*
Y1992757D01*
X2637916D01*
Y2018157D02*
Y2028317D01*
X2648076D01*
Y2018157D01*
X2637916D01*
Y2043557D02*
Y2053717D01*
X2648076D01*
Y2043557D01*
X2637916D01*
Y2068957D02*
Y2079117D01*
X2648076D01*
Y2068957D01*
X2637916D01*
Y2094357D02*
Y2104517D01*
X2648076D01*
Y2094357D01*
X2637916D01*
Y2119757D02*
Y2129917D01*
X2648076D01*
Y2119757D01*
X2637916D01*
Y2145157D02*
Y2155317D01*
X2648076D01*
Y2145157D01*
X2637916D01*
Y2170557D02*
Y2180717D01*
X2648076D01*
Y2170557D01*
X2637916D01*
Y2195957D02*
Y2206117D01*
X2648076D01*
Y2195957D01*
X2637916D01*
Y2221357D02*
Y2231517D01*
X2648076D01*
Y2221357D01*
X2637916D01*
Y2246757D02*
Y2256917D01*
X2648076D01*
Y2246757D01*
X2637916D01*
Y2272157D02*
Y2282317D01*
X2648076D01*
Y2272157D01*
X2637916D01*
Y2297557D02*
Y2307717D01*
X2648076D01*
Y2297557D01*
X2637916D01*
Y2322957D02*
Y2333117D01*
X2648076D01*
Y2322957D01*
X2637916D01*
Y2373757D02*
Y2383917D01*
X2648076D01*
Y2373757D01*
X2637916D01*
Y2399157D02*
Y2409317D01*
X2648076D01*
Y2399157D01*
X2637916D01*
Y2424557D02*
Y2434717D01*
X2648076D01*
Y2424557D01*
X2637916D01*
Y2449957D02*
Y2460117D01*
X2648076D01*
Y2449957D01*
X2637916D01*
Y2475357D02*
Y2485517D01*
X2648076D01*
Y2475357D01*
X2637916D01*
X2790316D02*
Y2485517D01*
X2800476D01*
Y2475357D01*
X2790316D01*
Y2449957D02*
Y2460117D01*
X2800476D01*
Y2449957D01*
X2790316D01*
Y2424557D02*
Y2434717D01*
X2800476D01*
Y2424557D01*
X2790316D01*
Y2399157D02*
Y2409317D01*
X2800476D01*
Y2399157D01*
X2790316D01*
Y2373757D02*
Y2383917D01*
X2800476D01*
Y2373757D01*
X2790316D01*
Y2348357D02*
Y2358517D01*
X2800476D01*
Y2348357D01*
X2790316D01*
Y2322957D02*
Y2333117D01*
X2800476D01*
Y2322957D01*
X2790316D01*
Y2297557D02*
Y2307717D01*
X2800476D01*
Y2297557D01*
X2790316D01*
Y2272157D02*
Y2282317D01*
X2800476D01*
Y2272157D01*
X2790316D01*
Y2246757D02*
Y2256917D01*
X2800476D01*
Y2246757D01*
X2790316D01*
Y2221357D02*
Y2231517D01*
X2800476D01*
Y2221357D01*
X2790316D01*
Y2195957D02*
Y2206117D01*
X2800476D01*
Y2195957D01*
X2790316D01*
Y2170557D02*
Y2180717D01*
X2800476D01*
Y2170557D01*
X2790316D01*
Y2145157D02*
Y2155317D01*
X2800476D01*
Y2145157D01*
X2790316D01*
Y2119757D02*
Y2129917D01*
X2800476D01*
Y2119757D01*
X2790316D01*
Y2094357D02*
Y2104517D01*
X2800476D01*
Y2094357D01*
X2790316D01*
Y2068957D02*
Y2079117D01*
X2800476D01*
Y2068957D01*
X2790316D01*
Y2043557D02*
Y2053717D01*
X2800476D01*
Y2043557D01*
X2790316D01*
Y2018157D02*
Y2028317D01*
X2800476D01*
Y2018157D01*
X2790316D01*
Y1992757D02*
Y2002917D01*
X2800476D01*
Y1992757D01*
X2790316D01*
X2952876Y2515997D02*
X2947796Y2526157D01*
X2957956D01*
X2952876Y2515997D01*
X2978276D02*
X2973196Y2526157D01*
X2983356D01*
X2978276Y2515997D01*
X3003676D02*
X2998596Y2526157D01*
X3008756D01*
X3003676Y2515997D01*
X3029076D02*
X3023996Y2526157D01*
X3034156D01*
X3029076Y2515997D01*
X2927476D02*
X2922396Y2526157D01*
X2932556D01*
X2927476Y2515997D01*
X2373756Y2250437D02*
Y2260597D01*
X2383916D01*
Y2250437D01*
X2373756D01*
Y2225037D02*
Y2235197D01*
X2383916D01*
Y2225037D01*
X2373756D01*
Y2275837D02*
Y2285997D01*
X2383916D01*
Y2275837D01*
X2373756D01*
Y2326637D02*
Y2336797D01*
X2383916D01*
Y2326637D01*
X2373756D01*
Y2428237D02*
Y2438397D01*
X2383916D01*
Y2428237D01*
X2373756D01*
Y2402837D02*
Y2412997D01*
X2383916D01*
Y2402837D01*
X2373756D01*
Y2377437D02*
Y2387597D01*
X2383916D01*
Y2377437D01*
X2373756D01*
Y2301237D02*
Y2311397D01*
X2383916D01*
Y2301237D01*
X2373756D01*
Y2352037D02*
Y2362197D01*
X2383916D01*
Y2352037D01*
X2373756D01*
X2265866Y2034387D02*
X2268406Y2036927D01*
X2270946D01*
X2268406Y2039467D01*
X2270946Y2042007D01*
X2268406D01*
X2265866Y2044547D01*
X2263326Y2042007D01*
X2260786D01*
X2263326Y2039467D01*
X2260786Y2036927D01*
X2263326D01*
X2265866Y2034387D01*
X2284916Y2047087D02*
X2287456Y2049627D01*
X2289996D01*
X2287456Y2052167D01*
X2289996Y2054707D01*
X2287456D01*
X2284916Y2057247D01*
X2282376Y2054707D01*
X2279836D01*
X2282376Y2052167D01*
X2279836Y2049627D01*
X2282376D01*
X2284916Y2047087D01*
X2227766Y2034387D02*
X2230306Y2036927D01*
X2232846D01*
X2230306Y2039467D01*
X2232846Y2042007D01*
X2230306D01*
X2227766Y2044547D01*
X2225226Y2042007D01*
X2222686D01*
X2225226Y2039467D01*
X2222686Y2036927D01*
X2225226D01*
X2227766Y2034387D01*
X2246816Y2047087D02*
X2249356Y2049627D01*
X2251896D01*
X2249356Y2052167D01*
X2251896Y2054707D01*
X2249356D01*
X2246816Y2057247D01*
X2244276Y2054707D01*
X2241736D01*
X2244276Y2052167D01*
X2241736Y2049627D01*
X2244276D01*
X2246816Y2047087D01*
X2265866Y2059787D02*
X2268406Y2062327D01*
X2270946D01*
X2268406Y2064867D01*
X2270946Y2067407D01*
X2268406D01*
X2265866Y2069947D01*
X2263326Y2067407D01*
X2260786D01*
X2263326Y2064867D01*
X2260786Y2062327D01*
X2263326D01*
X2265866Y2059787D01*
X2284916Y2072487D02*
X2287456Y2075027D01*
X2289996D01*
X2287456Y2077567D01*
X2289996Y2080107D01*
X2287456D01*
X2284916Y2082647D01*
X2282376Y2080107D01*
X2279836D01*
X2282376Y2077567D01*
X2279836Y2075027D01*
X2282376D01*
X2284916Y2072487D01*
X2227766Y2059787D02*
X2230306Y2062327D01*
X2232846D01*
X2230306Y2064867D01*
X2232846Y2067407D01*
X2230306D01*
X2227766Y2069947D01*
X2225226Y2067407D01*
X2222686D01*
X2225226Y2064867D01*
X2222686Y2062327D01*
X2225226D01*
X2227766Y2059787D01*
X2246816Y2072487D02*
X2249356Y2075027D01*
X2251896D01*
X2249356Y2077567D01*
X2251896Y2080107D01*
X2249356D01*
X2246816Y2082647D01*
X2244276Y2080107D01*
X2241736D01*
X2244276Y2077567D01*
X2241736Y2075027D01*
X2244276D01*
X2246816Y2072487D01*
X2265866Y2085187D02*
X2268406Y2087727D01*
X2270946D01*
X2268406Y2090267D01*
X2270946Y2092807D01*
X2268406D01*
X2265866Y2095347D01*
X2263326Y2092807D01*
X2260786D01*
X2263326Y2090267D01*
X2260786Y2087727D01*
X2263326D01*
X2265866Y2085187D01*
X2284916Y2097887D02*
X2287456Y2100427D01*
X2289996D01*
X2287456Y2102967D01*
X2289996Y2105507D01*
X2287456D01*
X2284916Y2108047D01*
X2282376Y2105507D01*
X2279836D01*
X2282376Y2102967D01*
X2279836Y2100427D01*
X2282376D01*
X2284916Y2097887D01*
X2227766Y2085187D02*
X2230306Y2087727D01*
X2232846D01*
X2230306Y2090267D01*
X2232846Y2092807D01*
X2230306D01*
X2227766Y2095347D01*
X2225226Y2092807D01*
X2222686D01*
X2225226Y2090267D01*
X2222686Y2087727D01*
X2225226D01*
X2227766Y2085187D01*
X2246816Y2097887D02*
X2249356Y2100427D01*
X2251896D01*
X2249356Y2102967D01*
X2251896Y2105507D01*
X2249356D01*
X2246816Y2108047D01*
X2244276Y2105507D01*
X2241736D01*
X2244276Y2102967D01*
X2241736Y2100427D01*
X2244276D01*
X2246816Y2097887D01*
X2265866Y2110587D02*
X2268406Y2113127D01*
X2270946D01*
X2268406Y2115667D01*
X2270946Y2118207D01*
X2268406D01*
X2265866Y2120747D01*
X2263326Y2118207D01*
X2260786D01*
X2263326Y2115667D01*
X2260786Y2113127D01*
X2263326D01*
X2265866Y2110587D01*
X2284916Y2123287D02*
X2287456Y2125827D01*
X2289996D01*
X2287456Y2128367D01*
X2289996Y2130907D01*
X2287456D01*
X2284916Y2133447D01*
X2282376Y2130907D01*
X2279836D01*
X2282376Y2128367D01*
X2279836Y2125827D01*
X2282376D01*
X2284916Y2123287D01*
X2227766Y2110587D02*
X2230306Y2113127D01*
X2232846D01*
X2230306Y2115667D01*
X2232846Y2118207D01*
X2230306D01*
X2227766Y2120747D01*
X2225226Y2118207D01*
X2222686D01*
X2225226Y2115667D01*
X2222686Y2113127D01*
X2225226D01*
X2227766Y2110587D01*
X2246816Y2123287D02*
X2249356Y2125827D01*
X2251896D01*
X2249356Y2128367D01*
X2251896Y2130907D01*
X2249356D01*
X2246816Y2133447D01*
X2244276Y2130907D01*
X2241736D01*
X2244276Y2128367D01*
X2241736Y2125827D01*
X2244276D01*
X2246816Y2123287D01*
X2265866Y2135987D02*
X2268406Y2138527D01*
X2270946D01*
X2268406Y2141067D01*
X2270946Y2143607D01*
X2268406D01*
X2265866Y2146147D01*
X2263326Y2143607D01*
X2260786D01*
X2263326Y2141067D01*
X2260786Y2138527D01*
X2263326D01*
X2265866Y2135987D01*
X2284916Y2148687D02*
X2287456Y2151227D01*
X2289996D01*
X2287456Y2153767D01*
X2289996Y2156307D01*
X2287456D01*
X2284916Y2158847D01*
X2282376Y2156307D01*
X2279836D01*
X2282376Y2153767D01*
X2279836Y2151227D01*
X2282376D01*
X2284916Y2148687D01*
X2227766Y2135987D02*
X2230306Y2138527D01*
X2232846D01*
X2230306Y2141067D01*
X2232846Y2143607D01*
X2230306D01*
X2227766Y2146147D01*
X2225226Y2143607D01*
X2222686D01*
X2225226Y2141067D01*
X2222686Y2138527D01*
X2225226D01*
X2227766Y2135987D01*
X2246816Y2148687D02*
X2249356Y2151227D01*
X2251896D01*
X2249356Y2153767D01*
X2251896Y2156307D01*
X2249356D01*
X2246816Y2158847D01*
X2244276Y2156307D01*
X2241736D01*
X2244276Y2153767D01*
X2241736Y2151227D01*
X2244276D01*
X2246816Y2148687D01*
X2265866Y2161387D02*
X2268406Y2163927D01*
X2270946D01*
X2268406Y2166467D01*
X2270946Y2169007D01*
X2268406D01*
X2265866Y2171547D01*
X2263326Y2169007D01*
X2260786D01*
X2263326Y2166467D01*
X2260786Y2163927D01*
X2263326D01*
X2265866Y2161387D01*
X2284916Y2174087D02*
X2287456Y2176627D01*
X2289996D01*
X2287456Y2179167D01*
X2289996Y2181707D01*
X2287456D01*
X2284916Y2184247D01*
X2282376Y2181707D01*
X2279836D01*
X2282376Y2179167D01*
X2279836Y2176627D01*
X2282376D01*
X2284916Y2174087D01*
X2227766Y2161387D02*
X2230306Y2163927D01*
X2232846D01*
X2230306Y2166467D01*
X2232846Y2169007D01*
X2230306D01*
X2227766Y2171547D01*
X2225226Y2169007D01*
X2222686D01*
X2225226Y2166467D01*
X2222686Y2163927D01*
X2225226D01*
X2227766Y2161387D01*
X2246816Y2174087D02*
X2249356Y2176627D01*
X2251896D01*
X2249356Y2179167D01*
X2251896Y2181707D01*
X2249356D01*
X2246816Y2184247D01*
X2244276Y2181707D01*
X2241736D01*
X2244276Y2179167D01*
X2241736Y2176627D01*
X2244276D01*
X2246816Y2174087D01*
X2265866Y2186787D02*
X2268406Y2189327D01*
X2270946D01*
X2268406Y2191867D01*
X2270946Y2194407D01*
X2268406D01*
X2265866Y2196947D01*
X2263326Y2194407D01*
X2260786D01*
X2263326Y2191867D01*
X2260786Y2189327D01*
X2263326D01*
X2265866Y2186787D01*
X2284916Y2199487D02*
X2287456Y2202027D01*
X2289996D01*
X2287456Y2204567D01*
X2289996Y2207107D01*
X2287456D01*
X2284916Y2209647D01*
X2282376Y2207107D01*
X2279836D01*
X2282376Y2204567D01*
X2279836Y2202027D01*
X2282376D01*
X2284916Y2199487D01*
X2227766Y2186787D02*
X2230306Y2189327D01*
X2232846D01*
X2230306Y2191867D01*
X2232846Y2194407D01*
X2230306D01*
X2227766Y2196947D01*
X2225226Y2194407D01*
X2222686D01*
X2225226Y2191867D01*
X2222686Y2189327D01*
X2225226D01*
X2227766Y2186787D01*
X2246816Y2199487D02*
X2249356Y2202027D01*
X2251896D01*
X2249356Y2204567D01*
X2251896Y2207107D01*
X2249356D01*
X2246816Y2209647D01*
X2244276Y2207107D01*
X2241736D01*
X2244276Y2204567D01*
X2241736Y2202027D01*
X2244276D01*
X2246816Y2199487D01*
X2265866Y2212187D02*
X2268406Y2214727D01*
X2270946D01*
X2268406Y2217267D01*
X2270946Y2219807D01*
X2268406D01*
X2265866Y2222347D01*
X2263326Y2219807D01*
X2260786D01*
X2263326Y2217267D01*
X2260786Y2214727D01*
X2263326D01*
X2265866Y2212187D01*
X2284916Y2224887D02*
X2287456Y2227427D01*
X2289996D01*
X2287456Y2229967D01*
X2289996Y2232507D01*
X2287456D01*
X2284916Y2235047D01*
X2282376Y2232507D01*
X2279836D01*
X2282376Y2229967D01*
X2279836Y2227427D01*
X2282376D01*
X2284916Y2224887D01*
X2227766Y2212187D02*
X2230306Y2214727D01*
X2232846D01*
X2230306Y2217267D01*
X2232846Y2219807D01*
X2230306D01*
X2227766Y2222347D01*
X2225226Y2219807D01*
X2222686D01*
X2225226Y2217267D01*
X2222686Y2214727D01*
X2225226D01*
X2227766Y2212187D01*
X2246816Y2224887D02*
X2249356Y2227427D01*
X2251896D01*
X2249356Y2229967D01*
X2251896Y2232507D01*
X2249356D01*
X2246816Y2235047D01*
X2244276Y2232507D01*
X2241736D01*
X2244276Y2229967D01*
X2241736Y2227427D01*
X2244276D01*
X2246816Y2224887D01*
X2265866Y2237587D02*
X2268406Y2240127D01*
X2270946D01*
X2268406Y2242667D01*
X2270946Y2245207D01*
X2268406D01*
X2265866Y2247747D01*
X2263326Y2245207D01*
X2260786D01*
X2263326Y2242667D01*
X2260786Y2240127D01*
X2263326D01*
X2265866Y2237587D01*
X2284916Y2250287D02*
X2287456Y2252827D01*
X2289996D01*
X2287456Y2255367D01*
X2289996Y2257907D01*
X2287456D01*
X2284916Y2260447D01*
X2282376Y2257907D01*
X2279836D01*
X2282376Y2255367D01*
X2279836Y2252827D01*
X2282376D01*
X2284916Y2250287D01*
X2227766Y2237587D02*
X2230306Y2240127D01*
X2232846D01*
X2230306Y2242667D01*
X2232846Y2245207D01*
X2230306D01*
X2227766Y2247747D01*
X2225226Y2245207D01*
X2222686D01*
X2225226Y2242667D01*
X2222686Y2240127D01*
X2225226D01*
X2227766Y2237587D01*
X2246816Y2250287D02*
X2249356Y2252827D01*
X2251896D01*
X2249356Y2255367D01*
X2251896Y2257907D01*
X2249356D01*
X2246816Y2260447D01*
X2244276Y2257907D01*
X2241736D01*
X2244276Y2255367D01*
X2241736Y2252827D01*
X2244276D01*
X2246816Y2250287D01*
X2265866Y2262987D02*
X2268406Y2265527D01*
X2270946D01*
X2268406Y2268067D01*
X2270946Y2270607D01*
X2268406D01*
X2265866Y2273147D01*
X2263326Y2270607D01*
X2260786D01*
X2263326Y2268067D01*
X2260786Y2265527D01*
X2263326D01*
X2265866Y2262987D01*
X2284916Y2275687D02*
X2287456Y2278227D01*
X2289996D01*
X2287456Y2280767D01*
X2289996Y2283307D01*
X2287456D01*
X2284916Y2285847D01*
X2282376Y2283307D01*
X2279836D01*
X2282376Y2280767D01*
X2279836Y2278227D01*
X2282376D01*
X2284916Y2275687D01*
X2227766Y2262987D02*
X2230306Y2265527D01*
X2232846D01*
X2230306Y2268067D01*
X2232846Y2270607D01*
X2230306D01*
X2227766Y2273147D01*
X2225226Y2270607D01*
X2222686D01*
X2225226Y2268067D01*
X2222686Y2265527D01*
X2225226D01*
X2227766Y2262987D01*
X2246816Y2275687D02*
X2249356Y2278227D01*
X2251896D01*
X2249356Y2280767D01*
X2251896Y2283307D01*
X2249356D01*
X2246816Y2285847D01*
X2244276Y2283307D01*
X2241736D01*
X2244276Y2280767D01*
X2241736Y2278227D01*
X2244276D01*
X2246816Y2275687D01*
X2265866Y2288387D02*
X2268406Y2290927D01*
X2270946D01*
X2268406Y2293467D01*
X2270946Y2296007D01*
X2268406D01*
X2265866Y2298547D01*
X2263326Y2296007D01*
X2260786D01*
X2263326Y2293467D01*
X2260786Y2290927D01*
X2263326D01*
X2265866Y2288387D01*
X2284916Y2301087D02*
X2287456Y2303627D01*
X2289996D01*
X2287456Y2306167D01*
X2289996Y2308707D01*
X2287456D01*
X2284916Y2311247D01*
X2282376Y2308707D01*
X2279836D01*
X2282376Y2306167D01*
X2279836Y2303627D01*
X2282376D01*
X2284916Y2301087D01*
X2227766Y2288387D02*
X2230306Y2290927D01*
X2232846D01*
X2230306Y2293467D01*
X2232846Y2296007D01*
X2230306D01*
X2227766Y2298547D01*
X2225226Y2296007D01*
X2222686D01*
X2225226Y2293467D01*
X2222686Y2290927D01*
X2225226D01*
X2227766Y2288387D01*
X2246816Y2301087D02*
X2249356Y2303627D01*
X2251896D01*
X2249356Y2306167D01*
X2251896Y2308707D01*
X2249356D01*
X2246816Y2311247D01*
X2244276Y2308707D01*
X2241736D01*
X2244276Y2306167D01*
X2241736Y2303627D01*
X2244276D01*
X2246816Y2301087D01*
X2284916Y2326487D02*
X2287456Y2329027D01*
X2289996D01*
X2287456Y2331567D01*
X2289996Y2334107D01*
X2287456D01*
X2284916Y2336647D01*
X2282376Y2334107D01*
X2279836D01*
X2282376Y2331567D01*
X2279836Y2329027D01*
X2282376D01*
X2284916Y2326487D01*
X2227766Y2313787D02*
X2230306Y2316327D01*
X2232846D01*
X2230306Y2318867D01*
X2232846Y2321407D01*
X2230306D01*
X2227766Y2323947D01*
X2225226Y2321407D01*
X2222686D01*
X2225226Y2318867D01*
X2222686Y2316327D01*
X2225226D01*
X2227766Y2313787D01*
X2246816Y2326487D02*
X2249356Y2329027D01*
X2251896D01*
X2249356Y2331567D01*
X2251896Y2334107D01*
X2249356D01*
X2246816Y2336647D01*
X2244276Y2334107D01*
X2241736D01*
X2244276Y2331567D01*
X2241736Y2329027D01*
X2244276D01*
X2246816Y2326487D01*
X2265866Y2339187D02*
X2268406Y2341727D01*
X2270946D01*
X2268406Y2344267D01*
X2270946Y2346807D01*
X2268406D01*
X2265866Y2349347D01*
X2263326Y2346807D01*
X2260786D01*
X2263326Y2344267D01*
X2260786Y2341727D01*
X2263326D01*
X2265866Y2339187D01*
X2284916Y2351887D02*
X2287456Y2354427D01*
X2289996D01*
X2287456Y2356967D01*
X2289996Y2359507D01*
X2287456D01*
X2284916Y2362047D01*
X2282376Y2359507D01*
X2279836D01*
X2282376Y2356967D01*
X2279836Y2354427D01*
X2282376D01*
X2284916Y2351887D01*
X2227766Y2339187D02*
X2230306Y2341727D01*
X2232846D01*
X2230306Y2344267D01*
X2232846Y2346807D01*
X2230306D01*
X2227766Y2349347D01*
X2225226Y2346807D01*
X2222686D01*
X2225226Y2344267D01*
X2222686Y2341727D01*
X2225226D01*
X2227766Y2339187D01*
X2246816Y2351887D02*
X2249356Y2354427D01*
X2251896D01*
X2249356Y2356967D01*
X2251896Y2359507D01*
X2249356D01*
X2246816Y2362047D01*
X2244276Y2359507D01*
X2241736D01*
X2244276Y2356967D01*
X2241736Y2354427D01*
X2244276D01*
X2246816Y2351887D01*
X2265866Y2364587D02*
X2268406Y2367127D01*
X2270946D01*
X2268406Y2369667D01*
X2270946Y2372207D01*
X2268406D01*
X2265866Y2374747D01*
X2263326Y2372207D01*
X2260786D01*
X2263326Y2369667D01*
X2260786Y2367127D01*
X2263326D01*
X2265866Y2364587D01*
X2284916Y2377287D02*
X2287456Y2379827D01*
X2289996D01*
X2287456Y2382367D01*
X2289996Y2384907D01*
X2287456D01*
X2284916Y2387447D01*
X2282376Y2384907D01*
X2279836D01*
X2282376Y2382367D01*
X2279836Y2379827D01*
X2282376D01*
X2284916Y2377287D01*
X2227766Y2364587D02*
X2230306Y2367127D01*
X2232846D01*
X2230306Y2369667D01*
X2232846Y2372207D01*
X2230306D01*
X2227766Y2374747D01*
X2225226Y2372207D01*
X2222686D01*
X2225226Y2369667D01*
X2222686Y2367127D01*
X2225226D01*
X2227766Y2364587D01*
X2246816Y2377287D02*
X2249356Y2379827D01*
X2251896D01*
X2249356Y2382367D01*
X2251896Y2384907D01*
X2249356D01*
X2246816Y2387447D01*
X2244276Y2384907D01*
X2241736D01*
X2244276Y2382367D01*
X2241736Y2379827D01*
X2244276D01*
X2246816Y2377287D01*
X2265866Y2389987D02*
X2268406Y2392527D01*
X2270946D01*
X2268406Y2395067D01*
X2270946Y2397607D01*
X2268406D01*
X2265866Y2400147D01*
X2263326Y2397607D01*
X2260786D01*
X2263326Y2395067D01*
X2260786Y2392527D01*
X2263326D01*
X2265866Y2389987D01*
X2284916Y2402687D02*
X2287456Y2405227D01*
X2289996D01*
X2287456Y2407767D01*
X2289996Y2410307D01*
X2287456D01*
X2284916Y2412847D01*
X2282376Y2410307D01*
X2279836D01*
X2282376Y2407767D01*
X2279836Y2405227D01*
X2282376D01*
X2284916Y2402687D01*
X2246816D02*
X2249356Y2405227D01*
X2251896D01*
X2249356Y2407767D01*
X2251896Y2410307D01*
X2249356D01*
X2246816Y2412847D01*
X2244276Y2410307D01*
X2241736D01*
X2244276Y2407767D01*
X2241736Y2405227D01*
X2244276D01*
X2246816Y2402687D01*
X2265866Y2415387D02*
X2268406Y2417927D01*
X2270946D01*
X2268406Y2420467D01*
X2270946Y2423007D01*
X2268406D01*
X2265866Y2425547D01*
X2263326Y2423007D01*
X2260786D01*
X2263326Y2420467D01*
X2260786Y2417927D01*
X2263326D01*
X2265866Y2415387D01*
X2284916Y2428087D02*
X2287456Y2430627D01*
X2289996D01*
X2287456Y2433167D01*
X2289996Y2435707D01*
X2287456D01*
X2284916Y2438247D01*
X2282376Y2435707D01*
X2279836D01*
X2282376Y2433167D01*
X2279836Y2430627D01*
X2282376D01*
X2284916Y2428087D01*
X2227766Y2415387D02*
X2230306Y2417927D01*
X2232846D01*
X2230306Y2420467D01*
X2232846Y2423007D01*
X2230306D01*
X2227766Y2425547D01*
X2225226Y2423007D01*
X2222686D01*
X2225226Y2420467D01*
X2222686Y2417927D01*
X2225226D01*
X2227766Y2415387D01*
X2246816Y2428087D02*
X2249356Y2430627D01*
X2251896D01*
X2249356Y2433167D01*
X2251896Y2435707D01*
X2249356D01*
X2246816Y2438247D01*
X2244276Y2435707D01*
X2241736D01*
X2244276Y2433167D01*
X2241736Y2430627D01*
X2244276D01*
X2246816Y2428087D01*
X2265866Y2440787D02*
X2268406Y2443327D01*
X2270946D01*
X2268406Y2445867D01*
X2270946Y2448407D01*
X2268406D01*
X2265866Y2450947D01*
X2263326Y2448407D01*
X2260786D01*
X2263326Y2445867D01*
X2260786Y2443327D01*
X2263326D01*
X2265866Y2440787D01*
X2227766D02*
X2230306Y2443327D01*
X2232846D01*
X2230306Y2445867D01*
X2232846Y2448407D01*
X2230306D01*
X2227766Y2450947D01*
X2225226Y2448407D01*
X2222686D01*
X2225226Y2445867D01*
X2222686Y2443327D01*
X2225226D01*
X2227766Y2440787D01*
X2284916Y2021687D02*
X2287456Y2024227D01*
X2289996D01*
X2287456Y2026767D01*
X2289996Y2029307D01*
X2287456D01*
X2284916Y2031847D01*
X2282376Y2029307D01*
X2279836D01*
X2282376Y2026767D01*
X2279836Y2024227D01*
X2282376D01*
X2284916Y2021687D01*
X2246816D02*
X2249356Y2024227D01*
X2251896D01*
X2249356Y2026767D01*
X2251896Y2029307D01*
X2249356D01*
X2246816Y2031847D01*
X2244276Y2029307D01*
X2241736D01*
X2244276Y2026767D01*
X2241736Y2024227D01*
X2244276D01*
X2246816Y2021687D01*
X2265866Y2313787D02*
X2268406Y2316327D01*
X2270946D01*
X2268406Y2318867D01*
X2270946Y2321407D01*
X2268406D01*
X2265866Y2323947D01*
X2263326Y2321407D01*
X2260786D01*
X2263326Y2318867D01*
X2260786Y2316327D01*
X2263326D01*
X2265866Y2313787D01*
X2227766Y2389987D02*
X2230306Y2392527D01*
X2232846D01*
X2230306Y2395067D01*
X2232846Y2397607D01*
X2230306D01*
X2227766Y2400147D01*
X2225226Y2397607D01*
X2222686D01*
X2225226Y2395067D01*
X2222686Y2392527D01*
X2225226D01*
X2227766Y2389987D01*
X3148336Y2243737D02*
X3150876Y2248817D01*
X3148336Y2253897D01*
X3153416Y2251357D01*
X3158496Y2253897D01*
X3155956Y2248817D01*
X3158496Y2243737D01*
X3153416Y2246277D01*
X3148336Y2243737D01*
Y2218737D02*
X3150876Y2223817D01*
X3148336Y2228897D01*
X3153416Y2226357D01*
X3158496Y2228897D01*
X3155956Y2223817D01*
X3158496Y2218737D01*
X3153416Y2221277D01*
X3148336Y2218737D01*
X3128336Y2243737D02*
X3130876Y2248817D01*
X3128336Y2253897D01*
X3133416Y2251357D01*
X3138496Y2253897D01*
X3135956Y2248817D01*
X3138496Y2243737D01*
X3133416Y2246277D01*
X3128336Y2243737D01*
Y2218737D02*
X3130876Y2223817D01*
X3128336Y2228897D01*
X3133416Y2226357D01*
X3138496Y2228897D01*
X3135956Y2223817D01*
X3138496Y2218737D01*
X3133416Y2221277D01*
X3128336Y2218737D01*
X3177976Y2293977D02*
Y2291437D01*
X3183056D01*
Y2293977D01*
X3185596D01*
Y2299057D01*
X3183056D01*
Y2301597D01*
X3177976D01*
Y2299057D01*
X3175436D01*
Y2293977D01*
X3177976D01*
Y2173577D02*
Y2171037D01*
X3183056D01*
Y2173577D01*
X3185596D01*
Y2178657D01*
X3183056D01*
Y2181197D01*
X3177976D01*
Y2178657D01*
X3175436D01*
Y2173577D01*
X3177976D01*
X2970707Y2441109D02*
X2973247D01*
X2975787Y2443649D01*
X2978327Y2441109D01*
X2980867D01*
Y2443649D01*
X2978327Y2446189D01*
X2980867Y2448729D01*
Y2451269D01*
X2978327D01*
X2975787Y2448729D01*
X2973247Y2451269D01*
X2970707D01*
Y2448729D01*
X2973247Y2446189D01*
X2970707Y2443649D01*
Y2441109D01*
X2976978Y2383437D02*
X2979518D01*
X2982058Y2385977D01*
X2984598Y2383437D01*
X2987138D01*
Y2385977D01*
X2984598Y2388517D01*
X2987138Y2391057D01*
Y2393597D01*
X2984598D01*
X2982058Y2391057D01*
X2979518Y2393597D01*
X2976978D01*
Y2391057D01*
X2979518Y2388517D01*
X2976978Y2385977D01*
Y2383437D01*
X2975436Y2332091D02*
X2977976D01*
X2980516Y2334631D01*
X2983056Y2332091D01*
X2985596D01*
Y2334631D01*
X2983056Y2337171D01*
X2985596Y2339711D01*
Y2342251D01*
X2983056D01*
X2980516Y2339711D01*
X2977976Y2342251D01*
X2975436D01*
Y2339711D01*
X2977976Y2337171D01*
X2975436Y2334631D01*
Y2332091D01*
X3035501Y2386566D02*
X3038041D01*
X3040581Y2389106D01*
X3043122Y2386566D01*
X3045662D01*
Y2389106D01*
X3043122Y2391646D01*
X3045662Y2394186D01*
Y2396726D01*
X3043122D01*
X3040581Y2394186D01*
X3038041Y2396726D01*
X3035501D01*
Y2394186D01*
X3038041Y2391646D01*
X3035501Y2389106D01*
Y2386566D01*
X2942707Y2349753D02*
X2945247D01*
X2947787Y2352293D01*
X2950327Y2349753D01*
X2952867D01*
Y2352293D01*
X2950327Y2354833D01*
X2952867Y2357373D01*
Y2359913D01*
X2950327D01*
X2947787Y2357373D01*
X2945247Y2359913D01*
X2942707D01*
Y2357373D01*
X2945247Y2354833D01*
X2942707Y2352293D01*
Y2349753D01*
X2969916Y2207106D02*
X2972456D01*
X2974996Y2209646D01*
X2977536Y2207106D01*
X2980076D01*
Y2209646D01*
X2977536Y2212186D01*
X2980076Y2214726D01*
Y2217266D01*
X2977536D01*
X2974996Y2214726D01*
X2972456Y2217266D01*
X2969916D01*
Y2214726D01*
X2972456Y2212186D01*
X2969916Y2209646D01*
Y2207106D01*
X2897463Y2115865D02*
X2900003D01*
X2902543Y2118405D01*
X2905083Y2115865D01*
X2907623D01*
Y2118405D01*
X2905083Y2120945D01*
X2907623Y2123485D01*
Y2126025D01*
X2905083D01*
X2902543Y2123485D01*
X2900003Y2126025D01*
X2897463D01*
Y2123485D01*
X2900003Y2120945D01*
X2897463Y2118405D01*
Y2115865D01*
X2943927Y2243363D02*
X2946467D01*
X2949007Y2245903D01*
X2951547Y2243363D01*
X2954087D01*
Y2245903D01*
X2951547Y2248443D01*
X2954087Y2250983D01*
Y2253523D01*
X2951547D01*
X2949007Y2250983D01*
X2946467Y2253523D01*
X2943927D01*
Y2250983D01*
X2946467Y2248443D01*
X2943927Y2245903D01*
Y2243363D01*
X2897507Y2102945D02*
X2900047D01*
X2902587Y2105485D01*
X2905127Y2102945D01*
X2907667D01*
Y2105485D01*
X2905127Y2108025D01*
X2907667Y2110565D01*
Y2113105D01*
X2905127D01*
X2902587Y2110565D01*
X2900047Y2113105D01*
X2897507D01*
Y2110565D01*
X2900047Y2108025D01*
X2897507Y2105485D01*
Y2102945D01*
X3042749Y2231070D02*
X3045289D01*
X3047829Y2233610D01*
X3050369Y2231070D01*
X3052909D01*
Y2233610D01*
X3050369Y2236150D01*
X3052909Y2238690D01*
Y2241230D01*
X3050369D01*
X3047829Y2238690D01*
X3045289Y2241230D01*
X3042749D01*
Y2238690D01*
X3045289Y2236150D01*
X3042749Y2233610D01*
Y2231070D01*
X2892138Y2171724D02*
X2894679D01*
X2897219Y2174264D01*
X2899759Y2171724D01*
X2902299D01*
Y2174264D01*
X2899759Y2176804D01*
X2902299Y2179344D01*
Y2181884D01*
X2899759D01*
X2897219Y2179344D01*
X2894679Y2181884D01*
X2892138D01*
Y2179344D01*
X2894679Y2176804D01*
X2892138Y2174264D01*
Y2171724D01*
X2935788Y2007036D02*
X2938328D01*
X2940868Y2009576D01*
X2943408Y2007036D01*
X2945948D01*
Y2009576D01*
X2943408Y2012116D01*
X2945948Y2014656D01*
Y2017196D01*
X2943408D01*
X2940868Y2014656D01*
X2938328Y2017196D01*
X2935788D01*
Y2014656D01*
X2938328Y2012116D01*
X2935788Y2009576D01*
Y2007036D01*
X2593050Y1953019D02*
X2595590D01*
X2598130Y1955559D01*
X2600670Y1953019D01*
X2603210D01*
Y1955559D01*
X2600670Y1958099D01*
X2603210Y1960639D01*
Y1963179D01*
X2600670D01*
X2598130Y1960639D01*
X2595590Y1963179D01*
X2593050D01*
Y1960639D01*
X2595590Y1958099D01*
X2593050Y1955559D01*
Y1953019D01*
X2539711Y2070806D02*
X2542251D01*
X2544791Y2073346D01*
X2547331Y2070806D01*
X2549871D01*
Y2073346D01*
X2547331Y2075886D01*
X2549871Y2078426D01*
Y2080966D01*
X2547331D01*
X2544791Y2078426D01*
X2542251Y2080966D01*
X2539711D01*
Y2078426D01*
X2542251Y2075886D01*
X2539711Y2073346D01*
Y2070806D01*
X2920182Y2007036D02*
X2922722D01*
X2925262Y2009576D01*
X2927802Y2007036D01*
X2930342D01*
Y2009576D01*
X2927802Y2012116D01*
X2930342Y2014656D01*
Y2017196D01*
X2927802D01*
X2925262Y2014656D01*
X2922722Y2017196D01*
X2920182D01*
Y2014656D01*
X2922722Y2012116D01*
X2920182Y2009576D01*
Y2007036D01*
X2529735Y2238681D02*
X2532275D01*
X2534815Y2241221D01*
X2537355Y2238681D01*
X2539895D01*
Y2241221D01*
X2537355Y2243761D01*
X2539895Y2246301D01*
Y2248841D01*
X2537355D01*
X2534815Y2246301D01*
X2532275Y2248841D01*
X2529735D01*
Y2246301D01*
X2532275Y2243761D01*
X2529735Y2241221D01*
Y2238681D01*
X2845093Y1991869D02*
X2847633D01*
X2850173Y1994409D01*
X2852713Y1991869D01*
X2855253D01*
Y1994409D01*
X2852713Y1996949D01*
X2855253Y1999489D01*
Y2002029D01*
X2852713D01*
X2850173Y1999489D01*
X2847633Y2002029D01*
X2845093D01*
Y1999489D01*
X2847633Y1996949D01*
X2845093Y1994409D01*
Y1991869D01*
X2758809Y2480262D02*
X2761349D01*
X2763889Y2482802D01*
X2766429Y2480262D01*
X2768969D01*
Y2482802D01*
X2766429Y2485342D01*
X2768969Y2487882D01*
Y2490422D01*
X2766429D01*
X2763889Y2487882D01*
X2761349Y2490422D01*
X2758809D01*
Y2487882D01*
X2761349Y2485342D01*
X2758809Y2482802D01*
Y2480262D01*
X2710857Y2395258D02*
X2713397D01*
X2715937Y2397798D01*
X2718477Y2395258D01*
X2721017D01*
Y2397798D01*
X2718477Y2400338D01*
X2721017Y2402878D01*
Y2405418D01*
X2718477D01*
X2715937Y2402878D01*
X2713397Y2405418D01*
X2710857D01*
Y2402878D01*
X2713397Y2400338D01*
X2710857Y2397798D01*
Y2395258D01*
X2623618Y2378019D02*
X2626158D01*
X2628698Y2380559D01*
X2631238Y2378019D01*
X2633778D01*
Y2380559D01*
X2631238Y2383099D01*
X2633778Y2385639D01*
Y2388179D01*
X2631238D01*
X2628698Y2385639D01*
X2626158Y2388179D01*
X2623618D01*
Y2385639D01*
X2626158Y2383099D01*
X2623618Y2380559D01*
Y2378019D01*
X2702346Y2474905D02*
X2704886D01*
X2707426Y2477445D01*
X2709967Y2474905D01*
X2712507D01*
Y2477445D01*
X2709967Y2479985D01*
X2712507Y2482525D01*
Y2485065D01*
X2709967D01*
X2707426Y2482525D01*
X2704886Y2485065D01*
X2702346D01*
Y2482525D01*
X2704886Y2479985D01*
X2702346Y2477445D01*
Y2474905D01*
X2482937Y2067338D02*
X2485477D01*
X2488017Y2069878D01*
X2490557Y2067338D01*
X2493097D01*
Y2069878D01*
X2490557Y2072418D01*
X2493097Y2074958D01*
Y2077498D01*
X2490557D01*
X2488017Y2074958D01*
X2485477Y2077498D01*
X2482937D01*
Y2074958D01*
X2485477Y2072418D01*
X2482937Y2069878D01*
Y2067338D01*
X2456512Y2237506D02*
X2459052D01*
X2461592Y2240046D01*
X2464132Y2237506D01*
X2466672D01*
Y2240046D01*
X2464132Y2242586D01*
X2466672Y2245126D01*
Y2247666D01*
X2464132D01*
X2461592Y2245126D01*
X2459052Y2247666D01*
X2456512D01*
Y2245126D01*
X2459052Y2242586D01*
X2456512Y2240046D01*
Y2237506D01*
X2683636Y2383917D02*
X2686176D01*
X2688716Y2386457D01*
X2691256Y2383917D01*
X2693796D01*
Y2386457D01*
X2691256Y2388997D01*
X2693796Y2391537D01*
Y2394077D01*
X2691256D01*
X2688716Y2391537D01*
X2686176Y2394077D01*
X2683636D01*
Y2391537D01*
X2686176Y2388997D01*
X2683636Y2386457D01*
Y2383917D01*
X2926430Y1949098D02*
X2928970D01*
X2931510Y1951638D01*
X2934050Y1949098D01*
X2936590D01*
Y1951638D01*
X2934050Y1954178D01*
X2936590Y1956718D01*
Y1959258D01*
X2934050D01*
X2931510Y1956718D01*
X2928970Y1959258D01*
X2926430D01*
Y1956718D01*
X2928970Y1954178D01*
X2926430Y1951638D01*
Y1949098D01*
X2577365Y2107296D02*
X2579905D01*
X2582445Y2109836D01*
X2584985Y2107296D01*
X2587525D01*
Y2109836D01*
X2584985Y2112376D01*
X2587525Y2114916D01*
Y2117456D01*
X2584985D01*
X2582445Y2114916D01*
X2579905Y2117456D01*
X2577365D01*
Y2114916D01*
X2579905Y2112376D01*
X2577365Y2109836D01*
Y2107296D01*
X2607475Y2478593D02*
X2610015D01*
X2612555Y2481133D01*
X2615095Y2478593D01*
X2617635D01*
Y2481133D01*
X2615095Y2483673D01*
X2617635Y2486213D01*
Y2488753D01*
X2615095D01*
X2612555Y2486213D01*
X2610015Y2488753D01*
X2607475D01*
Y2486213D01*
X2610015Y2483673D01*
X2607475Y2481133D01*
Y2478593D01*
X2624349Y2394230D02*
X2626889D01*
X2629429Y2396770D01*
X2631969Y2394230D01*
X2634509D01*
Y2396770D01*
X2631969Y2399310D01*
X2634509Y2401850D01*
Y2404390D01*
X2631969D01*
X2629429Y2401850D01*
X2626889Y2404390D01*
X2624349D01*
Y2401850D01*
X2626889Y2399310D01*
X2624349Y2396770D01*
Y2394230D01*
X2652711Y2424366D02*
X2655251D01*
X2657791Y2426906D01*
X2660331Y2424366D01*
X2662871D01*
Y2426906D01*
X2660331Y2429447D01*
X2662871Y2431987D01*
Y2434527D01*
X2660331D01*
X2657791Y2431987D01*
X2655251Y2434527D01*
X2652711D01*
Y2431987D01*
X2655251Y2429447D01*
X2652711Y2426906D01*
Y2424366D01*
X2584576Y2460117D02*
X2587116D01*
X2589656Y2462657D01*
X2592196Y2460117D01*
X2594736D01*
Y2462657D01*
X2592196Y2465197D01*
X2594736Y2467737D01*
Y2470277D01*
X2592196D01*
X2589656Y2467737D01*
X2587116Y2470277D01*
X2584576D01*
Y2467737D01*
X2587116Y2465197D01*
X2584576Y2462657D01*
Y2460117D01*
X2721736Y2419477D02*
X2724276D01*
X2726816Y2422017D01*
X2729356Y2419477D01*
X2731896D01*
Y2422017D01*
X2729356Y2424557D01*
X2731896Y2427097D01*
Y2429637D01*
X2729356D01*
X2726816Y2427097D01*
X2724276Y2429637D01*
X2721736D01*
Y2427097D01*
X2724276Y2424557D01*
X2721736Y2422017D01*
Y2419477D01*
X2587116Y2401697D02*
X2589656D01*
X2592196Y2404237D01*
X2594736Y2401697D01*
X2597276D01*
Y2404237D01*
X2594736Y2406777D01*
X2597276Y2409317D01*
Y2411857D01*
X2594736D01*
X2592196Y2409317D01*
X2589656Y2411857D01*
X2587116D01*
Y2409317D01*
X2589656Y2406777D01*
X2587116Y2404237D01*
Y2401697D01*
X2551556Y2488057D02*
X2554096D01*
X2556636Y2490597D01*
X2559176Y2488057D01*
X2561716D01*
Y2490597D01*
X2559176Y2493137D01*
X2561716Y2495677D01*
Y2498217D01*
X2559176D01*
X2556636Y2495677D01*
X2554096Y2498217D01*
X2551556D01*
Y2495677D01*
X2554096Y2493137D01*
X2551556Y2490597D01*
Y2488057D01*
X2538856Y2462657D02*
X2541396D01*
X2543936Y2465197D01*
X2546476Y2462657D01*
X2549016D01*
Y2465197D01*
X2546476Y2467737D01*
X2549016Y2470277D01*
Y2472817D01*
X2546476D01*
X2543936Y2470277D01*
X2541396Y2472817D01*
X2538856D01*
Y2470277D01*
X2541396Y2467737D01*
X2538856Y2465197D01*
Y2462657D01*
X2658236Y2355977D02*
X2660776D01*
X2663316Y2358517D01*
X2665856Y2355977D01*
X2668396D01*
Y2358517D01*
X2665856Y2361057D01*
X2668396Y2363597D01*
Y2366137D01*
X2665856D01*
X2663316Y2363597D01*
X2660776Y2366137D01*
X2658236D01*
Y2363597D01*
X2660776Y2361057D01*
X2658236Y2358517D01*
Y2355977D01*
X2721736Y2406777D02*
X2724276D01*
X2726816Y2409317D01*
X2729356Y2406777D01*
X2731896D01*
Y2409317D01*
X2729356Y2411857D01*
X2731896Y2414397D01*
Y2416937D01*
X2729356D01*
X2726816Y2414397D01*
X2724276Y2416937D01*
X2721736D01*
Y2414397D01*
X2724276Y2411857D01*
X2721736Y2409317D01*
Y2406777D01*
X2945256Y2315337D02*
X2947796D01*
X2950336Y2317877D01*
X2952876Y2315337D01*
X2955416D01*
Y2317877D01*
X2952876Y2320417D01*
X2955416Y2322957D01*
Y2325497D01*
X2952876D01*
X2950336Y2322957D01*
X2947796Y2325497D01*
X2945256D01*
Y2322957D01*
X2947796Y2320417D01*
X2945256Y2317877D01*
Y2315337D01*
X2879508Y2344449D02*
X2882048D01*
X2884588Y2346989D01*
X2887128Y2344449D01*
X2889668D01*
Y2346989D01*
X2887128Y2349529D01*
X2889668Y2352069D01*
Y2354609D01*
X2887128D01*
X2884588Y2352069D01*
X2882048Y2354609D01*
X2879508D01*
Y2352069D01*
X2882048Y2349529D01*
X2879508Y2346989D01*
Y2344449D01*
X3054476Y2411857D02*
X3057016D01*
X3059556Y2414397D01*
X3062096Y2411857D01*
X3064636D01*
Y2414397D01*
X3062096Y2416937D01*
X3064636Y2419477D01*
Y2422017D01*
X3062096D01*
X3059556Y2419477D01*
X3057016Y2422017D01*
X3054476D01*
Y2419477D01*
X3057016Y2416937D01*
X3054476Y2414397D01*
Y2411857D01*
X3029076Y2427097D02*
X3031616D01*
X3034156Y2429637D01*
X3036696Y2427097D01*
X3039236D01*
Y2429637D01*
X3036696Y2432177D01*
X3039236Y2434717D01*
Y2437257D01*
X3036696D01*
X3034156Y2434717D01*
X3031616Y2437257D01*
X3029076D01*
Y2434717D01*
X3031616Y2432177D01*
X3029076Y2429637D01*
Y2427097D01*
X2538836Y2359482D02*
X2541376D01*
X2543916Y2362022D01*
X2546456Y2359482D01*
X2548996D01*
Y2362022D01*
X2546456Y2364562D01*
X2548996Y2367102D01*
Y2369642D01*
X2546456D01*
X2543916Y2367102D01*
X2541376Y2369642D01*
X2538836D01*
Y2367102D01*
X2541376Y2364562D01*
X2538836Y2362022D01*
Y2359482D01*
X2582036Y2363597D02*
X2584576D01*
X2587116Y2366137D01*
X2589656Y2363597D01*
X2592196D01*
Y2366137D01*
X2589656Y2368677D01*
X2592196Y2371217D01*
Y2373757D01*
X2589656D01*
X2587116Y2371217D01*
X2584576Y2373757D01*
X2582036D01*
Y2371217D01*
X2584576Y2368677D01*
X2582036Y2366137D01*
Y2363597D01*
X2655696Y2300097D02*
X2658236D01*
X2660776Y2302637D01*
X2663316Y2300097D01*
X2665856D01*
Y2302637D01*
X2663316Y2305177D01*
X2665856Y2307717D01*
Y2310257D01*
X2663316D01*
X2660776Y2307717D01*
X2658236Y2310257D01*
X2655696D01*
Y2307717D01*
X2658236Y2305177D01*
X2655696Y2302637D01*
Y2300097D01*
X2620136Y2317877D02*
X2622676D01*
X2625216Y2320417D01*
X2627756Y2317877D01*
X2630296D01*
Y2320417D01*
X2627756Y2322957D01*
X2630296Y2325497D01*
Y2328037D01*
X2627756D01*
X2625216Y2325497D01*
X2622676Y2328037D01*
X2620136D01*
Y2325497D01*
X2622676Y2322957D01*
X2620136Y2320417D01*
Y2317877D01*
X2528696Y2422017D02*
X2531236D01*
X2533776Y2424557D01*
X2536316Y2422017D01*
X2538856D01*
Y2424557D01*
X2536316Y2427097D01*
X2538856Y2429637D01*
Y2432177D01*
X2536316D01*
X2533776Y2429637D01*
X2531236Y2432177D01*
X2528696D01*
Y2429637D01*
X2531236Y2427097D01*
X2528696Y2424557D01*
Y2422017D01*
X2594736Y2475357D02*
X2597276D01*
X2599816Y2477897D01*
X2602356Y2475357D01*
X2604896D01*
Y2477897D01*
X2602356Y2480437D01*
X2604896Y2482977D01*
Y2485517D01*
X2602356D01*
X2599816Y2482977D01*
X2597276Y2485517D01*
X2594736D01*
Y2482977D01*
X2597276Y2480437D01*
X2594736Y2477897D01*
Y2475357D01*
X2609976Y2328037D02*
X2612516D01*
X2615056Y2330577D01*
X2617596Y2328037D01*
X2620136D01*
Y2330577D01*
X2617596Y2333117D01*
X2620136Y2335657D01*
Y2338197D01*
X2617596D01*
X2615056Y2335657D01*
X2612516Y2338197D01*
X2609976D01*
Y2335657D01*
X2612516Y2333117D01*
X2609976Y2330577D01*
Y2328037D01*
X2523616Y2307717D02*
X2526156D01*
X2528696Y2310257D01*
X2531236Y2307717D01*
X2533776D01*
Y2310257D01*
X2531236Y2312797D01*
X2533776Y2315337D01*
Y2317877D01*
X2531236D01*
X2528696Y2315337D01*
X2526156Y2317877D01*
X2523616D01*
Y2315337D01*
X2526156Y2312797D01*
X2523616Y2310257D01*
Y2307717D01*
X2457576Y2277237D02*
X2460116D01*
X2462656Y2279777D01*
X2465196Y2277237D01*
X2467736D01*
Y2279777D01*
X2465196Y2282317D01*
X2467736Y2284857D01*
Y2287397D01*
X2465196D01*
X2462656Y2284857D01*
X2460116Y2287397D01*
X2457576D01*
Y2284857D01*
X2460116Y2282317D01*
X2457576Y2279777D01*
Y2277237D01*
X2574416Y2355977D02*
X2576956D01*
X2579496Y2358517D01*
X2582036Y2355977D01*
X2584576D01*
Y2358517D01*
X2582036Y2361057D01*
X2584576Y2363597D01*
Y2366137D01*
X2582036D01*
X2579496Y2363597D01*
X2576956Y2366137D01*
X2574416D01*
Y2363597D01*
X2576956Y2361057D01*
X2574416Y2358517D01*
Y2355977D01*
X2566796Y2277237D02*
X2569336D01*
X2571876Y2279777D01*
X2574416Y2277237D01*
X2576956D01*
Y2279777D01*
X2574416Y2282317D01*
X2576956Y2284857D01*
Y2287397D01*
X2574416D01*
X2571876Y2284857D01*
X2569336Y2287397D01*
X2566796D01*
Y2284857D01*
X2569336Y2282317D01*
X2566796Y2279777D01*
Y2277237D01*
X2665856Y2272157D02*
X2668396D01*
X2670936Y2274697D01*
X2673476Y2272157D01*
X2676016D01*
Y2274697D01*
X2673476Y2277237D01*
X2676016Y2279777D01*
Y2282317D01*
X2673476D01*
X2670936Y2279777D01*
X2668396Y2282317D01*
X2665856D01*
Y2279777D01*
X2668396Y2277237D01*
X2665856Y2274697D01*
Y2272157D01*
X2467736Y2236597D02*
X2470276D01*
X2472816Y2239137D01*
X2475356Y2236597D01*
X2477896D01*
Y2239137D01*
X2475356Y2241677D01*
X2477896Y2244217D01*
Y2246757D01*
X2475356D01*
X2472816Y2244217D01*
X2470276Y2246757D01*
X2467736D01*
Y2244217D01*
X2470276Y2241677D01*
X2467736Y2239137D01*
Y2236597D01*
X2833496Y2437257D02*
X2836036D01*
X2838576Y2439797D01*
X2841116Y2437257D01*
X2843656D01*
Y2439797D01*
X2841116Y2442337D01*
X2843656Y2444877D01*
Y2447417D01*
X2841116D01*
X2838576Y2444877D01*
X2836036Y2447417D01*
X2833496D01*
Y2444877D01*
X2836036Y2442337D01*
X2833496Y2439797D01*
Y2437257D01*
X2957956Y2348357D02*
X2960496D01*
X2963036Y2350897D01*
X2965576Y2348357D01*
X2968116D01*
Y2350897D01*
X2965576Y2353437D01*
X2968116Y2355977D01*
Y2358517D01*
X2965576D01*
X2963036Y2355977D01*
X2960496Y2358517D01*
X2957956D01*
Y2355977D01*
X2960496Y2353437D01*
X2957956Y2350897D01*
Y2348357D01*
X3067176Y2292477D02*
X3069716D01*
X3072256Y2295017D01*
X3074796Y2292477D01*
X3077336D01*
Y2295017D01*
X3074796Y2297557D01*
X3077336Y2300097D01*
Y2302637D01*
X3074796D01*
X3072256Y2300097D01*
X3069716Y2302637D01*
X3067176D01*
Y2300097D01*
X3069716Y2297557D01*
X3067176Y2295017D01*
Y2292477D01*
X2975736Y2317877D02*
X2978276D01*
X2980816Y2320417D01*
X2983356Y2317877D01*
X2985896D01*
Y2320417D01*
X2983356Y2322957D01*
X2985896Y2325497D01*
Y2328037D01*
X2983356D01*
X2980816Y2325497D01*
X2978276Y2328037D01*
X2975736D01*
Y2325497D01*
X2978276Y2322957D01*
X2975736Y2320417D01*
Y2317877D01*
X3095116Y2409317D02*
X3097656D01*
X3100196Y2411857D01*
X3102736Y2409317D01*
X3105276D01*
Y2411857D01*
X3102736Y2414397D01*
X3105276Y2416937D01*
Y2419477D01*
X3102736D01*
X3100196Y2416937D01*
X3097656Y2419477D01*
X3095116D01*
Y2416937D01*
X3097656Y2414397D01*
X3095116Y2411857D01*
Y2409317D01*
X3107816Y2401697D02*
X3110356D01*
X3112896Y2404237D01*
X3115436Y2401697D01*
X3117976D01*
Y2404237D01*
X3115436Y2406777D01*
X3117976Y2409317D01*
Y2411857D01*
X3115436D01*
X3112896Y2409317D01*
X3110356Y2411857D01*
X3107816D01*
Y2409317D01*
X3110356Y2406777D01*
X3107816Y2404237D01*
Y2401697D01*
X2851276Y2096897D02*
X2853816D01*
X2856356Y2099437D01*
X2858896Y2096897D01*
X2861436D01*
Y2099437D01*
X2858896Y2101977D01*
X2861436Y2104517D01*
Y2107057D01*
X2858896D01*
X2856356Y2104517D01*
X2853816Y2107057D01*
X2851276D01*
Y2104517D01*
X2853816Y2101977D01*
X2851276Y2099437D01*
Y2096897D01*
X2996056Y2325497D02*
X2998596D01*
X3001136Y2328037D01*
X3003676Y2325497D01*
X3006216D01*
Y2328037D01*
X3003676Y2330577D01*
X3006216Y2333117D01*
Y2335657D01*
X3003676D01*
X3001136Y2333117D01*
X2998596Y2335657D01*
X2996056D01*
Y2333117D01*
X2998596Y2330577D01*
X2996056Y2328037D01*
Y2325497D01*
X2945256Y2414397D02*
X2947796D01*
X2950336Y2416937D01*
X2952876Y2414397D01*
X2955416D01*
Y2416937D01*
X2952876Y2419477D01*
X2955416Y2422017D01*
Y2424557D01*
X2952876D01*
X2950336Y2422017D01*
X2947796Y2424557D01*
X2945256D01*
Y2422017D01*
X2947796Y2419477D01*
X2945256Y2416937D01*
Y2414397D01*
X2485516Y2320417D02*
X2488056D01*
X2490596Y2322957D01*
X2493136Y2320417D01*
X2495676D01*
Y2322957D01*
X2493136Y2325497D01*
X2495676Y2328037D01*
Y2330577D01*
X2493136D01*
X2490596Y2328037D01*
X2488056Y2330577D01*
X2485516D01*
Y2328037D01*
X2488056Y2325497D01*
X2485516Y2322957D01*
Y2320417D01*
X2889376Y2183257D02*
X2891916D01*
X2894456Y2185797D01*
X2896996Y2183257D01*
X2899536D01*
Y2185797D01*
X2896996Y2188337D01*
X2899536Y2190877D01*
Y2193417D01*
X2896996D01*
X2894456Y2190877D01*
X2891916Y2193417D01*
X2889376D01*
Y2190877D01*
X2891916Y2188337D01*
X2889376Y2185797D01*
Y2183257D01*
X2927730Y2257171D02*
X2930270D01*
X2932810Y2259711D01*
X2935350Y2257171D01*
X2937890D01*
Y2259711D01*
X2935350Y2262251D01*
X2937890Y2264791D01*
Y2267331D01*
X2935350D01*
X2932810Y2264791D01*
X2930270Y2267331D01*
X2927730D01*
Y2264791D01*
X2930270Y2262251D01*
X2927730Y2259711D01*
Y2257171D01*
X2937636Y2046097D02*
X2940176D01*
X2942716Y2048637D01*
X2945256Y2046097D01*
X2947796D01*
Y2048637D01*
X2945256Y2051177D01*
X2947796Y2053717D01*
Y2056257D01*
X2945256D01*
X2942716Y2053717D01*
X2940176Y2056257D01*
X2937636D01*
Y2053717D01*
X2940176Y2051177D01*
X2937636Y2048637D01*
Y2046097D01*
X2866516Y2302637D02*
X2869056D01*
X2871596Y2305177D01*
X2874136Y2302637D01*
X2876676D01*
Y2305177D01*
X2874136Y2307717D01*
X2876676Y2310257D01*
Y2312797D01*
X2874136D01*
X2871596Y2310257D01*
X2869056Y2312797D01*
X2866516D01*
Y2310257D01*
X2869056Y2307717D01*
X2866516Y2305177D01*
Y2302637D01*
X2932556Y2422017D02*
X2935096D01*
X2937636Y2424557D01*
X2940176Y2422017D01*
X2942716D01*
Y2424557D01*
X2940176Y2427097D01*
X2942716Y2429637D01*
Y2432177D01*
X2940176D01*
X2937636Y2429637D01*
X2935096Y2432177D01*
X2932556D01*
Y2429637D01*
X2935096Y2427097D01*
X2932556Y2424557D01*
Y2422017D01*
X2937636Y2033397D02*
X2940176D01*
X2942716Y2035937D01*
X2945256Y2033397D01*
X2947796D01*
Y2035937D01*
X2945256Y2038477D01*
X2947796Y2041017D01*
Y2043557D01*
X2945256D01*
X2942716Y2041017D01*
X2940176Y2043557D01*
X2937636D01*
Y2041017D01*
X2940176Y2038477D01*
X2937636Y2035937D01*
Y2033397D01*
X2927476Y2086737D02*
X2930016D01*
X2932556Y2089277D01*
X2935096Y2086737D01*
X2937636D01*
Y2089277D01*
X2935096Y2091817D01*
X2937636Y2094357D01*
Y2096897D01*
X2935096D01*
X2932556Y2094357D01*
X2930016Y2096897D01*
X2927476D01*
Y2094357D01*
X2930016Y2091817D01*
X2927476Y2089277D01*
Y2086737D01*
Y2071497D02*
X2930016D01*
X2932556Y2074037D01*
X2935096Y2071497D01*
X2937636D01*
Y2074037D01*
X2935096Y2076577D01*
X2937636Y2079117D01*
Y2081657D01*
X2935096D01*
X2932556Y2079117D01*
X2930016Y2081657D01*
X2927476D01*
Y2079117D01*
X2930016Y2076577D01*
X2927476Y2074037D01*
Y2071497D01*
X2919602Y2348357D02*
X2922142D01*
X2924682Y2350897D01*
X2927222Y2348357D01*
X2929762D01*
Y2350897D01*
X2927222Y2353437D01*
X2929762Y2355977D01*
Y2358517D01*
X2927222D01*
X2924682Y2355977D01*
X2922142Y2358517D01*
X2919602D01*
Y2355977D01*
X2922142Y2353437D01*
X2919602Y2350897D01*
Y2348357D01*
X2937636Y2058797D02*
X2940176D01*
X2942716Y2061337D01*
X2945256Y2058797D01*
X2947796D01*
Y2061337D01*
X2945256Y2063877D01*
X2947796Y2066417D01*
Y2068957D01*
X2945256D01*
X2942716Y2066417D01*
X2940176Y2068957D01*
X2937636D01*
Y2066417D01*
X2940176Y2063877D01*
X2937636Y2061337D01*
Y2058797D01*
X2841116Y2084197D02*
X2843656D01*
X2846196Y2086737D01*
X2848736Y2084197D01*
X2851276D01*
Y2086737D01*
X2848736Y2089277D01*
X2851276Y2091817D01*
Y2094357D01*
X2848736D01*
X2846196Y2091817D01*
X2843656Y2094357D01*
X2841116D01*
Y2091817D01*
X2843656Y2089277D01*
X2841116Y2086737D01*
Y2084197D01*
X2911728Y2195957D02*
X2914268D01*
X2916808Y2198497D01*
X2919348Y2195957D01*
X2921888D01*
Y2198497D01*
X2919348Y2201037D01*
X2921888Y2203577D01*
Y2206117D01*
X2919348D01*
X2916808Y2203577D01*
X2914268Y2206117D01*
X2911728D01*
Y2203577D01*
X2914268Y2201037D01*
X2911728Y2198497D01*
Y2195957D01*
X2856356Y2386457D02*
X2858896D01*
X2861436Y2388997D01*
X2863976Y2386457D01*
X2866516D01*
Y2388997D01*
X2863976Y2391537D01*
X2866516Y2394077D01*
Y2396617D01*
X2863976D01*
X2861436Y2394077D01*
X2858896Y2396617D01*
X2856356D01*
Y2394077D01*
X2858896Y2391537D01*
X2856356Y2388997D01*
Y2386457D01*
X2764916Y2361057D02*
X2767456D01*
X2769996Y2363597D01*
X2772536Y2361057D01*
X2775076D01*
Y2363597D01*
X2772536Y2366137D01*
X2775076Y2368677D01*
Y2371217D01*
X2772536D01*
X2769996Y2368677D01*
X2767456Y2371217D01*
X2764916D01*
Y2368677D01*
X2767456Y2366137D01*
X2764916Y2363597D01*
Y2361057D01*
X2856356Y2447417D02*
X2858896D01*
X2861436Y2449957D01*
X2863976Y2447417D01*
X2866516D01*
Y2449957D01*
X2863976Y2452497D01*
X2866516Y2455037D01*
Y2457577D01*
X2863976D01*
X2861436Y2455037D01*
X2858896Y2457577D01*
X2856356D01*
Y2455037D01*
X2858896Y2452497D01*
X2856356Y2449957D01*
Y2447417D01*
X2355976Y2071497D02*
X2358516D01*
X2361056Y2074037D01*
X2363596Y2071497D01*
X2366136D01*
Y2074037D01*
X2363596Y2076577D01*
X2366136Y2079117D01*
Y2081657D01*
X2363596D01*
X2361056Y2079117D01*
X2358516Y2081657D01*
X2355976D01*
Y2079117D01*
X2358516Y2076577D01*
X2355976Y2074037D01*
Y2071497D01*
X2663316Y2419477D02*
X2665856D01*
X2668396Y2422017D01*
X2670936Y2419477D01*
X2673476D01*
Y2422017D01*
X2670936Y2424557D01*
X2673476Y2427097D01*
Y2429637D01*
X2670936D01*
X2668396Y2427097D01*
X2665856Y2429637D01*
X2663316D01*
Y2427097D01*
X2665856Y2424557D01*
X2663316Y2422017D01*
Y2419477D01*
X2617596Y2470277D02*
X2620136D01*
X2622676Y2472817D01*
X2625216Y2470277D01*
X2627756D01*
Y2472817D01*
X2625216Y2475357D01*
X2627756Y2477897D01*
Y2480437D01*
X2625216D01*
X2622676Y2477897D01*
X2620136Y2480437D01*
X2617596D01*
Y2477897D01*
X2620136Y2475357D01*
X2617596Y2472817D01*
Y2470277D01*
X2721736Y2444877D02*
X2724276D01*
X2726816Y2447417D01*
X2729356Y2444877D01*
X2731896D01*
Y2447417D01*
X2729356Y2449957D01*
X2731896Y2452497D01*
Y2455037D01*
X2729356D01*
X2726816Y2452497D01*
X2724276Y2455037D01*
X2721736D01*
Y2452497D01*
X2724276Y2449957D01*
X2721736Y2447417D01*
Y2444877D01*
X2587116Y2428237D02*
X2589656D01*
X2592196Y2430777D01*
X2594736Y2428237D01*
X2597276D01*
Y2430777D01*
X2594736Y2433317D01*
X2597276Y2435857D01*
Y2438397D01*
X2594736D01*
X2592196Y2435857D01*
X2589656Y2438397D01*
X2587116D01*
Y2435857D01*
X2589656Y2433317D01*
X2587116Y2430777D01*
Y2428237D01*
X2170556Y2023237D02*
X2173096D01*
X2175636Y2025777D01*
X2178176Y2023237D01*
X2180716D01*
Y2025777D01*
X2178176Y2028317D01*
X2180716Y2030857D01*
Y2033397D01*
X2178176D01*
X2175636Y2030857D01*
X2173096Y2033397D01*
X2170556D01*
Y2030857D01*
X2173096Y2028317D01*
X2170556Y2025777D01*
Y2023237D01*
X2622676Y2363597D02*
X2625216D01*
X2627756Y2366137D01*
X2630296Y2363597D01*
X2632836D01*
Y2366137D01*
X2630296Y2368677D01*
X2632836Y2371217D01*
Y2373757D01*
X2630296D01*
X2627756Y2371217D01*
X2625216Y2373757D01*
X2622676D01*
Y2371217D01*
X2625216Y2368677D01*
X2622676Y2366137D01*
Y2363597D01*
X2505836Y2312797D02*
X2508376D01*
X2510916Y2315337D01*
X2513456Y2312797D01*
X2515996D01*
Y2315337D01*
X2513456Y2317877D01*
X2515996Y2320417D01*
Y2322957D01*
X2513456D01*
X2510916Y2320417D01*
X2508376Y2322957D01*
X2505836D01*
Y2320417D01*
X2508376Y2317877D01*
X2505836Y2315337D01*
Y2312797D01*
X2663316Y2376297D02*
X2665856D01*
X2668396Y2378837D01*
X2670936Y2376297D01*
X2673476D01*
Y2378837D01*
X2670936Y2381377D01*
X2673476Y2383917D01*
Y2386457D01*
X2670936D01*
X2668396Y2383917D01*
X2665856Y2386457D01*
X2663316D01*
Y2383917D01*
X2665856Y2381377D01*
X2663316Y2378837D01*
Y2376297D01*
X2665856Y2322957D02*
X2668396D01*
X2670936Y2325497D01*
X2673476Y2322957D01*
X2676016D01*
Y2325497D01*
X2673476Y2328037D01*
X2676016Y2330577D01*
Y2333117D01*
X2673476D01*
X2670936Y2330577D01*
X2668396Y2333117D01*
X2665856D01*
Y2330577D01*
X2668396Y2328037D01*
X2665856Y2325497D01*
Y2322957D01*
X2244216Y1977517D02*
X2246756D01*
X2249296Y1980057D01*
X2251836Y1977517D01*
X2254376D01*
Y1980057D01*
X2251836Y1982597D01*
X2254376Y1985137D01*
Y1987677D01*
X2251836D01*
X2249296Y1985137D01*
X2246756Y1987677D01*
X2244216D01*
Y1985137D01*
X2246756Y1982597D01*
X2244216Y1980057D01*
Y1977517D01*
X2299836Y2007997D02*
X2302376D01*
X2304916Y2010537D01*
X2307456Y2007997D01*
X2309996D01*
Y2010537D01*
X2307456Y2013077D01*
X2309996Y2015617D01*
Y2018157D01*
X2307456D01*
X2304916Y2015617D01*
X2302376Y2018157D01*
X2299836D01*
Y2015617D01*
X2302376Y2013077D01*
X2299836Y2010537D01*
Y2007997D01*
X2447416Y2033397D02*
X2449956D01*
X2452496Y2035937D01*
X2455036Y2033397D01*
X2457576D01*
Y2035937D01*
X2455036Y2038477D01*
X2457576Y2041017D01*
Y2043557D01*
X2455036D01*
X2452496Y2041017D01*
X2449956Y2043557D01*
X2447416D01*
Y2041017D01*
X2449956Y2038477D01*
X2447416Y2035937D01*
Y2033397D01*
X2523616Y2178177D02*
X2526156D01*
X2528696Y2180717D01*
X2531236Y2178177D01*
X2533776D01*
Y2180717D01*
X2531236Y2183257D01*
X2533776Y2185797D01*
Y2188337D01*
X2531236D01*
X2528696Y2185797D01*
X2526156Y2188337D01*
X2523616D01*
Y2185797D01*
X2526156Y2183257D01*
X2523616Y2180717D01*
Y2178177D01*
Y1964817D02*
X2526156D01*
X2528696Y1967357D01*
X2531236Y1964817D01*
X2533776D01*
Y1967357D01*
X2531236Y1969897D01*
X2533776Y1972437D01*
Y1974977D01*
X2531236D01*
X2528696Y1972437D01*
X2526156Y1974977D01*
X2523616D01*
Y1972437D01*
X2526156Y1969897D01*
X2523616Y1967357D01*
Y1964817D01*
X2434716Y1954657D02*
X2437256D01*
X2439796Y1957197D01*
X2442336Y1954657D01*
X2444876D01*
Y1957197D01*
X2442336Y1959737D01*
X2444876Y1962277D01*
Y1964817D01*
X2442336D01*
X2439796Y1962277D01*
X2437256Y1964817D01*
X2434716D01*
Y1962277D01*
X2437256Y1959737D01*
X2434716Y1957197D01*
Y1954657D01*
X2366136Y2023237D02*
X2368676D01*
X2371216Y2025777D01*
X2373756Y2023237D01*
X2376296D01*
Y2025777D01*
X2373756Y2028317D01*
X2376296Y2030857D01*
Y2033397D01*
X2373756D01*
X2371216Y2030857D01*
X2368676Y2033397D01*
X2366136D01*
Y2030857D01*
X2368676Y2028317D01*
X2366136Y2025777D01*
Y2023237D01*
X2376296Y2046097D02*
X2378836D01*
X2381376Y2048637D01*
X2383916Y2046097D01*
X2386456D01*
Y2048637D01*
X2383916Y2051177D01*
X2386456Y2053717D01*
Y2056257D01*
X2383916D01*
X2381376Y2053717D01*
X2378836Y2056257D01*
X2376296D01*
Y2053717D01*
X2378836Y2051177D01*
X2376296Y2048637D01*
Y2046097D01*
X2366136Y1931797D02*
X2368676D01*
X2371216Y1934337D01*
X2373756Y1931797D01*
X2376296D01*
Y1934337D01*
X2373756Y1936877D01*
X2376296Y1939417D01*
Y1941957D01*
X2373756D01*
X2371216Y1939417D01*
X2368676Y1941957D01*
X2366136D01*
Y1939417D01*
X2368676Y1936877D01*
X2366136Y1934337D01*
Y1931797D01*
X2447416Y1939417D02*
X2449956D01*
X2452496Y1941957D01*
X2455036Y1939417D01*
X2457576D01*
Y1941957D01*
X2455036Y1944497D01*
X2457576Y1947037D01*
Y1949577D01*
X2455036D01*
X2452496Y1947037D01*
X2449956Y1949577D01*
X2447416D01*
Y1947037D01*
X2449956Y1944497D01*
X2447416Y1941957D01*
Y1939417D01*
X2523616Y2015617D02*
X2526156D01*
X2528696Y2018157D01*
X2531236Y2015617D01*
X2533776D01*
Y2018157D01*
X2531236Y2020697D01*
X2533776Y2023237D01*
Y2025777D01*
X2531236D01*
X2528696Y2023237D01*
X2526156Y2025777D01*
X2523616D01*
Y2023237D01*
X2526156Y2020697D01*
X2523616Y2018157D01*
Y2015617D01*
X2447416Y2058797D02*
X2449956D01*
X2452496Y2061337D01*
X2455036Y2058797D01*
X2457576D01*
Y2061337D01*
X2455036Y2063877D01*
X2457576Y2066417D01*
Y2068957D01*
X2455036D01*
X2452496Y2066417D01*
X2449956Y2068957D01*
X2447416D01*
Y2066417D01*
X2449956Y2063877D01*
X2447416Y2061337D01*
Y2058797D01*
X2475356Y2053717D02*
X2477896D01*
X2480436Y2056257D01*
X2482976Y2053717D01*
X2485516D01*
Y2056257D01*
X2482976Y2058797D01*
X2485516Y2061337D01*
Y2063877D01*
X2482976D01*
X2480436Y2061337D01*
X2477896Y2063877D01*
X2475356D01*
Y2061337D01*
X2477896Y2058797D01*
X2475356Y2056257D01*
Y2053717D01*
X2376296Y1947037D02*
X2378836D01*
X2381376Y1949577D01*
X2383916Y1947037D01*
X2386456D01*
Y1949577D01*
X2383916Y1952117D01*
X2386456Y1954657D01*
Y1957197D01*
X2383916D01*
X2381376Y1954657D01*
X2378836Y1957197D01*
X2376296D01*
Y1954657D01*
X2378836Y1952117D01*
X2376296Y1949577D01*
Y1947037D01*
X2523616Y2041017D02*
X2526156D01*
X2528696Y2043557D01*
X2531236Y2041017D01*
X2533776D01*
Y2043557D01*
X2531236Y2046097D01*
X2533776Y2048637D01*
Y2051177D01*
X2531236D01*
X2528696Y2048637D01*
X2526156Y2051177D01*
X2523616D01*
Y2048637D01*
X2526156Y2046097D01*
X2523616Y2043557D01*
Y2041017D01*
X3008756Y2068957D02*
X3011296D01*
X3013836Y2071497D01*
X3016376Y2068957D01*
X3018916D01*
Y2071497D01*
X3016376Y2074037D01*
X3018916Y2076577D01*
Y2079117D01*
X3016376D01*
X3013836Y2076577D01*
X3011296Y2079117D01*
X3008756D01*
Y2076577D01*
X3011296Y2074037D01*
X3008756Y2071497D01*
Y2068957D01*
X2932556Y2315337D02*
X2935096D01*
X2937636Y2317877D01*
X2940176Y2315337D01*
X2942716D01*
Y2317877D01*
X2940176Y2320417D01*
X2942716Y2322957D01*
Y2325497D01*
X2940176D01*
X2937636Y2322957D01*
X2935096Y2325497D01*
X2932556D01*
Y2322957D01*
X2935096Y2320417D01*
X2932556Y2317877D01*
Y2315337D01*
X2906681Y2207160D02*
X2909221D01*
X2911761Y2209700D01*
X2914301Y2207160D01*
X2916841D01*
Y2209700D01*
X2914301Y2212240D01*
X2916841Y2214780D01*
Y2217320D01*
X2914301D01*
X2911761Y2214780D01*
X2909221Y2217320D01*
X2906681D01*
Y2214780D01*
X2909221Y2212240D01*
X2906681Y2209700D01*
Y2207160D01*
X2462656Y1921637D02*
X2465196D01*
X2467736Y1924177D01*
X2470276Y1921637D01*
X2472816D01*
Y1924177D01*
X2470276Y1926717D01*
X2472816Y1929257D01*
Y1931797D01*
X2470276D01*
X2467736Y1929257D01*
X2465196Y1931797D01*
X2462656D01*
Y1929257D01*
X2465196Y1926717D01*
X2462656Y1924177D01*
Y1921637D01*
X2993836Y2174377D02*
X2996376D01*
X2998916Y2176917D01*
X3001456Y2174377D01*
X3003996D01*
Y2176917D01*
X3001456Y2179457D01*
X3003996Y2181997D01*
Y2184537D01*
X3001456D01*
X2998916Y2181997D01*
X2996376Y2184537D01*
X2993836D01*
Y2181997D01*
X2996376Y2179457D01*
X2993836Y2176917D01*
Y2174377D01*
X2620136Y2165477D02*
X2622676D01*
X2625216Y2168017D01*
X2627756Y2165477D01*
X2630296D01*
Y2168017D01*
X2627756Y2170557D01*
X2630296Y2173097D01*
Y2175637D01*
X2627756D01*
X2625216Y2173097D01*
X2622676Y2175637D01*
X2620136D01*
Y2173097D01*
X2622676Y2170557D01*
X2620136Y2168017D01*
Y2165477D01*
X2935604Y2274697D02*
X2938144D01*
X2940684Y2277237D01*
X2943224Y2274697D01*
X2945764D01*
Y2277237D01*
X2943224Y2279777D01*
X2945764Y2282317D01*
Y2284857D01*
X2943224D01*
X2940684Y2282317D01*
X2938144Y2284857D01*
X2935604D01*
Y2282317D01*
X2938144Y2279777D01*
X2935604Y2277237D01*
Y2274697D01*
X2620136Y2216277D02*
X2622676D01*
X2625216Y2218817D01*
X2627756Y2216277D01*
X2630296D01*
Y2218817D01*
X2627756Y2221357D01*
X2630296Y2223897D01*
Y2226437D01*
X2627756D01*
X2625216Y2223897D01*
X2622676Y2226437D01*
X2620136D01*
Y2223897D01*
X2622676Y2221357D01*
X2620136Y2218817D01*
Y2216277D01*
X2488056Y2152777D02*
X2490596D01*
X2493136Y2155317D01*
X2495676Y2152777D01*
X2498216D01*
Y2155317D01*
X2495676Y2157857D01*
X2498216Y2160397D01*
Y2162937D01*
X2495676D01*
X2493136Y2160397D01*
X2490596Y2162937D01*
X2488056D01*
Y2160397D01*
X2490596Y2157857D01*
X2488056Y2155317D01*
Y2152777D01*
X2582036Y2345817D02*
X2584576D01*
X2587116Y2348357D01*
X2589656Y2345817D01*
X2592196D01*
Y2348357D01*
X2589656Y2350897D01*
X2592196Y2353437D01*
Y2355977D01*
X2589656D01*
X2587116Y2353437D01*
X2584576Y2355977D01*
X2582036D01*
Y2353437D01*
X2584576Y2350897D01*
X2582036Y2348357D01*
Y2345817D01*
X2995685Y2305069D02*
X2998225D01*
X3000765Y2307609D01*
X3003305Y2305069D01*
X3005845D01*
Y2307609D01*
X3003305Y2310149D01*
X3005845Y2312689D01*
Y2315229D01*
X3003305D01*
X3000765Y2312689D01*
X2998225Y2315229D01*
X2995685D01*
Y2312689D01*
X2998225Y2310149D01*
X2995685Y2307609D01*
Y2305069D01*
X2838576Y2183257D02*
X2841116D01*
X2843656Y2185797D01*
X2846196Y2183257D01*
X2848736D01*
Y2185797D01*
X2846196Y2188337D01*
X2848736Y2190877D01*
Y2193417D01*
X2846196D01*
X2843656Y2190877D01*
X2841116Y2193417D01*
X2838576D01*
Y2190877D01*
X2841116Y2188337D01*
X2838576Y2185797D01*
Y2183257D01*
X2830956Y2206117D02*
X2833496D01*
X2836036Y2208657D01*
X2838576Y2206117D01*
X2841116D01*
Y2208657D01*
X2838576Y2211197D01*
X2841116Y2213737D01*
Y2216277D01*
X2838576D01*
X2836036Y2213737D01*
X2833496Y2216277D01*
X2830956D01*
Y2213737D01*
X2833496Y2211197D01*
X2830956Y2208657D01*
Y2206117D01*
X2462656Y2043557D02*
X2465196D01*
X2467736Y2046097D01*
X2470276Y2043557D01*
X2472816D01*
Y2046097D01*
X2470276Y2048637D01*
X2472816Y2051177D01*
Y2053717D01*
X2470276D01*
X2467736Y2051177D01*
X2465196Y2053717D01*
X2462656D01*
Y2051177D01*
X2465196Y2048637D01*
X2462656Y2046097D01*
Y2043557D01*
X2539836Y2376297D02*
X2542376D01*
X2544916Y2378837D01*
X2547456Y2376297D01*
X2549996D01*
Y2378837D01*
X2547456Y2381377D01*
X2549996Y2383917D01*
Y2386457D01*
X2547456D01*
X2544916Y2383917D01*
X2542376Y2386457D01*
X2539836D01*
Y2383917D01*
X2542376Y2381377D01*
X2539836Y2378837D01*
Y2376297D01*
X2967608Y2308225D02*
X2970148D01*
X2972688Y2310765D01*
X2975228Y2308225D01*
X2977768D01*
Y2310765D01*
X2975228Y2313305D01*
X2977768Y2315845D01*
Y2318385D01*
X2975228D01*
X2972688Y2315845D01*
X2970148Y2318385D01*
X2967608D01*
Y2315845D01*
X2970148Y2313305D01*
X2967608Y2310765D01*
Y2308225D01*
X2505836Y2493137D02*
X2508376D01*
X2510916Y2495677D01*
X2513456Y2493137D01*
X2515996D01*
Y2495677D01*
X2513456Y2498217D01*
X2515996Y2500757D01*
Y2503297D01*
X2513456D01*
X2510916Y2500757D01*
X2508376Y2503297D01*
X2505836D01*
Y2500757D01*
X2508376Y2498217D01*
X2505836Y2495677D01*
Y2493137D01*
X2541396Y2132457D02*
X2543936D01*
X2546476Y2134997D01*
X2549016Y2132457D01*
X2551556D01*
Y2134997D01*
X2549016Y2137537D01*
X2551556Y2140077D01*
Y2142617D01*
X2549016D01*
X2546476Y2140077D01*
X2543936Y2142617D01*
X2541396D01*
Y2140077D01*
X2543936Y2137537D01*
X2541396Y2134997D01*
Y2132457D01*
X2528696Y2145157D02*
X2531236D01*
X2533776Y2147697D01*
X2536316Y2145157D01*
X2538856D01*
Y2147697D01*
X2536316Y2150237D01*
X2538856Y2152777D01*
Y2155317D01*
X2536316D01*
X2533776Y2152777D01*
X2531236Y2155317D01*
X2528696D01*
Y2152777D01*
X2531236Y2150237D01*
X2528696Y2147697D01*
Y2145157D01*
X2721736Y2361057D02*
X2724276D01*
X2726816Y2363597D01*
X2729356Y2361057D01*
X2731896D01*
Y2363597D01*
X2729356Y2366137D01*
X2731896Y2368677D01*
Y2371217D01*
X2729356D01*
X2726816Y2368677D01*
X2724276Y2371217D01*
X2721736D01*
Y2368677D01*
X2724276Y2366137D01*
X2721736Y2363597D01*
Y2361057D01*
X2523616Y2228977D02*
X2526156D01*
X2528696Y2231517D01*
X2531236Y2228977D01*
X2533776D01*
Y2231517D01*
X2531236Y2234057D01*
X2533776Y2236597D01*
Y2239137D01*
X2531236D01*
X2528696Y2236597D01*
X2526156Y2239137D01*
X2523616D01*
Y2236597D01*
X2526156Y2234057D01*
X2523616Y2231517D01*
Y2228977D01*
X2447416Y2288387D02*
X2449956D01*
X2452496Y2290927D01*
X2455036Y2288387D01*
X2457576D01*
Y2290927D01*
X2455036Y2293467D01*
X2457576Y2296007D01*
Y2298547D01*
X2455036D01*
X2452496Y2296007D01*
X2449956Y2298547D01*
X2447416D01*
Y2296007D01*
X2449956Y2293467D01*
X2447416Y2290927D01*
Y2288387D01*
X2757296Y2322957D02*
X2759836D01*
X2762376Y2325497D01*
X2764916Y2322957D01*
X2767456D01*
Y2325497D01*
X2764916Y2328037D01*
X2767456Y2330577D01*
Y2333117D01*
X2764916D01*
X2762376Y2330577D01*
X2759836Y2333117D01*
X2757296D01*
Y2330577D01*
X2759836Y2328037D01*
X2757296Y2325497D01*
Y2322957D01*
X2576956Y2287397D02*
X2579496D01*
X2582036Y2289937D01*
X2584576Y2287397D01*
X2587116D01*
Y2289937D01*
X2584576Y2292477D01*
X2587116Y2295017D01*
Y2297557D01*
X2584576D01*
X2582036Y2295017D01*
X2579496Y2297557D01*
X2576956D01*
Y2295017D01*
X2579496Y2292477D01*
X2576956Y2289937D01*
Y2287397D01*
X2523616Y2203577D02*
X2526156D01*
X2528696Y2206117D01*
X2531236Y2203577D01*
X2533776D01*
Y2206117D01*
X2531236Y2208657D01*
X2533776Y2211197D01*
Y2213737D01*
X2531236D01*
X2528696Y2211197D01*
X2526156Y2213737D01*
X2523616D01*
Y2211197D01*
X2526156Y2208657D01*
X2523616Y2206117D01*
Y2203577D01*
Y1990217D02*
X2526156D01*
X2528696Y1992757D01*
X2531236Y1990217D01*
X2533776D01*
Y1992757D01*
X2531236Y1995297D01*
X2533776Y1997837D01*
Y2000377D01*
X2531236D01*
X2528696Y1997837D01*
X2526156Y2000377D01*
X2523616D01*
Y1997837D01*
X2526156Y1995297D01*
X2523616Y1992757D01*
Y1990217D01*
X2592196Y2277237D02*
X2594736D01*
X2597276Y2279777D01*
X2599816Y2277237D01*
X2602356D01*
Y2279777D01*
X2599816Y2282317D01*
X2602356Y2284857D01*
Y2287397D01*
X2599816D01*
X2597276Y2284857D01*
X2594736Y2287397D01*
X2592196D01*
Y2284857D01*
X2594736Y2282317D01*
X2592196Y2279777D01*
Y2277237D01*
X2383916Y2203577D02*
X2386456D01*
X2388996Y2206117D01*
X2391536Y2203577D01*
X2394076D01*
Y2206117D01*
X2391536Y2208657D01*
X2394076Y2211197D01*
Y2213737D01*
X2391536D01*
X2388996Y2211197D01*
X2386456Y2213737D01*
X2383916D01*
Y2211197D01*
X2386456Y2208657D01*
X2383916Y2206117D01*
Y2203577D01*
X2670936Y2259457D02*
X2673476D01*
X2676016Y2261997D01*
X2678556Y2259457D01*
X2681096D01*
Y2261997D01*
X2678556Y2264537D01*
X2681096Y2267077D01*
Y2269617D01*
X2678556D01*
X2676016Y2267077D01*
X2673476Y2269617D01*
X2670936D01*
Y2267077D01*
X2673476Y2264537D01*
X2670936Y2261997D01*
Y2259457D01*
X2486786Y2204847D02*
X2489326D01*
X2491866Y2207387D01*
X2494406Y2204847D01*
X2496946D01*
Y2207387D01*
X2494406Y2209927D01*
X2496946Y2212467D01*
Y2215007D01*
X2494406D01*
X2491866Y2212467D01*
X2489326Y2215007D01*
X2486786D01*
Y2212467D01*
X2489326Y2209927D01*
X2486786Y2207387D01*
Y2204847D01*
X2363596Y2203577D02*
X2366136D01*
X2368676Y2206117D01*
X2371216Y2203577D01*
X2373756D01*
Y2206117D01*
X2371216Y2208657D01*
X2373756Y2211197D01*
Y2213737D01*
X2371216D01*
X2368676Y2211197D01*
X2366136Y2213737D01*
X2363596D01*
Y2211197D01*
X2366136Y2208657D01*
X2363596Y2206117D01*
Y2203577D01*
X3097656Y2052897D02*
X3100196D01*
X3102736Y2055437D01*
X3105276Y2052897D01*
X3107816D01*
Y2055437D01*
X3105276Y2057977D01*
X3107816Y2060517D01*
Y2063057D01*
X3105276D01*
X3102736Y2060517D01*
X3100196Y2063057D01*
X3097656D01*
Y2060517D01*
X3100196Y2057977D01*
X3097656Y2055437D01*
Y2052897D01*
X3135756Y2033397D02*
X3138296D01*
X3140836Y2035937D01*
X3143376Y2033397D01*
X3145916D01*
Y2035937D01*
X3143376Y2038477D01*
X3145916Y2041017D01*
Y2043557D01*
X3143376D01*
X3140836Y2041017D01*
X3138296Y2043557D01*
X3135756D01*
Y2041017D01*
X3138296Y2038477D01*
X3135756Y2035937D01*
Y2033397D01*
X2637916Y2513457D02*
X2640456D01*
X2642996Y2515997D01*
X2645536Y2513457D01*
X2648076D01*
Y2515997D01*
X2645536Y2518537D01*
X2648076Y2521077D01*
Y2523617D01*
X2645536D01*
X2642996Y2521077D01*
X2640456Y2523617D01*
X2637916D01*
Y2521077D01*
X2640456Y2518537D01*
X2637916Y2515997D01*
Y2513457D01*
X2355976Y2094357D02*
X2358516D01*
X2361056Y2096897D01*
X2363596Y2094357D01*
X2366136D01*
Y2096897D01*
X2363596Y2099437D01*
X2366136Y2101977D01*
Y2104517D01*
X2363596D01*
X2361056Y2101977D01*
X2358516Y2104517D01*
X2355976D01*
Y2101977D01*
X2358516Y2099437D01*
X2355976Y2096897D01*
Y2094357D01*
X2373756Y2101977D02*
X2376296D01*
X2378836Y2104517D01*
X2381376Y2101977D01*
X2383916D01*
Y2104517D01*
X2381376Y2107057D01*
X2383916Y2109597D01*
Y2112137D01*
X2381376D01*
X2378836Y2109597D01*
X2376296Y2112137D01*
X2373756D01*
Y2109597D01*
X2376296Y2107057D01*
X2373756Y2104517D01*
Y2101977D01*
X3069565Y2387047D02*
X3072105D01*
X3074645Y2389587D01*
X3077185Y2387047D01*
X3079725D01*
Y2389587D01*
X3077185Y2392127D01*
X3079725Y2394667D01*
Y2397207D01*
X3077185D01*
X3074645Y2394667D01*
X3072105Y2397207D01*
X3069565D01*
Y2394667D01*
X3072105Y2392127D01*
X3069565Y2389587D01*
Y2387047D01*
X2467736Y2383917D02*
X2470276D01*
X2472816Y2386457D01*
X2475356Y2383917D01*
X2477896D01*
Y2386457D01*
X2475356Y2388997D01*
X2477896Y2391537D01*
Y2394077D01*
X2475356D01*
X2472816Y2391537D01*
X2470276Y2394077D01*
X2467736D01*
Y2391537D01*
X2470276Y2388997D01*
X2467736Y2386457D01*
Y2383917D01*
X3079876Y2079117D02*
X3082416D01*
X3084956Y2081657D01*
X3087496Y2079117D01*
X3090036D01*
Y2081657D01*
X3087496Y2084197D01*
X3090036Y2086737D01*
Y2089277D01*
X3087496D01*
X3084956Y2086737D01*
X3082416Y2089277D01*
X3079876D01*
Y2086737D01*
X3082416Y2084197D01*
X3079876Y2081657D01*
Y2079117D01*
X3105276D02*
X3107816D01*
X3110356Y2081657D01*
X3112896Y2079117D01*
X3115436D01*
Y2081657D01*
X3112896Y2084197D01*
X3115436Y2086737D01*
Y2089277D01*
X3112896D01*
X3110356Y2086737D01*
X3107816Y2089277D01*
X3105276D01*
Y2086737D01*
X3107816Y2084197D01*
X3105276Y2081657D01*
Y2079117D01*
X3046856Y2388997D02*
X3049396D01*
X3051936Y2391537D01*
X3054476Y2388997D01*
X3057016D01*
Y2391537D01*
X3054476Y2394077D01*
X3057016Y2396617D01*
Y2399157D01*
X3054476D01*
X3051936Y2396617D01*
X3049396Y2399157D01*
X3046856D01*
Y2396617D01*
X3049396Y2394077D01*
X3046856Y2391537D01*
Y2388997D01*
X2485516Y2174113D02*
X2488056D01*
X2490596Y2176653D01*
X2493136Y2174113D01*
X2495676D01*
Y2176653D01*
X2493136Y2179193D01*
X2495676Y2181733D01*
Y2184273D01*
X2493136D01*
X2490596Y2181733D01*
X2488056Y2184273D01*
X2485516D01*
Y2181733D01*
X2488056Y2179193D01*
X2485516Y2176653D01*
Y2174113D01*
X2482976Y2401697D02*
X2485516D01*
X2488056Y2404237D01*
X2490596Y2401697D01*
X2493136D01*
Y2404237D01*
X2490596Y2406777D01*
X2493136Y2409317D01*
Y2411857D01*
X2490596D01*
X2488056Y2409317D01*
X2485516Y2411857D01*
X2482976D01*
Y2409317D01*
X2485516Y2406777D01*
X2482976Y2404237D01*
Y2401697D01*
X2528696Y2449957D02*
X2531236D01*
X2533776Y2452497D01*
X2536316Y2449957D01*
X2538856D01*
Y2452497D01*
X2536316Y2455037D01*
X2538856Y2457577D01*
Y2460117D01*
X2536316D01*
X2533776Y2457577D01*
X2531236Y2460117D01*
X2528696D01*
Y2457577D01*
X2531236Y2455037D01*
X2528696Y2452497D01*
Y2449957D01*
X2547336Y2432177D02*
X2549876D01*
X2552416Y2434717D01*
X2554956Y2432177D01*
X2557496D01*
Y2434717D01*
X2554956Y2437257D01*
X2557496Y2439797D01*
Y2442337D01*
X2554956D01*
X2552416Y2439797D01*
X2549876Y2442337D01*
X2547336D01*
Y2439797D01*
X2549876Y2437257D01*
X2547336Y2434717D01*
Y2432177D01*
X2574416Y2467737D02*
X2576956D01*
X2579496Y2470277D01*
X2582036Y2467737D01*
X2584576D01*
Y2470277D01*
X2582036Y2472817D01*
X2584576Y2475357D01*
Y2477897D01*
X2582036D01*
X2579496Y2475357D01*
X2576956Y2477897D01*
X2574416D01*
Y2475357D01*
X2576956Y2472817D01*
X2574416Y2470277D01*
Y2467737D01*
X2488056Y2391537D02*
X2490596D01*
X2493136Y2394077D01*
X2495676Y2391537D01*
X2498216D01*
Y2394077D01*
X2495676Y2396617D01*
X2498216Y2399157D01*
Y2401697D01*
X2495676D01*
X2493136Y2399157D01*
X2490596Y2401697D01*
X2488056D01*
Y2399157D01*
X2490596Y2396617D01*
X2488056Y2394077D01*
Y2391537D01*
X2437256Y2363597D02*
X2439796D01*
X2442336Y2366137D01*
X2444876Y2363597D01*
X2447416D01*
Y2366137D01*
X2444876Y2368677D01*
X2447416Y2371217D01*
Y2373757D01*
X2444876D01*
X2442336Y2371217D01*
X2439796Y2373757D01*
X2437256D01*
Y2371217D01*
X2439796Y2368677D01*
X2437256Y2366137D01*
Y2363597D01*
X2996056Y2442337D02*
X2998596D01*
X3001136Y2444877D01*
X3003676Y2442337D01*
X3006216D01*
Y2444877D01*
X3003676Y2447417D01*
X3006216Y2449957D01*
Y2452497D01*
X3003676D01*
X3001136Y2449957D01*
X2998596Y2452497D01*
X2996056D01*
Y2449957D01*
X2998596Y2447417D01*
X2996056Y2444877D01*
Y2442337D01*
X2983356D02*
X2985896D01*
X2988436Y2444877D01*
X2990976Y2442337D01*
X2993516D01*
Y2444877D01*
X2990976Y2447417D01*
X2993516Y2449957D01*
Y2452497D01*
X2990976D01*
X2988436Y2449957D01*
X2985896Y2452497D01*
X2983356D01*
Y2449957D01*
X2985896Y2447417D01*
X2983356Y2444877D01*
Y2442337D01*
X2907156D02*
X2909696D01*
X2912236Y2444877D01*
X2914776Y2442337D01*
X2917316D01*
Y2444877D01*
X2914776Y2447417D01*
X2917316Y2449957D01*
Y2452497D01*
X2914776D01*
X2912236Y2449957D01*
X2909696Y2452497D01*
X2907156D01*
Y2449957D01*
X2909696Y2447417D01*
X2907156Y2444877D01*
Y2442337D01*
X3018916Y2427097D02*
X3021456D01*
X3023996Y2429637D01*
X3026536Y2427097D01*
X3029076D01*
Y2429637D01*
X3026536Y2432177D01*
X3029076Y2434717D01*
Y2437257D01*
X3026536D01*
X3023996Y2434717D01*
X3021456Y2437257D01*
X3018916D01*
Y2434717D01*
X3021456Y2432177D01*
X3018916Y2429637D01*
Y2427097D01*
X2782578Y2531015D02*
X2785118D01*
X2787658Y2533555D01*
X2790198Y2531015D01*
X2792738D01*
Y2533555D01*
X2790198Y2536095D01*
X2792738Y2538635D01*
Y2541175D01*
X2790198D01*
X2787658Y2538635D01*
X2785118Y2541175D01*
X2782578D01*
Y2538635D01*
X2785118Y2536095D01*
X2782578Y2533555D01*
Y2531015D01*
X3079876Y2312797D02*
X3082416D01*
X3084956Y2315337D01*
X3087496Y2312797D01*
X3090036D01*
Y2315337D01*
X3087496Y2317877D01*
X3090036Y2320417D01*
Y2322957D01*
X3087496D01*
X3084956Y2320417D01*
X3082416Y2322957D01*
X3079876D01*
Y2320417D01*
X3082416Y2317877D01*
X3079876Y2315337D01*
Y2312797D01*
X2848736Y2279777D02*
X2851276D01*
X2853816Y2282317D01*
X2856356Y2279777D01*
X2858896D01*
Y2282317D01*
X2856356Y2284857D01*
X2858896Y2287397D01*
Y2289937D01*
X2856356D01*
X2853816Y2287397D01*
X2851276Y2289937D01*
X2848736D01*
Y2287397D01*
X2851276Y2284857D01*
X2848736Y2282317D01*
Y2279777D01*
X2490596Y2096897D02*
X2493136D01*
X2495676Y2099437D01*
X2498216Y2096897D01*
X2500756D01*
Y2099437D01*
X2498216Y2101977D01*
X2500756Y2104517D01*
Y2107057D01*
X2498216D01*
X2495676Y2104517D01*
X2493136Y2107057D01*
X2490596D01*
Y2104517D01*
X2493136Y2101977D01*
X2490596Y2099437D01*
Y2096897D01*
X2980816Y2218817D02*
X2983356D01*
X2985896Y2221357D01*
X2988436Y2218817D01*
X2990976D01*
Y2221357D01*
X2988436Y2223897D01*
X2990976Y2226437D01*
Y2228977D01*
X2988436D01*
X2985896Y2226437D01*
X2983356Y2228977D01*
X2980816D01*
Y2226437D01*
X2983356Y2223897D01*
X2980816Y2221357D01*
Y2218817D01*
X3026536Y2089277D02*
X3029076D01*
X3031616Y2091817D01*
X3034156Y2089277D01*
X3036696D01*
Y2091817D01*
X3034156Y2094357D01*
X3036696Y2096897D01*
Y2099437D01*
X3034156D01*
X3031616Y2096897D01*
X3029076Y2099437D01*
X3026536D01*
Y2096897D01*
X3029076Y2094357D01*
X3026536Y2091817D01*
Y2089277D01*
X2891368Y2319553D02*
X2893908D01*
X2896448Y2322093D01*
X2898988Y2319553D01*
X2901528D01*
Y2322093D01*
X2898988Y2324633D01*
X2901528Y2327173D01*
Y2329713D01*
X2898988D01*
X2896448Y2327173D01*
X2893908Y2329713D01*
X2891368D01*
Y2327173D01*
X2893908Y2324633D01*
X2891368Y2322093D01*
Y2319553D01*
X2973196Y2256917D02*
X2975736D01*
X2978276Y2259457D01*
X2980816Y2256917D01*
X2983356D01*
Y2259457D01*
X2980816Y2261997D01*
X2983356Y2264537D01*
Y2267077D01*
X2980816D01*
X2978276Y2264537D01*
X2975736Y2267077D01*
X2973196D01*
Y2264537D01*
X2975736Y2261997D01*
X2973196Y2259457D01*
Y2256917D01*
X2549016Y2399157D02*
X2551556D01*
X2554096Y2401697D01*
X2556636Y2399157D01*
X2559176D01*
Y2401697D01*
X2556636Y2404237D01*
X2559176Y2406777D01*
Y2409317D01*
X2556636D01*
X2554096Y2406777D01*
X2551556Y2409317D01*
X2549016D01*
Y2406777D01*
X2551556Y2404237D01*
X2549016Y2401697D01*
Y2399157D01*
X2602356Y2142617D02*
X2604896D01*
X2607436Y2145157D01*
X2609976Y2142617D01*
X2612516D01*
Y2145157D01*
X2609976Y2147697D01*
X2612516Y2150237D01*
Y2152777D01*
X2609976D01*
X2607436Y2150237D01*
X2604896Y2152777D01*
X2602356D01*
Y2150237D01*
X2604896Y2147697D01*
X2602356Y2145157D01*
Y2142617D01*
X2942716Y2261997D02*
X2945256D01*
X2947796Y2264537D01*
X2950336Y2261997D01*
X2952876D01*
Y2264537D01*
X2950336Y2267077D01*
X2952876Y2269617D01*
Y2272157D01*
X2950336D01*
X2947796Y2269617D01*
X2945256Y2272157D01*
X2942716D01*
Y2269617D01*
X2945256Y2267077D01*
X2942716Y2264537D01*
Y2261997D01*
X2841116Y2134997D02*
X2843656D01*
X2846196Y2137537D01*
X2848736Y2134997D01*
X2851276D01*
Y2137537D01*
X2848736Y2140077D01*
X2851276Y2142617D01*
Y2145157D01*
X2848736D01*
X2846196Y2142617D01*
X2843656Y2145157D01*
X2841116D01*
Y2142617D01*
X2843656Y2140077D01*
X2841116Y2137537D01*
Y2134997D01*
X2894456Y2160397D02*
X2896996D01*
X2899536Y2162937D01*
X2902076Y2160397D01*
X2904616D01*
Y2162937D01*
X2902076Y2165477D01*
X2904616Y2168017D01*
Y2170557D01*
X2902076D01*
X2899536Y2168017D01*
X2896996Y2170557D01*
X2894456D01*
Y2168017D01*
X2896996Y2165477D01*
X2894456Y2162937D01*
Y2160397D01*
X2851276Y2142617D02*
X2853816D01*
X2856356Y2145157D01*
X2858896Y2142617D01*
X2861436D01*
Y2145157D01*
X2858896Y2147697D01*
X2861436Y2150237D01*
Y2152777D01*
X2858896D01*
X2856356Y2150237D01*
X2853816Y2152777D01*
X2851276D01*
Y2150237D01*
X2853816Y2147697D01*
X2851276Y2145157D01*
Y2142617D01*
X2869056Y2227707D02*
X2871596D01*
X2874136Y2230247D01*
X2876676Y2227707D01*
X2879216D01*
Y2230247D01*
X2876676Y2232787D01*
X2879216Y2235327D01*
Y2237867D01*
X2876676D01*
X2874136Y2235327D01*
X2871596Y2237867D01*
X2869056D01*
Y2235327D01*
X2871596Y2232787D01*
X2869056Y2230247D01*
Y2227707D01*
Y2243455D02*
X2871596D01*
X2874136Y2245995D01*
X2876676Y2243455D01*
X2879216D01*
Y2245995D01*
X2876676Y2248535D01*
X2879216Y2251075D01*
Y2253615D01*
X2876676D01*
X2874136Y2251075D01*
X2871596Y2253615D01*
X2869056D01*
Y2251075D01*
X2871596Y2248535D01*
X2869056Y2245995D01*
Y2243455D01*
X2988436Y2084197D02*
X2990976D01*
X2993516Y2086737D01*
X2996056Y2084197D01*
X2998596D01*
Y2086737D01*
X2996056Y2089277D01*
X2998596Y2091817D01*
Y2094357D01*
X2996056D01*
X2993516Y2091817D01*
X2990976Y2094357D01*
X2988436D01*
Y2091817D01*
X2990976Y2089277D01*
X2988436Y2086737D01*
Y2084197D01*
X3039236Y2427097D02*
X3041776D01*
X3044316Y2429637D01*
X3046856Y2427097D01*
X3049396D01*
Y2429637D01*
X3046856Y2432177D01*
X3049396Y2434717D01*
Y2437257D01*
X3046856D01*
X3044316Y2434717D01*
X3041776Y2437257D01*
X3039236D01*
Y2434717D01*
X3041776Y2432177D01*
X3039236Y2429637D01*
Y2427097D01*
X3006216Y2000377D02*
X3008756D01*
X3011296Y2002917D01*
X3013836Y2000377D01*
X3016376D01*
Y2002917D01*
X3013836Y2005457D01*
X3016376Y2007997D01*
Y2010537D01*
X3013836D01*
X3011296Y2007997D01*
X3008756Y2010537D01*
X3006216D01*
Y2007997D01*
X3008756Y2005457D01*
X3006216Y2002917D01*
Y2000377D01*
X2998596Y2076577D02*
X3001136D01*
X3003676Y2079117D01*
X3006216Y2076577D01*
X3008756D01*
Y2079117D01*
X3006216Y2081657D01*
X3008756Y2084197D01*
Y2086737D01*
X3006216D01*
X3003676Y2084197D01*
X3001136Y2086737D01*
X2998596D01*
Y2084197D01*
X3001136Y2081657D01*
X2998596Y2079117D01*
Y2076577D01*
X2985896Y2109597D02*
X2988436D01*
X2990976Y2112137D01*
X2993516Y2109597D01*
X2996056D01*
Y2112137D01*
X2993516Y2114677D01*
X2996056Y2117217D01*
Y2119757D01*
X2993516D01*
X2990976Y2117217D01*
X2988436Y2119757D01*
X2985896D01*
Y2117217D01*
X2988436Y2114677D01*
X2985896Y2112137D01*
Y2109597D01*
X2904616Y2267585D02*
X2907156D01*
X2909696Y2270125D01*
X2912236Y2267585D01*
X2914776D01*
Y2270125D01*
X2912236Y2272665D01*
X2914776Y2275205D01*
Y2277745D01*
X2912236D01*
X2909696Y2275205D01*
X2907156Y2277745D01*
X2904616D01*
Y2275205D01*
X2907156Y2272665D01*
X2904616Y2270125D01*
Y2267585D01*
X2940176Y2155317D02*
X2942716D01*
X2945256Y2157857D01*
X2947796Y2155317D01*
X2950336D01*
Y2157857D01*
X2947796Y2160397D01*
X2950336Y2162937D01*
Y2165477D01*
X2947796D01*
X2945256Y2162937D01*
X2942716Y2165477D01*
X2940176D01*
Y2162937D01*
X2942716Y2160397D01*
X2940176Y2157857D01*
Y2155317D01*
X2947796Y2142617D02*
X2950336D01*
X2952876Y2145157D01*
X2955416Y2142617D01*
X2957956D01*
Y2145157D01*
X2955416Y2147697D01*
X2957956Y2150237D01*
Y2152777D01*
X2955416D01*
X2952876Y2150237D01*
X2950336Y2152777D01*
X2947796D01*
Y2150237D01*
X2950336Y2147697D01*
X2947796Y2145157D01*
Y2142617D01*
X2538856Y2162937D02*
X2541396D01*
X2543936Y2165477D01*
X2546476Y2162937D01*
X2549016D01*
Y2165477D01*
X2546476Y2168017D01*
X2549016Y2170557D01*
Y2173097D01*
X2546476D01*
X2543936Y2170557D01*
X2541396Y2173097D01*
X2538856D01*
Y2170557D01*
X2541396Y2168017D01*
X2538856Y2165477D01*
Y2162937D01*
X3047836Y2314237D02*
X3050376D01*
X3052916Y2316777D01*
X3055456Y2314237D01*
X3057996D01*
Y2316777D01*
X3055456Y2319317D01*
X3057996Y2321857D01*
Y2324397D01*
X3055456D01*
X3052916Y2321857D01*
X3050376Y2324397D01*
X3047836D01*
Y2321857D01*
X3050376Y2319317D01*
X3047836Y2316777D01*
Y2314237D01*
X2659836Y2457237D02*
X2662376D01*
X2664916Y2459777D01*
X2667456Y2457237D01*
X2669996D01*
Y2459777D01*
X2667456Y2462317D01*
X2669996Y2464857D01*
Y2467397D01*
X2667456D01*
X2664916Y2464857D01*
X2662376Y2467397D01*
X2659836D01*
Y2464857D01*
X2662376Y2462317D01*
X2659836Y2459777D01*
Y2457237D01*
X2531236Y2335657D02*
X2533776D01*
X2536316Y2338197D01*
X2538856Y2335657D01*
X2541396D01*
Y2338197D01*
X2538856Y2340737D01*
X2541396Y2343277D01*
Y2345817D01*
X2538856D01*
X2536316Y2343277D01*
X2533776Y2345817D01*
X2531236D01*
Y2343277D01*
X2533776Y2340737D01*
X2531236Y2338197D01*
Y2335657D01*
X2261996Y2002917D02*
X2264536D01*
X2267076Y2005457D01*
X2269616Y2002917D01*
X2272156D01*
Y2005457D01*
X2269616Y2007997D01*
X2272156Y2010537D01*
Y2013077D01*
X2269616D01*
X2267076Y2010537D01*
X2264536Y2013077D01*
X2261996D01*
Y2010537D01*
X2264536Y2007997D01*
X2261996Y2005457D01*
Y2002917D01*
X2706836Y2262749D02*
X2709376D01*
X2711916Y2265289D01*
X2714456Y2262749D01*
X2716996D01*
Y2265289D01*
X2714456Y2267829D01*
X2716996Y2270369D01*
Y2272909D01*
X2714456D01*
X2711916Y2270369D01*
X2709376Y2272909D01*
X2706836D01*
Y2270369D01*
X2709376Y2267829D01*
X2706836Y2265289D01*
Y2262749D01*
X3092496Y2201571D02*
X3095036D01*
X3097576Y2204111D01*
X3100116Y2201571D01*
X3102656D01*
Y2204111D01*
X3100116Y2206651D01*
X3102656Y2209191D01*
Y2211731D01*
X3100116D01*
X3097576Y2209191D01*
X3095036Y2211731D01*
X3092496D01*
Y2209191D01*
X3095036Y2206651D01*
X3092496Y2204111D01*
Y2201571D01*
X2925647Y2224723D02*
X2928187D01*
X2930727Y2227263D01*
X2933267Y2224723D01*
X2935807D01*
Y2227263D01*
X2933267Y2229803D01*
X2935807Y2232343D01*
Y2234883D01*
X2933267D01*
X2930727Y2232343D01*
X2928187Y2234883D01*
X2925647D01*
Y2232343D01*
X2928187Y2229803D01*
X2925647Y2227263D01*
Y2224723D01*
X2938633Y1966624D02*
X2941173D01*
X2943713Y1969164D01*
X2946253Y1966624D01*
X2948793D01*
Y1969164D01*
X2946253Y1971704D01*
X2948793Y1974244D01*
Y1976784D01*
X2946253D01*
X2943713Y1974244D01*
X2941173Y1976784D01*
X2938633D01*
Y1974244D01*
X2941173Y1971704D01*
X2938633Y1969164D01*
Y1966624D01*
X3298636Y2168017D02*
X3301176D01*
X3303716Y2170557D01*
X3306256Y2168017D01*
X3308796D01*
Y2170557D01*
X3306256Y2173097D01*
X3308796Y2175637D01*
Y2178177D01*
X3306256D01*
X3303716Y2175637D01*
X3301176Y2178177D01*
X3298636D01*
Y2175637D01*
X3301176Y2173097D01*
X3298636Y2170557D01*
Y2168017D01*
Y2137537D02*
Y2147697D01*
X3308796D01*
Y2137537D01*
X3298636D01*
X3303716Y2107057D02*
X3306256Y2109597D01*
X3308796D01*
X3306256Y2112137D01*
X3308796Y2114677D01*
X3306256D01*
X3303716Y2117217D01*
X3301176Y2114677D01*
X3298636D01*
X3301176Y2112137D01*
X3298636Y2109597D01*
X3301176D01*
X3303716Y2107057D01*
Y2076577D02*
X3298636Y2086737D01*
X3308796D01*
X3303716Y2076577D01*
X3298636Y2046097D02*
X3301176Y2051177D01*
X3298636Y2056257D01*
X3303716Y2053717D01*
X3308796Y2056257D01*
X3306256Y2051177D01*
X3308796Y2046097D01*
X3303716Y2048637D01*
X3298636Y2046097D01*
X3301176Y2018157D02*
Y2015617D01*
X3306256D01*
Y2018157D01*
X3308796D01*
Y2023237D01*
X3306256D01*
Y2025777D01*
X3301176D01*
Y2023237D01*
X3298636D01*
Y2018157D01*
X3301176D01*
D75*
X2152996Y1936317D02*
X2152414Y1938678D01*
X2150802Y1940498D01*
X2148528Y1941360D01*
X2146114Y1941067D01*
X2144113Y1939686D01*
X2142983Y1937533D01*
Y1935101D01*
X2144113Y1932948D01*
X2146114Y1931567D01*
X2148528Y1931274D01*
X2150802Y1932136D01*
X2152414Y1933956D01*
X2152996Y1936317D01*
Y2536317D02*
X2152414Y2538678D01*
X2150802Y2540498D01*
X2148528Y2541360D01*
X2146114Y2541067D01*
X2144113Y2539686D01*
X2142983Y2537533D01*
Y2535101D01*
X2144113Y2532948D01*
X2146114Y2531567D01*
X2148528Y2531274D01*
X2150802Y2532136D01*
X2152414Y2533956D01*
X2152996Y2536317D01*
X3112996D02*
X3112414Y2538678D01*
X3110801Y2540498D01*
X3108528Y2541360D01*
X3106114Y2541067D01*
X3104113Y2539686D01*
X3102983Y2537533D01*
Y2535101D01*
X3104113Y2532948D01*
X3106114Y2531567D01*
X3108528Y2531274D01*
X3110801Y2532136D01*
X3112414Y2533956D01*
X3112996Y2536317D01*
X2742996D02*
X2742414Y2538678D01*
X2740801Y2540498D01*
X2738528Y2541360D01*
X2736114Y2541067D01*
X2734113Y2539686D01*
X2732983Y2537533D01*
Y2535101D01*
X2734113Y2532948D01*
X2736114Y2531567D01*
X2738528Y2531274D01*
X2740801Y2532136D01*
X2742414Y2533956D01*
X2742996Y2536317D01*
X3112996Y1936317D02*
X3112414Y1938678D01*
X3110801Y1940498D01*
X3108528Y1941360D01*
X3106114Y1941067D01*
X3104113Y1939686D01*
X3102983Y1937533D01*
Y1935101D01*
X3104113Y1932948D01*
X3106114Y1931567D01*
X3108528Y1931274D01*
X3110801Y1932136D01*
X3112414Y1933956D01*
X3112996Y1936317D01*
X2742996D02*
X2742414Y1938678D01*
X2740801Y1940498D01*
X2738528Y1941360D01*
X2736114Y1941067D01*
X2734113Y1939686D01*
X2732983Y1937533D01*
Y1935101D01*
X2734113Y1932948D01*
X2736114Y1931567D01*
X2738528Y1931274D01*
X2740801Y1932136D01*
X2742414Y1933956D01*
X2742996Y1936317D01*
X3308796Y1990217D02*
X3308214Y1992578D01*
X3306602Y1994398D01*
X3304328Y1995260D01*
X3301914Y1994967D01*
X3299913Y1993586D01*
X3298783Y1991433D01*
Y1989001D01*
X3299913Y1986848D01*
X3301914Y1985467D01*
X3304328Y1985174D01*
X3306602Y1986036D01*
X3308214Y1987856D01*
X3308796Y1990217D01*
M02*
