%FSLAX44Y44*%
%MOMM*%
G71*
G01*
G75*
%ADD10C,0.2000*%
%ADD11C,1.0000*%
%ADD12R,1.9050X0.4064*%
%ADD13R,0.4064X1.9050*%
%ADD14O,0.6000X2.2000*%
%ADD15R,0.9144X0.9144*%
%ADD16R,1.2700X0.9144*%
%ADD17R,1.5240X1.5240*%
%ADD18R,1.2700X1.5240*%
%ADD19R,1.5240X1.2700*%
%ADD20R,1.5000X0.4000*%
%ADD21R,0.9144X1.2700*%
%ADD22O,0.6000X2.2000*%
%ADD23O,2.0320X0.6096*%
%ADD24C,0.3000*%
%ADD25C,0.5000*%
%ADD26C,0.6000*%
%ADD27C,0.8000*%
%ADD28C,0.2540*%
%ADD29C,0.2286*%
%ADD30C,4.5500*%
%ADD31C,1.5000*%
%ADD32R,1.5000X1.5000*%
%ADD33C,1.6510*%
%ADD34C,3.6000*%
%ADD35C,1.6000*%
%ADD36R,1.6000X1.6000*%
%ADD37C,0.8000*%
%ADD38O,2.5400X0.7500*%
%ADD39R,2.5400X0.7500*%
%ADD40C,0.7000*%
%ADD41C,0.2500*%
%ADD42C,0.3048*%
%ADD43C,0.1500*%
%ADD44C,2.0000*%
%ADD45R,2.1082X0.6096*%
%ADD46R,0.6096X2.1082*%
%ADD47O,0.8032X2.4032*%
%ADD48R,1.1176X1.1176*%
%ADD49R,1.4732X1.1176*%
%ADD50R,1.7272X1.7272*%
%ADD51R,1.4732X1.7272*%
%ADD52R,1.7272X1.4732*%
%ADD53R,1.7032X0.6032*%
%ADD54R,1.1176X1.4732*%
%ADD55O,0.8032X2.4032*%
%ADD56O,2.2352X0.8128*%
%ADD57C,4.7532*%
%ADD58C,1.7032*%
%ADD59R,1.7032X1.7032*%
%ADD60C,1.8542*%
%ADD61C,3.8032*%
%ADD62C,1.8032*%
%ADD63C,0.2032*%
%ADD64R,1.8032X1.8032*%
%ADD65O,2.7432X0.9532*%
%ADD66R,2.7432X0.9532*%
%ADD67C,0.6350*%
%ADD68C,0.2032*%
%ADD69C,0.1270*%
%ADD70C,0.1524*%
%ADD71C,0.1693*%
D69*
X2241866Y2525867D02*
X2269866D01*
X2255866Y2511867D02*
Y2539867D01*
X2241866Y1946767D02*
X2269866D01*
X2255866Y1932767D02*
Y1960767D01*
X2251616Y2445867D02*
X2260116D01*
X2255866Y2441617D02*
Y2450117D01*
X2232566Y2433167D02*
X2241066D01*
X2236816Y2428917D02*
Y2437417D01*
X2289716Y2445867D02*
X2298216D01*
X2293966Y2441617D02*
Y2450117D01*
X2270666Y2433167D02*
X2279166D01*
X2274916Y2428917D02*
Y2437417D01*
X2251616Y2420467D02*
X2260116D01*
X2255866Y2416217D02*
Y2424717D01*
X2232566Y2407767D02*
X2241066D01*
X2236816Y2403517D02*
Y2412017D01*
X2289716Y2420467D02*
X2298216D01*
X2293966Y2416217D02*
Y2424717D01*
X2270666Y2407767D02*
X2279166D01*
X2274916Y2403517D02*
Y2412017D01*
X2251616Y2395067D02*
X2260116D01*
X2255866Y2390817D02*
Y2399317D01*
X2232566Y2382367D02*
X2241066D01*
X2236816Y2378117D02*
Y2386617D01*
X2289716Y2395067D02*
X2298216D01*
X2293966Y2390817D02*
Y2399317D01*
X2270666Y2382367D02*
X2279166D01*
X2274916Y2378117D02*
Y2386617D01*
X2251616Y2369667D02*
X2260116D01*
X2255866Y2365417D02*
Y2373917D01*
X2232566Y2356967D02*
X2241066D01*
X2236816Y2352717D02*
Y2361217D01*
X2289716Y2369667D02*
X2298216D01*
X2293966Y2365417D02*
Y2373917D01*
X2270666Y2356967D02*
X2279166D01*
X2274916Y2352717D02*
Y2361217D01*
X2251616Y2344267D02*
X2260116D01*
X2255866Y2340017D02*
Y2348517D01*
X2232566Y2331567D02*
X2241066D01*
X2236816Y2327317D02*
Y2335817D01*
X2289716Y2344267D02*
X2298216D01*
X2293966Y2340017D02*
Y2348517D01*
X2270666Y2331567D02*
X2279166D01*
X2274916Y2327317D02*
Y2335817D01*
X2251616Y2318867D02*
X2260116D01*
X2255866Y2314617D02*
Y2323117D01*
X2232566Y2306167D02*
X2241066D01*
X2236816Y2301917D02*
Y2310417D01*
X2289716Y2318867D02*
X2298216D01*
X2293966Y2314617D02*
Y2323117D01*
X2270666Y2306167D02*
X2279166D01*
X2274916Y2301917D02*
Y2310417D01*
X2251616Y2293467D02*
X2260116D01*
X2255866Y2289217D02*
Y2297717D01*
X2232566Y2280767D02*
X2241066D01*
X2236816Y2276517D02*
Y2285017D01*
X2289716Y2293467D02*
X2298216D01*
X2293966Y2289217D02*
Y2297717D01*
X2270666Y2280767D02*
X2279166D01*
X2274916Y2276517D02*
Y2285017D01*
X2251616Y2268067D02*
X2260116D01*
X2255866Y2263817D02*
Y2272317D01*
X2232566Y2255367D02*
X2241066D01*
X2236816Y2251117D02*
Y2259617D01*
X2289716Y2268067D02*
X2298216D01*
X2293966Y2263817D02*
Y2272317D01*
X2270666Y2255367D02*
X2279166D01*
X2274916Y2251117D02*
Y2259617D01*
X2251616Y2242667D02*
X2260116D01*
X2255866Y2238417D02*
Y2246917D01*
X2232566Y2229967D02*
X2241066D01*
X2236816Y2225717D02*
Y2234217D01*
X2289716Y2242667D02*
X2298216D01*
X2293966Y2238417D02*
Y2246917D01*
X2270666Y2229967D02*
X2279166D01*
X2274916Y2225717D02*
Y2234217D01*
X2251616Y2217267D02*
X2260116D01*
X2255866Y2213017D02*
Y2221517D01*
X2232566Y2204567D02*
X2241066D01*
X2236816Y2200317D02*
Y2208817D01*
X2289716Y2217267D02*
X2298216D01*
X2293966Y2213017D02*
Y2221517D01*
X2270666Y2204567D02*
X2279166D01*
X2274916Y2200317D02*
Y2208817D01*
X2251616Y2191867D02*
X2260116D01*
X2255866Y2187617D02*
Y2196117D01*
X2232566Y2179167D02*
X2241066D01*
X2236816Y2174917D02*
Y2183417D01*
X2289716Y2191867D02*
X2298216D01*
X2293966Y2187617D02*
Y2196117D01*
X2270666Y2179167D02*
X2279166D01*
X2274916Y2174917D02*
Y2183417D01*
X2251616Y2166467D02*
X2260116D01*
X2255866Y2162217D02*
Y2170717D01*
X2232566Y2153767D02*
X2241066D01*
X2236816Y2149517D02*
Y2158017D01*
X2289716Y2166467D02*
X2298216D01*
X2293966Y2162217D02*
Y2170717D01*
X2270666Y2153767D02*
X2279166D01*
X2274916Y2149517D02*
Y2158017D01*
X2251616Y2141067D02*
X2260116D01*
X2255866Y2136817D02*
Y2145317D01*
X2232566Y2128367D02*
X2241066D01*
X2236816Y2124117D02*
Y2132617D01*
X2289716Y2141067D02*
X2298216D01*
X2293966Y2136817D02*
Y2145317D01*
X2270666Y2128367D02*
X2279166D01*
X2274916Y2124117D02*
Y2132617D01*
X2251616Y2115667D02*
X2260116D01*
X2255866Y2111417D02*
Y2119917D01*
X2232566Y2102967D02*
X2241066D01*
X2236816Y2098717D02*
Y2107217D01*
X2289716Y2115667D02*
X2298216D01*
X2293966Y2111417D02*
Y2119917D01*
X2270666Y2102967D02*
X2279166D01*
X2274916Y2098717D02*
Y2107217D01*
X2251616Y2090267D02*
X2260116D01*
X2255866Y2086017D02*
Y2094517D01*
X2232566Y2077567D02*
X2241066D01*
X2236816Y2073317D02*
Y2081817D01*
X2289716Y2090267D02*
X2298216D01*
X2293966Y2086017D02*
Y2094517D01*
X2270666Y2077567D02*
X2279166D01*
X2274916Y2073317D02*
Y2081817D01*
X2251616Y2064867D02*
X2260116D01*
X2255866Y2060617D02*
Y2069117D01*
X2232566Y2052167D02*
X2241066D01*
X2236816Y2047917D02*
Y2056417D01*
X2289716Y2064867D02*
X2298216D01*
X2293966Y2060617D02*
Y2069117D01*
X2270666Y2052167D02*
X2279166D01*
X2274916Y2047917D02*
Y2056417D01*
X2251616Y2039467D02*
X2260116D01*
X2255866Y2035217D02*
Y2043717D01*
X2232566Y2026767D02*
X2241066D01*
X2236816Y2022517D02*
Y2031017D01*
X2289716Y2039467D02*
X2298216D01*
X2293966Y2035217D02*
Y2043717D01*
X2270666Y2026767D02*
X2279166D01*
X2274916Y2022517D02*
Y2031017D01*
X3142416Y2248817D02*
X3152416D01*
X3147416Y2243817D02*
Y2253817D01*
X3142416Y2223817D02*
X3152416D01*
X3147416Y2218817D02*
Y2228817D01*
X3122416Y2248817D02*
X3132416D01*
X3127416Y2243817D02*
Y2253817D01*
X3122416Y2223817D02*
X3132416D01*
X3127416Y2218817D02*
Y2228817D01*
X3162516Y2296517D02*
X3186516D01*
X3174516Y2284517D02*
Y2308517D01*
X3162516Y2176117D02*
X3186516D01*
X3174516Y2164117D02*
Y2188117D01*
X2638996Y2353437D02*
X2646996D01*
X2642996Y2349437D02*
Y2357437D01*
X2135416Y1936317D02*
X2160416D01*
X2147916Y1923817D02*
Y1948817D01*
X2135416Y2536317D02*
X2160416D01*
X2147916Y2523817D02*
Y2548817D01*
X3095416Y2536317D02*
X3120416D01*
X3107916Y2523817D02*
Y2548817D01*
X2725416Y2536317D02*
X2750416D01*
X2737916Y2523817D02*
Y2548817D01*
X3095416Y1936317D02*
X3120416D01*
X3107916Y1923817D02*
Y1948817D01*
X2725416Y1936317D02*
X2750416D01*
X2737916Y1923817D02*
Y1948817D01*
X2638996Y1997837D02*
X2646996D01*
X2642996Y1993837D02*
Y2001837D01*
X2638996Y2023237D02*
X2646996D01*
X2642996Y2019237D02*
Y2027237D01*
X2638996Y2048637D02*
X2646996D01*
X2642996Y2044637D02*
Y2052637D01*
X2638996Y2074037D02*
X2646996D01*
X2642996Y2070037D02*
Y2078037D01*
X2638996Y2099437D02*
X2646996D01*
X2642996Y2095437D02*
Y2103437D01*
X2638996Y2124837D02*
X2646996D01*
X2642996Y2120837D02*
Y2128837D01*
X2638996Y2150237D02*
X2646996D01*
X2642996Y2146237D02*
Y2154237D01*
X2638996Y2175637D02*
X2646996D01*
X2642996Y2171637D02*
Y2179637D01*
X2638996Y2201037D02*
X2646996D01*
X2642996Y2197037D02*
Y2205037D01*
X2638996Y2226437D02*
X2646996D01*
X2642996Y2222437D02*
Y2230437D01*
X2638996Y2251837D02*
X2646996D01*
X2642996Y2247837D02*
Y2255837D01*
X2638996Y2277237D02*
X2646996D01*
X2642996Y2273237D02*
Y2281237D01*
X2638996Y2302637D02*
X2646996D01*
X2642996Y2298637D02*
Y2306637D01*
X2638996Y2328037D02*
X2646996D01*
X2642996Y2324037D02*
Y2332037D01*
X2638996Y2378837D02*
X2646996D01*
X2642996Y2374837D02*
Y2382837D01*
X2638996Y2404237D02*
X2646996D01*
X2642996Y2400237D02*
Y2408237D01*
X2638996Y2429637D02*
X2646996D01*
X2642996Y2425637D02*
Y2433637D01*
X2638996Y2455037D02*
X2646996D01*
X2642996Y2451037D02*
Y2459037D01*
X2638996Y2480437D02*
X2646996D01*
X2642996Y2476437D02*
Y2484437D01*
X2791396Y2480437D02*
X2799396D01*
X2795396Y2476437D02*
Y2484437D01*
X2791396Y2455037D02*
X2799396D01*
X2795396Y2451037D02*
Y2459037D01*
X2791396Y2429637D02*
X2799396D01*
X2795396Y2425637D02*
Y2433637D01*
X2791396Y2404237D02*
X2799396D01*
X2795396Y2400237D02*
Y2408237D01*
X2791396Y2378837D02*
X2799396D01*
X2795396Y2374837D02*
Y2382837D01*
X2791396Y2353437D02*
X2799396D01*
X2795396Y2349437D02*
Y2357437D01*
X2791396Y2328037D02*
X2799396D01*
X2795396Y2324037D02*
Y2332037D01*
X2791396Y2302637D02*
X2799396D01*
X2795396Y2298637D02*
Y2306637D01*
X2791396Y2277237D02*
X2799396D01*
X2795396Y2273237D02*
Y2281237D01*
X2791396Y2251837D02*
X2799396D01*
X2795396Y2247837D02*
Y2255837D01*
X2791396Y2226437D02*
X2799396D01*
X2795396Y2222437D02*
Y2230437D01*
X2791396Y2201037D02*
X2799396D01*
X2795396Y2197037D02*
Y2205037D01*
X2791396Y2175637D02*
X2799396D01*
X2795396Y2171637D02*
Y2179637D01*
X2791396Y2150237D02*
X2799396D01*
X2795396Y2146237D02*
Y2154237D01*
X2791396Y2124837D02*
X2799396D01*
X2795396Y2120837D02*
Y2128837D01*
X2791396Y2099437D02*
X2799396D01*
X2795396Y2095437D02*
Y2103437D01*
X2791396Y2074037D02*
X2799396D01*
X2795396Y2070037D02*
Y2078037D01*
X2791396Y2048637D02*
X2799396D01*
X2795396Y2044637D02*
Y2052637D01*
X2791396Y2023237D02*
X2799396D01*
X2795396Y2019237D02*
Y2027237D01*
X2791396Y1997837D02*
X2799396D01*
X2795396Y1993837D02*
Y2001837D01*
X2948376Y2521077D02*
X2957376D01*
X2952876Y2516577D02*
Y2525577D01*
X2973776Y2521077D02*
X2982776D01*
X2978276Y2516577D02*
Y2525577D01*
X2999176Y2521077D02*
X3008176D01*
X3003676Y2516577D02*
Y2525577D01*
X3024576Y2521077D02*
X3033576D01*
X3029076Y2516577D02*
Y2525577D01*
X2922976Y2521077D02*
X2931976D01*
X2927476Y2516577D02*
Y2525577D01*
X2374836Y2255517D02*
X2382836D01*
X2378836Y2251517D02*
Y2259517D01*
X2374836Y2230117D02*
X2382836D01*
X2378836Y2226117D02*
Y2234117D01*
X2374836Y2280917D02*
X2382836D01*
X2378836Y2276917D02*
Y2284917D01*
X2374836Y2331717D02*
X2382836D01*
X2378836Y2327717D02*
Y2335717D01*
X2374836Y2433317D02*
X2382836D01*
X2378836Y2429317D02*
Y2437317D01*
X2374836Y2407917D02*
X2382836D01*
X2378836Y2403917D02*
Y2411917D01*
X2374836Y2382517D02*
X2382836D01*
X2378836Y2378517D02*
Y2386517D01*
X2374836Y2357117D02*
X2382836D01*
X2378836Y2353117D02*
Y2361117D01*
X2374836Y2306317D02*
X2382836D01*
X2378836Y2302317D02*
Y2310317D01*
X3032156Y2432177D02*
X3036156D01*
X3034156Y2430177D02*
Y2434177D01*
X2534316Y2442337D02*
X2538316D01*
X2536316Y2440337D02*
Y2444337D01*
X2541916Y2364562D02*
X2545916D01*
X2543916Y2362562D02*
Y2366562D01*
X2585116Y2368677D02*
X2589116D01*
X2587116Y2366677D02*
Y2370677D01*
X2658776Y2305177D02*
X2662776D01*
X2660776Y2303177D02*
Y2307177D01*
X2623216Y2322957D02*
X2627216D01*
X2625216Y2320957D02*
Y2324957D01*
X2536856Y2467737D02*
X2540856D01*
X2538856Y2465737D02*
Y2469737D01*
X2534316Y2340737D02*
X2538316D01*
X2536316Y2338737D02*
Y2342737D01*
X2618136Y2475357D02*
X2622136D01*
X2620136Y2473357D02*
Y2477357D01*
X2613056Y2333117D02*
X2617056D01*
X2615056Y2331117D02*
Y2335117D01*
X2552096Y2429637D02*
X2556096D01*
X2554096Y2427637D02*
Y2431637D01*
X2526696Y2312797D02*
X2530696D01*
X2528696Y2310797D02*
Y2314797D01*
X2460656Y2282317D02*
X2464656D01*
X2462656Y2280317D02*
Y2284317D01*
X2577496Y2361057D02*
X2581496D01*
X2579496Y2359057D02*
Y2363057D01*
X2569876Y2282317D02*
X2573876D01*
X2571876Y2280317D02*
Y2284317D01*
X2668936Y2277237D02*
X2672936D01*
X2670936Y2275237D02*
Y2279237D01*
X2470816Y2241677D02*
X2474816D01*
X2472816Y2239677D02*
Y2243677D01*
X2836576Y2442337D02*
X2840576D01*
X2838576Y2440337D02*
Y2444337D01*
X2961036Y2353437D02*
X2965036D01*
X2963036Y2351437D02*
Y2355437D01*
X3070256Y2297557D02*
X3074256D01*
X3072256Y2295557D02*
Y2299557D01*
X2978816Y2322957D02*
X2982816D01*
X2980816Y2320957D02*
Y2324957D01*
X2948336Y2320417D02*
X2952336D01*
X2950336Y2318417D02*
Y2322417D01*
X3098196Y2414397D02*
X3102196D01*
X3100196Y2412397D02*
Y2416397D01*
X2724816Y2462657D02*
X2728816D01*
X2726816Y2460657D02*
Y2464657D01*
X3110896Y2406777D02*
X3114896D01*
X3112896Y2404777D02*
Y2408777D01*
X2854356Y2101977D02*
X2858356D01*
X2856356Y2099977D02*
Y2103977D01*
X2999136Y2330577D02*
X3003136D01*
X3001136Y2328577D02*
Y2332577D01*
X2948336Y2419477D02*
X2952336D01*
X2950336Y2417477D02*
Y2421477D01*
X2488596Y2325497D02*
X2492596D01*
X2490596Y2323497D02*
Y2327497D01*
X2892456Y2188337D02*
X2896456D01*
X2894456Y2186337D02*
Y2190337D01*
X2930810Y2262251D02*
X2934810D01*
X2932810Y2260251D02*
Y2264251D01*
X2940716Y2051177D02*
X2944716D01*
X2942716Y2049177D02*
Y2053177D01*
X2869596Y2307717D02*
X2873596D01*
X2871596Y2305717D02*
Y2309717D01*
X2935636Y2427097D02*
X2939636D01*
X2937636Y2425097D02*
Y2429097D01*
X2940716Y2038477D02*
X2944716D01*
X2942716Y2036477D02*
Y2040477D01*
X2930556Y2091817D02*
X2934556D01*
X2932556Y2089817D02*
Y2093817D01*
X2930556Y2076577D02*
X2934556D01*
X2932556Y2074577D02*
Y2078577D01*
X2922682Y2353437D02*
X2926682D01*
X2924682Y2351437D02*
Y2355437D01*
X2940716Y2063877D02*
X2944716D01*
X2942716Y2061877D02*
Y2065877D01*
X2844196Y2089277D02*
X2848196D01*
X2846196Y2087277D02*
Y2091277D01*
X2914808Y2201037D02*
X2918808D01*
X2916808Y2199037D02*
Y2203037D01*
X2859436Y2391537D02*
X2863436D01*
X2861436Y2389537D02*
Y2393537D01*
X2767996Y2366137D02*
X2771996D01*
X2769996Y2364137D02*
Y2368137D01*
X2859436Y2452497D02*
X2863436D01*
X2861436Y2450497D02*
Y2454497D01*
X2359056Y2076577D02*
X2363056D01*
X2361056Y2074577D02*
Y2078577D01*
X2666396Y2424557D02*
X2670396D01*
X2668396Y2422557D02*
Y2426557D01*
X2628296Y2467737D02*
X2632296D01*
X2630296Y2465737D02*
Y2469737D01*
X2724816Y2449957D02*
X2728816D01*
X2726816Y2447957D02*
Y2451957D01*
X2587656Y2434717D02*
X2591656D01*
X2589656Y2432717D02*
Y2436717D01*
X2232056Y2010537D02*
X2236056D01*
X2234056Y2008537D02*
Y2012537D01*
X2587656Y2424557D02*
X2591656D01*
X2589656Y2422557D02*
Y2426557D01*
X2724816Y2411857D02*
X2728816D01*
X2726816Y2409857D02*
Y2413857D01*
X2625756Y2368677D02*
X2629756D01*
X2627756Y2366677D02*
Y2370677D01*
X2508916Y2317877D02*
X2512916D01*
X2510916Y2315877D02*
Y2319877D01*
X2666396Y2381377D02*
X2670396D01*
X2668396Y2379377D02*
Y2383377D01*
X2668936Y2328037D02*
X2672936D01*
X2670936Y2326037D02*
Y2330037D01*
X2333656Y1954657D02*
X2337656D01*
X2335656Y1952657D02*
Y1956657D01*
X2295556Y2013077D02*
X2299556D01*
X2297556Y2011077D02*
Y2015077D01*
X2450496Y2038477D02*
X2454496D01*
X2452496Y2036477D02*
Y2040477D01*
X2526696Y2183257D02*
X2530696D01*
X2528696Y2181257D02*
Y2185257D01*
X2526696Y1969897D02*
X2530696D01*
X2528696Y1967897D02*
Y1971897D01*
X2437796Y1959737D02*
X2441796D01*
X2439796Y1957737D02*
Y1961737D01*
X2369216Y2028317D02*
X2373216D01*
X2371216Y2026317D02*
Y2030317D01*
X2379376Y2051177D02*
X2383376D01*
X2381376Y2049177D02*
Y2053177D01*
X2369216Y1936877D02*
X2373216D01*
X2371216Y1934877D02*
Y1938877D01*
X2450496Y1944497D02*
X2454496D01*
X2452496Y1942497D02*
Y1946497D01*
X2526696Y2020697D02*
X2530696D01*
X2528696Y2018697D02*
Y2022697D01*
X2450496Y2063877D02*
X2454496D01*
X2452496Y2061877D02*
Y2065877D01*
X2478436Y2058797D02*
X2482436D01*
X2480436Y2056797D02*
Y2060797D01*
X2379376Y1952117D02*
X2383376D01*
X2381376Y1950117D02*
Y1954117D01*
X2526696Y2046097D02*
X2530696D01*
X2528696Y2044097D02*
Y2048097D01*
X3011836Y2074037D02*
X3015836D01*
X3013836Y2072037D02*
Y2076037D01*
X2935636Y2320417D02*
X2939636D01*
X2937636Y2318417D02*
Y2322417D01*
X2906066Y2208468D02*
X2910066D01*
X2908066Y2206468D02*
Y2210468D01*
X2465736Y1926717D02*
X2469736D01*
X2467736Y1924717D02*
Y1928717D01*
X2996916Y2179457D02*
X3000916D01*
X2998916Y2177457D02*
Y2181457D01*
X2623216Y2170557D02*
X2627216D01*
X2625216Y2168557D02*
Y2172557D01*
X2938684Y2279777D02*
X2942684D01*
X2940684Y2277777D02*
Y2281777D01*
X2623216Y2221357D02*
X2627216D01*
X2625216Y2219357D02*
Y2223357D01*
X2491136Y2157857D02*
X2495136D01*
X2493136Y2155857D02*
Y2159857D01*
X2585116Y2350897D02*
X2589116D01*
X2587116Y2348897D02*
Y2352897D01*
X2998765Y2310149D02*
X3002765D01*
X3000765Y2308149D02*
Y2312149D01*
X2841656Y2188337D02*
X2845656D01*
X2843656Y2186337D02*
Y2190337D01*
X2834036Y2211197D02*
X2838036D01*
X2836036Y2209197D02*
Y2213197D01*
X2465736Y2048637D02*
X2469736D01*
X2467736Y2046637D02*
Y2050637D01*
X2547016Y2381377D02*
X2551016D01*
X2549016Y2379377D02*
Y2383377D01*
X2970688Y2313305D02*
X2974688D01*
X2972688Y2311305D02*
Y2315305D01*
X2508916Y2498217D02*
X2512916D01*
X2510916Y2496217D02*
Y2500217D01*
X2544476Y2137537D02*
X2548476D01*
X2546476Y2135537D02*
Y2139537D01*
X2531776Y2150237D02*
X2535776D01*
X2533776Y2148237D02*
Y2152237D01*
X2724816Y2366137D02*
X2728816D01*
X2726816Y2364137D02*
Y2368137D01*
X2526696Y2234057D02*
X2530696D01*
X2528696Y2232057D02*
Y2236057D01*
X2450496Y2293467D02*
X2454496D01*
X2452496Y2291467D02*
Y2295467D01*
X2760376Y2328037D02*
X2764376D01*
X2762376Y2326037D02*
Y2330037D01*
X2580036Y2292477D02*
X2584036D01*
X2582036Y2290477D02*
Y2294477D01*
X2526696Y2208657D02*
X2530696D01*
X2528696Y2206657D02*
Y2210657D01*
X2526696Y1995297D02*
X2530696D01*
X2528696Y1993297D02*
Y1997297D01*
X2595276Y2282317D02*
X2599276D01*
X2597276Y2280317D02*
Y2284317D01*
X2386996Y2208657D02*
X2390996D01*
X2388996Y2206657D02*
Y2210657D01*
X2674016Y2264537D02*
X2678016D01*
X2676016Y2262537D02*
Y2266537D01*
X2489866Y2209927D02*
X2493866D01*
X2491866Y2207927D02*
Y2211927D01*
X2366676Y2208657D02*
X2370676D01*
X2368676Y2206657D02*
Y2210657D01*
X3103276Y2061337D02*
X3107276D01*
X3105276Y2059337D02*
Y2063337D01*
X3138836Y2038477D02*
X3142836D01*
X3140836Y2036477D02*
Y2040477D01*
X2640996Y2518537D02*
X2644996D01*
X2642996Y2516537D02*
Y2520537D01*
X2359056Y2099437D02*
X2363056D01*
X2361056Y2097437D02*
Y2101437D01*
X2376836Y2107057D02*
X2380836D01*
X2378836Y2105057D02*
Y2109057D01*
X3082956Y2396617D02*
X3086956D01*
X3084956Y2394617D02*
Y2398617D01*
X2470816Y2388997D02*
X2474816D01*
X2472816Y2386997D02*
Y2390997D01*
X3082956Y2084197D02*
X3086956D01*
X3084956Y2082197D02*
Y2086197D01*
X3108356Y2084197D02*
X3112356D01*
X3110356Y2082197D02*
Y2086197D01*
X3049936Y2394077D02*
X3053936D01*
X3051936Y2392077D02*
Y2396077D01*
X2488596Y2179193D02*
X2492596D01*
X2490596Y2177193D02*
Y2181193D01*
X2486056Y2406777D02*
X2490056D01*
X2488056Y2404777D02*
Y2408777D01*
X2531776Y2455037D02*
X2535776D01*
X2533776Y2453037D02*
Y2457037D01*
X2549556Y2414397D02*
X2553556D01*
X2551556Y2412397D02*
Y2416397D01*
X2577496Y2472817D02*
X2581496D01*
X2579496Y2470817D02*
Y2474817D01*
X2491136Y2396617D02*
X2495136D01*
X2493136Y2394617D02*
Y2398617D01*
X2440336Y2368677D02*
X2444336D01*
X2442336Y2366677D02*
Y2370677D01*
X2999136Y2447417D02*
X3003136D01*
X3001136Y2445417D02*
Y2449417D01*
X2986436Y2447417D02*
X2990436D01*
X2988436Y2445417D02*
Y2449417D01*
X2910236Y2447417D02*
X2914236D01*
X2912236Y2445417D02*
Y2449417D01*
X3021996Y2432177D02*
X3025996D01*
X3023996Y2430177D02*
Y2434177D01*
X3065176Y2422017D02*
X3069176D01*
X3067176Y2420017D02*
Y2424017D01*
X3082956Y2335657D02*
X3086956D01*
X3084956Y2333657D02*
Y2337657D01*
X2851816Y2284857D02*
X2855816D01*
X2853816Y2282857D02*
Y2286857D01*
X2493676Y2101977D02*
X2497676D01*
X2495676Y2099977D02*
Y2103977D01*
X2983896Y2218817D02*
X2987896D01*
X2985896Y2216817D02*
Y2220817D01*
X3029616Y2094357D02*
X3033616D01*
X3031616Y2092357D02*
Y2096357D01*
X2897536Y2320417D02*
X2901536D01*
X2899536Y2318417D02*
Y2322417D01*
X2976276Y2261997D02*
X2980276D01*
X2978276Y2259997D02*
Y2263997D01*
X2547016Y2396617D02*
X2551016D01*
X2549016Y2394617D02*
Y2398617D01*
X2605436Y2147697D02*
X2609436D01*
X2607436Y2145697D02*
Y2149697D01*
X2950876Y2267077D02*
X2954876D01*
X2952876Y2265077D02*
Y2269077D01*
X2844196Y2140077D02*
X2848196D01*
X2846196Y2138077D02*
Y2142077D01*
X2897536Y2165477D02*
X2901536D01*
X2899536Y2163477D02*
Y2167477D01*
X2854356Y2147697D02*
X2858356D01*
X2856356Y2145697D02*
Y2149697D01*
X2872136Y2232787D02*
X2876136D01*
X2874136Y2230787D02*
Y2234787D01*
X2872136Y2248535D02*
X2876136D01*
X2874136Y2246535D02*
Y2250535D01*
X2991516Y2089277D02*
X2995516D01*
X2993516Y2087277D02*
Y2091277D01*
X3042316Y2432177D02*
X3046316D01*
X3044316Y2430177D02*
Y2434177D01*
X3009296Y2005457D02*
X3013296D01*
X3011296Y2003457D02*
Y2007457D01*
X3001676Y2081657D02*
X3005676D01*
X3003676Y2079657D02*
Y2083657D01*
X2988976Y2114677D02*
X2992976D01*
X2990976Y2112677D02*
Y2116677D01*
X2907696Y2272665D02*
X2911696D01*
X2909696Y2270665D02*
Y2274665D01*
X2943256Y2160397D02*
X2947256D01*
X2945256Y2158397D02*
Y2162397D01*
X2950876Y2147697D02*
X2954876D01*
X2952876Y2145697D02*
Y2149697D01*
X2541936Y2168017D02*
X2545936D01*
X2543936Y2166017D02*
Y2170017D01*
M02*
