%FSLAX44Y44*%
%MOMM*%
G71*
G01*
G75*
%ADD10C,0.2000*%
%ADD11C,1.0000*%
%ADD12R,1.9050X0.4064*%
%ADD13R,0.4064X1.9050*%
%ADD14O,0.6000X2.2000*%
%ADD15R,0.9144X0.9144*%
%ADD16R,1.2700X0.9144*%
%ADD17R,1.5240X1.5240*%
%ADD18R,1.2700X1.5240*%
%ADD19R,1.5240X1.2700*%
%ADD20R,1.5000X0.4000*%
%ADD21R,0.9144X1.2700*%
%ADD22O,0.6000X2.2000*%
%ADD23O,2.0320X0.6096*%
%ADD24C,0.3000*%
%ADD25C,0.5000*%
%ADD26C,0.6000*%
%ADD27C,0.8000*%
%ADD28C,0.2540*%
%ADD29C,0.2286*%
%ADD30C,4.5500*%
%ADD31C,1.5000*%
%ADD32R,1.5000X1.5000*%
%ADD33C,1.6510*%
%ADD34C,3.6000*%
%ADD35C,1.6000*%
%ADD36R,1.6000X1.6000*%
%ADD37C,0.8000*%
%ADD38O,2.5400X0.7500*%
%ADD39R,2.5400X0.7500*%
%ADD40C,0.7000*%
%ADD41C,0.2500*%
%ADD42C,0.3048*%
%ADD43C,0.1500*%
%ADD44C,2.0000*%
%ADD45R,2.1082X0.6096*%
%ADD46R,0.6096X2.1082*%
%ADD47O,0.8032X2.4032*%
%ADD48R,1.1176X1.1176*%
%ADD49R,1.4732X1.1176*%
%ADD50R,1.7272X1.7272*%
%ADD51R,1.4732X1.7272*%
%ADD52R,1.7272X1.4732*%
%ADD53R,1.7032X0.6032*%
%ADD54R,1.1176X1.4732*%
%ADD55O,0.8032X2.4032*%
%ADD56O,2.2352X0.8128*%
%ADD57C,4.7532*%
%ADD58C,1.7032*%
%ADD59R,1.7032X1.7032*%
%ADD60C,1.8542*%
%ADD61C,3.8032*%
%ADD62C,1.8032*%
%ADD63C,0.2032*%
%ADD64R,1.8032X1.8032*%
%ADD65O,2.7432X0.9532*%
%ADD66R,2.7432X0.9532*%
D28*
X2172916Y1936317D02*
X2172787Y1938846D01*
X2172404Y1941349D01*
X2171769Y1943801D01*
X2170890Y1946176D01*
X2169774Y1948450D01*
X2168435Y1950599D01*
X2166885Y1952601D01*
X2165140Y1954437D01*
X2163218Y1956086D01*
X2161140Y1957533D01*
X2158926Y1958762D01*
X2156598Y1959761D01*
X2154182Y1960519D01*
X2151701Y1961029D01*
X2149182Y1961285D01*
X2146649D01*
X2144130Y1961029D01*
X2141649Y1960519D01*
X2139233Y1959761D01*
X2136906Y1958762D01*
X2134692Y1957533D01*
X2132613Y1956086D01*
X2130692Y1954437D01*
X2128947Y1952601D01*
X2127397Y1950599D01*
X2126057Y1948450D01*
X2124942Y1946176D01*
X2124062Y1943801D01*
X2123427Y1941349D01*
X2123044Y1938846D01*
X2122916Y1936317D01*
X2123044Y1933788D01*
X2123427Y1931284D01*
X2124062Y1928833D01*
X2124942Y1926458D01*
X2126057Y1924184D01*
X2127397Y1922035D01*
X2128947Y1920033D01*
X2130692Y1918197D01*
X2132613Y1916548D01*
X2134692Y1915101D01*
X2136906Y1913872D01*
X2139233Y1912873D01*
X2141649Y1912115D01*
X2144130Y1911605D01*
X2146649Y1911349D01*
X2149182D01*
X2151702Y1911605D01*
X2154182Y1912115D01*
X2156598Y1912873D01*
X2158926Y1913872D01*
X2161140Y1915101D01*
X2163218Y1916548D01*
X2165140Y1918197D01*
X2166885Y1920033D01*
X2168435Y1922035D01*
X2169774Y1924185D01*
X2170890Y1926458D01*
X2171769Y1928833D01*
X2172404Y1931285D01*
X2172787Y1933788D01*
X2172916Y1936317D01*
Y2536317D02*
X2172787Y2538846D01*
X2172404Y2541349D01*
X2171769Y2543801D01*
X2170890Y2546176D01*
X2169774Y2548450D01*
X2168435Y2550599D01*
X2166885Y2552601D01*
X2165140Y2554437D01*
X2163218Y2556086D01*
X2161140Y2557533D01*
X2158926Y2558762D01*
X2156598Y2559761D01*
X2154182Y2560519D01*
X2151701Y2561029D01*
X2149182Y2561285D01*
X2146649D01*
X2144130Y2561029D01*
X2141649Y2560519D01*
X2139233Y2559761D01*
X2136906Y2558762D01*
X2134692Y2557533D01*
X2132613Y2556086D01*
X2130692Y2554437D01*
X2128947Y2552601D01*
X2127397Y2550599D01*
X2126057Y2548450D01*
X2124942Y2546176D01*
X2124062Y2543801D01*
X2123427Y2541349D01*
X2123044Y2538846D01*
X2122916Y2536317D01*
X2123044Y2533788D01*
X2123427Y2531284D01*
X2124062Y2528833D01*
X2124942Y2526458D01*
X2126057Y2524184D01*
X2127397Y2522035D01*
X2128947Y2520033D01*
X2130692Y2518197D01*
X2132613Y2516548D01*
X2134692Y2515101D01*
X2136906Y2513872D01*
X2139233Y2512873D01*
X2141649Y2512115D01*
X2144130Y2511605D01*
X2146649Y2511349D01*
X2149182D01*
X2151702Y2511605D01*
X2154182Y2512115D01*
X2156598Y2512873D01*
X2158926Y2513872D01*
X2161140Y2515101D01*
X2163218Y2516548D01*
X2165140Y2518197D01*
X2166885Y2520033D01*
X2168435Y2522035D01*
X2169774Y2524185D01*
X2170890Y2526458D01*
X2171769Y2528833D01*
X2172404Y2531285D01*
X2172787Y2533788D01*
X2172916Y2536317D01*
X3132916D02*
X3132787Y2538846D01*
X3132404Y2541349D01*
X3131769Y2543801D01*
X3130890Y2546176D01*
X3129774Y2548450D01*
X3128435Y2550599D01*
X3126885Y2552601D01*
X3125140Y2554437D01*
X3123218Y2556086D01*
X3121140Y2557533D01*
X3118925Y2558762D01*
X3116599Y2559761D01*
X3114182Y2560519D01*
X3111701Y2561029D01*
X3109182Y2561285D01*
X3106649D01*
X3104130Y2561029D01*
X3101649Y2560519D01*
X3099233Y2559761D01*
X3096906Y2558762D01*
X3094691Y2557533D01*
X3092613Y2556086D01*
X3090692Y2554437D01*
X3088947Y2552601D01*
X3087397Y2550599D01*
X3086057Y2548450D01*
X3084942Y2546176D01*
X3084062Y2543801D01*
X3083427Y2541349D01*
X3083044Y2538846D01*
X3082916Y2536317D01*
X3083044Y2533788D01*
X3083427Y2531284D01*
X3084062Y2528833D01*
X3084942Y2526458D01*
X3086057Y2524184D01*
X3087397Y2522035D01*
X3088947Y2520033D01*
X3090692Y2518197D01*
X3092613Y2516548D01*
X3094692Y2515101D01*
X3096906Y2513872D01*
X3099233Y2512873D01*
X3101649Y2512115D01*
X3104130Y2511605D01*
X3106649Y2511349D01*
X3109182D01*
X3111701Y2511605D01*
X3114182Y2512115D01*
X3116599Y2512873D01*
X3118925Y2513872D01*
X3121140Y2515101D01*
X3123218Y2516548D01*
X3125140Y2518197D01*
X3126885Y2520033D01*
X3128435Y2522035D01*
X3129774Y2524185D01*
X3130890Y2526458D01*
X3131769Y2528833D01*
X3132404Y2531285D01*
X3132787Y2533788D01*
X3132916Y2536317D01*
X2762916D02*
X2762787Y2538846D01*
X2762404Y2541349D01*
X2761769Y2543801D01*
X2760890Y2546176D01*
X2759774Y2548450D01*
X2758435Y2550599D01*
X2756885Y2552601D01*
X2755140Y2554437D01*
X2753218Y2556086D01*
X2751140Y2557533D01*
X2748925Y2558762D01*
X2746599Y2559761D01*
X2744182Y2560519D01*
X2741701Y2561029D01*
X2739182Y2561285D01*
X2736649D01*
X2734130Y2561029D01*
X2731649Y2560519D01*
X2729233Y2559761D01*
X2726906Y2558762D01*
X2724691Y2557533D01*
X2722613Y2556086D01*
X2720692Y2554437D01*
X2718947Y2552601D01*
X2717397Y2550599D01*
X2716057Y2548450D01*
X2714942Y2546176D01*
X2714062Y2543801D01*
X2713427Y2541349D01*
X2713044Y2538846D01*
X2712916Y2536317D01*
X2713044Y2533788D01*
X2713427Y2531284D01*
X2714062Y2528833D01*
X2714942Y2526458D01*
X2716057Y2524184D01*
X2717397Y2522035D01*
X2718947Y2520033D01*
X2720692Y2518197D01*
X2722613Y2516548D01*
X2724692Y2515101D01*
X2726906Y2513872D01*
X2729233Y2512873D01*
X2731649Y2512115D01*
X2734130Y2511605D01*
X2736649Y2511349D01*
X2739182D01*
X2741701Y2511605D01*
X2744182Y2512115D01*
X2746599Y2512873D01*
X2748925Y2513872D01*
X2751140Y2515101D01*
X2753218Y2516548D01*
X2755140Y2518197D01*
X2756885Y2520033D01*
X2758435Y2522035D01*
X2759774Y2524185D01*
X2760890Y2526458D01*
X2761769Y2528833D01*
X2762404Y2531285D01*
X2762787Y2533788D01*
X2762916Y2536317D01*
X3132916Y1936317D02*
X3132787Y1938846D01*
X3132404Y1941349D01*
X3131769Y1943801D01*
X3130890Y1946176D01*
X3129774Y1948450D01*
X3128435Y1950599D01*
X3126885Y1952601D01*
X3125140Y1954437D01*
X3123218Y1956086D01*
X3121140Y1957533D01*
X3118925Y1958762D01*
X3116599Y1959761D01*
X3114182Y1960519D01*
X3111701Y1961029D01*
X3109182Y1961285D01*
X3106649D01*
X3104130Y1961029D01*
X3101649Y1960519D01*
X3099233Y1959761D01*
X3096906Y1958762D01*
X3094691Y1957533D01*
X3092613Y1956086D01*
X3090692Y1954437D01*
X3088947Y1952601D01*
X3087397Y1950599D01*
X3086057Y1948450D01*
X3084942Y1946176D01*
X3084062Y1943801D01*
X3083427Y1941349D01*
X3083044Y1938846D01*
X3082916Y1936317D01*
X3083044Y1933788D01*
X3083427Y1931284D01*
X3084062Y1928833D01*
X3084942Y1926458D01*
X3086057Y1924184D01*
X3087397Y1922035D01*
X3088947Y1920033D01*
X3090692Y1918197D01*
X3092613Y1916548D01*
X3094692Y1915101D01*
X3096906Y1913872D01*
X3099233Y1912873D01*
X3101649Y1912115D01*
X3104130Y1911605D01*
X3106649Y1911349D01*
X3109182D01*
X3111701Y1911605D01*
X3114182Y1912115D01*
X3116599Y1912873D01*
X3118925Y1913872D01*
X3121140Y1915101D01*
X3123218Y1916548D01*
X3125140Y1918197D01*
X3126885Y1920033D01*
X3128435Y1922035D01*
X3129774Y1924185D01*
X3130890Y1926458D01*
X3131769Y1928833D01*
X3132404Y1931285D01*
X3132787Y1933788D01*
X3132916Y1936317D01*
X2762916D02*
X2762787Y1938846D01*
X2762404Y1941349D01*
X2761769Y1943801D01*
X2760890Y1946176D01*
X2759774Y1948450D01*
X2758435Y1950599D01*
X2756885Y1952601D01*
X2755140Y1954437D01*
X2753218Y1956086D01*
X2751140Y1957533D01*
X2748925Y1958762D01*
X2746599Y1959761D01*
X2744182Y1960519D01*
X2741701Y1961029D01*
X2739182Y1961285D01*
X2736649D01*
X2734130Y1961029D01*
X2731649Y1960519D01*
X2729233Y1959761D01*
X2726906Y1958762D01*
X2724691Y1957533D01*
X2722613Y1956086D01*
X2720692Y1954437D01*
X2718947Y1952601D01*
X2717397Y1950599D01*
X2716057Y1948450D01*
X2714942Y1946176D01*
X2714062Y1943801D01*
X2713427Y1941349D01*
X2713044Y1938846D01*
X2712916Y1936317D01*
X2713044Y1933788D01*
X2713427Y1931284D01*
X2714062Y1928833D01*
X2714942Y1926458D01*
X2716057Y1924184D01*
X2717397Y1922035D01*
X2718947Y1920033D01*
X2720692Y1918197D01*
X2722613Y1916548D01*
X2724692Y1915101D01*
X2726906Y1913872D01*
X2729233Y1912873D01*
X2731649Y1912115D01*
X2734130Y1911605D01*
X2736649Y1911349D01*
X2739182D01*
X2741701Y1911605D01*
X2744182Y1912115D01*
X2746599Y1912873D01*
X2748925Y1913872D01*
X2751140Y1915101D01*
X2753218Y1916548D01*
X2755140Y1918197D01*
X2756885Y1920033D01*
X2758435Y1922035D01*
X2759774Y1924185D01*
X2760890Y1926458D01*
X2761769Y1928833D01*
X2762404Y1931285D01*
X2762787Y1933788D01*
X2762916Y1936317D01*
X2015616Y1979017D02*
X2095616D01*
Y1914017D02*
Y1979017D01*
X2015616D02*
Y2493617D01*
X3230216Y2039017D02*
Y2433617D01*
X3160216D02*
X3230216D01*
X3160216D02*
Y2558617D01*
X2095616D02*
X3160216D01*
X2015616Y2493617D02*
X2095616D01*
Y2558617D01*
Y1914017D02*
X3160216D01*
Y2039017D01*
X3230216D01*
M02*
