%FSLAX44Y44*%
%MOMM*%
G71*
G01*
G75*
%ADD10C,0.2000*%
%ADD11C,1.0000*%
%ADD12R,1.9050X0.4064*%
%ADD13R,0.4064X1.9050*%
%ADD14O,0.6000X2.2000*%
%ADD15R,0.9144X0.9144*%
%ADD16R,1.2700X0.9144*%
%ADD17R,1.5240X1.5240*%
%ADD18R,1.2700X1.5240*%
%ADD19R,1.5240X1.2700*%
%ADD20R,1.5000X0.4000*%
%ADD21R,0.9144X1.2700*%
%ADD22O,0.6000X2.2000*%
%ADD23O,2.0320X0.6096*%
%ADD24C,0.3000*%
%ADD25C,0.5000*%
%ADD26C,0.6000*%
%ADD27C,0.8000*%
%ADD28C,0.2540*%
%ADD29C,0.2286*%
%ADD30C,4.5500*%
%ADD31C,1.5000*%
%ADD32R,1.5000X1.5000*%
%ADD33C,1.6510*%
%ADD34C,3.6000*%
%ADD35C,1.6000*%
%ADD36R,1.6000X1.6000*%
%ADD37C,0.8000*%
%ADD38O,2.5400X0.7500*%
%ADD39R,2.5400X0.7500*%
%ADD40C,0.7000*%
%ADD41C,0.2500*%
%ADD42C,0.3048*%
%ADD43C,0.1500*%
D18*
X3135756Y2137537D02*
D03*
Y2114677D02*
D03*
X3059556Y2137537D02*
D03*
Y2114677D02*
D03*
X3084956D02*
D03*
Y2137537D02*
D03*
X3110356Y2114677D02*
D03*
Y2137537D02*
D03*
D19*
X3034156Y2213737D02*
D03*
X3011295D02*
D03*
Y2145157D02*
D03*
X3034156D02*
D03*
Y2168017D02*
D03*
X3011295D02*
D03*
X3034156Y2190877D02*
D03*
X3011295D02*
D03*
X2975736Y1962277D02*
D03*
X2952876D02*
D03*
X3011296Y2122297D02*
D03*
X3034156D02*
D03*
X2510916Y2485517D02*
D03*
X2533776D02*
D03*
X2530744Y2292477D02*
D03*
X2507884D02*
D03*
X2510916Y2104517D02*
D03*
X2533776D02*
D03*
X2688716Y2495677D02*
D03*
X2711576D02*
D03*
X2744596Y2282317D02*
D03*
X2721736D02*
D03*
X2769996Y2251837D02*
D03*
X2747136D02*
D03*
X3029076Y2495677D02*
D03*
X3006216D02*
D03*
X3062096Y2277237D02*
D03*
X3084956D02*
D03*
Y2251837D02*
D03*
X3062096D02*
D03*
X3084956Y2226437D02*
D03*
X3062096D02*
D03*
X2211196Y2048637D02*
D03*
X2188336D02*
D03*
X2211196Y2068957D02*
D03*
X2188336D02*
D03*
X2345816Y2433193D02*
D03*
X2322956D02*
D03*
X2345816Y2407793D02*
D03*
X2322956D02*
D03*
X2345816Y2382393D02*
D03*
X2322956D02*
D03*
X2437256Y2268093D02*
D03*
X2414396D02*
D03*
X2437256Y2242693D02*
D03*
X2414396D02*
D03*
X2437256Y2217293D02*
D03*
X2414396D02*
D03*
X2437256Y2191893D02*
D03*
X2414396D02*
D03*
X2437256Y2166493D02*
D03*
X2414396D02*
D03*
X2437256Y2141093D02*
D03*
X2414396D02*
D03*
X2437256Y2115693D02*
D03*
X2414396D02*
D03*
X2345816Y2077593D02*
D03*
X2322956D02*
D03*
X2345816Y2052193D02*
D03*
X2322956D02*
D03*
X2345816Y2026793D02*
D03*
X2322956D02*
D03*
X2345816Y2204593D02*
D03*
X2322956D02*
D03*
X2345816Y2179193D02*
D03*
X2322956D02*
D03*
X2345816Y2153793D02*
D03*
X2322956D02*
D03*
X2345816Y2128393D02*
D03*
X2322956D02*
D03*
X2437256Y2090293D02*
D03*
X2414396D02*
D03*
X2437256Y2064893D02*
D03*
X2414396D02*
D03*
X2437256Y2039493D02*
D03*
X2414396D02*
D03*
X2322956Y2001393D02*
D03*
X2345816D02*
D03*
Y1975993D02*
D03*
X2322956D02*
D03*
X2439796Y2395067D02*
D03*
X2416936D02*
D03*
D23*
X2607436Y2007997D02*
D03*
Y2058797D02*
D03*
Y1982597D02*
D03*
Y2033397D02*
D03*
X2510916Y2007997D02*
D03*
Y2058797D02*
D03*
Y1982597D02*
D03*
Y2033397D02*
D03*
X2607436Y2071497D02*
D03*
Y2046097D02*
D03*
Y2020697D02*
D03*
Y1995297D02*
D03*
X2510916Y1969897D02*
D03*
Y1995297D02*
D03*
Y2020697D02*
D03*
Y2046097D02*
D03*
X2607436Y2084197D02*
D03*
Y1969897D02*
D03*
X2510916Y2071497D02*
D03*
Y2084197D02*
D03*
X2688716Y2366137D02*
D03*
X2744596Y2378837D02*
D03*
Y2340737D02*
D03*
Y2328037D02*
D03*
Y2366137D02*
D03*
X2688716Y2353437D02*
D03*
X2744596D02*
D03*
X2688716Y2340737D02*
D03*
X2744596Y2315337D02*
D03*
X2688716D02*
D03*
Y2328037D02*
D03*
Y2302637D02*
D03*
X2510916Y2465197D02*
D03*
Y2452497D02*
D03*
Y2427097D02*
D03*
Y2401697D02*
D03*
Y2388997D02*
D03*
Y2376297D02*
D03*
Y2363597D02*
D03*
Y2350897D02*
D03*
X2607436D02*
D03*
Y2363597D02*
D03*
Y2376297D02*
D03*
Y2388997D02*
D03*
Y2401697D02*
D03*
Y2414397D02*
D03*
Y2427097D02*
D03*
Y2439797D02*
D03*
Y2452497D02*
D03*
Y2465197D02*
D03*
X2510916Y2272157D02*
D03*
Y2259457D02*
D03*
Y2246757D02*
D03*
Y2221357D02*
D03*
Y2195957D02*
D03*
Y2170557D02*
D03*
X2607436Y2157857D02*
D03*
Y2183257D02*
D03*
Y2208657D02*
D03*
Y2234057D02*
D03*
Y2259457D02*
D03*
Y2272157D02*
D03*
X2688716Y2378837D02*
D03*
X2744596Y2302637D02*
D03*
Y2462657D02*
D03*
Y2449957D02*
D03*
Y2424557D02*
D03*
Y2411857D02*
D03*
Y2399157D02*
D03*
X2688716D02*
D03*
Y2411857D02*
D03*
Y2424557D02*
D03*
Y2437257D02*
D03*
Y2449957D02*
D03*
Y2462657D02*
D03*
Y2475357D02*
D03*
X2510916Y2208657D02*
D03*
X2607436Y2221357D02*
D03*
X2510916Y2183257D02*
D03*
Y2157857D02*
D03*
Y2234057D02*
D03*
X2607436Y2246757D02*
D03*
Y2195957D02*
D03*
Y2170557D02*
D03*
X2744596Y2475357D02*
D03*
Y2437257D02*
D03*
X2510916Y2439797D02*
D03*
Y2414397D02*
D03*
D29*
X2872684Y1389144D02*
X2871596Y1388055D01*
X2872684Y1386967D01*
X2873772Y1388055D01*
X2872684Y1389144D01*
X2895104Y1404380D02*
X2894016Y1406557D01*
X2891839Y1408734D01*
X2889662Y1409822D01*
X2885309D01*
X2883132Y1408734D01*
X2880956Y1406557D01*
X2879867Y1404380D01*
X2878779Y1401115D01*
Y1395674D01*
X2879867Y1392409D01*
X2880956Y1390232D01*
X2883132Y1388055D01*
X2885309Y1386967D01*
X2889662D01*
X2891839Y1388055D01*
X2894016Y1390232D01*
X2895104Y1392409D01*
Y1395674D01*
X2889662D02*
X2895104D01*
X2900328Y1409822D02*
Y1386967D01*
Y1409822D02*
X2910123D01*
X2913388Y1408734D01*
X2914476Y1407645D01*
X2915565Y1405469D01*
Y1403292D01*
X2914476Y1401115D01*
X2913388Y1400027D01*
X2910123Y1398939D01*
X2900328D02*
X2910123D01*
X2913388Y1397850D01*
X2914476Y1396762D01*
X2915565Y1394585D01*
Y1391320D01*
X2914476Y1389144D01*
X2913388Y1388055D01*
X2910123Y1386967D01*
X2900328D01*
X2920680Y1397850D02*
X2930475D01*
X2933740Y1398939D01*
X2934828Y1400027D01*
X2935916Y1402204D01*
Y1405469D01*
X2934828Y1407645D01*
X2933740Y1408734D01*
X2930475Y1409822D01*
X2920680D01*
Y1386967D01*
D38*
X2877196Y2178177D02*
D03*
Y2000377D02*
D03*
Y2038477D02*
D03*
Y2051177D02*
D03*
Y2063877D02*
D03*
Y2076577D02*
D03*
Y2089277D02*
D03*
Y2101977D02*
D03*
Y2114677D02*
D03*
Y2127377D02*
D03*
X2973196Y1987677D02*
D03*
Y2013077D02*
D03*
Y2025777D02*
D03*
Y2089277D02*
D03*
Y2114677D02*
D03*
X2877196Y2152777D02*
D03*
Y2165477D02*
D03*
X2973196Y2178177D02*
D03*
Y2165477D02*
D03*
Y2152777D02*
D03*
Y2140077D02*
D03*
Y2127377D02*
D03*
X2877196Y2140077D02*
D03*
X2973196Y2101977D02*
D03*
Y2076577D02*
D03*
Y2063877D02*
D03*
Y2051177D02*
D03*
Y2038477D02*
D03*
Y2000377D02*
D03*
X2877196Y2013077D02*
D03*
Y2025777D02*
D03*
D39*
Y1987677D02*
D03*
M02*
