%FSLAX44Y44*%
%MOMM*%
G71*
G01*
G75*
%ADD10C,0.2000*%
%ADD11C,1.0000*%
%ADD12R,1.9050X0.4064*%
%ADD13R,0.4064X1.9050*%
%ADD14O,0.6000X2.2000*%
%ADD15R,0.9144X0.9144*%
%ADD16R,1.2700X0.9144*%
%ADD17R,1.5240X1.5240*%
%ADD18R,1.2700X1.5240*%
%ADD19R,1.5240X1.2700*%
%ADD20R,1.5000X0.4000*%
%ADD21R,0.9144X1.2700*%
%ADD22O,0.6000X2.2000*%
%ADD23O,2.0320X0.6096*%
%ADD24C,0.3000*%
%ADD25C,0.5000*%
%ADD26C,0.6000*%
%ADD27C,0.8000*%
%ADD28C,0.2540*%
%ADD29C,0.2286*%
%ADD30C,4.5500*%
%ADD31C,1.5000*%
%ADD32R,1.5000X1.5000*%
%ADD33C,1.6510*%
%ADD34C,3.6000*%
%ADD35C,1.6000*%
%ADD36R,1.6000X1.6000*%
%ADD37C,0.8000*%
%ADD38O,2.5400X0.7500*%
%ADD39R,2.5400X0.7500*%
%ADD40C,0.7000*%
%ADD41C,0.2500*%
%ADD42C,0.3048*%
%ADD43C,0.1500*%
D10*
X2182366Y2466967D02*
X2185025Y2467496D01*
X2187280Y2469003D01*
X2188787Y2471257D01*
X2189316Y2473917D01*
X2145366Y2466967D02*
X2142706Y2466438D01*
X2140451Y2464931D01*
X2138945Y2462677D01*
X2138416Y2460017D01*
X2140390Y2488095D02*
X2141850Y2485873D01*
X2144366Y2485012D01*
X2151466Y2504818D02*
X2149093Y2505643D01*
X2146818Y2504576D01*
X2189316Y1998717D02*
X2188787Y2001377D01*
X2187280Y2003631D01*
X2185025Y2005138D01*
X2182366Y2005667D01*
X2138416Y2012617D02*
X2138945Y2009957D01*
X2140451Y2007703D01*
X2142706Y2006196D01*
X2145366Y2005667D01*
X2144366Y1987622D02*
X2141850Y1986761D01*
X2140390Y1984539D01*
X2146818Y1968058D02*
X2149093Y1966990D01*
X2151466Y1967816D01*
X3103179Y2033977D02*
X3102678Y2036496D01*
X3101251Y2038632D01*
X3099115Y2040059D01*
X3096596Y2040560D01*
X3094077Y2040059D01*
X3091941Y2038632D01*
X3090514Y2036496D01*
X3090013Y2033977D01*
X2725546Y1985137D02*
X2725062Y1987567D01*
X2723686Y1989627D01*
X2721626Y1991004D01*
X2719196Y1991487D01*
X2716766Y1991004D01*
X2714706Y1989627D01*
X2713329Y1987567D01*
X2712846Y1985137D01*
X3074086Y2425547D02*
X3071656Y2425064D01*
X3069596Y2423687D01*
X3068219Y2421627D01*
X3067736Y2419197D01*
X3068219Y2416767D01*
X3069596Y2414707D01*
X3071656Y2413331D01*
X3074086Y2412847D01*
X2364916Y2522017D02*
X2371266Y2528367D01*
X2358566D02*
X2364916Y2522017D01*
X2358566Y2528367D02*
X2371266D01*
X3124916Y1992017D02*
X3131266Y1998367D01*
X3118566D02*
X3124916Y1992017D01*
X3118566Y1998367D02*
X3131266D01*
X3124916Y2492017D02*
X3131266Y2498367D01*
X3118566D02*
X3124916Y2492017D01*
X3118566Y2498367D02*
X3131266D01*
X2306966Y1916817D02*
Y2555817D01*
X2189366Y2555817D02*
X2306966D01*
X2189366Y1916817D02*
Y2555817D01*
Y1916817D02*
X2306966D01*
X2145366Y2466967D02*
X2182366D01*
X2151466Y2496017D02*
X2189366D01*
X2151466D02*
Y2504817D01*
X2144166Y2485017D02*
X2189366Y2481317D01*
X2140390Y2488095D02*
Y2495317D01*
X2146666Y2504717D01*
X2138266Y2012617D02*
Y2460017D01*
X2145366Y2005667D02*
X2182366D01*
X2151466Y1976617D02*
X2189366D01*
X2151466Y1967817D02*
Y1976617D01*
X2144166Y1987617D02*
X2189366Y1991317D01*
X2140390Y1977317D02*
Y1984539D01*
Y1977317D02*
X2146666Y1967917D01*
X2886996Y1976677D02*
X2906996D01*
X2886996Y2021537D02*
X2906996D01*
Y1976677D02*
Y1994027D01*
X2886996Y1976677D02*
Y1994027D01*
Y2004187D02*
Y2021537D01*
X2906996Y2004187D02*
Y2021537D01*
X3164536Y2353597D02*
Y2373597D01*
X3119676Y2353597D02*
Y2373597D01*
X3147186D02*
X3164536D01*
X3147186Y2353597D02*
X3164536D01*
X3119676D02*
X3137026D01*
X3119676Y2373597D02*
X3137026D01*
X3081846Y2033977D02*
Y2088477D01*
X3103179Y2033977D02*
X3111346D01*
X3081846D02*
X3090013D01*
X3081846Y2088477D02*
X3111346D01*
Y2033977D02*
Y2088477D01*
X3049236Y2052447D02*
Y2069797D01*
X3029236Y2052447D02*
Y2069797D01*
Y2024937D02*
Y2042287D01*
X3049236Y2024937D02*
Y2042287D01*
X3029236Y2069797D02*
X3049236D01*
X3029236Y2024937D02*
X3049236D01*
X2782696Y1985137D02*
Y2493137D01*
X2655696D02*
X2782696D01*
X2655696Y1985137D02*
Y2493137D01*
Y1985137D02*
X2712846D01*
X2725546D02*
X2782696D01*
X3146076Y2097737D02*
X3166076D01*
X3146076Y2052877D02*
X3166076D01*
X3146076Y2080387D02*
Y2097737D01*
X3166076Y2080387D02*
Y2097737D01*
Y2052877D02*
Y2070227D01*
X3146076Y2052877D02*
Y2070227D01*
X3034316Y2177337D02*
X3054316D01*
X3034316Y2222197D02*
X3054316D01*
Y2177337D02*
Y2194687D01*
X3034316Y2177337D02*
Y2194687D01*
Y2204847D02*
Y2222197D01*
X3054316Y2204847D02*
Y2222197D01*
X2903776Y2135157D02*
Y2155157D01*
X2948636Y2135157D02*
Y2155157D01*
X2903776Y2135157D02*
X2921126D01*
X2903776Y2155157D02*
X2921126D01*
X2931286D02*
X2948636D01*
X2931286Y2135157D02*
X2948636D01*
X2929176Y2330737D02*
Y2350737D01*
X2974036Y2330737D02*
Y2350737D01*
X2929176Y2330737D02*
X2946526D01*
X2929176Y2350737D02*
X2946526D01*
X2956686D02*
X2974036D01*
X2956686Y2330737D02*
X2974036D01*
X2499056Y2358677D02*
Y2378677D01*
X2454196Y2358677D02*
Y2378677D01*
X2481706D02*
X2499056D01*
X2481706Y2358677D02*
X2499056D01*
X2454196D02*
X2471546D01*
X2454196Y2378677D02*
X2471546D01*
X2881596Y2004187D02*
Y2021537D01*
X2861596Y2004187D02*
Y2021537D01*
Y1976677D02*
Y1994027D01*
X2881596Y1976677D02*
Y1994027D01*
X2861596Y2021537D02*
X2881596D01*
X2861596Y1976677D02*
X2881596D01*
X3023836Y2052447D02*
Y2069797D01*
X3003836Y2052447D02*
Y2069797D01*
Y2024937D02*
Y2042287D01*
X3023836Y2024937D02*
Y2042287D01*
X3003836Y2069797D02*
X3023836D01*
X3003836Y2024937D02*
X3023836D01*
X2866356Y2250567D02*
Y2267917D01*
X2846356Y2250567D02*
Y2267917D01*
Y2223057D02*
Y2240407D01*
X2866356Y2223057D02*
Y2240407D01*
X2846356Y2267917D02*
X2866356D01*
X2846356Y2223057D02*
X2866356D01*
X2936796Y2119597D02*
X2954146D01*
X2936796Y2099597D02*
X2954146D01*
X2964306D02*
X2981656D01*
X2964306Y2119597D02*
X2981656D01*
X2936796Y2099597D02*
Y2119597D01*
X2981656Y2099597D02*
Y2119597D01*
X3074086Y2425547D02*
Y2450197D01*
Y2388197D02*
Y2412847D01*
X2890086Y2388197D02*
Y2450197D01*
X3074086D01*
X2890086Y2388197D02*
X3074086D01*
X2405936Y2435867D02*
Y2455867D01*
X2450796Y2435867D02*
Y2455867D01*
X2405936Y2435867D02*
X2423286D01*
X2405936Y2455867D02*
X2423286D01*
X2433446D02*
X2450796D01*
X2433446Y2435867D02*
X2450796D01*
X2405936Y2410467D02*
Y2430467D01*
X2450796Y2410467D02*
Y2430467D01*
X2405936Y2410467D02*
X2423286D01*
X2405936Y2430467D02*
X2423286D01*
X2433446D02*
X2450796D01*
X2433446Y2410467D02*
X2450796D01*
X2311930Y2296167D02*
Y2316167D01*
X2356790Y2296167D02*
Y2316167D01*
X2311930Y2296167D02*
X2329280D01*
X2311930Y2316167D02*
X2329280D01*
X2339440D02*
X2356790D01*
X2339440Y2296167D02*
X2356790D01*
X2339440Y2270767D02*
X2356790D01*
X2339440Y2290767D02*
X2356790D01*
X2311930D02*
X2329280D01*
X2311930Y2270767D02*
X2329280D01*
X2356790D02*
Y2290767D01*
X2311930Y2270767D02*
Y2290767D01*
X2403396Y2283467D02*
Y2303467D01*
X2448256Y2283467D02*
Y2303467D01*
X2403396Y2283467D02*
X2420746D01*
X2403396Y2303467D02*
X2420746D01*
X2430906D02*
X2448256D01*
X2430906Y2283467D02*
X2448256D01*
X2311930Y2245367D02*
Y2265367D01*
X2356790Y2245367D02*
Y2265367D01*
X2311930Y2245367D02*
X2329280D01*
X2311930Y2265367D02*
X2329280D01*
X2339440D02*
X2356790D01*
X2339440Y2245367D02*
X2356790D01*
X2311930Y2219967D02*
Y2239967D01*
X2356790Y2219967D02*
Y2239967D01*
X2311930Y2219967D02*
X2329280D01*
X2311930Y2239967D02*
X2329280D01*
X2339440D02*
X2356790D01*
X2339440Y2219967D02*
X2356790D01*
D24*
X2172916Y1936317D02*
X2172787Y1938846D01*
X2172404Y1941349D01*
X2171769Y1943801D01*
X2170890Y1946176D01*
X2169774Y1948450D01*
X2168435Y1950599D01*
X2166885Y1952601D01*
X2165140Y1954437D01*
X2163218Y1956086D01*
X2161140Y1957533D01*
X2158926Y1958762D01*
X2156598Y1959761D01*
X2154182Y1960519D01*
X2151701Y1961029D01*
X2149182Y1961285D01*
X2146649D01*
X2144130Y1961029D01*
X2141649Y1960519D01*
X2139233Y1959761D01*
X2136906Y1958762D01*
X2134692Y1957533D01*
X2132613Y1956086D01*
X2130692Y1954437D01*
X2128947Y1952601D01*
X2127397Y1950599D01*
X2126057Y1948450D01*
X2124942Y1946176D01*
X2124062Y1943801D01*
X2123427Y1941349D01*
X2123044Y1938846D01*
X2122916Y1936317D01*
X2123044Y1933788D01*
X2123427Y1931284D01*
X2124062Y1928833D01*
X2124942Y1926458D01*
X2126057Y1924184D01*
X2127397Y1922035D01*
X2128947Y1920033D01*
X2130692Y1918197D01*
X2132613Y1916548D01*
X2134692Y1915101D01*
X2136906Y1913872D01*
X2139233Y1912873D01*
X2141649Y1912115D01*
X2144130Y1911605D01*
X2146649Y1911349D01*
X2149182D01*
X2151702Y1911605D01*
X2154182Y1912115D01*
X2156598Y1912873D01*
X2158926Y1913872D01*
X2161140Y1915101D01*
X2163218Y1916548D01*
X2165140Y1918197D01*
X2166885Y1920033D01*
X2168435Y1922035D01*
X2169774Y1924185D01*
X2170890Y1926458D01*
X2171769Y1928833D01*
X2172404Y1931285D01*
X2172787Y1933788D01*
X2172916Y1936317D01*
Y2536317D02*
X2172787Y2538846D01*
X2172404Y2541349D01*
X2171769Y2543801D01*
X2170890Y2546176D01*
X2169774Y2548450D01*
X2168435Y2550599D01*
X2166885Y2552601D01*
X2165140Y2554437D01*
X2163218Y2556086D01*
X2161140Y2557533D01*
X2158926Y2558762D01*
X2156598Y2559761D01*
X2154182Y2560519D01*
X2151701Y2561029D01*
X2149182Y2561285D01*
X2146649D01*
X2144130Y2561029D01*
X2141649Y2560519D01*
X2139233Y2559761D01*
X2136906Y2558762D01*
X2134692Y2557533D01*
X2132613Y2556086D01*
X2130692Y2554437D01*
X2128947Y2552601D01*
X2127397Y2550599D01*
X2126057Y2548450D01*
X2124942Y2546176D01*
X2124062Y2543801D01*
X2123427Y2541349D01*
X2123044Y2538846D01*
X2122916Y2536317D01*
X2123044Y2533788D01*
X2123427Y2531284D01*
X2124062Y2528833D01*
X2124942Y2526458D01*
X2126057Y2524184D01*
X2127397Y2522035D01*
X2128947Y2520033D01*
X2130692Y2518197D01*
X2132613Y2516548D01*
X2134692Y2515101D01*
X2136906Y2513872D01*
X2139233Y2512873D01*
X2141649Y2512115D01*
X2144130Y2511605D01*
X2146649Y2511349D01*
X2149182D01*
X2151702Y2511605D01*
X2154182Y2512115D01*
X2156598Y2512873D01*
X2158926Y2513872D01*
X2161140Y2515101D01*
X2163218Y2516548D01*
X2165140Y2518197D01*
X2166885Y2520033D01*
X2168435Y2522035D01*
X2169774Y2524185D01*
X2170890Y2526458D01*
X2171769Y2528833D01*
X2172404Y2531285D01*
X2172787Y2533788D01*
X2172916Y2536317D01*
X3132916D02*
X3132787Y2538846D01*
X3132404Y2541349D01*
X3131769Y2543801D01*
X3130890Y2546176D01*
X3129774Y2548450D01*
X3128435Y2550599D01*
X3126885Y2552601D01*
X3125140Y2554437D01*
X3123218Y2556086D01*
X3121140Y2557533D01*
X3118925Y2558762D01*
X3116599Y2559761D01*
X3114182Y2560519D01*
X3111701Y2561029D01*
X3109182Y2561285D01*
X3106649D01*
X3104130Y2561029D01*
X3101649Y2560519D01*
X3099233Y2559761D01*
X3096906Y2558762D01*
X3094691Y2557533D01*
X3092613Y2556086D01*
X3090692Y2554437D01*
X3088947Y2552601D01*
X3087397Y2550599D01*
X3086057Y2548450D01*
X3084942Y2546176D01*
X3084062Y2543801D01*
X3083427Y2541349D01*
X3083044Y2538846D01*
X3082916Y2536317D01*
X3083044Y2533788D01*
X3083427Y2531284D01*
X3084062Y2528833D01*
X3084942Y2526458D01*
X3086057Y2524184D01*
X3087397Y2522035D01*
X3088947Y2520033D01*
X3090692Y2518197D01*
X3092613Y2516548D01*
X3094692Y2515101D01*
X3096906Y2513872D01*
X3099233Y2512873D01*
X3101649Y2512115D01*
X3104130Y2511605D01*
X3106649Y2511349D01*
X3109182D01*
X3111701Y2511605D01*
X3114182Y2512115D01*
X3116599Y2512873D01*
X3118925Y2513872D01*
X3121140Y2515101D01*
X3123218Y2516548D01*
X3125140Y2518197D01*
X3126885Y2520033D01*
X3128435Y2522035D01*
X3129774Y2524185D01*
X3130890Y2526458D01*
X3131769Y2528833D01*
X3132404Y2531285D01*
X3132787Y2533788D01*
X3132916Y2536317D01*
X2762916D02*
X2762787Y2538846D01*
X2762404Y2541349D01*
X2761769Y2543801D01*
X2760890Y2546176D01*
X2759774Y2548450D01*
X2758435Y2550599D01*
X2756885Y2552601D01*
X2755140Y2554437D01*
X2753218Y2556086D01*
X2751140Y2557533D01*
X2748925Y2558762D01*
X2746599Y2559761D01*
X2744182Y2560519D01*
X2741701Y2561029D01*
X2739182Y2561285D01*
X2736649D01*
X2734130Y2561029D01*
X2731649Y2560519D01*
X2729233Y2559761D01*
X2726906Y2558762D01*
X2724691Y2557533D01*
X2722613Y2556086D01*
X2720692Y2554437D01*
X2718947Y2552601D01*
X2717397Y2550599D01*
X2716057Y2548450D01*
X2714942Y2546176D01*
X2714062Y2543801D01*
X2713427Y2541349D01*
X2713044Y2538846D01*
X2712916Y2536317D01*
X2713044Y2533788D01*
X2713427Y2531284D01*
X2714062Y2528833D01*
X2714942Y2526458D01*
X2716057Y2524184D01*
X2717397Y2522035D01*
X2718947Y2520033D01*
X2720692Y2518197D01*
X2722613Y2516548D01*
X2724692Y2515101D01*
X2726906Y2513872D01*
X2729233Y2512873D01*
X2731649Y2512115D01*
X2734130Y2511605D01*
X2736649Y2511349D01*
X2739182D01*
X2741701Y2511605D01*
X2744182Y2512115D01*
X2746599Y2512873D01*
X2748925Y2513872D01*
X2751140Y2515101D01*
X2753218Y2516548D01*
X2755140Y2518197D01*
X2756885Y2520033D01*
X2758435Y2522035D01*
X2759774Y2524185D01*
X2760890Y2526458D01*
X2761769Y2528833D01*
X2762404Y2531285D01*
X2762787Y2533788D01*
X2762916Y2536317D01*
X3132916Y1936317D02*
X3132787Y1938846D01*
X3132404Y1941349D01*
X3131769Y1943801D01*
X3130890Y1946176D01*
X3129774Y1948450D01*
X3128435Y1950599D01*
X3126885Y1952601D01*
X3125140Y1954437D01*
X3123218Y1956086D01*
X3121140Y1957533D01*
X3118925Y1958762D01*
X3116599Y1959761D01*
X3114182Y1960519D01*
X3111701Y1961029D01*
X3109182Y1961285D01*
X3106649D01*
X3104130Y1961029D01*
X3101649Y1960519D01*
X3099233Y1959761D01*
X3096906Y1958762D01*
X3094691Y1957533D01*
X3092613Y1956086D01*
X3090692Y1954437D01*
X3088947Y1952601D01*
X3087397Y1950599D01*
X3086057Y1948450D01*
X3084942Y1946176D01*
X3084062Y1943801D01*
X3083427Y1941349D01*
X3083044Y1938846D01*
X3082916Y1936317D01*
X3083044Y1933788D01*
X3083427Y1931284D01*
X3084062Y1928833D01*
X3084942Y1926458D01*
X3086057Y1924184D01*
X3087397Y1922035D01*
X3088947Y1920033D01*
X3090692Y1918197D01*
X3092613Y1916548D01*
X3094692Y1915101D01*
X3096906Y1913872D01*
X3099233Y1912873D01*
X3101649Y1912115D01*
X3104130Y1911605D01*
X3106649Y1911349D01*
X3109182D01*
X3111701Y1911605D01*
X3114182Y1912115D01*
X3116599Y1912873D01*
X3118925Y1913872D01*
X3121140Y1915101D01*
X3123218Y1916548D01*
X3125140Y1918197D01*
X3126885Y1920033D01*
X3128435Y1922035D01*
X3129774Y1924185D01*
X3130890Y1926458D01*
X3131769Y1928833D01*
X3132404Y1931285D01*
X3132787Y1933788D01*
X3132916Y1936317D01*
X2762916D02*
X2762787Y1938846D01*
X2762404Y1941349D01*
X2761769Y1943801D01*
X2760890Y1946176D01*
X2759774Y1948450D01*
X2758435Y1950599D01*
X2756885Y1952601D01*
X2755140Y1954437D01*
X2753218Y1956086D01*
X2751140Y1957533D01*
X2748925Y1958762D01*
X2746599Y1959761D01*
X2744182Y1960519D01*
X2741701Y1961029D01*
X2739182Y1961285D01*
X2736649D01*
X2734130Y1961029D01*
X2731649Y1960519D01*
X2729233Y1959761D01*
X2726906Y1958762D01*
X2724691Y1957533D01*
X2722613Y1956086D01*
X2720692Y1954437D01*
X2718947Y1952601D01*
X2717397Y1950599D01*
X2716057Y1948450D01*
X2714942Y1946176D01*
X2714062Y1943801D01*
X2713427Y1941349D01*
X2713044Y1938846D01*
X2712916Y1936317D01*
X2713044Y1933788D01*
X2713427Y1931284D01*
X2714062Y1928833D01*
X2714942Y1926458D01*
X2716057Y1924184D01*
X2717397Y1922035D01*
X2718947Y1920033D01*
X2720692Y1918197D01*
X2722613Y1916548D01*
X2724692Y1915101D01*
X2726906Y1913872D01*
X2729233Y1912873D01*
X2731649Y1912115D01*
X2734130Y1911605D01*
X2736649Y1911349D01*
X2739182D01*
X2741701Y1911605D01*
X2744182Y1912115D01*
X2746599Y1912873D01*
X2748925Y1913872D01*
X2751140Y1915101D01*
X2753218Y1916548D01*
X2755140Y1918197D01*
X2756885Y1920033D01*
X2758435Y1922035D01*
X2759774Y1924185D01*
X2760890Y1926458D01*
X2761769Y1928833D01*
X2762404Y1931285D01*
X2762787Y1933788D01*
X2762916Y1936317D01*
X2147916Y1911317D02*
Y1921317D01*
X2122916Y1936317D02*
X2132916D01*
X2162916D02*
X2172916D01*
X2147916Y1951317D02*
Y1961317D01*
Y2511317D02*
Y2521317D01*
X2122916Y2536317D02*
X2132916D01*
X2162916D02*
X2172916D01*
X2147916Y2551317D02*
Y2561317D01*
X3107916Y2511317D02*
Y2521317D01*
X3082916Y2536317D02*
X3092916D01*
X3122916D02*
X3132916D01*
X3107916Y2551317D02*
Y2561317D01*
X2737916Y2511317D02*
Y2521317D01*
X2712916Y2536317D02*
X2722916D01*
X2752916D02*
X2762916D01*
X2737916Y2551317D02*
Y2561317D01*
X3107916Y1911317D02*
Y1921317D01*
X3082916Y1936317D02*
X3092916D01*
X3122916D02*
X3132916D01*
X3107916Y1951317D02*
Y1961317D01*
X2737916Y1911317D02*
Y1921317D01*
X2712916Y1936317D02*
X2722916D01*
X2752916D02*
X2762916D01*
X2737916Y1951317D02*
Y1961317D01*
D28*
X2550286Y2372487D02*
X2549802Y2374917D01*
X2548426Y2376977D01*
X2546366Y2378354D01*
X2543936Y2378837D01*
X2541506Y2378354D01*
X2539446Y2376977D01*
X2538069Y2374917D01*
X2537586Y2372487D01*
X3198916Y2296817D02*
X3277166Y2296567D01*
Y2175817D02*
Y2296567D01*
X3198916Y2175817D02*
X3277166D01*
X3109915Y2175817D02*
X3149416D01*
X3109916Y2175817D02*
Y2296567D01*
X3109915Y2296567D02*
X3149416D01*
X3133106Y2377997D02*
Y2399997D01*
X3110786Y2377997D02*
Y2399997D01*
X3167076Y2377997D02*
Y2399997D01*
X3110786D02*
X3167076D01*
X3110786Y2377997D02*
X3167076D01*
X3019076Y2553577D02*
X3039076D01*
X3029076Y2541077D02*
X3039076Y2553577D01*
X3019076D02*
X3029076Y2541077D01*
X3016376Y2508377D02*
Y2533777D01*
X3041776Y2508377D02*
Y2533777D01*
X2914776Y2508377D02*
X3041776D01*
X2914776Y2533777D02*
X3041776D01*
X2914776Y2508377D02*
Y2533777D01*
X2860596Y1963117D02*
X2916886D01*
X2860596Y1941117D02*
X2916886D01*
X2860596D02*
Y1963117D01*
X2916886Y1941117D02*
Y1963117D01*
X2894566Y1941117D02*
Y1963117D01*
X2977436D02*
X3033726D01*
X2977436Y1941117D02*
X3033726D01*
X2977436D02*
Y1963117D01*
X3033726Y1941117D02*
Y1963117D01*
X3011406Y1941117D02*
Y1963117D01*
X2550286Y2372487D02*
X2556636D01*
X2531236D02*
X2537586D01*
X2531236D02*
Y2461387D01*
X2556636D01*
Y2372487D02*
Y2461387D01*
X2366136Y2217417D02*
Y2446017D01*
Y2217417D02*
X2391536D01*
Y2446017D01*
X2366136D02*
X2391536D01*
X2366136Y2420617D02*
X2391536D01*
X2523616Y2488052D02*
Y2475356D01*
X2526155Y2472817D01*
X2531233D01*
X2533772Y2475356D01*
Y2488052D01*
X2538851Y2472817D02*
X2543929D01*
X2541390D01*
Y2488052D01*
X2538851Y2485513D01*
X2561703Y2472817D02*
X2551547D01*
X2561703Y2482974D01*
Y2485513D01*
X2559164Y2488052D01*
X2554086D01*
X2551547Y2485513D01*
X3122124Y2335325D02*
Y2350560D01*
X3129742D01*
X3132281Y2348021D01*
Y2342943D01*
X3129742Y2340404D01*
X3122124D01*
X3127202D02*
X3132281Y2335325D01*
X3137359Y2348021D02*
X3139898Y2350560D01*
X3144977D01*
X3147516Y2348021D01*
Y2345482D01*
X3144977Y2342943D01*
X3142438D01*
X3144977D01*
X3147516Y2340404D01*
Y2337865D01*
X3144977Y2335325D01*
X3139898D01*
X3137359Y2337865D01*
X3152594D02*
X3155134Y2335325D01*
X3160212D01*
X3162751Y2337865D01*
Y2348021D01*
X3160212Y2350560D01*
X3155134D01*
X3152594Y2348021D01*
Y2345482D01*
X3155134Y2342943D01*
X3162751D01*
X2927476Y1980057D02*
X2912241D01*
Y1987675D01*
X2914780Y1990214D01*
X2919858D01*
X2922397Y1987675D01*
Y1980057D01*
Y1985135D02*
X2927476Y1990214D01*
X2914780Y1995292D02*
X2912241Y1997831D01*
Y2002910D01*
X2914780Y2005449D01*
X2917319D01*
X2919858Y2002910D01*
Y2000370D01*
Y2002910D01*
X2922397Y2005449D01*
X2924937D01*
X2927476Y2002910D01*
Y1997831D01*
X2924937Y1995292D01*
X2914780Y2010527D02*
X2912241Y2013066D01*
Y2018145D01*
X2914780Y2020684D01*
X2917319D01*
X2919858Y2018145D01*
X2922397Y2020684D01*
X2924937D01*
X2927476Y2018145D01*
Y2013066D01*
X2924937Y2010527D01*
X2922397D01*
X2919858Y2013066D01*
X2917319Y2010527D01*
X2914780D01*
X2919858Y2013066D02*
Y2018145D01*
X2828527Y2396486D02*
Y2381251D01*
X2836144D01*
X2838683Y2383790D01*
Y2393947D01*
X2836144Y2396486D01*
X2828527D01*
X2851379Y2381251D02*
Y2396486D01*
X2843762Y2388869D01*
X2853918D01*
X3112896Y2422012D02*
Y2406777D01*
X3120513D01*
X3123052Y2409316D01*
Y2411855D01*
X3120513Y2414395D01*
X3112896D01*
X3120513D01*
X3123052Y2416934D01*
Y2419473D01*
X3120513Y2422012D01*
X3112896D01*
X3128131D02*
Y2409316D01*
X3130670Y2406777D01*
X3135748D01*
X3138287Y2409316D01*
Y2422012D01*
X3153523Y2419473D02*
X3150983Y2422012D01*
X3145905D01*
X3143366Y2419473D01*
Y2416934D01*
X3145905Y2414395D01*
X3150983D01*
X3153523Y2411855D01*
Y2409316D01*
X3150983Y2406777D01*
X3145905D01*
X3143366Y2409316D01*
X3158601Y2422012D02*
Y2419473D01*
X3163679Y2414395D01*
X3168758Y2419473D01*
Y2422012D01*
X3163679Y2414395D02*
Y2406777D01*
X3171316Y2396612D02*
Y2381377D01*
X3178933D01*
X3181472Y2383916D01*
Y2394073D01*
X3178933Y2396612D01*
X3171316D01*
X3186551Y2394073D02*
X3189090Y2396612D01*
X3194168D01*
X3196707Y2394073D01*
Y2391534D01*
X3194168Y2388994D01*
X3191629D01*
X3194168D01*
X3196707Y2386455D01*
Y2383916D01*
X3194168Y2381377D01*
X3189090D01*
X3186551Y2383916D01*
X2949053Y2051980D02*
Y2039284D01*
X2951592Y2036745D01*
X2956670D01*
X2959209Y2039284D01*
Y2051980D01*
X2974445D02*
X2969366Y2049441D01*
X2964288Y2044363D01*
Y2039284D01*
X2966827Y2036745D01*
X2971905D01*
X2974445Y2039284D01*
Y2041824D01*
X2971905Y2044363D01*
X2964288D01*
X3018590Y2306902D02*
Y2294207D01*
X3021129Y2291667D01*
X3026208D01*
X3028747Y2294207D01*
Y2306902D01*
X3043982D02*
X3033825D01*
Y2299285D01*
X3038904Y2301824D01*
X3041443D01*
X3043982Y2299285D01*
Y2294207D01*
X3041443Y2291667D01*
X3036365D01*
X3033825Y2294207D01*
X3080941Y2446499D02*
Y2433803D01*
X3083480Y2431264D01*
X3088558D01*
X3091097Y2433803D01*
Y2446499D01*
X3096176Y2443960D02*
X3098715Y2446499D01*
X3103793D01*
X3106332Y2443960D01*
Y2441420D01*
X3103793Y2438881D01*
X3101254D01*
X3103793D01*
X3106332Y2436342D01*
Y2433803D01*
X3103793Y2431264D01*
X3098715D01*
X3096176Y2433803D01*
X3084956Y2023232D02*
Y2010536D01*
X3087495Y2007997D01*
X3092573D01*
X3095113Y2010536D01*
Y2023232D01*
X3110348Y2007997D02*
X3100191D01*
X3110348Y2018154D01*
Y2020693D01*
X3107808Y2023232D01*
X3102730D01*
X3100191Y2020693D01*
X2757296Y1974972D02*
Y1962276D01*
X2759835Y1959737D01*
X2764913D01*
X2767452Y1962276D01*
Y1974972D01*
X2772531Y1959737D02*
X2777609D01*
X2775070D01*
Y1974972D01*
X2772531Y1972433D01*
X2358516Y2363597D02*
X2343281D01*
Y2371214D01*
X2345820Y2373754D01*
X2350898D01*
X2353437Y2371214D01*
Y2363597D01*
Y2368675D02*
X2358516Y2373754D01*
Y2378832D02*
X2343281D01*
Y2386450D01*
X2345820Y2388989D01*
X2350898D01*
X2353437Y2386450D01*
Y2378832D01*
X2358516Y2394067D02*
Y2399146D01*
Y2396606D01*
X2343281D01*
X2345820Y2394067D01*
X2968116Y2541397D02*
Y2556632D01*
X2975733D01*
X2978272Y2554093D01*
Y2549014D01*
X2975733Y2546475D01*
X2968116D01*
X2983351Y2556632D02*
X2988429D01*
X2985890D01*
Y2541397D01*
X2983351D01*
X2988429D01*
X3006203Y2554093D02*
X3003664Y2556632D01*
X2998586D01*
X2996047Y2554093D01*
Y2543936D01*
X2998586Y2541397D01*
X3003664D01*
X3006203Y2543936D01*
X2930013Y2556632D02*
X2924934D01*
X2927473D01*
Y2543936D01*
X2924934Y2541397D01*
X2922395D01*
X2919856Y2543936D01*
X2935091Y2554093D02*
X2937630Y2556632D01*
X2942708D01*
X2945247Y2554093D01*
Y2551554D01*
X2942708Y2549014D01*
X2940169D01*
X2942708D01*
X2945247Y2546475D01*
Y2543936D01*
X2942708Y2541397D01*
X2937630D01*
X2935091Y2543936D01*
X2313601Y2098241D02*
X2328836D01*
X2321218D01*
Y2108397D01*
X2313601D01*
X2328836D01*
Y2121093D02*
Y2116015D01*
X2326296Y2113476D01*
X2321218D01*
X2318679Y2116015D01*
Y2121093D01*
X2321218Y2123633D01*
X2323757D01*
Y2113476D01*
X2318679Y2131250D02*
Y2136328D01*
X2321218Y2138868D01*
X2328836D01*
Y2131250D01*
X2326296Y2128711D01*
X2323757Y2131250D01*
Y2138868D01*
X2313601Y2154103D02*
X2328836D01*
Y2146485D01*
X2326296Y2143946D01*
X2321218D01*
X2318679Y2146485D01*
Y2154103D01*
X2328836Y2166799D02*
Y2161720D01*
X2326296Y2159181D01*
X2321218D01*
X2318679Y2161720D01*
Y2166799D01*
X2321218Y2169338D01*
X2323757D01*
Y2159181D01*
X2318679Y2174416D02*
X2328836D01*
X2323757D01*
X2321218Y2176955D01*
X2318679Y2179494D01*
Y2182034D01*
X2312946Y2056712D02*
Y2051633D01*
Y2054172D01*
X2325642D01*
X2328181Y2051633D01*
Y2049094D01*
X2325642Y2046555D01*
X2328181Y2071947D02*
Y2061790D01*
X2318024Y2071947D01*
X2315485D01*
X2312946Y2069407D01*
Y2064329D01*
X2315485Y2061790D01*
X3080217Y2215710D02*
X3092913D01*
X3095452Y2218250D01*
Y2223328D01*
X3092913Y2225867D01*
X3080217D01*
X3082756Y2241102D02*
X3080217Y2238563D01*
Y2233485D01*
X3082756Y2230945D01*
X3085295D01*
X3087834Y2233485D01*
Y2238563D01*
X3090374Y2241102D01*
X3092913D01*
X3095452Y2238563D01*
Y2233485D01*
X3092913Y2230945D01*
X3080217Y2246181D02*
X3095452D01*
Y2253798D01*
X3092913Y2256337D01*
X3090374D01*
X3087834Y2253798D01*
Y2246181D01*
Y2253798D01*
X3085295Y2256337D01*
X3082756D01*
X3080217Y2253798D01*
Y2246181D01*
X3199261Y2325494D02*
Y2320415D01*
Y2322955D01*
X3211956D01*
X3214496Y2320415D01*
Y2317876D01*
X3211956Y2315337D01*
X3214496Y2330572D02*
Y2335650D01*
Y2333111D01*
X3199261D01*
X3201800Y2330572D01*
X2838576Y1934332D02*
X2848733D01*
X2843654D01*
Y1919097D01*
X2863968Y1931793D02*
X2861428Y1934332D01*
X2856350D01*
X2853811Y1931793D01*
Y1921636D01*
X2856350Y1919097D01*
X2861428D01*
X2863968Y1921636D01*
Y1926714D01*
X2858889D01*
X2869046Y1934332D02*
X2879203D01*
X2874124D01*
Y1919097D01*
X2899516D02*
Y1934332D01*
X2907133D01*
X2909673Y1931793D01*
Y1926714D01*
X2907133Y1924175D01*
X2899516D01*
X2914751Y1934332D02*
Y1919097D01*
X2919829Y1924175D01*
X2924908Y1919097D01*
Y1934332D01*
X2929986Y1919097D02*
Y1934332D01*
X2937604D01*
X2940143Y1931793D01*
Y1926714D01*
X2937604Y1924175D01*
X2929986D01*
X2935064D02*
X2940143Y1919097D01*
X2825876Y1959732D02*
Y1944497D01*
X2833493D01*
X2836032Y1947036D01*
Y1957193D01*
X2833493Y1959732D01*
X2825876D01*
X2851267Y1944497D02*
X2841111D01*
X2851267Y1954654D01*
Y1957193D01*
X2848728Y1959732D01*
X2843650D01*
X2841111Y1957193D01*
X2970656Y1919097D02*
Y1934332D01*
X2978273D01*
X2980812Y1931793D01*
Y1926714D01*
X2978273Y1924175D01*
X2970656D01*
X2993508Y1934332D02*
X2988430D01*
X2985891Y1931793D01*
Y1921636D01*
X2988430Y1919097D01*
X2993508D01*
X2996047Y1921636D01*
Y1931793D01*
X2993508Y1934332D01*
X3001126D02*
Y1919097D01*
X3006204Y1924175D01*
X3011283Y1919097D01*
Y1934332D01*
X3026518D02*
X3016361D01*
Y1919097D01*
X3026518D01*
X3016361Y1926714D02*
X3021439D01*
X3031596Y1919097D02*
Y1934332D01*
X3039214D01*
X3041753Y1931793D01*
Y1926714D01*
X3039214Y1924175D01*
X3031596D01*
X3036674D02*
X3041753Y1919097D01*
X2950336Y1959732D02*
Y1944497D01*
X2957953D01*
X2960493Y1947036D01*
Y1957193D01*
X2957953Y1959732D01*
X2950336D01*
X2965571Y1944497D02*
X2970649D01*
X2968110D01*
Y1959732D01*
X2965571Y1957193D01*
X2467733Y2350893D02*
X2465193Y2353432D01*
X2460115D01*
X2457576Y2350893D01*
Y2340736D01*
X2460115Y2338197D01*
X2465193D01*
X2467733Y2340736D01*
X2472811Y2338197D02*
X2477889D01*
X2475350D01*
Y2353432D01*
X2472811Y2350893D01*
X2495663Y2353432D02*
X2490585Y2350893D01*
X2485507Y2345815D01*
Y2340736D01*
X2488046Y2338197D01*
X2493124D01*
X2495663Y2340736D01*
Y2343275D01*
X2493124Y2345815D01*
X2485507D01*
X2988433Y2345813D02*
X2985893Y2348352D01*
X2980815D01*
X2978276Y2345813D01*
Y2335656D01*
X2980815Y2333117D01*
X2985893D01*
X2988433Y2335656D01*
X2993511Y2333117D02*
X2998589D01*
X2996050D01*
Y2348352D01*
X2993511Y2345813D01*
X3016364Y2348352D02*
X3006207D01*
Y2340735D01*
X3011285Y2343274D01*
X3013824D01*
X3016364Y2340735D01*
Y2335656D01*
X3013824Y2333117D01*
X3008746D01*
X3006207Y2335656D01*
X2870639Y2150225D02*
X2868100Y2152764D01*
X2863022D01*
X2860482Y2150225D01*
Y2140069D01*
X2863022Y2137529D01*
X2868100D01*
X2870639Y2140069D01*
X2875717Y2137529D02*
X2880796D01*
X2878257D01*
Y2152764D01*
X2875717Y2150225D01*
X2888413D02*
X2890952Y2152764D01*
X2896031D01*
X2898570Y2150225D01*
Y2140069D01*
X2896031Y2137529D01*
X2890952D01*
X2888413Y2140069D01*
Y2150225D01*
X3039240Y2236594D02*
X3036701Y2234055D01*
Y2228976D01*
X3039240Y2226437D01*
X3049396D01*
X3051936Y2228976D01*
Y2234055D01*
X3049396Y2236594D01*
Y2241672D02*
X3051936Y2244211D01*
Y2249290D01*
X3049396Y2251829D01*
X3039240D01*
X3036701Y2249290D01*
Y2244211D01*
X3039240Y2241672D01*
X3041779D01*
X3044318Y2244211D01*
Y2251829D01*
X2830174Y2245458D02*
X2827635Y2242919D01*
Y2237840D01*
X2830174Y2235301D01*
X2840331D01*
X2842870Y2237840D01*
Y2242919D01*
X2840331Y2245458D01*
X2830174Y2250536D02*
X2827635Y2253076D01*
Y2258154D01*
X2830174Y2260693D01*
X2832713D01*
X2835252Y2258154D01*
X2837791Y2260693D01*
X2840331D01*
X2842870Y2258154D01*
Y2253076D01*
X2840331Y2250536D01*
X2837791D01*
X2835252Y2253076D01*
X2832713Y2250536D01*
X2830174D01*
X2835252Y2253076D02*
Y2258154D01*
X3173860Y2074034D02*
X3171321Y2071494D01*
Y2066416D01*
X3173860Y2063877D01*
X3184016D01*
X3186556Y2066416D01*
Y2071494D01*
X3184016Y2074034D01*
X3171321Y2079112D02*
Y2089269D01*
X3173860D01*
X3184016Y2079112D01*
X3186556D01*
X3034160Y2086734D02*
X3031621Y2084194D01*
Y2079116D01*
X3034160Y2076577D01*
X3044316D01*
X3046856Y2079116D01*
Y2084194D01*
X3044316Y2086734D01*
X3031621Y2101969D02*
X3034160Y2096890D01*
X3039238Y2091812D01*
X3044316D01*
X3046856Y2094351D01*
Y2099430D01*
X3044316Y2101969D01*
X3041777D01*
X3039238Y2099430D01*
Y2091812D01*
X2914773Y2114673D02*
X2912233Y2117212D01*
X2907155D01*
X2904616Y2114673D01*
Y2104516D01*
X2907155Y2101977D01*
X2912233D01*
X2914773Y2104516D01*
X2930008Y2117212D02*
X2919851D01*
Y2109595D01*
X2924929Y2112134D01*
X2927468D01*
X2930008Y2109595D01*
Y2104516D01*
X2927468Y2101977D01*
X2922390D01*
X2919851Y2104516D01*
X3021456Y2076577D02*
X3006221D01*
Y2084194D01*
X3008760Y2086734D01*
X3013838D01*
X3016377Y2084194D01*
Y2076577D01*
Y2081655D02*
X3021456Y2086734D01*
X3008760Y2091812D02*
X3006221Y2094351D01*
Y2099430D01*
X3008760Y2101969D01*
X3011299D01*
X3013838Y2099430D01*
Y2096890D01*
Y2099430D01*
X3016377Y2101969D01*
X3018917D01*
X3021456Y2099430D01*
Y2094351D01*
X3018917Y2091812D01*
X3006221Y2117204D02*
X3008760Y2112126D01*
X3013838Y2107047D01*
X3018917D01*
X3021456Y2109586D01*
Y2114665D01*
X3018917Y2117204D01*
X3016377D01*
X3013838Y2114665D01*
Y2107047D01*
X2856356Y1977517D02*
X2841121D01*
Y1985134D01*
X2843660Y1987674D01*
X2848738D01*
X2851277Y1985134D01*
Y1977517D01*
Y1982595D02*
X2856356Y1987674D01*
X2843660Y1992752D02*
X2841121Y1995291D01*
Y2000370D01*
X2843660Y2002909D01*
X2846199D01*
X2848738Y2000370D01*
Y1997830D01*
Y2000370D01*
X2851277Y2002909D01*
X2853817D01*
X2856356Y2000370D01*
Y1995291D01*
X2853817Y1992752D01*
X2841121Y2007987D02*
Y2018144D01*
X2843660D01*
X2853817Y2007987D01*
X2856356D01*
X2455036Y2437257D02*
Y2452492D01*
X2462653D01*
X2465193Y2449953D01*
Y2444875D01*
X2462653Y2442335D01*
X2455036D01*
X2460114D02*
X2465193Y2437257D01*
X2470271D02*
X2475349D01*
X2472810D01*
Y2452492D01*
X2470271Y2449953D01*
X2482967Y2452492D02*
X2493123D01*
Y2449953D01*
X2482967Y2439796D01*
Y2437257D01*
X2455036Y2411857D02*
Y2427092D01*
X2462653D01*
X2465193Y2424553D01*
Y2419474D01*
X2462653Y2416935D01*
X2455036D01*
X2460114D02*
X2465193Y2411857D01*
X2470271D02*
X2475349D01*
X2472810D01*
Y2427092D01*
X2470271Y2424553D01*
X2493123Y2427092D02*
X2488045Y2424553D01*
X2482967Y2419474D01*
Y2414396D01*
X2485506Y2411857D01*
X2490584D01*
X2493123Y2414396D01*
Y2416935D01*
X2490584Y2419474D01*
X2482967D01*
X2406776Y2307717D02*
Y2322952D01*
X2414393D01*
X2416933Y2320413D01*
Y2315334D01*
X2414393Y2312795D01*
X2406776D01*
X2411854D02*
X2416933Y2307717D01*
X2432168D02*
X2422011D01*
X2432168Y2317874D01*
Y2320413D01*
X2429628Y2322952D01*
X2424550D01*
X2422011Y2320413D01*
X2437246D02*
X2439785Y2322952D01*
X2444863D01*
X2447403Y2320413D01*
Y2317874D01*
X2444863Y2315334D01*
X2447403Y2312795D01*
Y2310256D01*
X2444863Y2307717D01*
X2439785D01*
X2437246Y2310256D01*
Y2312795D01*
X2439785Y2315334D01*
X2437246Y2317874D01*
Y2320413D01*
X2439785Y2315334D02*
X2444863D01*
X2315310Y2321407D02*
Y2336642D01*
X2322927D01*
X2325466Y2334103D01*
Y2329025D01*
X2322927Y2326485D01*
X2315310D01*
X2320388D02*
X2325466Y2321407D01*
X2330545D02*
X2335623D01*
X2333084D01*
Y2336642D01*
X2330545Y2334103D01*
X2350858Y2321407D02*
Y2336642D01*
X2343241Y2329025D01*
X2353397D01*
X2315336Y2272157D02*
Y2287392D01*
X2322953D01*
X2325493Y2284853D01*
Y2279774D01*
X2322953Y2277235D01*
X2315336D01*
X2320414D02*
X2325493Y2272157D01*
X2330571D02*
X2335649D01*
X2333110D01*
Y2287392D01*
X2330571Y2284853D01*
X2343267D02*
X2345806Y2287392D01*
X2350884D01*
X2353423Y2284853D01*
Y2282314D01*
X2350884Y2279774D01*
X2348345D01*
X2350884D01*
X2353423Y2277235D01*
Y2274696D01*
X2350884Y2272157D01*
X2345806D01*
X2343267Y2274696D01*
X2315336Y2246757D02*
Y2261992D01*
X2322953D01*
X2325493Y2259453D01*
Y2254375D01*
X2322953Y2251835D01*
X2315336D01*
X2320414D02*
X2325493Y2246757D01*
X2330571D02*
X2335649D01*
X2333110D01*
Y2261992D01*
X2330571Y2259453D01*
X2353423Y2246757D02*
X2343267D01*
X2353423Y2256914D01*
Y2259453D01*
X2350884Y2261992D01*
X2345806D01*
X2343267Y2259453D01*
X2317876Y2201037D02*
Y2216272D01*
X2325493D01*
X2328033Y2213733D01*
Y2208654D01*
X2325493Y2206115D01*
X2317876D01*
X2322954D02*
X2328033Y2201037D01*
X2333111D02*
X2338189D01*
X2335650D01*
Y2216272D01*
X2333111Y2213733D01*
X2345807Y2201037D02*
X2350885D01*
X2348346D01*
Y2216272D01*
X2345807Y2213733D01*
X2071454Y2457661D02*
X2076532Y2462739D01*
X2081611D01*
X2086689Y2457661D01*
X2084150Y2439886D02*
X2086689Y2442426D01*
Y2447504D01*
X2084150Y2450043D01*
X2073993D01*
X2071454Y2447504D01*
Y2442426D01*
X2073993Y2439886D01*
X2071454Y2434808D02*
X2076532Y2429730D01*
X2081611D01*
X2086689Y2434808D01*
X2071454Y2396720D02*
Y2406877D01*
X2081611Y2396720D01*
X2084150D01*
X2086689Y2399260D01*
Y2404338D01*
X2084150Y2406877D01*
Y2391642D02*
X2086689Y2389103D01*
Y2384025D01*
X2084150Y2381485D01*
X2073993D01*
X2071454Y2384025D01*
Y2389103D01*
X2073993Y2391642D01*
X2084150D01*
X2071454Y2366250D02*
Y2376407D01*
X2081611Y2366250D01*
X2084150D01*
X2086689Y2368789D01*
Y2373868D01*
X2084150Y2376407D01*
Y2361172D02*
X2086689Y2358633D01*
Y2353554D01*
X2084150Y2351015D01*
X2081611D01*
X2079072Y2353554D01*
Y2356093D01*
Y2353554D01*
X2076532Y2351015D01*
X2073993D01*
X2071454Y2353554D01*
Y2358633D01*
X2073993Y2361172D01*
X2086689Y2330702D02*
X2071454D01*
Y2323084D01*
X2073993Y2320545D01*
X2084150D01*
X2086689Y2323084D01*
Y2330702D01*
X2071454Y2307849D02*
Y2312928D01*
X2073993Y2315467D01*
X2079072D01*
X2081611Y2312928D01*
Y2307849D01*
X2079072Y2305310D01*
X2076532D01*
Y2315467D01*
X2086689Y2300232D02*
X2071454D01*
Y2292614D01*
X2073993Y2290075D01*
X2076532D01*
X2079072D01*
X2081611Y2292614D01*
Y2300232D01*
Y2284996D02*
X2073993D01*
X2071454Y2282457D01*
Y2274840D01*
X2081611D01*
X2066376Y2264683D02*
Y2262144D01*
X2068915Y2259605D01*
X2081611D01*
Y2267222D01*
X2079072Y2269761D01*
X2073993D01*
X2071454Y2267222D01*
Y2259605D01*
X2086689Y2239291D02*
Y2234213D01*
Y2236752D01*
X2071454D01*
Y2239291D01*
Y2234213D01*
Y2226595D02*
X2081611D01*
Y2218978D01*
X2079072Y2216439D01*
X2071454D01*
Y2211360D02*
X2081611D01*
Y2203743D01*
X2079072Y2201204D01*
X2071454D01*
Y2193586D02*
Y2188508D01*
X2073993Y2185969D01*
X2079072D01*
X2081611Y2188508D01*
Y2193586D01*
X2079072Y2196125D01*
X2073993D01*
X2071454Y2193586D01*
X2081611Y2180890D02*
X2071454Y2175812D01*
X2081611Y2170733D01*
Y2163116D02*
Y2158038D01*
X2079072Y2155498D01*
X2071454D01*
Y2163116D01*
X2073993Y2165655D01*
X2076532Y2163116D01*
Y2155498D01*
X2084150Y2147881D02*
X2081611D01*
Y2150420D01*
Y2145342D01*
Y2147881D01*
X2073993D01*
X2071454Y2145342D01*
Y2137724D02*
Y2132646D01*
Y2135185D01*
X2081611D01*
Y2137724D01*
X2071454Y2122489D02*
Y2117411D01*
X2073993Y2114872D01*
X2079072D01*
X2081611Y2117411D01*
Y2122489D01*
X2079072Y2125028D01*
X2073993D01*
X2071454Y2122489D01*
Y2109793D02*
X2081611D01*
Y2102176D01*
X2079072Y2099637D01*
X2071454D01*
Y2094558D02*
Y2086941D01*
X2073993Y2084401D01*
X2076532Y2086941D01*
Y2092019D01*
X2079072Y2094558D01*
X2081611Y2092019D01*
Y2084401D01*
X2086689Y2064088D02*
X2071454D01*
Y2053931D01*
X2084150Y2046314D02*
X2081611D01*
Y2048853D01*
Y2043775D01*
Y2046314D01*
X2073993D01*
X2071454Y2043775D01*
X2086689Y2026000D02*
X2071454D01*
Y2033618D01*
X2073993Y2036157D01*
X2079072D01*
X2081611Y2033618D01*
Y2026000D01*
X2071454Y2020922D02*
X2073993D01*
Y2018383D01*
X2071454D01*
Y2020922D01*
X2117279Y2333324D02*
Y2323167D01*
X2114740D01*
X2104583Y2333324D01*
X2102044D01*
Y2323167D01*
X2114740Y2318089D02*
X2117279Y2315550D01*
Y2310471D01*
X2114740Y2307932D01*
X2112201D01*
X2109661Y2310471D01*
X2107122Y2307932D01*
X2104583D01*
X2102044Y2310471D01*
Y2315550D01*
X2104583Y2318089D01*
X2107122D01*
X2109661Y2315550D01*
X2112201Y2318089D01*
X2114740D01*
X2109661Y2315550D02*
Y2310471D01*
X2114740Y2302854D02*
X2117279Y2300315D01*
Y2295236D01*
X2114740Y2292697D01*
X2104583D01*
X2102044Y2295236D01*
Y2300315D01*
X2104583Y2302854D01*
X2114740D01*
X2117279Y2272384D02*
Y2267305D01*
Y2269845D01*
X2102044D01*
Y2272384D01*
Y2267305D01*
X2114740Y2249531D02*
X2117279Y2252070D01*
Y2257149D01*
X2114740Y2259688D01*
X2104583D01*
X2102044Y2257149D01*
Y2252070D01*
X2104583Y2249531D01*
X2117279Y2234296D02*
Y2244453D01*
X2102044D01*
Y2234296D01*
X2109661Y2244453D02*
Y2239374D01*
X2117279Y2213983D02*
X2107122D01*
X2102044Y2208904D01*
X2107122Y2203826D01*
X2117279D01*
X2102044Y2198748D02*
Y2193669D01*
Y2196208D01*
X2117279D01*
X2114740Y2198748D01*
X2102044Y2186052D02*
X2104583D01*
Y2183512D01*
X2102044D01*
Y2186052D01*
X2114740Y2173356D02*
X2117279Y2170816D01*
Y2165738D01*
X2114740Y2163199D01*
X2104583D01*
X2102044Y2165738D01*
Y2170816D01*
X2104583Y2173356D01*
X2114740D01*
X2051570Y2412618D02*
X2043953D01*
X2041414Y2410079D01*
X2043953Y2407540D01*
X2041414Y2405000D01*
X2043953Y2402461D01*
X2051570D01*
Y2397383D02*
X2043953D01*
X2041414Y2394844D01*
X2043953Y2392304D01*
X2041414Y2389765D01*
X2043953Y2387226D01*
X2051570D01*
Y2382148D02*
X2043953D01*
X2041414Y2379608D01*
X2043953Y2377069D01*
X2041414Y2374530D01*
X2043953Y2371991D01*
X2051570D01*
X2041414Y2366913D02*
X2043953D01*
Y2364373D01*
X2041414D01*
Y2366913D01*
X2056649Y2344060D02*
X2041414D01*
Y2351678D01*
X2043953Y2354217D01*
X2049031D01*
X2051570Y2351678D01*
Y2344060D01*
X2041414Y2331364D02*
Y2336443D01*
X2043953Y2338982D01*
X2049031D01*
X2051570Y2336443D01*
Y2331364D01*
X2049031Y2328825D01*
X2046492D01*
Y2338982D01*
X2056649Y2323747D02*
X2041414D01*
Y2316129D01*
X2043953Y2313590D01*
X2046492D01*
X2049031D01*
X2051570Y2316129D01*
Y2323747D01*
Y2308512D02*
X2043953D01*
X2041414Y2305972D01*
Y2298355D01*
X2051570D01*
X2036335Y2288198D02*
Y2285659D01*
X2038875Y2283120D01*
X2051570D01*
Y2290737D01*
X2049031Y2293276D01*
X2043953D01*
X2041414Y2290737D01*
Y2283120D01*
Y2278041D02*
Y2272963D01*
Y2275502D01*
X2051570D01*
Y2278041D01*
X2041414Y2265345D02*
X2051570D01*
Y2257728D01*
X2049031Y2255189D01*
X2041414D01*
Y2250110D02*
X2051570D01*
Y2242493D01*
X2049031Y2239954D01*
X2041414D01*
Y2232336D02*
Y2227258D01*
X2043953Y2224719D01*
X2049031D01*
X2051570Y2227258D01*
Y2232336D01*
X2049031Y2234875D01*
X2043953D01*
X2041414Y2232336D01*
X2051570Y2219640D02*
X2041414Y2214562D01*
X2051570Y2209483D01*
Y2201866D02*
Y2196788D01*
X2049031Y2194249D01*
X2041414D01*
Y2201866D01*
X2043953Y2204405D01*
X2046492Y2201866D01*
Y2194249D01*
X2054110Y2186631D02*
X2051570D01*
Y2189170D01*
Y2184092D01*
Y2186631D01*
X2043953D01*
X2041414Y2184092D01*
Y2176474D02*
Y2171396D01*
Y2173935D01*
X2051570D01*
Y2176474D01*
X2041414Y2161239D02*
Y2156161D01*
X2043953Y2153622D01*
X2049031D01*
X2051570Y2156161D01*
Y2161239D01*
X2049031Y2163778D01*
X2043953D01*
X2041414Y2161239D01*
Y2148543D02*
X2051570D01*
Y2140926D01*
X2049031Y2138387D01*
X2041414D01*
Y2133308D02*
Y2125691D01*
X2043953Y2123152D01*
X2046492Y2125691D01*
Y2130769D01*
X2049031Y2133308D01*
X2051570Y2130769D01*
Y2123152D01*
X2041414Y2118073D02*
X2043953D01*
Y2115534D01*
X2041414D01*
Y2118073D01*
X2051570Y2095220D02*
Y2102838D01*
X2049031Y2105377D01*
X2043953D01*
X2041414Y2102838D01*
Y2095220D01*
Y2087603D02*
Y2082525D01*
X2043953Y2079986D01*
X2049031D01*
X2051570Y2082525D01*
Y2087603D01*
X2049031Y2090142D01*
X2043953D01*
X2041414Y2087603D01*
Y2074907D02*
X2051570D01*
Y2072368D01*
X2049031Y2069829D01*
X2041414D01*
X2049031D01*
X2051570Y2067290D01*
X2049031Y2064750D01*
X2041414D01*
D29*
X2872684Y1389144D02*
X2871596Y1388055D01*
X2872684Y1386967D01*
X2873772Y1388055D01*
X2872684Y1389144D01*
X2895104Y1404380D02*
X2894016Y1406557D01*
X2891839Y1408734D01*
X2889662Y1409822D01*
X2885309D01*
X2883132Y1408734D01*
X2880956Y1406557D01*
X2879867Y1404380D01*
X2878779Y1401115D01*
Y1395674D01*
X2879867Y1392409D01*
X2880956Y1390232D01*
X2883132Y1388055D01*
X2885309Y1386967D01*
X2889662D01*
X2891839Y1388055D01*
X2894016Y1390232D01*
X2895104Y1392409D01*
Y1395674D01*
X2889662D02*
X2895104D01*
X2907946Y1409822D02*
Y1386967D01*
X2900328Y1409822D02*
X2915565D01*
X2924815D02*
X2922639Y1408734D01*
X2920462Y1406557D01*
X2919374Y1404380D01*
X2918286Y1401115D01*
Y1395674D01*
X2919374Y1392409D01*
X2920462Y1390232D01*
X2922639Y1388055D01*
X2924815Y1386967D01*
X2929169D01*
X2931346Y1388055D01*
X2933522Y1390232D01*
X2934611Y1392409D01*
X2935699Y1395674D01*
Y1401115D01*
X2934611Y1404380D01*
X2933522Y1406557D01*
X2931346Y1408734D01*
X2929169Y1409822D01*
X2924815D01*
D41*
X3074386Y2465197D02*
X3072511Y2466279D01*
Y2464115D01*
X3074386Y2465197D01*
D42*
X2839846Y2404237D02*
Y2409317D01*
X2862706Y2418207D02*
Y2419477D01*
X2839846Y2428367D02*
Y2433447D01*
Y2404237D02*
X2851276D01*
X2839846Y2433447D02*
X2851276D01*
X2943986Y2062607D02*
Y2074037D01*
X2973196Y2062607D02*
Y2074037D01*
X2943986Y2062607D02*
X2949066D01*
X2957956Y2085467D02*
X2959226D01*
X2968116Y2062607D02*
X2973196D01*
X3008756Y2288667D02*
Y2295017D01*
Y2180717D02*
Y2193417D01*
X2889376Y2180717D02*
Y2193417D01*
X2886836Y2289937D02*
Y2300097D01*
X2996056D02*
X3003676D01*
X2996056Y2180717D02*
X3008756D01*
X2889376D02*
X2899536D01*
X2886836Y2300097D02*
X2899536D01*
X3003676D02*
X3008756Y2295017D01*
D43*
X2325716Y2007717D02*
Y2012715D01*
Y2010216D01*
X2310721D01*
X2313220Y2007717D01*
M02*
