%FSLAX44Y44*%
%MOMM*%
G71*
G01*
G75*
%ADD10C,0.2000*%
%ADD11O,2.0320X0.6096*%
%ADD12R,1.5240X1.2700*%
%ADD13R,1.5240X1.5240*%
%ADD14R,1.9050X0.4064*%
%ADD15R,0.4064X1.9050*%
%ADD16R,1.2700X1.5240*%
%ADD17O,0.6000X2.2000*%
%ADD18O,0.6000X2.2000*%
%ADD19R,0.9144X0.9144*%
%ADD20R,0.9144X1.2700*%
%ADD21R,1.5000X0.4000*%
%ADD22R,1.2700X0.9144*%
%ADD23C,1.0000*%
%ADD24C,0.3000*%
%ADD25C,0.6000*%
%ADD26C,0.8000*%
%ADD27C,0.5000*%
%ADD28C,0.2540*%
%ADD29C,0.2286*%
%ADD30C,3.6000*%
%ADD31C,1.6510*%
%ADD32C,1.4500*%
%ADD33R,1.4500X1.4500*%
%ADD34C,1.5000*%
%ADD35R,1.5000X1.5000*%
%ADD36R,1.6000X1.6000*%
%ADD37C,1.6000*%
%ADD38C,0.8000*%
%ADD39O,2.5400X0.7500*%
%ADD40R,2.5400X0.7500*%
%ADD41C,0.4000*%
%ADD42C,0.7000*%
%ADD43C,0.2500*%
%ADD44C,0.3048*%
%ADD45C,0.1500*%
D11*
X2510916Y2465197D02*
D03*
Y2427097D02*
D03*
Y2401697D02*
D03*
Y2388997D02*
D03*
Y2376297D02*
D03*
Y2363597D02*
D03*
Y2350897D02*
D03*
X2607436D02*
D03*
Y2363597D02*
D03*
Y2376297D02*
D03*
Y2388997D02*
D03*
Y2401697D02*
D03*
Y2414397D02*
D03*
Y2439797D02*
D03*
Y2452497D02*
D03*
X2510916Y2439797D02*
D03*
Y2414397D02*
D03*
X2607436Y2427097D02*
D03*
Y2465197D02*
D03*
X2510916Y2452497D02*
D03*
X2744596Y2424557D02*
D03*
Y2411857D02*
D03*
Y2437257D02*
D03*
Y2475357D02*
D03*
X2607436Y2170557D02*
D03*
Y2195957D02*
D03*
Y2246757D02*
D03*
X2510916Y2234057D02*
D03*
Y2157857D02*
D03*
Y2183257D02*
D03*
X2607436Y2221357D02*
D03*
X2510916Y2208657D02*
D03*
X2688716Y2475357D02*
D03*
Y2462657D02*
D03*
Y2449957D02*
D03*
Y2437257D02*
D03*
Y2424557D02*
D03*
Y2411857D02*
D03*
Y2399157D02*
D03*
X2744596D02*
D03*
Y2449957D02*
D03*
Y2462657D02*
D03*
Y2302637D02*
D03*
X2688716Y2378837D02*
D03*
X2607436Y2272157D02*
D03*
Y2259457D02*
D03*
Y2234057D02*
D03*
Y2208657D02*
D03*
Y2183257D02*
D03*
Y2157857D02*
D03*
X2510916Y2170557D02*
D03*
Y2195957D02*
D03*
Y2221357D02*
D03*
Y2246757D02*
D03*
Y2259457D02*
D03*
Y2272157D02*
D03*
X2688716Y2302637D02*
D03*
Y2328037D02*
D03*
Y2315337D02*
D03*
X2744596D02*
D03*
X2688716Y2340737D02*
D03*
X2744596Y2353437D02*
D03*
X2688716D02*
D03*
X2744596Y2366137D02*
D03*
Y2328037D02*
D03*
Y2340737D02*
D03*
Y2378837D02*
D03*
X2688716Y2366137D02*
D03*
X2510916Y2084197D02*
D03*
Y2071497D02*
D03*
X2607436Y1969897D02*
D03*
Y2084197D02*
D03*
X2510916Y2046097D02*
D03*
Y2020697D02*
D03*
Y1995297D02*
D03*
Y1969897D02*
D03*
X2607436Y1995297D02*
D03*
Y2020697D02*
D03*
Y2046097D02*
D03*
Y2071497D02*
D03*
X2510916Y2033397D02*
D03*
Y1982597D02*
D03*
Y2058797D02*
D03*
Y2007997D02*
D03*
X2607436Y2033397D02*
D03*
Y1982597D02*
D03*
Y2058797D02*
D03*
Y2007997D02*
D03*
D12*
X2322956Y2001393D02*
D03*
X2345816D02*
D03*
X2416936Y2395067D02*
D03*
X2439796D02*
D03*
X2322956Y1975993D02*
D03*
X2345816D02*
D03*
X2414396Y2039493D02*
D03*
X2437256D02*
D03*
X2414396Y2064893D02*
D03*
X2437256D02*
D03*
X2414396Y2090293D02*
D03*
X2437256D02*
D03*
X2322956Y2128393D02*
D03*
X2345816D02*
D03*
X2322956Y2153793D02*
D03*
X2345816D02*
D03*
X2322956Y2179193D02*
D03*
X2345816D02*
D03*
X2322956Y2204593D02*
D03*
X2345816D02*
D03*
X2322956Y2026793D02*
D03*
X2345816D02*
D03*
X2322956Y2052193D02*
D03*
X2345816D02*
D03*
X2322956Y2077593D02*
D03*
X2345816D02*
D03*
X2414396Y2115693D02*
D03*
X2437256D02*
D03*
X2414396Y2141093D02*
D03*
X2437256D02*
D03*
X2414396Y2166493D02*
D03*
X2437256D02*
D03*
X2414396Y2191893D02*
D03*
X2437256D02*
D03*
X2414396Y2217293D02*
D03*
X2437256D02*
D03*
X2414396Y2242693D02*
D03*
X2437256D02*
D03*
X2414396Y2268093D02*
D03*
X2437256D02*
D03*
X2322956Y2382393D02*
D03*
X2345816D02*
D03*
X2322956Y2407793D02*
D03*
X2345816D02*
D03*
X2322956Y2433193D02*
D03*
X2345816D02*
D03*
X2175636Y2068957D02*
D03*
X2198496D02*
D03*
X2175636Y2048637D02*
D03*
X2198496D02*
D03*
X3062096Y2226437D02*
D03*
X3084956D02*
D03*
X3062096Y2251837D02*
D03*
X3084956D02*
D03*
Y2277237D02*
D03*
X3062096D02*
D03*
X3006216Y2495677D02*
D03*
X3029076D02*
D03*
X2747136Y2251837D02*
D03*
X2769996D02*
D03*
X2721736Y2282317D02*
D03*
X2744596D02*
D03*
X2711576Y2495677D02*
D03*
X2688716D02*
D03*
X2533776Y2104517D02*
D03*
X2510916D02*
D03*
X2507884Y2292477D02*
D03*
X2530744D02*
D03*
X2533776Y2485517D02*
D03*
X2510916D02*
D03*
X3034156Y2122297D02*
D03*
X3011296D02*
D03*
X2952876Y1962277D02*
D03*
X2975736D02*
D03*
X3011295Y2190877D02*
D03*
X3034156D02*
D03*
X3011295Y2168017D02*
D03*
X3034156D02*
D03*
Y2145157D02*
D03*
X3011295D02*
D03*
Y2213737D02*
D03*
X3034156D02*
D03*
D16*
X3110356Y2137537D02*
D03*
Y2114677D02*
D03*
X3084956Y2137537D02*
D03*
Y2114677D02*
D03*
X3059556D02*
D03*
Y2137537D02*
D03*
X3135756Y2114677D02*
D03*
Y2137537D02*
D03*
D29*
X2872684Y1389144D02*
X2871596Y1388055D01*
X2872684Y1386967D01*
X2873772Y1388055D01*
X2872684Y1389144D01*
X2895104Y1404380D02*
X2894016Y1406557D01*
X2891839Y1408734D01*
X2889662Y1409822D01*
X2885309D01*
X2883132Y1408734D01*
X2880956Y1406557D01*
X2879867Y1404380D01*
X2878779Y1401115D01*
Y1395674D01*
X2879867Y1392409D01*
X2880956Y1390232D01*
X2883132Y1388055D01*
X2885309Y1386967D01*
X2889662D01*
X2891839Y1388055D01*
X2894016Y1390232D01*
X2895104Y1392409D01*
Y1395674D01*
X2889662D02*
X2895104D01*
X2900328Y1409822D02*
Y1386967D01*
Y1409822D02*
X2910123D01*
X2913388Y1408734D01*
X2914476Y1407645D01*
X2915565Y1405469D01*
Y1403292D01*
X2914476Y1401115D01*
X2913388Y1400027D01*
X2910123Y1398939D01*
X2900328D02*
X2910123D01*
X2913388Y1397850D01*
X2914476Y1396762D01*
X2915565Y1394585D01*
Y1391320D01*
X2914476Y1389144D01*
X2913388Y1388055D01*
X2910123Y1386967D01*
X2900328D01*
X2920680Y1397850D02*
X2930475D01*
X2933740Y1398939D01*
X2934828Y1400027D01*
X2935916Y1402204D01*
Y1405469D01*
X2934828Y1407645D01*
X2933740Y1408734D01*
X2930475Y1409822D01*
X2920680D01*
Y1386967D01*
D39*
X2877196Y2025777D02*
D03*
Y2013077D02*
D03*
X2973196Y2000377D02*
D03*
Y2038477D02*
D03*
Y2051177D02*
D03*
Y2063877D02*
D03*
Y2076577D02*
D03*
Y2101977D02*
D03*
X2877196Y2140077D02*
D03*
X2973196Y2127377D02*
D03*
Y2140077D02*
D03*
Y2152777D02*
D03*
Y2165477D02*
D03*
Y2178177D02*
D03*
X2877196Y2165477D02*
D03*
Y2152777D02*
D03*
X2973196Y2114677D02*
D03*
Y2089277D02*
D03*
Y2025777D02*
D03*
Y2013077D02*
D03*
Y1987677D02*
D03*
X2877196Y2127377D02*
D03*
Y2114677D02*
D03*
Y2101977D02*
D03*
Y2089277D02*
D03*
Y2076577D02*
D03*
Y2063877D02*
D03*
Y2051177D02*
D03*
Y2038477D02*
D03*
Y2000377D02*
D03*
Y2178177D02*
D03*
D40*
Y1987677D02*
D03*
M02*
