%FSLAX44Y44*%
%MOMM*%
G71*
G01*
G75*
%ADD10C,0.2000*%
%ADD11O,2.0320X0.6096*%
%ADD12R,1.5240X1.2700*%
%ADD13R,1.5240X1.5240*%
%ADD14R,1.9050X0.4064*%
%ADD15R,0.4064X1.9050*%
%ADD16R,1.2700X1.5240*%
%ADD17O,0.6000X2.2000*%
%ADD18O,0.6000X2.2000*%
%ADD19R,0.9144X0.9144*%
%ADD20R,0.9144X1.2700*%
%ADD21R,1.5000X0.4000*%
%ADD22R,1.2700X0.9144*%
%ADD23C,1.0000*%
%ADD24C,0.3000*%
%ADD25C,0.6000*%
%ADD26C,0.8000*%
%ADD27C,0.5000*%
%ADD28C,0.2540*%
%ADD29C,0.2286*%
%ADD30C,3.6000*%
%ADD31C,1.6510*%
%ADD32C,1.4500*%
%ADD33R,1.4500X1.4500*%
%ADD34C,1.5000*%
%ADD35R,1.5000X1.5000*%
%ADD36R,1.6000X1.6000*%
%ADD37C,1.6000*%
%ADD38C,0.8000*%
%ADD39O,2.5400X0.7500*%
%ADD40R,2.5400X0.7500*%
%ADD41C,0.4000*%
%ADD42C,0.7000*%
%ADD43C,0.2500*%
%ADD44C,0.3048*%
%ADD45C,0.1500*%
%ADD46O,2.2352X0.8128*%
%ADD47R,1.7272X1.4732*%
%ADD48R,1.7272X1.7272*%
%ADD49R,2.1082X0.6096*%
%ADD50R,0.6096X2.1082*%
%ADD51R,1.4732X1.7272*%
%ADD52O,0.8032X2.4032*%
%ADD53O,0.8032X2.4032*%
%ADD54R,1.1176X1.1176*%
%ADD55R,1.1176X1.4732*%
%ADD56R,1.7032X0.6032*%
%ADD57R,1.4732X1.1176*%
%ADD58C,2.0000*%
%ADD59C,3.8032*%
%ADD60C,1.8542*%
%ADD61C,1.6532*%
%ADD62R,1.6532X1.6532*%
%ADD63C,1.7032*%
%ADD64R,1.7032X1.7032*%
%ADD65R,1.8032X1.8032*%
%ADD66C,1.8032*%
%ADD67C,0.2032*%
%ADD68O,2.7432X0.9532*%
%ADD69R,2.7432X0.9532*%
%ADD70C,0.2032*%
%ADD71C,0.6350*%
%ADD72C,0.1524*%
%ADD73C,0.1270*%
%ADD74C,0.1693*%
D73*
X3168516Y2176117D02*
X3192516D01*
X3180516Y2164117D02*
Y2188117D01*
X3168516Y2296517D02*
X3192516D01*
X3180516Y2284517D02*
Y2308517D01*
X3128416Y2223817D02*
X3138416D01*
X3133416Y2218817D02*
Y2228817D01*
X3128416Y2248817D02*
X3138416D01*
X3133416Y2243817D02*
Y2253817D01*
X3148416Y2223817D02*
X3158416D01*
X3153416Y2218817D02*
Y2228817D01*
X3148416Y2248817D02*
X3158416D01*
X3153416Y2243817D02*
Y2253817D01*
X2223516Y2395067D02*
X2232016D01*
X2227766Y2390817D02*
Y2399317D01*
X2261616Y2318867D02*
X2270116D01*
X2265866Y2314617D02*
Y2323117D01*
X2242566Y2026767D02*
X2251066D01*
X2246816Y2022517D02*
Y2031017D01*
X2280666Y2026767D02*
X2289166D01*
X2284916Y2022517D02*
Y2031017D01*
X2223516Y2445867D02*
X2232016D01*
X2227766Y2441617D02*
Y2450117D01*
X2261616Y2445867D02*
X2270116D01*
X2265866Y2441617D02*
Y2450117D01*
X2242566Y2433167D02*
X2251066D01*
X2246816Y2428917D02*
Y2437417D01*
X2223516Y2420467D02*
X2232016D01*
X2227766Y2416217D02*
Y2424717D01*
X2280666Y2433167D02*
X2289166D01*
X2284916Y2428917D02*
Y2437417D01*
X2261616Y2420467D02*
X2270116D01*
X2265866Y2416217D02*
Y2424717D01*
X2242566Y2407767D02*
X2251066D01*
X2246816Y2403517D02*
Y2412017D01*
X2280666Y2407767D02*
X2289166D01*
X2284916Y2403517D02*
Y2412017D01*
X2261616Y2395067D02*
X2270116D01*
X2265866Y2390817D02*
Y2399317D01*
X2242566Y2382367D02*
X2251066D01*
X2246816Y2378117D02*
Y2386617D01*
X2223516Y2369667D02*
X2232016D01*
X2227766Y2365417D02*
Y2373917D01*
X2280666Y2382367D02*
X2289166D01*
X2284916Y2378117D02*
Y2386617D01*
X2261616Y2369667D02*
X2270116D01*
X2265866Y2365417D02*
Y2373917D01*
X2242566Y2356967D02*
X2251066D01*
X2246816Y2352717D02*
Y2361217D01*
X2223516Y2344267D02*
X2232016D01*
X2227766Y2340017D02*
Y2348517D01*
X2280666Y2356967D02*
X2289166D01*
X2284916Y2352717D02*
Y2361217D01*
X2261616Y2344267D02*
X2270116D01*
X2265866Y2340017D02*
Y2348517D01*
X2242566Y2331567D02*
X2251066D01*
X2246816Y2327317D02*
Y2335817D01*
X2223516Y2318867D02*
X2232016D01*
X2227766Y2314617D02*
Y2323117D01*
X2280666Y2331567D02*
X2289166D01*
X2284916Y2327317D02*
Y2335817D01*
X2242566Y2306167D02*
X2251066D01*
X2246816Y2301917D02*
Y2310417D01*
X2223516Y2293467D02*
X2232016D01*
X2227766Y2289217D02*
Y2297717D01*
X2280666Y2306167D02*
X2289166D01*
X2284916Y2301917D02*
Y2310417D01*
X2261616Y2293467D02*
X2270116D01*
X2265866Y2289217D02*
Y2297717D01*
X2242566Y2280767D02*
X2251066D01*
X2246816Y2276517D02*
Y2285017D01*
X2223516Y2268067D02*
X2232016D01*
X2227766Y2263817D02*
Y2272317D01*
X2280666Y2280767D02*
X2289166D01*
X2284916Y2276517D02*
Y2285017D01*
X2261616Y2268067D02*
X2270116D01*
X2265866Y2263817D02*
Y2272317D01*
X2242566Y2255367D02*
X2251066D01*
X2246816Y2251117D02*
Y2259617D01*
X2223516Y2242667D02*
X2232016D01*
X2227766Y2238417D02*
Y2246917D01*
X2280666Y2255367D02*
X2289166D01*
X2284916Y2251117D02*
Y2259617D01*
X2261616Y2242667D02*
X2270116D01*
X2265866Y2238417D02*
Y2246917D01*
X2242566Y2229967D02*
X2251066D01*
X2246816Y2225717D02*
Y2234217D01*
X2223516Y2217267D02*
X2232016D01*
X2227766Y2213017D02*
Y2221517D01*
X2280666Y2229967D02*
X2289166D01*
X2284916Y2225717D02*
Y2234217D01*
X2261616Y2217267D02*
X2270116D01*
X2265866Y2213017D02*
Y2221517D01*
X2242566Y2204567D02*
X2251066D01*
X2246816Y2200317D02*
Y2208817D01*
X2223516Y2191867D02*
X2232016D01*
X2227766Y2187617D02*
Y2196117D01*
X2280666Y2204567D02*
X2289166D01*
X2284916Y2200317D02*
Y2208817D01*
X2261616Y2191867D02*
X2270116D01*
X2265866Y2187617D02*
Y2196117D01*
X2242566Y2179167D02*
X2251066D01*
X2246816Y2174917D02*
Y2183417D01*
X2223516Y2166467D02*
X2232016D01*
X2227766Y2162217D02*
Y2170717D01*
X2280666Y2179167D02*
X2289166D01*
X2284916Y2174917D02*
Y2183417D01*
X2261616Y2166467D02*
X2270116D01*
X2265866Y2162217D02*
Y2170717D01*
X2242566Y2153767D02*
X2251066D01*
X2246816Y2149517D02*
Y2158017D01*
X2223516Y2141067D02*
X2232016D01*
X2227766Y2136817D02*
Y2145317D01*
X2280666Y2153767D02*
X2289166D01*
X2284916Y2149517D02*
Y2158017D01*
X2261616Y2141067D02*
X2270116D01*
X2265866Y2136817D02*
Y2145317D01*
X2242566Y2128367D02*
X2251066D01*
X2246816Y2124117D02*
Y2132617D01*
X2223516Y2115667D02*
X2232016D01*
X2227766Y2111417D02*
Y2119917D01*
X2280666Y2128367D02*
X2289166D01*
X2284916Y2124117D02*
Y2132617D01*
X2261616Y2115667D02*
X2270116D01*
X2265866Y2111417D02*
Y2119917D01*
X2242566Y2102967D02*
X2251066D01*
X2246816Y2098717D02*
Y2107217D01*
X2223516Y2090267D02*
X2232016D01*
X2227766Y2086017D02*
Y2094517D01*
X2280666Y2102967D02*
X2289166D01*
X2284916Y2098717D02*
Y2107217D01*
X2261616Y2090267D02*
X2270116D01*
X2265866Y2086017D02*
Y2094517D01*
X2242566Y2077567D02*
X2251066D01*
X2246816Y2073317D02*
Y2081817D01*
X2223516Y2064867D02*
X2232016D01*
X2227766Y2060617D02*
Y2069117D01*
X2280666Y2077567D02*
X2289166D01*
X2284916Y2073317D02*
Y2081817D01*
X2261616Y2064867D02*
X2270116D01*
X2265866Y2060617D02*
Y2069117D01*
X2242566Y2052167D02*
X2251066D01*
X2246816Y2047917D02*
Y2056417D01*
X2223516Y2039467D02*
X2232016D01*
X2227766Y2035217D02*
Y2043717D01*
X2280666Y2052167D02*
X2289166D01*
X2284916Y2047917D02*
Y2056417D01*
X2261616Y2039467D02*
X2270116D01*
X2265866Y2035217D02*
Y2043717D01*
X2374836Y2357117D02*
X2382836D01*
X2378836Y2353117D02*
Y2361117D01*
X2374836Y2306317D02*
X2382836D01*
X2378836Y2302317D02*
Y2310317D01*
X2374836Y2382517D02*
X2382836D01*
X2378836Y2378517D02*
Y2386517D01*
X2374836Y2407917D02*
X2382836D01*
X2378836Y2403917D02*
Y2411917D01*
X2374836Y2433317D02*
X2382836D01*
X2378836Y2429317D02*
Y2437317D01*
X2374836Y2331717D02*
X2382836D01*
X2378836Y2327717D02*
Y2335717D01*
X2374836Y2280917D02*
X2382836D01*
X2378836Y2276917D02*
Y2284917D01*
X2374836Y2230117D02*
X2382836D01*
X2378836Y2226117D02*
Y2234117D01*
X2374836Y2255517D02*
X2382836D01*
X2378836Y2251517D02*
Y2259517D01*
X2922976Y2521077D02*
X2931976D01*
X2927476Y2516577D02*
Y2525577D01*
X3024576Y2521077D02*
X3033576D01*
X3029076Y2516577D02*
Y2525577D01*
X2999176Y2521077D02*
X3008176D01*
X3003676Y2516577D02*
Y2525577D01*
X2973776Y2521077D02*
X2982776D01*
X2978276Y2516577D02*
Y2525577D01*
X2948376Y2521077D02*
X2957376D01*
X2952876Y2516577D02*
Y2525577D01*
X2791396Y1997837D02*
X2799396D01*
X2795396Y1993837D02*
Y2001837D01*
X2791396Y2023237D02*
X2799396D01*
X2795396Y2019237D02*
Y2027237D01*
X2791396Y2048637D02*
X2799396D01*
X2795396Y2044637D02*
Y2052637D01*
X2791396Y2074037D02*
X2799396D01*
X2795396Y2070037D02*
Y2078037D01*
X2791396Y2099437D02*
X2799396D01*
X2795396Y2095437D02*
Y2103437D01*
X2791396Y2124837D02*
X2799396D01*
X2795396Y2120837D02*
Y2128837D01*
X2791396Y2150237D02*
X2799396D01*
X2795396Y2146237D02*
Y2154237D01*
X2791396Y2175637D02*
X2799396D01*
X2795396Y2171637D02*
Y2179637D01*
X2791396Y2201037D02*
X2799396D01*
X2795396Y2197037D02*
Y2205037D01*
X2791396Y2226437D02*
X2799396D01*
X2795396Y2222437D02*
Y2230437D01*
X2791396Y2251837D02*
X2799396D01*
X2795396Y2247837D02*
Y2255837D01*
X2791396Y2277237D02*
X2799396D01*
X2795396Y2273237D02*
Y2281237D01*
X2791396Y2302637D02*
X2799396D01*
X2795396Y2298637D02*
Y2306637D01*
X2791396Y2328037D02*
X2799396D01*
X2795396Y2324037D02*
Y2332037D01*
X2791396Y2353437D02*
X2799396D01*
X2795396Y2349437D02*
Y2357437D01*
X2791396Y2378837D02*
X2799396D01*
X2795396Y2374837D02*
Y2382837D01*
X2791396Y2404237D02*
X2799396D01*
X2795396Y2400237D02*
Y2408237D01*
X2791396Y2429637D02*
X2799396D01*
X2795396Y2425637D02*
Y2433637D01*
X2791396Y2455037D02*
X2799396D01*
X2795396Y2451037D02*
Y2459037D01*
X2791396Y2480437D02*
X2799396D01*
X2795396Y2476437D02*
Y2484437D01*
X2638996Y2480437D02*
X2646996D01*
X2642996Y2476437D02*
Y2484437D01*
X2638996Y2455037D02*
X2646996D01*
X2642996Y2451037D02*
Y2459037D01*
X2638996Y2429637D02*
X2646996D01*
X2642996Y2425637D02*
Y2433637D01*
X2638996Y2404237D02*
X2646996D01*
X2642996Y2400237D02*
Y2408237D01*
X2638996Y2378837D02*
X2646996D01*
X2642996Y2374837D02*
Y2382837D01*
X2638996Y2328037D02*
X2646996D01*
X2642996Y2324037D02*
Y2332037D01*
X2638996Y2302637D02*
X2646996D01*
X2642996Y2298637D02*
Y2306637D01*
X2638996Y2277237D02*
X2646996D01*
X2642996Y2273237D02*
Y2281237D01*
X2638996Y2251837D02*
X2646996D01*
X2642996Y2247837D02*
Y2255837D01*
X2638996Y2226437D02*
X2646996D01*
X2642996Y2222437D02*
Y2230437D01*
X2638996Y2201037D02*
X2646996D01*
X2642996Y2197037D02*
Y2205037D01*
X2638996Y2175637D02*
X2646996D01*
X2642996Y2171637D02*
Y2179637D01*
X2638996Y2150237D02*
X2646996D01*
X2642996Y2146237D02*
Y2154237D01*
X2638996Y2124837D02*
X2646996D01*
X2642996Y2120837D02*
Y2128837D01*
X2638996Y2099437D02*
X2646996D01*
X2642996Y2095437D02*
Y2103437D01*
X2638996Y2074037D02*
X2646996D01*
X2642996Y2070037D02*
Y2078037D01*
X2638996Y2048637D02*
X2646996D01*
X2642996Y2044637D02*
Y2052637D01*
X2638996Y2023237D02*
X2646996D01*
X2642996Y2019237D02*
Y2027237D01*
X2638996Y1997837D02*
X2646996D01*
X2642996Y1993837D02*
Y2001837D01*
X2725416Y1936317D02*
X2750416D01*
X2737916Y1923817D02*
Y1948817D01*
X3095416Y1936317D02*
X3120416D01*
X3107916Y1923817D02*
Y1948817D01*
X2725416Y2536317D02*
X2750416D01*
X2737916Y2523817D02*
Y2548817D01*
X3095416Y2536317D02*
X3120416D01*
X3107916Y2523817D02*
Y2548817D01*
X2135416Y2536317D02*
X2160416D01*
X2147916Y2523817D02*
Y2548817D01*
X2135416Y1936317D02*
X2160416D01*
X2147916Y1923817D02*
Y1948817D01*
X2638996Y2353437D02*
X2646996D01*
X2642996Y2349437D02*
Y2357437D01*
X2709916Y2267829D02*
X2713916D01*
X2711916Y2265829D02*
Y2269829D01*
X2265076Y2007997D02*
X2269076D01*
X2267076Y2005997D02*
Y2009997D01*
X2534316Y2340737D02*
X2538316D01*
X2536316Y2338737D02*
Y2342737D01*
X2662916Y2462317D02*
X2666916D01*
X2664916Y2460317D02*
Y2464317D01*
X3050916Y2319317D02*
X3054916D01*
X3052916Y2317317D02*
Y2321317D01*
X2541936Y2168017D02*
X2545936D01*
X2543936Y2166017D02*
Y2170017D01*
X2950876Y2147697D02*
X2954876D01*
X2952876Y2145697D02*
Y2149697D01*
X2943256Y2160397D02*
X2947256D01*
X2945256Y2158397D02*
Y2162397D01*
X2907696Y2272665D02*
X2911696D01*
X2909696Y2270665D02*
Y2274665D01*
X2988976Y2114677D02*
X2992976D01*
X2990976Y2112677D02*
Y2116677D01*
X3001676Y2081657D02*
X3005676D01*
X3003676Y2079657D02*
Y2083657D01*
X3009296Y2005457D02*
X3013296D01*
X3011296Y2003457D02*
Y2007457D01*
X3042316Y2432177D02*
X3046316D01*
X3044316Y2430177D02*
Y2434177D01*
X2991516Y2089277D02*
X2995516D01*
X2993516Y2087277D02*
Y2091277D01*
X2872136Y2248535D02*
X2876136D01*
X2874136Y2246535D02*
Y2250535D01*
X2872136Y2232787D02*
X2876136D01*
X2874136Y2230787D02*
Y2234787D01*
X2854356Y2147697D02*
X2858356D01*
X2856356Y2145697D02*
Y2149697D01*
X2897536Y2165477D02*
X2901536D01*
X2899536Y2163477D02*
Y2167477D01*
X2844196Y2140077D02*
X2848196D01*
X2846196Y2138077D02*
Y2142077D01*
X2945796Y2267077D02*
X2949796D01*
X2947796Y2265077D02*
Y2269077D01*
X2605436Y2147697D02*
X2609436D01*
X2607436Y2145697D02*
Y2149697D01*
X2552096Y2404237D02*
X2556096D01*
X2554096Y2402237D02*
Y2406237D01*
X2976276Y2261997D02*
X2980276D01*
X2978276Y2259997D02*
Y2263997D01*
X2894448Y2324633D02*
X2898448D01*
X2896448Y2322633D02*
Y2326633D01*
X3029616Y2094357D02*
X3033616D01*
X3031616Y2092357D02*
Y2096357D01*
X2983896Y2218817D02*
X2987896D01*
X2985896Y2216817D02*
Y2220817D01*
X2493676Y2101977D02*
X2497676D01*
X2495676Y2099977D02*
Y2103977D01*
X2851816Y2284857D02*
X2855816D01*
X2853816Y2282857D02*
Y2286857D01*
X3082956Y2317877D02*
X3086956D01*
X3084956Y2315877D02*
Y2319877D01*
X3070256Y2424557D02*
X3074256D01*
X3072256Y2422557D02*
Y2426557D01*
X3021996Y2432177D02*
X3025996D01*
X3023996Y2430177D02*
Y2434177D01*
X2910236Y2447417D02*
X2914236D01*
X2912236Y2445417D02*
Y2449417D01*
X2986436Y2447417D02*
X2990436D01*
X2988436Y2445417D02*
Y2449417D01*
X2999136Y2447417D02*
X3003136D01*
X3001136Y2445417D02*
Y2449417D01*
X2440336Y2368677D02*
X2444336D01*
X2442336Y2366677D02*
Y2370677D01*
X2491136Y2396617D02*
X2495136D01*
X2493136Y2394617D02*
Y2398617D01*
X2577496Y2472817D02*
X2581496D01*
X2579496Y2470817D02*
Y2474817D01*
X2550416Y2437257D02*
X2554416D01*
X2552416Y2435257D02*
Y2439257D01*
X2531776Y2455037D02*
X2535776D01*
X2533776Y2453037D02*
Y2457037D01*
X2486056Y2406777D02*
X2490056D01*
X2488056Y2404777D02*
Y2408777D01*
X2488596Y2179193D02*
X2492596D01*
X2490596Y2177193D02*
Y2181193D01*
X3049936Y2394077D02*
X3053936D01*
X3051936Y2392077D02*
Y2396077D01*
X3108356Y2084197D02*
X3112356D01*
X3110356Y2082197D02*
Y2086197D01*
X3082956Y2084197D02*
X3086956D01*
X3084956Y2082197D02*
Y2086197D01*
X2470816Y2388997D02*
X2474816D01*
X2472816Y2386997D02*
Y2390997D01*
X3082956Y2396617D02*
X3086956D01*
X3084956Y2394617D02*
Y2398617D01*
X2376836Y2107057D02*
X2380836D01*
X2378836Y2105057D02*
Y2109057D01*
X2359056Y2099437D02*
X2363056D01*
X2361056Y2097437D02*
Y2101437D01*
X2640996Y2518537D02*
X2644996D01*
X2642996Y2516537D02*
Y2520537D01*
X3138836Y2038477D02*
X3142836D01*
X3140836Y2036477D02*
Y2040477D01*
X3103276Y2061337D02*
X3107276D01*
X3105276Y2059337D02*
Y2063337D01*
X2366676Y2208657D02*
X2370676D01*
X2368676Y2206657D02*
Y2210657D01*
X2489866Y2209927D02*
X2493866D01*
X2491866Y2207927D02*
Y2211927D01*
X2674016Y2264537D02*
X2678016D01*
X2676016Y2262537D02*
Y2266537D01*
X2386996Y2208657D02*
X2390996D01*
X2388996Y2206657D02*
Y2210657D01*
X2595276Y2282317D02*
X2599276D01*
X2597276Y2280317D02*
Y2284317D01*
X2526696Y1995297D02*
X2530696D01*
X2528696Y1993297D02*
Y1997297D01*
X2526696Y2208657D02*
X2530696D01*
X2528696Y2206657D02*
Y2210657D01*
X2580036Y2292477D02*
X2584036D01*
X2582036Y2290477D02*
Y2294477D01*
X2760376Y2328037D02*
X2764376D01*
X2762376Y2326037D02*
Y2330037D01*
X2450496Y2293467D02*
X2454496D01*
X2452496Y2291467D02*
Y2295467D01*
X2526696Y2234057D02*
X2530696D01*
X2528696Y2232057D02*
Y2236057D01*
X2724816Y2366137D02*
X2728816D01*
X2726816Y2364137D02*
Y2368137D01*
X2531776Y2150237D02*
X2535776D01*
X2533776Y2148237D02*
Y2152237D01*
X2544476Y2137537D02*
X2548476D01*
X2546476Y2135537D02*
Y2139537D01*
X2508916Y2498217D02*
X2512916D01*
X2510916Y2496217D02*
Y2500217D01*
X2970688Y2313305D02*
X2974688D01*
X2972688Y2311305D02*
Y2315305D01*
X2542916Y2381377D02*
X2546916D01*
X2544916Y2379377D02*
Y2383377D01*
X2465736Y2048637D02*
X2469736D01*
X2467736Y2046637D02*
Y2050637D01*
X2834036Y2211197D02*
X2838036D01*
X2836036Y2209197D02*
Y2213197D01*
X2841656Y2188337D02*
X2845656D01*
X2843656Y2186337D02*
Y2190337D01*
X2998765Y2310149D02*
X3002765D01*
X3000765Y2308149D02*
Y2312149D01*
X2585116Y2350897D02*
X2589116D01*
X2587116Y2348897D02*
Y2352897D01*
X2491136Y2157857D02*
X2495136D01*
X2493136Y2155857D02*
Y2159857D01*
X2623216Y2221357D02*
X2627216D01*
X2625216Y2219357D02*
Y2223357D01*
X2938684Y2279777D02*
X2942684D01*
X2940684Y2277777D02*
Y2281777D01*
X2623216Y2170557D02*
X2627216D01*
X2625216Y2168557D02*
Y2172557D01*
X2996916Y2179457D02*
X3000916D01*
X2998916Y2177457D02*
Y2181457D01*
X2465736Y1926717D02*
X2469736D01*
X2467736Y1924717D02*
Y1928717D01*
X2906066Y2208468D02*
X2910066D01*
X2908066Y2206468D02*
Y2210468D01*
X2935636Y2320417D02*
X2939636D01*
X2937636Y2318417D02*
Y2322417D01*
X3011836Y2074037D02*
X3015836D01*
X3013836Y2072037D02*
Y2076037D01*
X2526696Y2046097D02*
X2530696D01*
X2528696Y2044097D02*
Y2048097D01*
X2379376Y1952117D02*
X2383376D01*
X2381376Y1950117D02*
Y1954117D01*
X2478436Y2058797D02*
X2482436D01*
X2480436Y2056797D02*
Y2060797D01*
X2450496Y2063877D02*
X2454496D01*
X2452496Y2061877D02*
Y2065877D01*
X2526696Y2020697D02*
X2530696D01*
X2528696Y2018697D02*
Y2022697D01*
X2450496Y1944497D02*
X2454496D01*
X2452496Y1942497D02*
Y1946497D01*
X2369216Y1936877D02*
X2373216D01*
X2371216Y1934877D02*
Y1938877D01*
X2379376Y2051177D02*
X2383376D01*
X2381376Y2049177D02*
Y2053177D01*
X2369216Y2028317D02*
X2373216D01*
X2371216Y2026317D02*
Y2030317D01*
X2437796Y1959737D02*
X2441796D01*
X2439796Y1957737D02*
Y1961737D01*
X2526696Y1969897D02*
X2530696D01*
X2528696Y1967897D02*
Y1971897D01*
X2526696Y2183257D02*
X2530696D01*
X2528696Y2181257D02*
Y2185257D01*
X2450496Y2038477D02*
X2454496D01*
X2452496Y2036477D02*
Y2040477D01*
X2302916Y2013077D02*
X2306916D01*
X2304916Y2011077D02*
Y2015077D01*
X2247296Y1982597D02*
X2251296D01*
X2249296Y1980597D02*
Y1984597D01*
X2668936Y2328037D02*
X2672936D01*
X2670936Y2326037D02*
Y2330037D01*
X2666396Y2381377D02*
X2670396D01*
X2668396Y2379377D02*
Y2383377D01*
X2508916Y2317877D02*
X2512916D01*
X2510916Y2315877D02*
Y2319877D01*
X2625756Y2368677D02*
X2629756D01*
X2627756Y2366677D02*
Y2370677D01*
X2173636Y2028317D02*
X2177636D01*
X2175636Y2026317D02*
Y2030317D01*
X2590196Y2433317D02*
X2594196D01*
X2592196Y2431317D02*
Y2435317D01*
X2724816Y2449957D02*
X2728816D01*
X2726816Y2447957D02*
Y2451957D01*
X2620676Y2475357D02*
X2624676D01*
X2622676Y2473357D02*
Y2477357D01*
X2666396Y2424557D02*
X2670396D01*
X2668396Y2422557D02*
Y2426557D01*
X2359056Y2076577D02*
X2363056D01*
X2361056Y2074577D02*
Y2078577D01*
X2859436Y2452497D02*
X2863436D01*
X2861436Y2450497D02*
Y2454497D01*
X2767996Y2366137D02*
X2771996D01*
X2769996Y2364137D02*
Y2368137D01*
X2859436Y2391537D02*
X2863436D01*
X2861436Y2389537D02*
Y2393537D01*
X2914808Y2201037D02*
X2918808D01*
X2916808Y2199037D02*
Y2203037D01*
X2844196Y2089277D02*
X2848196D01*
X2846196Y2087277D02*
Y2091277D01*
X2940716Y2063877D02*
X2944716D01*
X2942716Y2061877D02*
Y2065877D01*
X2922682Y2353437D02*
X2926682D01*
X2924682Y2351437D02*
Y2355437D01*
X2930556Y2076577D02*
X2934556D01*
X2932556Y2074577D02*
Y2078577D01*
X2930556Y2091817D02*
X2934556D01*
X2932556Y2089817D02*
Y2093817D01*
X2940716Y2038477D02*
X2944716D01*
X2942716Y2036477D02*
Y2040477D01*
X2935636Y2427097D02*
X2939636D01*
X2937636Y2425097D02*
Y2429097D01*
X2869596Y2307717D02*
X2873596D01*
X2871596Y2305717D02*
Y2309717D01*
X2940716Y2051177D02*
X2944716D01*
X2942716Y2049177D02*
Y2053177D01*
X2930810Y2262251D02*
X2934810D01*
X2932810Y2260251D02*
Y2264251D01*
X2892456Y2188337D02*
X2896456D01*
X2894456Y2186337D02*
Y2190337D01*
X2488596Y2325497D02*
X2492596D01*
X2490596Y2323497D02*
Y2327497D01*
X2948336Y2419477D02*
X2952336D01*
X2950336Y2417477D02*
Y2421477D01*
X2999136Y2330577D02*
X3003136D01*
X3001136Y2328577D02*
Y2332577D01*
X2854356Y2101977D02*
X2858356D01*
X2856356Y2099977D02*
Y2103977D01*
X3110896Y2406777D02*
X3114896D01*
X3112896Y2404777D02*
Y2408777D01*
X3098196Y2414397D02*
X3102196D01*
X3100196Y2412397D02*
Y2416397D01*
X2978816Y2322957D02*
X2982816D01*
X2980816Y2320957D02*
Y2324957D01*
X3070256Y2297557D02*
X3074256D01*
X3072256Y2295557D02*
Y2299557D01*
X2961036Y2353437D02*
X2965036D01*
X2963036Y2351437D02*
Y2355437D01*
X2836576Y2442337D02*
X2840576D01*
X2838576Y2440337D02*
Y2444337D01*
X2470816Y2241677D02*
X2474816D01*
X2472816Y2239677D02*
Y2243677D01*
X2668936Y2277237D02*
X2672936D01*
X2670936Y2275237D02*
Y2279237D01*
X2569876Y2282317D02*
X2573876D01*
X2571876Y2280317D02*
Y2284317D01*
X2577496Y2361057D02*
X2581496D01*
X2579496Y2359057D02*
Y2363057D01*
X2460656Y2282317D02*
X2464656D01*
X2462656Y2280317D02*
Y2284317D01*
X2526696Y2312797D02*
X2530696D01*
X2528696Y2310797D02*
Y2314797D01*
X2613056Y2333117D02*
X2617056D01*
X2615056Y2331117D02*
Y2335117D01*
X2597816Y2480437D02*
X2601816D01*
X2599816Y2478437D02*
Y2482437D01*
X2531776Y2427097D02*
X2535776D01*
X2533776Y2425097D02*
Y2429097D01*
X2623216Y2322957D02*
X2627216D01*
X2625216Y2320957D02*
Y2324957D01*
X2658776Y2305177D02*
X2662776D01*
X2660776Y2303177D02*
Y2307177D01*
X2585116Y2368677D02*
X2589116D01*
X2587116Y2366677D02*
Y2370677D01*
X2541916Y2364562D02*
X2545916D01*
X2543916Y2362562D02*
Y2366562D01*
X3032156Y2432177D02*
X3036156D01*
X3034156Y2430177D02*
Y2434177D01*
X3057556Y2416937D02*
X3061556D01*
X3059556Y2414937D02*
Y2418937D01*
X2882588Y2349529D02*
X2886588D01*
X2884588Y2347529D02*
Y2351529D01*
X2948336Y2320417D02*
X2952336D01*
X2950336Y2318417D02*
Y2322417D01*
X2724816Y2411857D02*
X2728816D01*
X2726816Y2409857D02*
Y2413857D01*
X2661316Y2361057D02*
X2665316D01*
X2663316Y2359057D02*
Y2363057D01*
X2541936Y2467737D02*
X2545936D01*
X2543936Y2465737D02*
Y2469737D01*
X2554636Y2493137D02*
X2558636D01*
X2556636Y2491137D02*
Y2495137D01*
X2590196Y2406777D02*
X2594196D01*
X2592196Y2404777D02*
Y2408777D01*
X2724816Y2424557D02*
X2728816D01*
X2726816Y2422557D02*
Y2426557D01*
X2587656Y2465197D02*
X2591656D01*
X2589656Y2463197D02*
Y2467197D01*
X2655791Y2429447D02*
X2659791D01*
X2657791Y2427446D02*
Y2431447D01*
X2627429Y2399310D02*
X2631429D01*
X2629429Y2397310D02*
Y2401310D01*
X2610555Y2483673D02*
X2614555D01*
X2612555Y2481673D02*
Y2485673D01*
X2580445Y2112376D02*
X2584445D01*
X2582445Y2110376D02*
Y2114376D01*
X2936436Y1973253D02*
X2940435D01*
X2938435Y1971253D02*
Y1975253D01*
X2686716Y2388997D02*
X2690716D01*
X2688716Y2386997D02*
Y2390997D01*
X2459592Y2242586D02*
X2463592D01*
X2461592Y2240586D02*
Y2244586D01*
X2486017Y2072418D02*
X2490017D01*
X2488017Y2070418D02*
Y2074418D01*
X2705427Y2479985D02*
X2709427D01*
X2707426Y2477985D02*
Y2481985D01*
X2626698Y2383099D02*
X2630698D01*
X2628698Y2381099D02*
Y2385099D01*
X2713937Y2400338D02*
X2717937D01*
X2715937Y2398338D02*
Y2402338D01*
X2761889Y2485342D02*
X2765889D01*
X2763889Y2483342D02*
Y2487342D01*
X2848173Y1996949D02*
X2852173D01*
X2850173Y1994949D02*
Y1998949D01*
X2532815Y2243761D02*
X2536815D01*
X2534815Y2241761D02*
Y2245761D01*
X2925854Y2009239D02*
X2929854D01*
X2927854Y2007239D02*
Y2011239D01*
X2542791Y2075886D02*
X2546791D01*
X2544791Y2073886D02*
Y2077886D01*
X2596129Y1958099D02*
X2600130D01*
X2598130Y1956099D02*
Y1960099D01*
X2937638Y2009256D02*
X2941638D01*
X2939638Y2007256D02*
Y2011256D01*
X2895219Y2176804D02*
X2899218D01*
X2897219Y2174804D02*
Y2178804D01*
X3041590Y2231426D02*
X3045590D01*
X3043590Y2229426D02*
Y2233426D01*
X2900587Y2108025D02*
X2904587D01*
X2902587Y2106025D02*
Y2110025D01*
X2945688Y2246539D02*
X2949688D01*
X2947688Y2244539D02*
Y2248539D01*
X2900543Y2120945D02*
X2904543D01*
X2902543Y2118945D02*
Y2122945D01*
M02*
