%FSLAX44Y44*%
%MOMM*%
G71*
G01*
G75*
%ADD10C,0.2000*%
%ADD11R,0.6000X0.5000*%
%ADD12C,1.0000*%
%ADD13C,0.6000*%
%ADD14C,0.3300*%
%ADD15C,0.4000*%
%ADD16C,0.3000*%
%ADD17C,0.7000*%
%ADD18C,0.5000*%
%ADD19C,0.2540*%
%ADD20C,0.2286*%
%ADD21C,1.5000*%
%ADD22R,1.5000X1.5000*%
%ADD23C,1.4500*%
%ADD24R,1.4500X1.4500*%
%ADD25C,0.1500*%
%ADD26C,0.1270*%
%ADD27C,0.3500*%
%ADD28R,0.8032X0.7032*%
%ADD29C,2.0000*%
%ADD30C,1.7032*%
%ADD31R,1.7032X1.7032*%
%ADD32C,1.6532*%
%ADD33R,1.6532X1.6532*%
%ADD34C,0.1778*%
%ADD35C,0.6350*%
%ADD36C,0.2032*%
%ADD37C,0.1524*%
%ADD38C,0.1693*%
D19*
X2592196Y1926712D02*
Y1911477D01*
X2599813D01*
X2602353Y1914016D01*
Y1924173D01*
X2599813Y1926712D01*
X2592196D01*
X2607431Y1921634D02*
Y1911477D01*
Y1916555D01*
X2609970Y1919095D01*
X2612509Y1921634D01*
X2615048D01*
X2622666Y1911477D02*
X2627744D01*
X2625205D01*
Y1921634D01*
X2622666D01*
X2635362Y1911477D02*
X2640440D01*
X2637901D01*
Y1926712D01*
X2635362D01*
X2648058Y1911477D02*
X2653136D01*
X2650597D01*
Y1926712D01*
X2648058D01*
X2675988D02*
Y1911477D01*
X2683606D01*
X2686145Y1914016D01*
Y1924173D01*
X2683606Y1926712D01*
X2675988D01*
X2691224Y1921634D02*
Y1911477D01*
Y1916555D01*
X2693763Y1919095D01*
X2696302Y1921634D01*
X2698841D01*
X2708998D02*
X2714076D01*
X2716616Y1919095D01*
Y1911477D01*
X2708998D01*
X2706459Y1914016D01*
X2708998Y1916555D01*
X2716616D01*
X2721694Y1921634D02*
Y1914016D01*
X2724233Y1911477D01*
X2726772Y1914016D01*
X2729312Y1911477D01*
X2731851Y1914016D01*
Y1921634D01*
X2736929Y1911477D02*
X2742007D01*
X2739468D01*
Y1921634D01*
X2736929D01*
X2749625Y1911477D02*
Y1921634D01*
X2757242D01*
X2759781Y1919095D01*
Y1911477D01*
X2769938Y1906399D02*
X2772477D01*
X2775016Y1908938D01*
Y1921634D01*
X2767399D01*
X2764860Y1919095D01*
Y1914016D01*
X2767399Y1911477D01*
X2775016D01*
X2780095D02*
Y1914016D01*
X2782634D01*
Y1911477D01*
X2780095D01*
X2655692Y2015612D02*
X2650614Y2013073D01*
X2645536Y2007995D01*
Y2002916D01*
X2648075Y2000377D01*
X2653153D01*
X2655692Y2002916D01*
Y2005455D01*
X2653153Y2007995D01*
X2645536D01*
X2660771Y2013073D02*
X2663310Y2015612D01*
X2668388D01*
X2670927Y2013073D01*
Y2010534D01*
X2668388Y2007995D01*
X2670927Y2005455D01*
Y2002916D01*
X2668388Y2000377D01*
X2663310D01*
X2660771Y2002916D01*
Y2005455D01*
X2663310Y2007995D01*
X2660771Y2010534D01*
Y2013073D01*
X2663310Y2007995D02*
X2668388D01*
X2769996Y2013073D02*
X2772535Y2015612D01*
X2777613D01*
X2780153Y2013073D01*
Y2010534D01*
X2777613Y2007995D01*
X2775074D01*
X2777613D01*
X2780153Y2005455D01*
Y2002916D01*
X2777613Y2000377D01*
X2772535D01*
X2769996Y2002916D01*
X2785231Y2013073D02*
X2787770Y2015612D01*
X2792848D01*
X2795388Y2013073D01*
Y2010534D01*
X2792848Y2007995D01*
X2790309D01*
X2792848D01*
X2795388Y2005455D01*
Y2002916D01*
X2792848Y2000377D01*
X2787770D01*
X2785231Y2002916D01*
X2800466Y2000377D02*
Y2002916D01*
X2803005D01*
Y2000377D01*
X2800466D01*
X2820779D02*
Y2015612D01*
X2813162Y2007995D01*
X2823318D01*
X2838553Y2015612D02*
X2833475Y2013073D01*
X2828397Y2007995D01*
Y2002916D01*
X2830936Y2000377D01*
X2836014D01*
X2838553Y2002916D01*
Y2005455D01*
X2836014Y2007995D01*
X2828397D01*
X2853788Y2015612D02*
X2843632D01*
Y2007995D01*
X2848710Y2010534D01*
X2851249D01*
X2853788Y2007995D01*
Y2002916D01*
X2851249Y2000377D01*
X2846171D01*
X2843632Y2002916D01*
X2858867Y2000377D02*
Y2010534D01*
X2861406D01*
X2863945Y2007995D01*
Y2000377D01*
Y2007995D01*
X2866484Y2010534D01*
X2869024Y2007995D01*
Y2000377D01*
X2874102D02*
X2879180D01*
X2876641D01*
Y2010534D01*
X2874102D01*
X2886798Y2000377D02*
X2891876D01*
X2889337D01*
Y2015612D01*
X2886798D01*
X2947796Y2013073D02*
X2950335Y2015612D01*
X2955413D01*
X2957953Y2013073D01*
Y2002916D01*
X2955413Y2000377D01*
X2950335D01*
X2947796Y2002916D01*
Y2013073D01*
X2963031Y2000377D02*
Y2002916D01*
X2965570D01*
Y2000377D01*
X2963031D01*
X2975727Y2013073D02*
X2978266Y2015612D01*
X2983344D01*
X2985883Y2013073D01*
Y2010534D01*
X2983344Y2007995D01*
X2985883Y2005455D01*
Y2002916D01*
X2983344Y2000377D01*
X2978266D01*
X2975727Y2002916D01*
Y2005455D01*
X2978266Y2007995D01*
X2975727Y2010534D01*
Y2013073D01*
X2978266Y2007995D02*
X2983344D01*
X3001118Y2015612D02*
X2990962D01*
Y2007995D01*
X2996040Y2010534D01*
X2998579D01*
X3001118Y2007995D01*
Y2002916D01*
X2998579Y2000377D01*
X2993501D01*
X2990962Y2002916D01*
X3006197Y2000377D02*
Y2010534D01*
X3008736D01*
X3011275Y2007995D01*
Y2000377D01*
Y2007995D01*
X3013814Y2010534D01*
X3016353Y2007995D01*
Y2000377D01*
X3021432D02*
Y2010534D01*
X3023971D01*
X3026510Y2007995D01*
Y2000377D01*
Y2007995D01*
X3029049Y2010534D01*
X3031589Y2007995D01*
Y2000377D01*
X3125596D02*
Y2015612D01*
X3133213D01*
X3135753Y2013073D01*
Y2007995D01*
X3133213Y2005455D01*
X3125596D01*
X3140831Y2015612D02*
X3150988D01*
X3145909D01*
Y2000377D01*
X3156066Y2015612D02*
Y2000377D01*
Y2007995D01*
X3166223D01*
Y2015612D01*
Y2000377D01*
X2653153Y1969897D02*
Y1985132D01*
X2645536Y1977514D01*
X2655692D01*
X2660771Y1982593D02*
X2663310Y1985132D01*
X2668388D01*
X2670927Y1982593D01*
Y1972436D01*
X2668388Y1969897D01*
X2663310D01*
X2660771Y1972436D01*
Y1982593D01*
X2769996D02*
X2772535Y1985132D01*
X2777613D01*
X2780153Y1982593D01*
Y1980054D01*
X2777613Y1977514D01*
X2775074D01*
X2777613D01*
X2780153Y1974975D01*
Y1972436D01*
X2777613Y1969897D01*
X2772535D01*
X2769996Y1972436D01*
X2795388Y1985132D02*
X2785231D01*
Y1977514D01*
X2790309Y1980054D01*
X2792848D01*
X2795388Y1977514D01*
Y1972436D01*
X2792848Y1969897D01*
X2787770D01*
X2785231Y1972436D01*
X2800466Y1969897D02*
Y1972436D01*
X2803005D01*
Y1969897D01*
X2800466D01*
X2820779D02*
Y1985132D01*
X2813162Y1977514D01*
X2823318D01*
X2828397Y1982593D02*
X2830936Y1985132D01*
X2836014D01*
X2838553Y1982593D01*
Y1980054D01*
X2836014Y1977514D01*
X2833475D01*
X2836014D01*
X2838553Y1974975D01*
Y1972436D01*
X2836014Y1969897D01*
X2830936D01*
X2828397Y1972436D01*
X2843632Y1982593D02*
X2846171Y1985132D01*
X2851249D01*
X2853788Y1982593D01*
Y1980054D01*
X2851249Y1977514D01*
X2848710D01*
X2851249D01*
X2853788Y1974975D01*
Y1972436D01*
X2851249Y1969897D01*
X2846171D01*
X2843632Y1972436D01*
X2858867Y1969897D02*
Y1980054D01*
X2861406D01*
X2863945Y1977514D01*
Y1969897D01*
Y1977514D01*
X2866484Y1980054D01*
X2869024Y1977514D01*
Y1969897D01*
X2874102D02*
X2879180D01*
X2876641D01*
Y1980054D01*
X2874102D01*
X2886798Y1969897D02*
X2891876D01*
X2889337D01*
Y1985132D01*
X2886798D01*
X2947796Y1982593D02*
X2950335Y1985132D01*
X2955413D01*
X2957953Y1982593D01*
Y1972436D01*
X2955413Y1969897D01*
X2950335D01*
X2947796Y1972436D01*
Y1982593D01*
X2963031Y1969897D02*
Y1972436D01*
X2965570D01*
Y1969897D01*
X2963031D01*
X2975727Y1972436D02*
X2978266Y1969897D01*
X2983344D01*
X2985883Y1972436D01*
Y1982593D01*
X2983344Y1985132D01*
X2978266D01*
X2975727Y1982593D01*
Y1980054D01*
X2978266Y1977514D01*
X2985883D01*
X2990962Y1969897D02*
Y1980054D01*
X2993501D01*
X2996040Y1977514D01*
Y1969897D01*
Y1977514D01*
X2998579Y1980054D01*
X3001118Y1977514D01*
Y1969897D01*
X3006197D02*
Y1980054D01*
X3008736D01*
X3011275Y1977514D01*
Y1969897D01*
Y1977514D01*
X3013814Y1980054D01*
X3016353Y1977514D01*
Y1969897D01*
X3125596D02*
Y1985132D01*
X3133213D01*
X3135753Y1982593D01*
Y1977514D01*
X3133213Y1974975D01*
X3125596D01*
X3140831Y1985132D02*
X3150988D01*
X3145909D01*
Y1969897D01*
X3156066Y1985132D02*
Y1969897D01*
Y1977514D01*
X3166223D01*
Y1985132D01*
Y1969897D01*
X2645536Y1939417D02*
X2650614D01*
X2648075D01*
Y1954652D01*
X2645536Y1952113D01*
X2658232D02*
X2660771Y1954652D01*
X2665849D01*
X2668388Y1952113D01*
Y1941956D01*
X2665849Y1939417D01*
X2660771D01*
X2658232Y1941956D01*
Y1952113D01*
X2673467D02*
X2676006Y1954652D01*
X2681084D01*
X2683623Y1952113D01*
Y1949574D01*
X2681084Y1947034D01*
X2683623Y1944495D01*
Y1941956D01*
X2681084Y1939417D01*
X2676006D01*
X2673467Y1941956D01*
Y1944495D01*
X2676006Y1947034D01*
X2673467Y1949574D01*
Y1952113D01*
X2676006Y1947034D02*
X2681084D01*
X2769996Y1954652D02*
X2780153D01*
X2775074D01*
Y1939417D01*
X2787770D02*
X2792848D01*
X2795388Y1941956D01*
Y1947034D01*
X2792848Y1949574D01*
X2787770D01*
X2785231Y1947034D01*
Y1941956D01*
X2787770Y1939417D01*
X2803005Y1952113D02*
Y1949574D01*
X2800466D01*
X2805544D01*
X2803005D01*
Y1941956D01*
X2805544Y1939417D01*
X2815701Y1949574D02*
X2820779D01*
X2823318Y1947034D01*
Y1939417D01*
X2815701D01*
X2813162Y1941956D01*
X2815701Y1944495D01*
X2823318D01*
X2828397Y1939417D02*
X2833475D01*
X2830936D01*
Y1954652D01*
X2828397D01*
D26*
X2265806Y2255647D02*
Y2265807D01*
X2275966D01*
Y2255647D01*
X2265806D01*
X2418206Y2001647D02*
Y2011807D01*
X2428366D01*
Y2001647D01*
X2418206D01*
X2265806Y1976247D02*
Y1986407D01*
X2275966D01*
Y1976247D01*
X2265806D01*
Y2001647D02*
Y2011807D01*
X2275966D01*
Y2001647D01*
X2265806D01*
Y2382647D02*
Y2392807D01*
X2275966D01*
Y2382647D01*
X2265806D01*
Y2357247D02*
Y2367407D01*
X2275966D01*
Y2357247D01*
X2265806D01*
Y2331847D02*
Y2342007D01*
X2275966D01*
Y2331847D01*
X2265806D01*
Y2306447D02*
Y2316607D01*
X2275966D01*
Y2306447D01*
X2265806D01*
Y2281047D02*
Y2291207D01*
X2275966D01*
Y2281047D01*
X2265806D01*
X2418206D02*
Y2291207D01*
X2428366D01*
Y2281047D01*
X2418206D01*
Y2255647D02*
Y2265807D01*
X2428366D01*
Y2255647D01*
X2418206D01*
X2265806Y2230247D02*
Y2240407D01*
X2275966D01*
Y2230247D01*
X2265806D01*
X2418206D02*
Y2240407D01*
X2428366D01*
Y2230247D01*
X2418206D01*
X2265806Y2204847D02*
Y2215007D01*
X2275966D01*
Y2204847D01*
X2265806D01*
X2418206D02*
Y2215007D01*
X2428366D01*
Y2204847D01*
X2418206D01*
X2265806Y2179447D02*
Y2189607D01*
X2275966D01*
Y2179447D01*
X2265806D01*
X2418206D02*
Y2189607D01*
X2428366D01*
Y2179447D01*
X2418206D01*
X2265806Y2154047D02*
Y2164207D01*
X2275966D01*
Y2154047D01*
X2265806D01*
X2418206D02*
Y2164207D01*
X2428366D01*
Y2154047D01*
X2418206D01*
Y2128647D02*
Y2138807D01*
X2428366D01*
Y2128647D01*
X2418206D01*
X2265806Y2103247D02*
Y2113407D01*
X2275966D01*
Y2103247D01*
X2265806D01*
X2418206Y2077847D02*
Y2088007D01*
X2428366D01*
Y2077847D01*
X2418206D01*
Y2052447D02*
Y2062607D01*
X2428366D01*
Y2052447D01*
X2418206D01*
X2265806Y2077847D02*
Y2088007D01*
X2275966D01*
Y2077847D01*
X2265806D01*
X2418206Y2027047D02*
Y2037207D01*
X2428366D01*
Y2027047D01*
X2418206D01*
X2265806Y2052447D02*
Y2062607D01*
X2275966D01*
Y2052447D01*
X2265806D01*
X2418206Y1925447D02*
Y1935607D01*
X2428366D01*
Y1925447D01*
X2418206D01*
X2265806Y2027047D02*
Y2037207D01*
X2275966D01*
Y2027047D01*
X2265806D01*
X2418206Y1900047D02*
Y1910207D01*
X2428366D01*
Y1900047D01*
X2418206D01*
X2265806D02*
Y1910207D01*
X2275966D01*
Y1900047D01*
X2265806D01*
Y1925447D02*
Y1935607D01*
X2275966D01*
Y1925447D01*
X2265806D01*
X2418206Y2103247D02*
Y2113407D01*
X2428366D01*
Y2103247D01*
X2418206D01*
X2265806Y2128647D02*
Y2138807D01*
X2275966D01*
Y2128647D01*
X2265806D01*
Y1950847D02*
Y1961007D01*
X2275966D01*
Y1950847D01*
X2265806D01*
X2418206D02*
Y1961007D01*
X2428366D01*
Y1950847D01*
X2418206D01*
Y1976247D02*
Y1986407D01*
X2428366D01*
Y1976247D01*
X2418206D01*
Y2357247D02*
Y2367407D01*
X2428366D01*
Y2357247D01*
X2418206D01*
Y2331847D02*
Y2342007D01*
X2428366D01*
Y2331847D01*
X2418206D01*
Y2382647D02*
Y2392807D01*
X2428366D01*
Y2382647D01*
X2418206D01*
Y2306447D02*
Y2316607D01*
X2428366D01*
Y2306447D01*
X2418206D01*
X2587116Y1972437D02*
Y1982597D01*
X2597276D01*
Y1972437D01*
X2587116D01*
D38*
X2342641Y2343617D02*
X2342059Y2345978D01*
X2340446Y2347798D01*
X2338173Y2348660D01*
X2335759Y2348367D01*
X2333758Y2346986D01*
X2332628Y2344833D01*
Y2342401D01*
X2333758Y2340248D01*
X2335759Y2338867D01*
X2338173Y2338574D01*
X2340446Y2339436D01*
X2342059Y2341256D01*
X2342641Y2343617D01*
X2323591Y2330917D02*
X2323009Y2333278D01*
X2321396Y2335098D01*
X2319123Y2335960D01*
X2316709Y2335667D01*
X2314708Y2334286D01*
X2313578Y2332133D01*
Y2329701D01*
X2314708Y2327548D01*
X2316709Y2326167D01*
X2319123Y2325874D01*
X2321396Y2326736D01*
X2323009Y2328556D01*
X2323591Y2330917D01*
X2380741Y2343617D02*
X2380159Y2345978D01*
X2378546Y2347798D01*
X2376273Y2348660D01*
X2373859Y2348367D01*
X2371858Y2346986D01*
X2370728Y2344833D01*
Y2342401D01*
X2371858Y2340248D01*
X2373859Y2338867D01*
X2376273Y2338574D01*
X2378546Y2339436D01*
X2380159Y2341256D01*
X2380741Y2343617D01*
X2361691Y2330917D02*
X2361109Y2333278D01*
X2359496Y2335098D01*
X2357223Y2335960D01*
X2354809Y2335667D01*
X2352808Y2334286D01*
X2351678Y2332133D01*
Y2329701D01*
X2352808Y2327548D01*
X2354809Y2326167D01*
X2357223Y2325874D01*
X2359496Y2326736D01*
X2361109Y2328556D01*
X2361691Y2330917D01*
X2342641Y2318217D02*
X2342059Y2320578D01*
X2340446Y2322398D01*
X2338173Y2323260D01*
X2335759Y2322967D01*
X2333758Y2321586D01*
X2332628Y2319433D01*
Y2317001D01*
X2333758Y2314848D01*
X2335759Y2313467D01*
X2338173Y2313174D01*
X2340446Y2314036D01*
X2342059Y2315856D01*
X2342641Y2318217D01*
X2323591Y2305517D02*
X2323009Y2307878D01*
X2321396Y2309698D01*
X2319123Y2310560D01*
X2316709Y2310267D01*
X2314708Y2308886D01*
X2313578Y2306733D01*
Y2304301D01*
X2314708Y2302148D01*
X2316709Y2300767D01*
X2319123Y2300474D01*
X2321396Y2301336D01*
X2323009Y2303156D01*
X2323591Y2305517D01*
X2380741Y2318217D02*
X2380159Y2320578D01*
X2378546Y2322398D01*
X2376273Y2323260D01*
X2373859Y2322967D01*
X2371858Y2321586D01*
X2370728Y2319433D01*
Y2317001D01*
X2371858Y2314848D01*
X2373859Y2313467D01*
X2376273Y2313174D01*
X2378546Y2314036D01*
X2380159Y2315856D01*
X2380741Y2318217D01*
X2361691Y2305517D02*
X2361109Y2307878D01*
X2359496Y2309698D01*
X2357223Y2310560D01*
X2354809Y2310267D01*
X2352808Y2308886D01*
X2351678Y2306733D01*
Y2304301D01*
X2352808Y2302148D01*
X2354809Y2300767D01*
X2357223Y2300474D01*
X2359496Y2301336D01*
X2361109Y2303156D01*
X2361691Y2305517D01*
X2342641Y2292817D02*
X2342059Y2295178D01*
X2340446Y2296998D01*
X2338173Y2297860D01*
X2335759Y2297567D01*
X2333758Y2296186D01*
X2332628Y2294033D01*
Y2291601D01*
X2333758Y2289448D01*
X2335759Y2288067D01*
X2338173Y2287774D01*
X2340446Y2288636D01*
X2342059Y2290456D01*
X2342641Y2292817D01*
X2323591Y2280117D02*
X2323009Y2282478D01*
X2321396Y2284298D01*
X2319123Y2285160D01*
X2316709Y2284867D01*
X2314708Y2283486D01*
X2313578Y2281333D01*
Y2278901D01*
X2314708Y2276748D01*
X2316709Y2275367D01*
X2319123Y2275074D01*
X2321396Y2275936D01*
X2323009Y2277756D01*
X2323591Y2280117D01*
X2380741Y2292817D02*
X2380159Y2295178D01*
X2378546Y2296998D01*
X2376273Y2297860D01*
X2373859Y2297567D01*
X2371858Y2296186D01*
X2370728Y2294033D01*
Y2291601D01*
X2371858Y2289448D01*
X2373859Y2288067D01*
X2376273Y2287774D01*
X2378546Y2288636D01*
X2380159Y2290456D01*
X2380741Y2292817D01*
X2361691Y2280117D02*
X2361109Y2282478D01*
X2359496Y2284298D01*
X2357223Y2285160D01*
X2354809Y2284867D01*
X2352808Y2283486D01*
X2351678Y2281333D01*
Y2278901D01*
X2352808Y2276748D01*
X2354809Y2275367D01*
X2357223Y2275074D01*
X2359496Y2275936D01*
X2361109Y2277756D01*
X2361691Y2280117D01*
X2342641Y2267417D02*
X2342059Y2269778D01*
X2340446Y2271598D01*
X2338173Y2272460D01*
X2335759Y2272167D01*
X2333758Y2270786D01*
X2332628Y2268633D01*
Y2266201D01*
X2333758Y2264048D01*
X2335759Y2262667D01*
X2338173Y2262374D01*
X2340446Y2263236D01*
X2342059Y2265056D01*
X2342641Y2267417D01*
X2323591Y2254717D02*
X2323009Y2257078D01*
X2321396Y2258898D01*
X2319123Y2259760D01*
X2316709Y2259467D01*
X2314708Y2258086D01*
X2313578Y2255933D01*
Y2253501D01*
X2314708Y2251348D01*
X2316709Y2249967D01*
X2319123Y2249674D01*
X2321396Y2250536D01*
X2323009Y2252356D01*
X2323591Y2254717D01*
X2380741Y2267417D02*
X2380159Y2269778D01*
X2378546Y2271598D01*
X2376273Y2272460D01*
X2373859Y2272167D01*
X2371858Y2270786D01*
X2370728Y2268633D01*
Y2266201D01*
X2371858Y2264048D01*
X2373859Y2262667D01*
X2376273Y2262374D01*
X2378546Y2263236D01*
X2380159Y2265056D01*
X2380741Y2267417D01*
X2361691Y2254717D02*
X2361109Y2257078D01*
X2359496Y2258898D01*
X2357223Y2259760D01*
X2354809Y2259467D01*
X2352808Y2258086D01*
X2351678Y2255933D01*
Y2253501D01*
X2352808Y2251348D01*
X2354809Y2249967D01*
X2357223Y2249674D01*
X2359496Y2250536D01*
X2361109Y2252356D01*
X2361691Y2254717D01*
X2342641Y2242017D02*
X2342059Y2244378D01*
X2340446Y2246198D01*
X2338173Y2247060D01*
X2335759Y2246767D01*
X2333758Y2245386D01*
X2332628Y2243233D01*
Y2240801D01*
X2333758Y2238648D01*
X2335759Y2237267D01*
X2338173Y2236974D01*
X2340446Y2237836D01*
X2342059Y2239656D01*
X2342641Y2242017D01*
X2323591Y2229317D02*
X2323009Y2231678D01*
X2321396Y2233498D01*
X2319123Y2234360D01*
X2316709Y2234067D01*
X2314708Y2232686D01*
X2313578Y2230533D01*
Y2228101D01*
X2314708Y2225948D01*
X2316709Y2224567D01*
X2319123Y2224274D01*
X2321396Y2225136D01*
X2323009Y2226956D01*
X2323591Y2229317D01*
X2380741Y2242017D02*
X2380159Y2244378D01*
X2378546Y2246198D01*
X2376273Y2247060D01*
X2373859Y2246767D01*
X2371858Y2245386D01*
X2370728Y2243233D01*
Y2240801D01*
X2371858Y2238648D01*
X2373859Y2237267D01*
X2376273Y2236974D01*
X2378546Y2237836D01*
X2380159Y2239656D01*
X2380741Y2242017D01*
X2361691Y2229317D02*
X2361109Y2231678D01*
X2359496Y2233498D01*
X2357223Y2234360D01*
X2354809Y2234067D01*
X2352808Y2232686D01*
X2351678Y2230533D01*
Y2228101D01*
X2352808Y2225948D01*
X2354809Y2224567D01*
X2357223Y2224274D01*
X2359496Y2225136D01*
X2361109Y2226956D01*
X2361691Y2229317D01*
X2342641Y2216617D02*
X2342059Y2218978D01*
X2340446Y2220798D01*
X2338173Y2221660D01*
X2335759Y2221367D01*
X2333758Y2219986D01*
X2332628Y2217833D01*
Y2215401D01*
X2333758Y2213248D01*
X2335759Y2211867D01*
X2338173Y2211574D01*
X2340446Y2212436D01*
X2342059Y2214256D01*
X2342641Y2216617D01*
X2323591Y2203917D02*
X2323009Y2206278D01*
X2321396Y2208098D01*
X2319123Y2208960D01*
X2316709Y2208667D01*
X2314708Y2207286D01*
X2313578Y2205133D01*
Y2202701D01*
X2314708Y2200548D01*
X2316709Y2199167D01*
X2319123Y2198874D01*
X2321396Y2199736D01*
X2323009Y2201556D01*
X2323591Y2203917D01*
X2380741Y2216617D02*
X2380159Y2218978D01*
X2378546Y2220798D01*
X2376273Y2221660D01*
X2373859Y2221367D01*
X2371858Y2219986D01*
X2370728Y2217833D01*
Y2215401D01*
X2371858Y2213248D01*
X2373859Y2211867D01*
X2376273Y2211574D01*
X2378546Y2212436D01*
X2380159Y2214256D01*
X2380741Y2216617D01*
X2361691Y2203917D02*
X2361109Y2206278D01*
X2359496Y2208098D01*
X2357223Y2208960D01*
X2354809Y2208667D01*
X2352808Y2207286D01*
X2351678Y2205133D01*
Y2202701D01*
X2352808Y2200548D01*
X2354809Y2199167D01*
X2357223Y2198874D01*
X2359496Y2199736D01*
X2361109Y2201556D01*
X2361691Y2203917D01*
X2342641Y2191217D02*
X2342059Y2193578D01*
X2340446Y2195398D01*
X2338173Y2196260D01*
X2335759Y2195967D01*
X2333758Y2194586D01*
X2332628Y2192433D01*
Y2190001D01*
X2333758Y2187848D01*
X2335759Y2186467D01*
X2338173Y2186174D01*
X2340446Y2187036D01*
X2342059Y2188856D01*
X2342641Y2191217D01*
X2323591Y2178517D02*
X2323009Y2180878D01*
X2321396Y2182698D01*
X2319123Y2183560D01*
X2316709Y2183267D01*
X2314708Y2181886D01*
X2313578Y2179733D01*
Y2177301D01*
X2314708Y2175148D01*
X2316709Y2173767D01*
X2319123Y2173474D01*
X2321396Y2174336D01*
X2323009Y2176156D01*
X2323591Y2178517D01*
X2380741Y2191217D02*
X2380159Y2193578D01*
X2378546Y2195398D01*
X2376273Y2196260D01*
X2373859Y2195967D01*
X2371858Y2194586D01*
X2370728Y2192433D01*
Y2190001D01*
X2371858Y2187848D01*
X2373859Y2186467D01*
X2376273Y2186174D01*
X2378546Y2187036D01*
X2380159Y2188856D01*
X2380741Y2191217D01*
X2361691Y2178517D02*
X2361109Y2180878D01*
X2359496Y2182698D01*
X2357223Y2183560D01*
X2354809Y2183267D01*
X2352808Y2181886D01*
X2351678Y2179733D01*
Y2177301D01*
X2352808Y2175148D01*
X2354809Y2173767D01*
X2357223Y2173474D01*
X2359496Y2174336D01*
X2361109Y2176156D01*
X2361691Y2178517D01*
X2342641Y2165817D02*
X2342059Y2168178D01*
X2340446Y2169998D01*
X2338173Y2170860D01*
X2335759Y2170567D01*
X2333758Y2169186D01*
X2332628Y2167033D01*
Y2164601D01*
X2333758Y2162448D01*
X2335759Y2161067D01*
X2338173Y2160774D01*
X2340446Y2161636D01*
X2342059Y2163456D01*
X2342641Y2165817D01*
X2323591Y2153117D02*
X2323009Y2155478D01*
X2321396Y2157298D01*
X2319123Y2158160D01*
X2316709Y2157867D01*
X2314708Y2156486D01*
X2313578Y2154333D01*
Y2151901D01*
X2314708Y2149748D01*
X2316709Y2148367D01*
X2319123Y2148074D01*
X2321396Y2148936D01*
X2323009Y2150756D01*
X2323591Y2153117D01*
X2380741Y2165817D02*
X2380159Y2168178D01*
X2378546Y2169998D01*
X2376273Y2170860D01*
X2373859Y2170567D01*
X2371858Y2169186D01*
X2370728Y2167033D01*
Y2164601D01*
X2371858Y2162448D01*
X2373859Y2161067D01*
X2376273Y2160774D01*
X2378546Y2161636D01*
X2380159Y2163456D01*
X2380741Y2165817D01*
X2361691Y2153117D02*
X2361109Y2155478D01*
X2359496Y2157298D01*
X2357223Y2158160D01*
X2354809Y2157867D01*
X2352808Y2156486D01*
X2351678Y2154333D01*
Y2151901D01*
X2352808Y2149748D01*
X2354809Y2148367D01*
X2357223Y2148074D01*
X2359496Y2148936D01*
X2361109Y2150756D01*
X2361691Y2153117D01*
X2342641Y2140417D02*
X2342059Y2142778D01*
X2340446Y2144598D01*
X2338173Y2145460D01*
X2335759Y2145167D01*
X2333758Y2143786D01*
X2332628Y2141633D01*
Y2139201D01*
X2333758Y2137048D01*
X2335759Y2135667D01*
X2338173Y2135374D01*
X2340446Y2136236D01*
X2342059Y2138056D01*
X2342641Y2140417D01*
X2323591Y2127717D02*
X2323009Y2130078D01*
X2321396Y2131898D01*
X2319123Y2132760D01*
X2316709Y2132467D01*
X2314708Y2131086D01*
X2313578Y2128933D01*
Y2126501D01*
X2314708Y2124348D01*
X2316709Y2122967D01*
X2319123Y2122674D01*
X2321396Y2123536D01*
X2323009Y2125356D01*
X2323591Y2127717D01*
X2380741Y2140417D02*
X2380159Y2142778D01*
X2378546Y2144598D01*
X2376273Y2145460D01*
X2373859Y2145167D01*
X2371858Y2143786D01*
X2370728Y2141633D01*
Y2139201D01*
X2371858Y2137048D01*
X2373859Y2135667D01*
X2376273Y2135374D01*
X2378546Y2136236D01*
X2380159Y2138056D01*
X2380741Y2140417D01*
X2361691Y2127717D02*
X2361109Y2130078D01*
X2359496Y2131898D01*
X2357223Y2132760D01*
X2354809Y2132467D01*
X2352808Y2131086D01*
X2351678Y2128933D01*
Y2126501D01*
X2352808Y2124348D01*
X2354809Y2122967D01*
X2357223Y2122674D01*
X2359496Y2123536D01*
X2361109Y2125356D01*
X2361691Y2127717D01*
X2342641Y2115017D02*
X2342059Y2117378D01*
X2340446Y2119198D01*
X2338173Y2120060D01*
X2335759Y2119767D01*
X2333758Y2118386D01*
X2332628Y2116233D01*
Y2113801D01*
X2333758Y2111648D01*
X2335759Y2110267D01*
X2338173Y2109974D01*
X2340446Y2110836D01*
X2342059Y2112656D01*
X2342641Y2115017D01*
X2323591Y2102317D02*
X2323009Y2104678D01*
X2321396Y2106498D01*
X2319123Y2107360D01*
X2316709Y2107067D01*
X2314708Y2105686D01*
X2313578Y2103533D01*
Y2101101D01*
X2314708Y2098948D01*
X2316709Y2097567D01*
X2319123Y2097274D01*
X2321396Y2098136D01*
X2323009Y2099956D01*
X2323591Y2102317D01*
X2380741Y2115017D02*
X2380159Y2117378D01*
X2378546Y2119198D01*
X2376273Y2120060D01*
X2373859Y2119767D01*
X2371858Y2118386D01*
X2370728Y2116233D01*
Y2113801D01*
X2371858Y2111648D01*
X2373859Y2110267D01*
X2376273Y2109974D01*
X2378546Y2110836D01*
X2380159Y2112656D01*
X2380741Y2115017D01*
X2361691Y2102317D02*
X2361109Y2104678D01*
X2359496Y2106498D01*
X2357223Y2107360D01*
X2354809Y2107067D01*
X2352808Y2105686D01*
X2351678Y2103533D01*
Y2101101D01*
X2352808Y2098948D01*
X2354809Y2097567D01*
X2357223Y2097274D01*
X2359496Y2098136D01*
X2361109Y2099956D01*
X2361691Y2102317D01*
X2342641Y2089617D02*
X2342059Y2091978D01*
X2340446Y2093798D01*
X2338173Y2094660D01*
X2335759Y2094367D01*
X2333758Y2092986D01*
X2332628Y2090833D01*
Y2088401D01*
X2333758Y2086248D01*
X2335759Y2084867D01*
X2338173Y2084574D01*
X2340446Y2085436D01*
X2342059Y2087256D01*
X2342641Y2089617D01*
X2323591Y2076917D02*
X2323009Y2079278D01*
X2321396Y2081098D01*
X2319123Y2081960D01*
X2316709Y2081667D01*
X2314708Y2080286D01*
X2313578Y2078133D01*
Y2075701D01*
X2314708Y2073548D01*
X2316709Y2072167D01*
X2319123Y2071874D01*
X2321396Y2072736D01*
X2323009Y2074556D01*
X2323591Y2076917D01*
X2380741Y2089617D02*
X2380159Y2091978D01*
X2378546Y2093798D01*
X2376273Y2094660D01*
X2373859Y2094367D01*
X2371858Y2092986D01*
X2370728Y2090833D01*
Y2088401D01*
X2371858Y2086248D01*
X2373859Y2084867D01*
X2376273Y2084574D01*
X2378546Y2085436D01*
X2380159Y2087256D01*
X2380741Y2089617D01*
X2361691Y2076917D02*
X2361109Y2079278D01*
X2359496Y2081098D01*
X2357223Y2081960D01*
X2354809Y2081667D01*
X2352808Y2080286D01*
X2351678Y2078133D01*
Y2075701D01*
X2352808Y2073548D01*
X2354809Y2072167D01*
X2357223Y2071874D01*
X2359496Y2072736D01*
X2361109Y2074556D01*
X2361691Y2076917D01*
X2323591Y2051517D02*
X2323009Y2053878D01*
X2321396Y2055698D01*
X2319123Y2056560D01*
X2316709Y2056267D01*
X2314708Y2054886D01*
X2313578Y2052733D01*
Y2050301D01*
X2314708Y2048148D01*
X2316709Y2046767D01*
X2319123Y2046474D01*
X2321396Y2047336D01*
X2323009Y2049156D01*
X2323591Y2051517D01*
X2380741Y2064217D02*
X2380159Y2066578D01*
X2378546Y2068398D01*
X2376273Y2069260D01*
X2373859Y2068967D01*
X2371858Y2067586D01*
X2370728Y2065433D01*
Y2063001D01*
X2371858Y2060848D01*
X2373859Y2059467D01*
X2376273Y2059174D01*
X2378546Y2060036D01*
X2380159Y2061856D01*
X2380741Y2064217D01*
X2361691Y2051517D02*
X2361109Y2053878D01*
X2359496Y2055698D01*
X2357223Y2056560D01*
X2354809Y2056267D01*
X2352808Y2054886D01*
X2351678Y2052733D01*
Y2050301D01*
X2352808Y2048148D01*
X2354809Y2046767D01*
X2357223Y2046474D01*
X2359496Y2047336D01*
X2361109Y2049156D01*
X2361691Y2051517D01*
X2342641Y2038817D02*
X2342059Y2041178D01*
X2340446Y2042998D01*
X2338173Y2043860D01*
X2335759Y2043567D01*
X2333758Y2042186D01*
X2332628Y2040033D01*
Y2037601D01*
X2333758Y2035448D01*
X2335759Y2034067D01*
X2338173Y2033774D01*
X2340446Y2034636D01*
X2342059Y2036456D01*
X2342641Y2038817D01*
X2323591Y2026117D02*
X2323009Y2028478D01*
X2321396Y2030298D01*
X2319123Y2031160D01*
X2316709Y2030867D01*
X2314708Y2029486D01*
X2313578Y2027333D01*
Y2024901D01*
X2314708Y2022748D01*
X2316709Y2021367D01*
X2319123Y2021074D01*
X2321396Y2021936D01*
X2323009Y2023756D01*
X2323591Y2026117D01*
X2380741Y2038817D02*
X2380159Y2041178D01*
X2378546Y2042998D01*
X2376273Y2043860D01*
X2373859Y2043567D01*
X2371858Y2042186D01*
X2370728Y2040033D01*
Y2037601D01*
X2371858Y2035448D01*
X2373859Y2034067D01*
X2376273Y2033774D01*
X2378546Y2034636D01*
X2380159Y2036456D01*
X2380741Y2038817D01*
X2361691Y2026117D02*
X2361109Y2028478D01*
X2359496Y2030298D01*
X2357223Y2031160D01*
X2354809Y2030867D01*
X2352808Y2029486D01*
X2351678Y2027333D01*
Y2024901D01*
X2352808Y2022748D01*
X2354809Y2021367D01*
X2357223Y2021074D01*
X2359496Y2021936D01*
X2361109Y2023756D01*
X2361691Y2026117D01*
X2342641Y2013417D02*
X2342059Y2015778D01*
X2340446Y2017598D01*
X2338173Y2018460D01*
X2335759Y2018167D01*
X2333758Y2016786D01*
X2332628Y2014633D01*
Y2012201D01*
X2333758Y2010048D01*
X2335759Y2008667D01*
X2338173Y2008374D01*
X2340446Y2009236D01*
X2342059Y2011056D01*
X2342641Y2013417D01*
X2323591Y2000717D02*
X2323009Y2003078D01*
X2321396Y2004898D01*
X2319123Y2005760D01*
X2316709Y2005467D01*
X2314708Y2004086D01*
X2313578Y2001933D01*
Y1999501D01*
X2314708Y1997348D01*
X2316709Y1995967D01*
X2319123Y1995674D01*
X2321396Y1996536D01*
X2323009Y1998356D01*
X2323591Y2000717D01*
X2380741Y2013417D02*
X2380159Y2015778D01*
X2378546Y2017598D01*
X2376273Y2018460D01*
X2373859Y2018167D01*
X2371858Y2016786D01*
X2370728Y2014633D01*
Y2012201D01*
X2371858Y2010048D01*
X2373859Y2008667D01*
X2376273Y2008374D01*
X2378546Y2009236D01*
X2380159Y2011056D01*
X2380741Y2013417D01*
X2361691Y2000717D02*
X2361109Y2003078D01*
X2359496Y2004898D01*
X2357223Y2005760D01*
X2354809Y2005467D01*
X2352808Y2004086D01*
X2351678Y2001933D01*
Y1999501D01*
X2352808Y1997348D01*
X2354809Y1995967D01*
X2357223Y1995674D01*
X2359496Y1996536D01*
X2361109Y1998356D01*
X2361691Y2000717D01*
X2342641Y1988017D02*
X2342059Y1990378D01*
X2340446Y1992198D01*
X2338173Y1993060D01*
X2335759Y1992767D01*
X2333758Y1991386D01*
X2332628Y1989233D01*
Y1986801D01*
X2333758Y1984648D01*
X2335759Y1983267D01*
X2338173Y1982974D01*
X2340446Y1983836D01*
X2342059Y1985656D01*
X2342641Y1988017D01*
X2323591Y1975317D02*
X2323009Y1977678D01*
X2321396Y1979498D01*
X2319123Y1980360D01*
X2316709Y1980067D01*
X2314708Y1978686D01*
X2313578Y1976533D01*
Y1974101D01*
X2314708Y1971948D01*
X2316709Y1970567D01*
X2319123Y1970274D01*
X2321396Y1971136D01*
X2323009Y1972956D01*
X2323591Y1975317D01*
X2361691D02*
X2361109Y1977678D01*
X2359496Y1979498D01*
X2357223Y1980360D01*
X2354809Y1980067D01*
X2352808Y1978686D01*
X2351678Y1976533D01*
Y1974101D01*
X2352808Y1971948D01*
X2354809Y1970567D01*
X2357223Y1970274D01*
X2359496Y1971136D01*
X2361109Y1972956D01*
X2361691Y1975317D01*
X2342641Y1962617D02*
X2342059Y1964978D01*
X2340446Y1966798D01*
X2338173Y1967660D01*
X2335759Y1967367D01*
X2333758Y1965986D01*
X2332628Y1963833D01*
Y1961401D01*
X2333758Y1959248D01*
X2335759Y1957867D01*
X2338173Y1957574D01*
X2340446Y1958436D01*
X2342059Y1960256D01*
X2342641Y1962617D01*
X2323591Y1949917D02*
X2323009Y1952278D01*
X2321396Y1954098D01*
X2319123Y1954960D01*
X2316709Y1954667D01*
X2314708Y1953286D01*
X2313578Y1951133D01*
Y1948701D01*
X2314708Y1946548D01*
X2316709Y1945167D01*
X2319123Y1944874D01*
X2321396Y1945736D01*
X2323009Y1947556D01*
X2323591Y1949917D01*
X2380741Y1962617D02*
X2380159Y1964978D01*
X2378546Y1966798D01*
X2376273Y1967660D01*
X2373859Y1967367D01*
X2371858Y1965986D01*
X2370728Y1963833D01*
Y1961401D01*
X2371858Y1959248D01*
X2373859Y1957867D01*
X2376273Y1957574D01*
X2378546Y1958436D01*
X2380159Y1960256D01*
X2380741Y1962617D01*
X2361691Y1949917D02*
X2361109Y1952278D01*
X2359496Y1954098D01*
X2357223Y1954960D01*
X2354809Y1954667D01*
X2352808Y1953286D01*
X2351678Y1951133D01*
Y1948701D01*
X2352808Y1946548D01*
X2354809Y1945167D01*
X2357223Y1944874D01*
X2359496Y1945736D01*
X2361109Y1947556D01*
X2361691Y1949917D01*
X2342641Y1937217D02*
X2342059Y1939578D01*
X2340446Y1941398D01*
X2338173Y1942260D01*
X2335759Y1941967D01*
X2333758Y1940586D01*
X2332628Y1938433D01*
Y1936001D01*
X2333758Y1933848D01*
X2335759Y1932467D01*
X2338173Y1932174D01*
X2340446Y1933036D01*
X2342059Y1934856D01*
X2342641Y1937217D01*
X2380741D02*
X2380159Y1939578D01*
X2378546Y1941398D01*
X2376273Y1942260D01*
X2373859Y1941967D01*
X2371858Y1940586D01*
X2370728Y1938433D01*
Y1936001D01*
X2371858Y1933848D01*
X2373859Y1932467D01*
X2376273Y1932174D01*
X2378546Y1933036D01*
X2380159Y1934856D01*
X2380741Y1937217D01*
X2323591Y2356317D02*
X2323009Y2358678D01*
X2321396Y2360498D01*
X2319123Y2361360D01*
X2316709Y2361067D01*
X2314708Y2359686D01*
X2313578Y2357533D01*
Y2355101D01*
X2314708Y2352948D01*
X2316709Y2351567D01*
X2319123Y2351274D01*
X2321396Y2352136D01*
X2323009Y2353956D01*
X2323591Y2356317D01*
X2361691D02*
X2361109Y2358678D01*
X2359496Y2360498D01*
X2357223Y2361360D01*
X2354809Y2361067D01*
X2352808Y2359686D01*
X2351678Y2357533D01*
Y2355101D01*
X2352808Y2352948D01*
X2354809Y2351567D01*
X2357223Y2351274D01*
X2359496Y2352136D01*
X2361109Y2353956D01*
X2361691Y2356317D01*
X2342641Y2064217D02*
X2342059Y2066578D01*
X2340446Y2068398D01*
X2338173Y2069260D01*
X2335759Y2068967D01*
X2333758Y2067586D01*
X2332628Y2065433D01*
Y2063001D01*
X2333758Y2060848D01*
X2335759Y2059467D01*
X2338173Y2059174D01*
X2340446Y2060036D01*
X2342059Y2061856D01*
X2342641Y2064217D01*
X2380741Y1988017D02*
X2380159Y1990378D01*
X2378546Y1992198D01*
X2376273Y1993060D01*
X2373859Y1992767D01*
X2371858Y1991386D01*
X2370728Y1989233D01*
Y1986801D01*
X2371858Y1984648D01*
X2373859Y1983267D01*
X2376273Y1982974D01*
X2378546Y1983836D01*
X2380159Y1985656D01*
X2380741Y1988017D01*
X2597276Y2007997D02*
X2596694Y2010358D01*
X2595081Y2012178D01*
X2592808Y2013040D01*
X2590394Y2012747D01*
X2588393Y2011366D01*
X2587263Y2009213D01*
Y2006781D01*
X2588393Y2004628D01*
X2590394Y2003247D01*
X2592808Y2002954D01*
X2595081Y2003816D01*
X2596694Y2005636D01*
X2597276Y2007997D01*
M02*
