%FSLAX44Y44*%
%MOMM*%
G71*
G01*
G75*
%ADD10C,0.2000*%
%ADD11R,0.6000X0.5000*%
%ADD12C,1.0000*%
%ADD13C,0.6000*%
%ADD14C,0.3300*%
%ADD15C,0.4000*%
%ADD16C,0.3000*%
%ADD17C,0.7000*%
%ADD18C,0.5000*%
%ADD19C,0.2540*%
%ADD20C,0.2286*%
%ADD21C,1.5000*%
%ADD22R,1.5000X1.5000*%
%ADD23C,1.4500*%
%ADD24R,1.4500X1.4500*%
%ADD25C,0.1500*%
%ADD26C,0.1270*%
%ADD27C,0.3500*%
D11*
X2292476Y1997677D02*
D03*
Y1987677D02*
D03*
Y2028157D02*
D03*
Y2018157D02*
D03*
Y2261997D02*
D03*
Y2271997D02*
D03*
X2399156Y2048637D02*
D03*
Y2058637D02*
D03*
Y2023077D02*
D03*
Y2013077D02*
D03*
Y1997677D02*
D03*
Y1987677D02*
D03*
D20*
X2872684Y1389144D02*
X2871596Y1388055D01*
X2872684Y1386967D01*
X2873772Y1388055D01*
X2872684Y1389144D01*
X2895104Y1404380D02*
X2894016Y1406557D01*
X2891839Y1408734D01*
X2889662Y1409822D01*
X2885309D01*
X2883132Y1408734D01*
X2880956Y1406557D01*
X2879867Y1404380D01*
X2878779Y1401115D01*
Y1395674D01*
X2879867Y1392409D01*
X2880956Y1390232D01*
X2883132Y1388055D01*
X2885309Y1386967D01*
X2889662D01*
X2891839Y1388055D01*
X2894016Y1390232D01*
X2895104Y1392409D01*
Y1395674D01*
X2889662D02*
X2895104D01*
X2907946Y1409822D02*
Y1386967D01*
X2900328Y1409822D02*
X2915565D01*
X2918286Y1397850D02*
X2928080D01*
X2931346Y1398939D01*
X2932434Y1400027D01*
X2933522Y1402204D01*
Y1405469D01*
X2932434Y1407645D01*
X2931346Y1408734D01*
X2928080Y1409822D01*
X2918286D01*
Y1386967D01*
M02*
