M71
M48
T1F00S00C0.8500
T2F00S00C0.9000
%
T01
X00823595Y008106
Y00836
Y008614
Y008868
Y009122
Y009376
Y00963
Y009884
Y010138
Y010392
Y010646
Y0109
Y011154
Y011408
Y011662
X00842645Y011789
Y011535
Y011281
Y011027
Y010773
Y010519
Y010265
Y010011
Y009757
Y009503
Y009249
Y008995
Y008741
Y008487
Y008233
Y007979
X00861695Y008106
Y00836
Y008614
Y008868
Y009122
Y009376
Y00963
Y009884
Y010138
Y010392
Y010646
Y0109
Y011154
Y011408
Y011662
X00880745Y011789
Y011535
Y011281
Y011027
Y010773
Y010519
Y010265
Y010011
Y009757
Y009503
Y009249
Y008995
Y008741
Y008487
Y008233
Y007979
Y012043
X00861695Y011916
Y01217
X00842645Y012043
X00823595Y011916
Y01217
T02
X0092837Y0076581
Y0079121
X0077597
Y0076581
Y0081661
Y0084201
Y0086741
Y0089281
Y0091821
Y0094361
Y0096901
Y0099441
Y0101981
Y0104521
Y0107061
Y0109601
Y0112141
Y0114681
Y0117221
X0092837
Y0114681
Y0112141
Y0109601
Y0107061
Y0104521
Y0101981
Y0099441
Y0096901
Y0094361
Y0091821
Y0089281
Y0086741
Y0084201
Y0081661
Y0119761
Y0122301
Y0124841
X0077597
Y0122301
Y0119761
M30
