%FSLAX44Y44*%
%MOMM*%
G71*
G01*
G75*
%ADD10C,0.2000*%
%ADD11R,0.6000X0.5000*%
%ADD12C,1.0000*%
%ADD13C,0.6000*%
%ADD14C,0.3300*%
%ADD15C,0.4000*%
%ADD16C,0.3000*%
%ADD17C,0.7000*%
%ADD18C,0.5000*%
%ADD19C,0.2540*%
%ADD20C,0.2286*%
%ADD21C,1.5000*%
%ADD22R,1.5000X1.5000*%
%ADD23C,1.4500*%
%ADD24R,1.4500X1.4500*%
%ADD25C,0.1500*%
%ADD26C,0.1270*%
%ADD27C,0.3500*%
%ADD28R,0.8032X0.7032*%
%ADD29C,2.0000*%
%ADD30C,1.7032*%
%ADD31R,1.7032X1.7032*%
%ADD32C,1.6532*%
%ADD33R,1.6532X1.6532*%
%ADD34C,0.1778*%
%ADD35C,0.6350*%
%ADD36C,0.2032*%
%ADD37C,0.1524*%
D19*
X2251836Y1901077D02*
X2252064Y1898472D01*
X2252740Y1895947D01*
X2253845Y1893577D01*
X2255345Y1891435D01*
X2257194Y1889586D01*
X2259336Y1888087D01*
X2261705Y1886982D01*
X2264231Y1886305D01*
X2266836Y1886077D01*
X2427336D02*
X2429940Y1886305D01*
X2432466Y1886982D01*
X2434836Y1888087D01*
X2436978Y1889586D01*
X2438826Y1891435D01*
X2440326Y1893577D01*
X2441431Y1895947D01*
X2442108Y1898472D01*
X2442336Y1901077D01*
Y2391777D02*
X2442108Y2394382D01*
X2441431Y2396907D01*
X2440326Y2399277D01*
X2438826Y2401419D01*
X2436978Y2403268D01*
X2434836Y2404767D01*
X2432466Y2405872D01*
X2429940Y2406549D01*
X2427336Y2406777D01*
X2329306D02*
X2329487Y2404247D01*
X2330026Y2401768D01*
X2330912Y2399391D01*
X2332128Y2397164D01*
X2333649Y2395134D01*
X2335442Y2393340D01*
X2337473Y2391819D01*
X2339700Y2390604D01*
X2342077Y2389717D01*
X2344555Y2389178D01*
X2347086Y2388997D01*
X2349616Y2389178D01*
X2352095Y2389717D01*
X2354472Y2390604D01*
X2356698Y2391819D01*
X2358729Y2393340D01*
X2360523Y2395134D01*
X2362043Y2397164D01*
X2363259Y2399391D01*
X2364146Y2401768D01*
X2364685Y2404247D01*
X2364866Y2406777D01*
X2968116Y1666367D02*
X2967993Y1668857D01*
X2967628Y1671322D01*
X2967022Y1673740D01*
X2966182Y1676087D01*
X2965117Y1678340D01*
X2963835Y1680479D01*
X2962350Y1682481D01*
X2960676Y1684328D01*
X2958829Y1686001D01*
X2956827Y1687486D01*
X2954689Y1688768D01*
X2952436Y1689834D01*
X2950089Y1690673D01*
X2947671Y1691279D01*
X2945205Y1691645D01*
X2942716Y1691767D01*
Y1361567D02*
X2945205Y1361689D01*
X2947671Y1362055D01*
X2950089Y1362661D01*
X2952436Y1363500D01*
X2954689Y1364566D01*
X2956827Y1365848D01*
X2958829Y1367332D01*
X2960676Y1369007D01*
X2962350Y1370853D01*
X2963835Y1372856D01*
X2965117Y1374993D01*
X2966182Y1377247D01*
X2967022Y1379594D01*
X2967628Y1382012D01*
X2967993Y1384477D01*
X2968116Y1386967D01*
X1850516Y1387221D02*
X1850636Y1384734D01*
X1850998Y1382271D01*
X1851596Y1379854D01*
X1852426Y1377507D01*
X1853479Y1375251D01*
X1854746Y1373108D01*
X1856215Y1371098D01*
X1857872Y1369240D01*
X1859701Y1367551D01*
X1861685Y1366047D01*
X1863806Y1364743D01*
X1866043Y1363650D01*
X1868375Y1362780D01*
X1870781Y1362139D01*
X1873238Y1361735D01*
X1875722Y1361571D01*
X1875916Y1691767D02*
X1873426Y1691645D01*
X1870960Y1691279D01*
X1868542Y1690673D01*
X1866196Y1689834D01*
X1863942Y1688768D01*
X1861804Y1687486D01*
X1859802Y1686001D01*
X1857955Y1684328D01*
X1856281Y1682481D01*
X1854796Y1680479D01*
X1853515Y1678340D01*
X1852449Y1676087D01*
X1851609Y1673740D01*
X1851004Y1671322D01*
X1850638Y1668857D01*
X1850516Y1666367D01*
X2364866Y2406777D02*
X2427336D01*
X2251836Y1901077D02*
Y2406777D01*
X2442336Y1901077D02*
Y2391777D01*
X2251836Y2406777D02*
X2329306D01*
X2266836Y1886077D02*
X2427336D01*
X2251836Y1817497D02*
Y1886077D01*
X2162936D02*
X2251836D01*
Y1855597D02*
X2275733D01*
X2418438D02*
X2442336D01*
X2251836D02*
X2267076Y1860677D01*
X2251836Y1855597D02*
X2267076Y1850517D01*
X2427096Y1860677D02*
X2442336Y1855597D01*
X2427096Y1850517D02*
X2442336Y1855597D01*
X2251836Y1853057D02*
Y1858137D01*
X2442336Y1853057D02*
Y1858137D01*
X2188336Y1886077D02*
Y2073805D01*
Y2219049D02*
Y2406777D01*
X2183256Y1901317D02*
X2188336Y1886077D01*
X2193416Y1901317D01*
X2183256Y2391537D02*
X2188336Y2406777D01*
X2193416Y2391537D01*
X2185796Y1886077D02*
X2190876D01*
X2185796Y2406777D02*
X2190876D01*
X1850516Y1386967D02*
Y1666367D01*
X2968116Y1386967D02*
Y1666367D01*
X1875916Y1691767D02*
X2942716D01*
X1875916Y1361567D02*
X2942716D01*
D20*
X2279591Y1569480D02*
X2278503Y1571657D01*
X2276326Y1573834D01*
X2274149Y1574922D01*
X2269796D01*
X2267619Y1573834D01*
X2265442Y1571657D01*
X2264354Y1569480D01*
X2263266Y1566215D01*
Y1560774D01*
X2264354Y1557509D01*
X2265442Y1555332D01*
X2267619Y1553155D01*
X2269796Y1552067D01*
X2274149D01*
X2276326Y1553155D01*
X2278503Y1555332D01*
X2279591Y1557509D01*
X2286012Y1567304D02*
Y1556420D01*
X2287100Y1553155D01*
X2289277Y1552067D01*
X2292542D01*
X2294719Y1553155D01*
X2297984Y1556420D01*
Y1567304D02*
Y1552067D01*
X2315941Y1564039D02*
X2314853Y1566215D01*
X2311588Y1567304D01*
X2308323D01*
X2305058Y1566215D01*
X2303970Y1564039D01*
X2305058Y1561862D01*
X2307235Y1560774D01*
X2312676Y1559685D01*
X2314853Y1558597D01*
X2315941Y1556420D01*
Y1555332D01*
X2314853Y1553155D01*
X2311588Y1552067D01*
X2308323D01*
X2305058Y1553155D01*
X2303970Y1555332D01*
X2323995Y1574922D02*
Y1556420D01*
X2325083Y1553155D01*
X2327260Y1552067D01*
X2329437D01*
X2320730Y1567304D02*
X2328348D01*
X2338143D02*
X2335967Y1566215D01*
X2333790Y1564039D01*
X2332702Y1560774D01*
Y1558597D01*
X2333790Y1555332D01*
X2335967Y1553155D01*
X2338143Y1552067D01*
X2341408D01*
X2343585Y1553155D01*
X2345762Y1555332D01*
X2346850Y1558597D01*
Y1560774D01*
X2345762Y1564039D01*
X2343585Y1566215D01*
X2341408Y1567304D01*
X2338143D01*
X2351857D02*
Y1552067D01*
Y1562950D02*
X2355121Y1566215D01*
X2357298Y1567304D01*
X2360563D01*
X2362740Y1566215D01*
X2363828Y1562950D01*
Y1552067D01*
Y1562950D02*
X2367093Y1566215D01*
X2369270Y1567304D01*
X2372535D01*
X2374712Y1566215D01*
X2375800Y1562950D01*
Y1552067D01*
X2400941Y1574922D02*
Y1552067D01*
Y1574922D02*
X2409647Y1552067D01*
X2418354Y1574922D02*
X2409647Y1552067D01*
X2418354Y1574922D02*
Y1552067D01*
X2437944Y1567304D02*
Y1552067D01*
Y1564039D02*
X2435767Y1566215D01*
X2433591Y1567304D01*
X2430326D01*
X2428149Y1566215D01*
X2425972Y1564039D01*
X2424884Y1560774D01*
Y1558597D01*
X2425972Y1555332D01*
X2428149Y1553155D01*
X2430326Y1552067D01*
X2433591D01*
X2435767Y1553155D01*
X2437944Y1555332D01*
X2457099Y1574922D02*
Y1552067D01*
Y1564039D02*
X2454922Y1566215D01*
X2452745Y1567304D01*
X2449480D01*
X2447304Y1566215D01*
X2445127Y1564039D01*
X2444039Y1560774D01*
Y1558597D01*
X2445127Y1555332D01*
X2447304Y1553155D01*
X2449480Y1552067D01*
X2452745D01*
X2454922Y1553155D01*
X2457099Y1555332D01*
X2463193Y1560774D02*
X2476254D01*
Y1562950D01*
X2475165Y1565127D01*
X2474077Y1566215D01*
X2471900Y1567304D01*
X2468635D01*
X2466458Y1566215D01*
X2464282Y1564039D01*
X2463193Y1560774D01*
Y1558597D01*
X2464282Y1555332D01*
X2466458Y1553155D01*
X2468635Y1552067D01*
X2471900D01*
X2474077Y1553155D01*
X2476254Y1555332D01*
X2499109Y1574922D02*
Y1552067D01*
Y1574922D02*
X2508904D01*
X2512169Y1573834D01*
X2513257Y1572745D01*
X2514345Y1570569D01*
Y1568392D01*
X2513257Y1566215D01*
X2512169Y1565127D01*
X2508904Y1564039D01*
X2499109D02*
X2508904D01*
X2512169Y1562950D01*
X2513257Y1561862D01*
X2514345Y1559685D01*
Y1556420D01*
X2513257Y1554244D01*
X2512169Y1553155D01*
X2508904Y1552067D01*
X2499109D01*
X2524902Y1567304D02*
X2522726Y1566215D01*
X2520549Y1564039D01*
X2519460Y1560774D01*
Y1558597D01*
X2520549Y1555332D01*
X2522726Y1553155D01*
X2524902Y1552067D01*
X2528167D01*
X2530344Y1553155D01*
X2532521Y1555332D01*
X2533609Y1558597D01*
Y1560774D01*
X2532521Y1564039D01*
X2530344Y1566215D01*
X2528167Y1567304D01*
X2524902D01*
X2551675D02*
Y1552067D01*
Y1564039D02*
X2549499Y1566215D01*
X2547322Y1567304D01*
X2544057D01*
X2541880Y1566215D01*
X2539704Y1564039D01*
X2538615Y1560774D01*
Y1558597D01*
X2539704Y1555332D01*
X2541880Y1553155D01*
X2544057Y1552067D01*
X2547322D01*
X2549499Y1553155D01*
X2551675Y1555332D01*
X2557770Y1567304D02*
Y1552067D01*
Y1560774D02*
X2558858Y1564039D01*
X2561035Y1566215D01*
X2563212Y1567304D01*
X2566477D01*
X2581605Y1574922D02*
Y1552067D01*
Y1564039D02*
X2579428Y1566215D01*
X2577251Y1567304D01*
X2573986D01*
X2571810Y1566215D01*
X2569633Y1564039D01*
X2568545Y1560774D01*
Y1558597D01*
X2569633Y1555332D01*
X2571810Y1553155D01*
X2573986Y1552067D01*
X2577251D01*
X2579428Y1553155D01*
X2581605Y1555332D01*
X1977516Y1409822D02*
Y1386967D01*
X1992753Y1409822D02*
Y1386967D01*
X1977516Y1398939D02*
X1992753D01*
X1999065Y1395674D02*
X2012125D01*
Y1397850D01*
X2011037Y1400027D01*
X2009948Y1401115D01*
X2007771Y1402204D01*
X2004507D01*
X2002330Y1401115D01*
X2000153Y1398939D01*
X1999065Y1395674D01*
Y1393497D01*
X2000153Y1390232D01*
X2002330Y1388055D01*
X2004507Y1386967D01*
X2007771D01*
X2009948Y1388055D01*
X2012125Y1390232D01*
X2030083Y1402204D02*
Y1386967D01*
Y1398939D02*
X2027906Y1401115D01*
X2025729Y1402204D01*
X2022464D01*
X2020287Y1401115D01*
X2018111Y1398939D01*
X2017022Y1395674D01*
Y1393497D01*
X2018111Y1390232D01*
X2020287Y1388055D01*
X2022464Y1386967D01*
X2025729D01*
X2027906Y1388055D01*
X2030083Y1390232D01*
X2049237Y1409822D02*
Y1386967D01*
Y1398939D02*
X2047061Y1401115D01*
X2044884Y1402204D01*
X2041619D01*
X2039442Y1401115D01*
X2037265Y1398939D01*
X2036177Y1395674D01*
Y1393497D01*
X2037265Y1390232D01*
X2039442Y1388055D01*
X2041619Y1386967D01*
X2044884D01*
X2047061Y1388055D01*
X2049237Y1390232D01*
X2055332Y1395674D02*
X2068392D01*
Y1397850D01*
X2067304Y1400027D01*
X2066215Y1401115D01*
X2064039Y1402204D01*
X2060774D01*
X2058597Y1401115D01*
X2056420Y1398939D01*
X2055332Y1395674D01*
Y1393497D01*
X2056420Y1390232D01*
X2058597Y1388055D01*
X2060774Y1386967D01*
X2064039D01*
X2066215Y1388055D01*
X2068392Y1390232D01*
X2073289Y1402204D02*
Y1386967D01*
Y1395674D02*
X2074378Y1398939D01*
X2076555Y1401115D01*
X2078731Y1402204D01*
X2081996D01*
X2085152Y1389144D02*
X2084064Y1388055D01*
X2085152Y1386967D01*
X2086241Y1388055D01*
X2085152Y1389144D01*
X2091247Y1397850D02*
X2101042D01*
X2104307Y1398939D01*
X2105396Y1400027D01*
X2106484Y1402204D01*
Y1405469D01*
X2105396Y1407645D01*
X2104307Y1408734D01*
X2101042Y1409822D01*
X2091247D01*
Y1386967D01*
X2127924Y1404380D02*
X2126836Y1406557D01*
X2124659Y1408734D01*
X2122482Y1409822D01*
X2118129D01*
X2115952Y1408734D01*
X2113776Y1406557D01*
X2112687Y1404380D01*
X2111599Y1401115D01*
Y1395674D01*
X2112687Y1392409D01*
X2113776Y1390232D01*
X2115952Y1388055D01*
X2118129Y1386967D01*
X2122482D01*
X2124659Y1388055D01*
X2126836Y1390232D01*
X2127924Y1392409D01*
X2134345Y1409822D02*
Y1386967D01*
Y1409822D02*
X2144140D01*
X2147405Y1408734D01*
X2148494Y1407645D01*
X2149582Y1405469D01*
Y1403292D01*
X2148494Y1401115D01*
X2147405Y1400027D01*
X2144140Y1398939D01*
X2134345D02*
X2144140D01*
X2147405Y1397850D01*
X2148494Y1396762D01*
X2149582Y1394585D01*
Y1391320D01*
X2148494Y1389144D01*
X2147405Y1388055D01*
X2144140Y1386967D01*
X2134345D01*
X2404236Y1409822D02*
Y1386967D01*
Y1409822D02*
X2412942Y1386967D01*
X2421649Y1409822D02*
X2412942Y1386967D01*
X2421649Y1409822D02*
Y1386967D01*
X2428179Y1395674D02*
X2441239D01*
Y1397850D01*
X2440151Y1400027D01*
X2439063Y1401115D01*
X2436886Y1402204D01*
X2433621D01*
X2431444Y1401115D01*
X2429267Y1398939D01*
X2428179Y1395674D01*
Y1393497D01*
X2429267Y1390232D01*
X2431444Y1388055D01*
X2433621Y1386967D01*
X2436886D01*
X2439063Y1388055D01*
X2441239Y1390232D01*
X2459197Y1398939D02*
X2457020Y1401115D01*
X2454843Y1402204D01*
X2451578D01*
X2449402Y1401115D01*
X2447225Y1398939D01*
X2446137Y1395674D01*
Y1393497D01*
X2447225Y1390232D01*
X2449402Y1388055D01*
X2451578Y1386967D01*
X2454843D01*
X2457020Y1388055D01*
X2459197Y1390232D01*
X2464094Y1409822D02*
Y1386967D01*
Y1397850D02*
X2467359Y1401115D01*
X2469536Y1402204D01*
X2472801D01*
X2474978Y1401115D01*
X2476066Y1397850D01*
Y1386967D01*
X2495112Y1402204D02*
Y1386967D01*
Y1398939D02*
X2492935Y1401115D01*
X2490759Y1402204D01*
X2487494D01*
X2485317Y1401115D01*
X2483140Y1398939D01*
X2482052Y1395674D01*
Y1393497D01*
X2483140Y1390232D01*
X2485317Y1388055D01*
X2487494Y1386967D01*
X2490759D01*
X2492935Y1388055D01*
X2495112Y1390232D01*
X2501207Y1402204D02*
Y1386967D01*
Y1397850D02*
X2504472Y1401115D01*
X2506648Y1402204D01*
X2509913D01*
X2512090Y1401115D01*
X2513178Y1397850D01*
Y1386967D01*
X2521341Y1409822D02*
X2522429Y1408734D01*
X2523518Y1409822D01*
X2522429Y1410910D01*
X2521341Y1409822D01*
X2522429Y1402204D02*
Y1386967D01*
X2540605Y1398939D02*
X2538428Y1401115D01*
X2536251Y1402204D01*
X2532986D01*
X2530809Y1401115D01*
X2528633Y1398939D01*
X2527544Y1395674D01*
Y1393497D01*
X2528633Y1390232D01*
X2530809Y1388055D01*
X2532986Y1386967D01*
X2536251D01*
X2538428Y1388055D01*
X2540605Y1390232D01*
X2558562Y1402204D02*
Y1386967D01*
Y1398939D02*
X2556385Y1401115D01*
X2554209Y1402204D01*
X2550944D01*
X2548767Y1401115D01*
X2546590Y1398939D01*
X2545502Y1395674D01*
Y1393497D01*
X2546590Y1390232D01*
X2548767Y1388055D01*
X2550944Y1386967D01*
X2554209D01*
X2556385Y1388055D01*
X2558562Y1390232D01*
X2564657Y1409822D02*
Y1386967D01*
X2580329Y1409822D02*
X2569445Y1394585D01*
X2585771D01*
X2580329Y1409822D02*
Y1386967D01*
X2596821Y1476497D02*
X2593556Y1475409D01*
X2591379Y1472144D01*
X2590291Y1466702D01*
Y1463437D01*
X2591379Y1457995D01*
X2593556Y1454730D01*
X2596821Y1453642D01*
X2598997D01*
X2602263Y1454730D01*
X2604439Y1457995D01*
X2605528Y1463437D01*
Y1466702D01*
X2604439Y1472144D01*
X2602263Y1475409D01*
X2598997Y1476497D01*
X2596821D01*
X2610643Y1472144D02*
X2612819Y1473232D01*
X2616084Y1476497D01*
Y1453642D01*
X2744596Y1636610D02*
X2754391D01*
X2757656Y1637699D01*
X2758744Y1638787D01*
X2759832Y1640964D01*
Y1644229D01*
X2758744Y1646405D01*
X2757656Y1647494D01*
X2754391Y1648582D01*
X2744596D01*
Y1625727D01*
X2764948Y1648582D02*
Y1625727D01*
X2778008D01*
X2797924D02*
X2789218Y1648582D01*
X2780511Y1625727D01*
X2783776Y1633345D02*
X2794659D01*
X2819582Y1643140D02*
X2818494Y1645317D01*
X2816317Y1647494D01*
X2814141Y1648582D01*
X2809787D01*
X2807610Y1647494D01*
X2805434Y1645317D01*
X2804345Y1643140D01*
X2803257Y1639875D01*
Y1634434D01*
X2804345Y1631169D01*
X2805434Y1628992D01*
X2807610Y1626815D01*
X2809787Y1625727D01*
X2814141D01*
X2816317Y1626815D01*
X2818494Y1628992D01*
X2819582Y1631169D01*
X2840152Y1648582D02*
X2826003D01*
Y1625727D01*
X2840152D01*
X2826003Y1637699D02*
X2834710D01*
X2744596Y1613022D02*
Y1590167D01*
X2757656D01*
X2766689Y1613022D02*
X2764512Y1611934D01*
X2762336Y1609757D01*
X2761247Y1607580D01*
X2760159Y1604315D01*
Y1598874D01*
X2761247Y1595609D01*
X2762336Y1593432D01*
X2764512Y1591255D01*
X2766689Y1590167D01*
X2771042D01*
X2773219Y1591255D01*
X2775396Y1593432D01*
X2776484Y1595609D01*
X2777572Y1598874D01*
Y1604315D01*
X2776484Y1607580D01*
X2775396Y1609757D01*
X2773219Y1611934D01*
X2771042Y1613022D01*
X2766689D01*
X2799230Y1607580D02*
X2798142Y1609757D01*
X2795965Y1611934D01*
X2793788Y1613022D01*
X2789435D01*
X2787259Y1611934D01*
X2785082Y1609757D01*
X2783994Y1607580D01*
X2782905Y1604315D01*
Y1598874D01*
X2783994Y1595609D01*
X2785082Y1593432D01*
X2787259Y1591255D01*
X2789435Y1590167D01*
X2793788D01*
X2795965Y1591255D01*
X2798142Y1593432D01*
X2799230Y1595609D01*
Y1598874D01*
X2793788D02*
X2799230D01*
X2810984Y1613022D02*
X2808808Y1611934D01*
X2806631Y1609757D01*
X2805543Y1607580D01*
X2804454Y1604315D01*
Y1598874D01*
X2805543Y1595609D01*
X2806631Y1593432D01*
X2808808Y1591255D01*
X2810984Y1590167D01*
X2815338D01*
X2817514Y1591255D01*
X2819691Y1593432D01*
X2820779Y1595609D01*
X2821868Y1598874D01*
Y1604315D01*
X2820779Y1607580D01*
X2819691Y1609757D01*
X2817514Y1611934D01*
X2815338Y1613022D01*
X2810984D01*
X2744596Y1572382D02*
Y1549527D01*
X2759832Y1572382D02*
Y1549527D01*
X2744596Y1561499D02*
X2759832D01*
X2780293Y1572382D02*
X2766145D01*
Y1549527D01*
X2780293D01*
X2766145Y1561499D02*
X2774851D01*
X2784102Y1572382D02*
Y1549527D01*
Y1572382D02*
X2793897D01*
X2797162Y1571294D01*
X2798251Y1570205D01*
X2799339Y1568029D01*
Y1565852D01*
X2798251Y1563675D01*
X2797162Y1562587D01*
X2793897Y1561499D01*
X2784102D01*
X2791721D02*
X2799339Y1549527D01*
X2818603Y1572382D02*
X2804454D01*
Y1549527D01*
X2818603D01*
X2804454Y1561499D02*
X2813161D01*
X2720466Y1472144D02*
X2722643Y1473232D01*
X2725907Y1476497D01*
Y1453642D01*
X2750286Y1473232D02*
X2749198Y1475409D01*
X2745933Y1476497D01*
X2743756D01*
X2740491Y1475409D01*
X2738315Y1472144D01*
X2737226Y1466702D01*
Y1461260D01*
X2738315Y1456907D01*
X2740491Y1454730D01*
X2743756Y1453642D01*
X2744844D01*
X2748109Y1454730D01*
X2750286Y1456907D01*
X2751375Y1460172D01*
Y1461260D01*
X2750286Y1464525D01*
X2748109Y1466702D01*
X2744844Y1467790D01*
X2743756D01*
X2740491Y1466702D01*
X2738315Y1464525D01*
X2737226Y1461260D01*
X2756381Y1463437D02*
X2775971D01*
X2782719Y1476497D02*
Y1453642D01*
Y1476497D02*
X2791425Y1453642D01*
X2800132Y1476497D02*
X2791425Y1453642D01*
X2800132Y1476497D02*
Y1453642D01*
X2819722Y1468879D02*
Y1453642D01*
Y1465614D02*
X2817545Y1467790D01*
X2815369Y1468879D01*
X2812104D01*
X2809927Y1467790D01*
X2807751Y1465614D01*
X2806662Y1462349D01*
Y1460172D01*
X2807751Y1456907D01*
X2809927Y1454730D01*
X2812104Y1453642D01*
X2815369D01*
X2817545Y1454730D01*
X2819722Y1456907D01*
X2826905Y1468879D02*
X2833435Y1453642D01*
X2839965Y1468879D02*
X2833435Y1453642D01*
X2831259Y1449289D01*
X2829082Y1447112D01*
X2826905Y1446024D01*
X2825817D01*
X2843774Y1463437D02*
X2863365D01*
X2871201Y1471055D02*
Y1472144D01*
X2872289Y1474320D01*
X2873377Y1475409D01*
X2875554Y1476497D01*
X2879907D01*
X2882084Y1475409D01*
X2883172Y1474320D01*
X2884261Y1472144D01*
Y1469967D01*
X2883172Y1467790D01*
X2880995Y1464525D01*
X2870112Y1453642D01*
X2885349D01*
X2896994Y1476497D02*
X2893729Y1475409D01*
X2891552Y1472144D01*
X2890464Y1466702D01*
Y1463437D01*
X2891552Y1457995D01*
X2893729Y1454730D01*
X2896994Y1453642D01*
X2899171D01*
X2902436Y1454730D01*
X2904613Y1457995D01*
X2905701Y1463437D01*
Y1466702D01*
X2904613Y1472144D01*
X2902436Y1475409D01*
X2899171Y1476497D01*
X2896994D01*
X2911904Y1471055D02*
Y1472144D01*
X2912993Y1474320D01*
X2914081Y1475409D01*
X2916258Y1476497D01*
X2920611D01*
X2922788Y1475409D01*
X2923876Y1474320D01*
X2924965Y1472144D01*
Y1469967D01*
X2923876Y1467790D01*
X2921700Y1464525D01*
X2910816Y1453642D01*
X2926053D01*
X2942051Y1476497D02*
X2931168Y1461260D01*
X2947493D01*
X2942051Y1476497D02*
Y1453642D01*
X1708271Y1332992D02*
X1697388Y1324285D01*
X1685416D01*
X1708271Y1315579D02*
X1697388Y1324285D01*
X1726691Y1301872D02*
X1741927Y1279017D01*
Y1301872D02*
X1726691Y1279017D01*
X3305206Y1215157D02*
X3307383Y1216245D01*
X3308471Y1219510D01*
Y1221687D01*
X3307383Y1224952D01*
X3304117Y1227129D01*
X3298676Y1228217D01*
X3293234D01*
X3288881Y1227129D01*
X3286704Y1224952D01*
X3285616Y1221687D01*
Y1220599D01*
X3286704Y1217334D01*
X3288881Y1215157D01*
X3292146Y1214069D01*
X3293234D01*
X3296499Y1215157D01*
X3298676Y1217334D01*
X3299764Y1220599D01*
Y1221687D01*
X3298676Y1224952D01*
X3296499Y1227129D01*
X3293234Y1228217D01*
X3287792Y1207974D02*
X3286704Y1209062D01*
X3285616Y1207974D01*
X3286704Y1206886D01*
X3287792Y1207974D01*
X3308471Y1195349D02*
X3307383Y1198614D01*
X3304117Y1200791D01*
X3298676Y1201879D01*
X3295411D01*
X3289969Y1200791D01*
X3286704Y1198614D01*
X3285616Y1195349D01*
Y1193173D01*
X3286704Y1189908D01*
X3289969Y1187731D01*
X3295411Y1186643D01*
X3298676D01*
X3304117Y1187731D01*
X3307383Y1189908D01*
X3308471Y1193173D01*
Y1195349D01*
X2800471Y1217334D02*
X2785234Y1228217D01*
Y1211892D01*
X2800471Y1217334D02*
X2777616D01*
X2779792Y1206777D02*
X2778704Y1207865D01*
X2777616Y1206777D01*
X2778704Y1205688D01*
X2779792Y1206777D01*
X2800471Y1194152D02*
X2799383Y1197417D01*
X2796118Y1199594D01*
X2790676Y1200682D01*
X2787411D01*
X2781969Y1199594D01*
X2778704Y1197417D01*
X2777616Y1194152D01*
Y1191975D01*
X2778704Y1188710D01*
X2781969Y1186534D01*
X2787411Y1185445D01*
X2790676D01*
X2796118Y1186534D01*
X2799383Y1188710D01*
X2800471Y1191975D01*
Y1194152D01*
X2287029Y1227129D02*
X2288118D01*
X2290294Y1226040D01*
X2291382Y1224952D01*
X2292471Y1222775D01*
Y1218422D01*
X2291382Y1216245D01*
X2290294Y1215157D01*
X2288118Y1214069D01*
X2285941D01*
X2283764Y1215157D01*
X2280499Y1217334D01*
X2269616Y1228217D01*
Y1212980D01*
X2271792Y1206777D02*
X2270704Y1207865D01*
X2269616Y1206777D01*
X2270704Y1205688D01*
X2271792Y1206777D01*
X2292471Y1194152D02*
X2291382Y1197417D01*
X2288118Y1199594D01*
X2282676Y1200682D01*
X2279411D01*
X2273969Y1199594D01*
X2270704Y1197417D01*
X2269616Y1194152D01*
Y1191975D01*
X2270704Y1188710D01*
X2273969Y1186534D01*
X2279411Y1185445D01*
X2282676D01*
X2288118Y1186534D01*
X2291382Y1188710D01*
X2292471Y1191975D01*
Y1194152D01*
X1784471Y1221687D02*
X1783383Y1224952D01*
X1780117Y1227129D01*
X1774676Y1228217D01*
X1771411D01*
X1765969Y1227129D01*
X1762704Y1224952D01*
X1761616Y1221687D01*
Y1219510D01*
X1762704Y1216245D01*
X1765969Y1214069D01*
X1771411Y1212980D01*
X1774676D01*
X1780117Y1214069D01*
X1783383Y1216245D01*
X1784471Y1219510D01*
Y1221687D01*
X2034117Y1228217D02*
X2035206Y1226040D01*
X2038471Y1222775D01*
X2015616D01*
X2017792Y1210368D02*
X2016704Y1211457D01*
X2015616Y1210368D01*
X2016704Y1209280D01*
X2017792Y1210368D01*
X2038471Y1197744D02*
X2037383Y1201009D01*
X2034117Y1203185D01*
X2028676Y1204274D01*
X2025411D01*
X2019969Y1203185D01*
X2016704Y1201009D01*
X2015616Y1197744D01*
Y1195567D01*
X2016704Y1192302D01*
X2019969Y1190125D01*
X2025411Y1189037D01*
X2028676D01*
X2034117Y1190125D01*
X2037383Y1192302D01*
X2038471Y1195567D01*
Y1197744D01*
X2546471Y1226040D02*
Y1214069D01*
X2537764Y1220599D01*
Y1217334D01*
X2536676Y1215157D01*
X2535587Y1214069D01*
X2532322Y1212980D01*
X2530146D01*
X2526881Y1214069D01*
X2524704Y1216245D01*
X2523616Y1219510D01*
Y1222775D01*
X2524704Y1226040D01*
X2525792Y1227129D01*
X2527969Y1228217D01*
X2525792Y1206777D02*
X2524704Y1207865D01*
X2523616Y1206777D01*
X2524704Y1205688D01*
X2525792Y1206777D01*
X2546471Y1194152D02*
X2545383Y1197417D01*
X2542117Y1199594D01*
X2536676Y1200682D01*
X2533411D01*
X2527969Y1199594D01*
X2524704Y1197417D01*
X2523616Y1194152D01*
Y1191975D01*
X2524704Y1188710D01*
X2527969Y1186534D01*
X2533411Y1185445D01*
X2536676D01*
X2542117Y1186534D01*
X2545383Y1188710D01*
X2546471Y1191975D01*
Y1194152D01*
X3054471Y1215157D02*
Y1226040D01*
X3044676Y1227129D01*
X3045764Y1226040D01*
X3046852Y1222775D01*
Y1219510D01*
X3045764Y1216245D01*
X3043588Y1214069D01*
X3040322Y1212980D01*
X3038146D01*
X3034881Y1214069D01*
X3032704Y1216245D01*
X3031616Y1219510D01*
Y1222775D01*
X3032704Y1226040D01*
X3033792Y1227129D01*
X3035969Y1228217D01*
X3033792Y1206777D02*
X3032704Y1207865D01*
X3031616Y1206777D01*
X3032704Y1205688D01*
X3033792Y1206777D01*
X3054471Y1194152D02*
X3053383Y1197417D01*
X3050117Y1199594D01*
X3044676Y1200682D01*
X3041411D01*
X3035969Y1199594D01*
X3032704Y1197417D01*
X3031616Y1194152D01*
Y1191975D01*
X3032704Y1188710D01*
X3035969Y1186534D01*
X3041411Y1185445D01*
X3044676D01*
X3050117Y1186534D01*
X3053383Y1188710D01*
X3054471Y1191975D01*
Y1194152D01*
X3562471Y1212980D02*
X3539616Y1223864D01*
X3562471Y1228217D02*
Y1212980D01*
X3541792Y1206777D02*
X3540704Y1207865D01*
X3539616Y1206777D01*
X3540704Y1205688D01*
X3541792Y1206777D01*
X3562471Y1194152D02*
X3561382Y1197417D01*
X3558117Y1199594D01*
X3552676Y1200682D01*
X3549411D01*
X3543969Y1199594D01*
X3540704Y1197417D01*
X3539616Y1194152D01*
Y1191975D01*
X3540704Y1188710D01*
X3543969Y1186534D01*
X3549411Y1185445D01*
X3552676D01*
X3558117Y1186534D01*
X3561382Y1188710D01*
X3562471Y1191975D01*
Y1194152D01*
X1603226Y2648072D02*
X1592342D01*
X1591254Y2638277D01*
X1592342Y2639366D01*
X1595607Y2640454D01*
X1598872D01*
X1602137Y2639366D01*
X1604314Y2637189D01*
X1605403Y2633924D01*
Y2631747D01*
X1604314Y2628482D01*
X1602137Y2626305D01*
X1598872Y2625217D01*
X1595607D01*
X1592342Y2626305D01*
X1591254Y2627394D01*
X1590166Y2629570D01*
X1611606Y2627394D02*
X1610518Y2626305D01*
X1611606Y2625217D01*
X1612694Y2626305D01*
X1611606Y2627394D01*
X1624231Y2648072D02*
X1620966Y2646984D01*
X1618789Y2643719D01*
X1617701Y2638277D01*
Y2635012D01*
X1618789Y2629570D01*
X1620966Y2626305D01*
X1624231Y2625217D01*
X1626407D01*
X1629672Y2626305D01*
X1631849Y2629570D01*
X1632937Y2635012D01*
Y2638277D01*
X1631849Y2643719D01*
X1629672Y2646984D01*
X1626407Y2648072D01*
X1624231D01*
X1592342Y2140072D02*
X1604314D01*
X1597784Y2131365D01*
X1601049D01*
X1603226Y2130277D01*
X1604314Y2129189D01*
X1605403Y2125924D01*
Y2123747D01*
X1604314Y2120482D01*
X1602137Y2118305D01*
X1598872Y2117217D01*
X1595607D01*
X1592342Y2118305D01*
X1591254Y2119394D01*
X1590166Y2121570D01*
X1611606Y2119394D02*
X1610518Y2118305D01*
X1611606Y2117217D01*
X1612694Y2118305D01*
X1611606Y2119394D01*
X1624231Y2140072D02*
X1620966Y2138984D01*
X1618789Y2135719D01*
X1617701Y2130277D01*
Y2127012D01*
X1618789Y2121570D01*
X1620966Y2118305D01*
X1624231Y2117217D01*
X1626407D01*
X1629672Y2118305D01*
X1631849Y2121570D01*
X1632937Y2127012D01*
Y2130277D01*
X1631849Y2135719D01*
X1629672Y2138984D01*
X1626407Y2140072D01*
X1624231D01*
X1596516Y1627719D02*
X1598692Y1628807D01*
X1601957Y1632072D01*
Y1609217D01*
X1614364Y1611394D02*
X1613276Y1610305D01*
X1614364Y1609217D01*
X1615453Y1610305D01*
X1614364Y1611394D01*
X1626989Y1632072D02*
X1623724Y1630984D01*
X1621548Y1627719D01*
X1620459Y1622277D01*
Y1619012D01*
X1621548Y1613570D01*
X1623724Y1610305D01*
X1626989Y1609217D01*
X1629166D01*
X1632431Y1610305D01*
X1634608Y1613570D01*
X1635696Y1619012D01*
Y1622277D01*
X1634608Y1627719D01*
X1632431Y1630984D01*
X1629166Y1632072D01*
X1626989D01*
X1625271Y1378072D02*
X1622006Y1376984D01*
X1619829Y1373719D01*
X1618741Y1368277D01*
Y1365012D01*
X1619829Y1359570D01*
X1622006Y1356305D01*
X1625271Y1355217D01*
X1627447D01*
X1630712Y1356305D01*
X1632889Y1359570D01*
X1633978Y1365012D01*
Y1368277D01*
X1632889Y1373719D01*
X1630712Y1376984D01*
X1627447Y1378072D01*
X1625271D01*
X1591254Y1880630D02*
Y1881719D01*
X1592342Y1883895D01*
X1593431Y1884984D01*
X1595607Y1886072D01*
X1599961D01*
X1602137Y1884984D01*
X1603226Y1883895D01*
X1604314Y1881719D01*
Y1879542D01*
X1603226Y1877365D01*
X1601049Y1874100D01*
X1590166Y1863217D01*
X1605403D01*
X1611606Y1865394D02*
X1610518Y1864305D01*
X1611606Y1863217D01*
X1612694Y1864305D01*
X1611606Y1865394D01*
X1624231Y1886072D02*
X1620966Y1884984D01*
X1618789Y1881719D01*
X1617701Y1876277D01*
Y1873012D01*
X1618789Y1867570D01*
X1620966Y1864305D01*
X1624231Y1863217D01*
X1626407D01*
X1629672Y1864305D01*
X1631849Y1867570D01*
X1632937Y1873012D01*
Y1876277D01*
X1631849Y1881719D01*
X1629672Y1884984D01*
X1626407Y1886072D01*
X1624231D01*
X1601049Y2394072D02*
X1590166Y2378835D01*
X1606491D01*
X1601049Y2394072D02*
Y2371217D01*
X1611606Y2373394D02*
X1610518Y2372305D01*
X1611606Y2371217D01*
X1612694Y2372305D01*
X1611606Y2373394D01*
X1624231Y2394072D02*
X1620966Y2392984D01*
X1618789Y2389719D01*
X1617701Y2384277D01*
Y2381012D01*
X1618789Y2375570D01*
X1620966Y2372305D01*
X1624231Y2371217D01*
X1626407D01*
X1629672Y2372305D01*
X1631849Y2375570D01*
X1632937Y2381012D01*
Y2384277D01*
X1631849Y2389719D01*
X1629672Y2392984D01*
X1626407Y2394072D01*
X1624231D01*
X1603226Y2898807D02*
X1602137Y2900984D01*
X1598872Y2902072D01*
X1596696D01*
X1593431Y2900984D01*
X1591254Y2897719D01*
X1590166Y2892277D01*
Y2886835D01*
X1591254Y2882482D01*
X1593431Y2880305D01*
X1596696Y2879217D01*
X1597784D01*
X1601049Y2880305D01*
X1603226Y2882482D01*
X1604314Y2885747D01*
Y2886835D01*
X1603226Y2890100D01*
X1601049Y2892277D01*
X1597784Y2893365D01*
X1596696D01*
X1593431Y2892277D01*
X1591254Y2890100D01*
X1590166Y2886835D01*
X1610409Y2881394D02*
X1609321Y2880305D01*
X1610409Y2879217D01*
X1611497Y2880305D01*
X1610409Y2881394D01*
X1623034Y2902072D02*
X1619769Y2900984D01*
X1617592Y2897719D01*
X1616503Y2892277D01*
Y2889012D01*
X1617592Y2883570D01*
X1619769Y2880305D01*
X1623034Y2879217D01*
X1625210D01*
X1628475Y2880305D01*
X1630652Y2883570D01*
X1631740Y2889012D01*
Y2892277D01*
X1630652Y2897719D01*
X1628475Y2900984D01*
X1625210Y2902072D01*
X1623034D01*
D26*
X2813718Y1410914D02*
X2813174Y1412002D01*
X2812086Y1413090D01*
X2810997Y1413635D01*
X2808821D01*
X2807733Y1413090D01*
X2806644Y1412002D01*
X2806100Y1410914D01*
X2805556Y1409281D01*
Y1406560D01*
X2806100Y1404928D01*
X2806644Y1403840D01*
X2807733Y1402751D01*
X2808821Y1402207D01*
X2810997D01*
X2812086Y1402751D01*
X2813174Y1403840D01*
X2813718Y1404928D01*
Y1406560D01*
X2810997D02*
X2813718D01*
X2823405Y1413635D02*
X2816330D01*
Y1402207D01*
X2823405D01*
X2816330Y1408193D02*
X2820684D01*
X2825309Y1413635D02*
Y1402207D01*
Y1413635D02*
X2830207D01*
X2831839Y1413090D01*
X2832383Y1412546D01*
X2832928Y1411458D01*
Y1410370D01*
X2832383Y1409281D01*
X2831839Y1408737D01*
X2830207Y1408193D01*
X2825309D01*
X2829118D02*
X2832928Y1402207D01*
X2835485Y1413635D02*
Y1402207D01*
Y1413635D02*
X2840383D01*
X2842015Y1413090D01*
X2842559Y1412546D01*
X2843103Y1411458D01*
Y1410370D01*
X2842559Y1409281D01*
X2842015Y1408737D01*
X2840383Y1408193D01*
X2835485D02*
X2840383D01*
X2842015Y1407649D01*
X2842559Y1407104D01*
X2843103Y1406016D01*
Y1404384D01*
X2842559Y1403295D01*
X2842015Y1402751D01*
X2840383Y1402207D01*
X2835485D01*
X2852735Y1413635D02*
X2845661D01*
Y1402207D01*
X2852735D01*
X2845661Y1408193D02*
X2850014D01*
X2854640Y1413635D02*
Y1402207D01*
Y1413635D02*
X2859537D01*
X2861170Y1413090D01*
X2861714Y1412546D01*
X2862258Y1411458D01*
Y1410370D01*
X2861714Y1409281D01*
X2861170Y1408737D01*
X2859537Y1408193D01*
X2854640D01*
X2858449D02*
X2862258Y1402207D01*
X2865360Y1409825D02*
X2864816Y1409281D01*
X2865360Y1408737D01*
X2865904Y1409281D01*
X2865360Y1409825D01*
Y1403295D02*
X2864816Y1402751D01*
X2865360Y1402207D01*
X2865904Y1402751D01*
X2865360Y1403295D01*
X1875916Y1413635D02*
Y1402207D01*
Y1413635D02*
X1882990D01*
X1875916Y1408193D02*
X1880269D01*
X1884296Y1413635D02*
Y1402207D01*
X1886690Y1413635D02*
Y1402207D01*
X1893220D01*
X1901546Y1413635D02*
X1894472D01*
Y1402207D01*
X1901546D01*
X1894472Y1408193D02*
X1898825D01*
X1912430Y1413635D02*
Y1402207D01*
Y1413635D02*
X1920048Y1402207D01*
Y1413635D02*
Y1402207D01*
X1931911D02*
X1927557Y1413635D01*
X1923204Y1402207D01*
X1924837Y1406016D02*
X1930278D01*
X1934577Y1413635D02*
Y1402207D01*
Y1413635D02*
X1938931Y1402207D01*
X1943284Y1413635D02*
X1938931Y1402207D01*
X1943284Y1413635D02*
Y1402207D01*
X1953623Y1413635D02*
X1946549D01*
Y1402207D01*
X1953623D01*
X1946549Y1408193D02*
X1950902D01*
X1956072Y1409825D02*
X1955528Y1409281D01*
X1956072Y1408737D01*
X1956616Y1409281D01*
X1956072Y1409825D01*
Y1403295D02*
X1955528Y1402751D01*
X1956072Y1402207D01*
X1956616Y1402751D01*
X1956072Y1403295D01*
X1882990Y1505075D02*
X1875916D01*
Y1493647D01*
X1882990D01*
X1875916Y1499633D02*
X1880269D01*
X1884895Y1505075D02*
Y1493647D01*
Y1505075D02*
X1892513Y1493647D01*
Y1505075D02*
Y1493647D01*
X1903832Y1502354D02*
X1903288Y1503442D01*
X1902199Y1504530D01*
X1901111Y1505075D01*
X1898934D01*
X1897846Y1504530D01*
X1896757Y1503442D01*
X1896213Y1502354D01*
X1895669Y1500721D01*
Y1498000D01*
X1896213Y1496368D01*
X1896757Y1495280D01*
X1897846Y1494191D01*
X1898934Y1493647D01*
X1901111D01*
X1902199Y1494191D01*
X1903288Y1495280D01*
X1903832Y1496368D01*
Y1498000D01*
X1901111D02*
X1903832D01*
X1906444Y1505075D02*
Y1493647D01*
X1908838Y1505075D02*
Y1493647D01*
Y1505075D02*
X1916456Y1493647D01*
Y1505075D02*
Y1493647D01*
X1926687Y1505075D02*
X1919612D01*
Y1493647D01*
X1926687D01*
X1919612Y1499633D02*
X1923966D01*
X1935665Y1505075D02*
X1928591D01*
Y1493647D01*
X1935665D01*
X1928591Y1499633D02*
X1932945D01*
X1937570Y1505075D02*
Y1493647D01*
Y1505075D02*
X1942468D01*
X1944100Y1504530D01*
X1944644Y1503986D01*
X1945188Y1502898D01*
Y1501810D01*
X1944644Y1500721D01*
X1944100Y1500177D01*
X1942468Y1499633D01*
X1937570D01*
X1941379D02*
X1945188Y1493647D01*
X1948290Y1501265D02*
X1947746Y1500721D01*
X1948290Y1500177D01*
X1948834Y1500721D01*
X1948290Y1501265D01*
Y1494735D02*
X1947746Y1494191D01*
X1948290Y1493647D01*
X1948834Y1494191D01*
X1948290Y1494735D01*
X2105150Y1604770D02*
Y1593342D01*
X2101341Y1604770D02*
X2108959D01*
X2110320D02*
Y1593342D01*
X2116523Y1604770D02*
Y1593342D01*
X2112714Y1604770D02*
X2120332D01*
X2121693D02*
Y1593342D01*
X2128223D01*
X2136548Y1604770D02*
X2129474D01*
Y1593342D01*
X2136548D01*
X2129474Y1599328D02*
X2133828D01*
X2138997Y1600960D02*
X2138453Y1600416D01*
X2138997Y1599872D01*
X2139541Y1600416D01*
X2138997Y1600960D01*
Y1594430D02*
X2138453Y1593886D01*
X2138997Y1593342D01*
X2139541Y1593886D01*
X2138997Y1594430D01*
X2104516Y1478134D02*
X2109413D01*
X2111046Y1478678D01*
X2111590Y1479222D01*
X2112134Y1480310D01*
Y1481943D01*
X2111590Y1483031D01*
X2111046Y1483575D01*
X2109413Y1484120D01*
X2104516D01*
Y1472692D01*
X2123398D02*
X2119045Y1484120D01*
X2114692Y1472692D01*
X2116324Y1476501D02*
X2121766D01*
X2126065Y1484120D02*
Y1472692D01*
Y1484120D02*
X2130962D01*
X2132595Y1483575D01*
X2133139Y1483031D01*
X2133683Y1481943D01*
Y1480854D01*
X2133139Y1479766D01*
X2132595Y1479222D01*
X2130962Y1478678D01*
X2126065D01*
X2129874D02*
X2133683Y1472692D01*
X2140050Y1484120D02*
Y1472692D01*
X2136241Y1484120D02*
X2143859D01*
X2154198D02*
Y1472692D01*
Y1484120D02*
X2161817Y1472692D01*
Y1484120D02*
Y1472692D01*
X2168238Y1484120D02*
X2167150Y1483575D01*
X2166061Y1482487D01*
X2165517Y1481399D01*
X2164973Y1479766D01*
Y1477045D01*
X2165517Y1475413D01*
X2166061Y1474324D01*
X2167150Y1473236D01*
X2168238Y1472692D01*
X2170415D01*
X2171503Y1473236D01*
X2172591Y1474324D01*
X2173136Y1475413D01*
X2173680Y1477045D01*
Y1479766D01*
X2173136Y1481399D01*
X2172591Y1482487D01*
X2171503Y1483575D01*
X2170415Y1484120D01*
X2168238D01*
X2176890Y1473780D02*
X2176346Y1473236D01*
X2176890Y1472692D01*
X2177434Y1473236D01*
X2176890Y1473780D01*
X2180482Y1480310D02*
X2179938Y1479766D01*
X2180482Y1479222D01*
X2181026Y1479766D01*
X2180482Y1480310D01*
Y1473780D02*
X2179938Y1473236D01*
X2180482Y1472692D01*
X2181026Y1473236D01*
X2180482Y1473780D01*
X1882990Y1601595D02*
X1875916D01*
Y1590167D01*
X1882990D01*
X1875916Y1596153D02*
X1880269D01*
X1884895Y1601595D02*
Y1590167D01*
Y1601595D02*
X1892513Y1590167D01*
Y1601595D02*
Y1590167D01*
X1903832Y1598874D02*
X1903288Y1599962D01*
X1902199Y1601050D01*
X1901111Y1601595D01*
X1898934D01*
X1897846Y1601050D01*
X1896757Y1599962D01*
X1896213Y1598874D01*
X1895669Y1597241D01*
Y1594520D01*
X1896213Y1592888D01*
X1896757Y1591799D01*
X1897846Y1590711D01*
X1898934Y1590167D01*
X1901111D01*
X1902199Y1590711D01*
X1903288Y1591799D01*
X1903832Y1592888D01*
Y1594520D01*
X1901111D02*
X1903832D01*
X1906444Y1601595D02*
Y1590167D01*
X1908838Y1601595D02*
Y1590167D01*
Y1601595D02*
X1916456Y1590167D01*
Y1601595D02*
Y1590167D01*
X1926687Y1601595D02*
X1919612D01*
Y1590167D01*
X1926687D01*
X1919612Y1596153D02*
X1923966D01*
X1935665Y1601595D02*
X1928591D01*
Y1590167D01*
X1935665D01*
X1928591Y1596153D02*
X1932945D01*
X1937570Y1601595D02*
Y1590167D01*
Y1601595D02*
X1942468D01*
X1944100Y1601050D01*
X1944644Y1600506D01*
X1945188Y1599418D01*
Y1598329D01*
X1944644Y1597241D01*
X1944100Y1596697D01*
X1942468Y1596153D01*
X1937570D01*
X1941379D02*
X1945188Y1590167D01*
X1948290Y1597785D02*
X1947746Y1597241D01*
X1948290Y1596697D01*
X1948834Y1597241D01*
X1948290Y1597785D01*
Y1591255D02*
X1947746Y1590711D01*
X1948290Y1590167D01*
X1948834Y1590711D01*
X1948290Y1591255D01*
X2343276Y1413635D02*
Y1402207D01*
X2349806D01*
X2359764D02*
X2355411Y1413635D01*
X2351057Y1402207D01*
X2352690Y1406016D02*
X2358132D01*
X2362431Y1413635D02*
X2366784Y1408193D01*
Y1402207D01*
X2371137Y1413635D02*
X2366784Y1408193D01*
X2379681Y1413635D02*
X2372606D01*
Y1402207D01*
X2379681D01*
X2372606Y1408193D02*
X2376960D01*
X2381585Y1413635D02*
Y1402207D01*
Y1413635D02*
X2386483D01*
X2388115Y1413090D01*
X2388659Y1412546D01*
X2389204Y1411458D01*
Y1410370D01*
X2388659Y1409281D01*
X2388115Y1408737D01*
X2386483Y1408193D01*
X2381585D01*
X2385394D02*
X2389204Y1402207D01*
X2392305Y1409825D02*
X2391761Y1409281D01*
X2392305Y1408737D01*
X2392849Y1409281D01*
X2392305Y1409825D01*
Y1403295D02*
X2391761Y1402751D01*
X2392305Y1402207D01*
X2392849Y1402751D01*
X2392305Y1403295D01*
X1875916Y1452734D02*
X1880813D01*
X1882446Y1453278D01*
X1882990Y1453822D01*
X1883534Y1454910D01*
Y1456543D01*
X1882990Y1457631D01*
X1882446Y1458175D01*
X1880813Y1458720D01*
X1875916D01*
Y1447292D01*
X1886092Y1458720D02*
Y1447292D01*
X1893710Y1458720D02*
Y1447292D01*
X1886092Y1453278D02*
X1893710D01*
X1900131Y1458720D02*
X1899043Y1458175D01*
X1897955Y1457087D01*
X1897410Y1455999D01*
X1896866Y1454366D01*
Y1451645D01*
X1897410Y1450013D01*
X1897955Y1448925D01*
X1899043Y1447836D01*
X1900131Y1447292D01*
X1902308D01*
X1903396Y1447836D01*
X1904485Y1448925D01*
X1905029Y1450013D01*
X1905573Y1451645D01*
Y1454366D01*
X1905029Y1455999D01*
X1904485Y1457087D01*
X1903396Y1458175D01*
X1902308Y1458720D01*
X1900131D01*
X1908239D02*
Y1447292D01*
Y1458720D02*
X1915858Y1447292D01*
Y1458720D02*
Y1447292D01*
X1926088Y1458720D02*
X1919014D01*
Y1447292D01*
X1926088D01*
X1919014Y1453278D02*
X1923367D01*
X1928537Y1454910D02*
X1927993Y1454366D01*
X1928537Y1453822D01*
X1929081Y1454366D01*
X1928537Y1454910D01*
Y1448380D02*
X1927993Y1447836D01*
X1928537Y1447292D01*
X1929081Y1447836D01*
X1928537Y1448380D01*
X1875916Y1547984D02*
X1880813D01*
X1882446Y1548528D01*
X1882990Y1549072D01*
X1883534Y1550160D01*
Y1551793D01*
X1882990Y1552881D01*
X1882446Y1553425D01*
X1880813Y1553970D01*
X1875916D01*
Y1542542D01*
X1886092Y1553970D02*
Y1542542D01*
X1893710Y1553970D02*
Y1542542D01*
X1886092Y1548528D02*
X1893710D01*
X1900131Y1553970D02*
X1899043Y1553425D01*
X1897955Y1552337D01*
X1897410Y1551249D01*
X1896866Y1549616D01*
Y1546895D01*
X1897410Y1545263D01*
X1897955Y1544174D01*
X1899043Y1543086D01*
X1900131Y1542542D01*
X1902308D01*
X1903396Y1543086D01*
X1904485Y1544174D01*
X1905029Y1545263D01*
X1905573Y1546895D01*
Y1549616D01*
X1905029Y1551249D01*
X1904485Y1552337D01*
X1903396Y1553425D01*
X1902308Y1553970D01*
X1900131D01*
X1908239D02*
Y1542542D01*
Y1553970D02*
X1915858Y1542542D01*
Y1553970D02*
Y1542542D01*
X1926088Y1553970D02*
X1919014D01*
Y1542542D01*
X1926088D01*
X1919014Y1548528D02*
X1923367D01*
X1928537Y1550160D02*
X1927993Y1549616D01*
X1928537Y1549072D01*
X1929081Y1549616D01*
X1928537Y1550160D01*
Y1543630D02*
X1927993Y1543086D01*
X1928537Y1542542D01*
X1929081Y1543086D01*
X1928537Y1543630D01*
X2545841Y1484120D02*
Y1472692D01*
Y1484120D02*
X2550738D01*
X2552371Y1483575D01*
X2552915Y1483031D01*
X2553459Y1481943D01*
Y1480854D01*
X2552915Y1479766D01*
X2552371Y1479222D01*
X2550738Y1478678D01*
X2545841D01*
X2549650D02*
X2553459Y1472692D01*
X2563091Y1484120D02*
X2556017D01*
Y1472692D01*
X2563091D01*
X2556017Y1478678D02*
X2560370D01*
X2564995Y1484120D02*
X2569349Y1472692D01*
X2573702Y1484120D02*
X2569349Y1472692D01*
X2575716Y1480310D02*
X2575172Y1479766D01*
X2575716Y1479222D01*
X2576260Y1479766D01*
X2575716Y1480310D01*
Y1473780D02*
X2575172Y1473236D01*
X2575716Y1472692D01*
X2576260Y1473236D01*
X2575716Y1473780D01*
X2663316Y1484120D02*
Y1472692D01*
Y1484120D02*
X2667125D01*
X2668757Y1483575D01*
X2669846Y1482487D01*
X2670390Y1481399D01*
X2670934Y1479766D01*
Y1477045D01*
X2670390Y1475413D01*
X2669846Y1474324D01*
X2668757Y1473236D01*
X2667125Y1472692D01*
X2663316D01*
X2682198D02*
X2677845Y1484120D01*
X2673492Y1472692D01*
X2675124Y1476501D02*
X2680566D01*
X2688674Y1484120D02*
Y1472692D01*
X2684865Y1484120D02*
X2692483D01*
X2700918D02*
X2693844D01*
Y1472692D01*
X2700918D01*
X2693844Y1478678D02*
X2698197D01*
X2703367Y1480310D02*
X2702822Y1479766D01*
X2703367Y1479222D01*
X2703911Y1479766D01*
X2703367Y1480310D01*
Y1473780D02*
X2702822Y1473236D01*
X2703367Y1472692D01*
X2703911Y1473236D01*
X2703367Y1473780D01*
D35*
X2314066Y1412367D02*
X2313822Y1414845D01*
X2313099Y1417227D01*
X2311925Y1419423D01*
X2310346Y1421347D01*
X2308421Y1422927D01*
X2306226Y1424100D01*
X2303843Y1424823D01*
X2301366Y1425067D01*
X2301661Y1374266D02*
X2304122Y1374473D01*
X2306491Y1375172D01*
X2308671Y1376334D01*
X2310572Y1377912D01*
X2312115Y1379840D01*
X2313239Y1382039D01*
X2313897Y1384420D01*
X2314061Y1386885D01*
X2339466Y1425067D02*
X2336988Y1424823D01*
X2334606Y1424100D01*
X2332410Y1422927D01*
X2330486Y1421347D01*
X2328906Y1419423D01*
X2327733Y1417227D01*
X2327010Y1414845D01*
X2326766Y1412367D01*
Y1386967D02*
X2327004Y1384516D01*
X2327711Y1382158D01*
X2328860Y1379980D01*
X2330408Y1378065D01*
X2332295Y1376485D01*
X2334453Y1375298D01*
X2336798Y1374550D01*
X2339244Y1374269D01*
X2777616Y1412367D02*
X2777372Y1414845D01*
X2776649Y1417227D01*
X2775475Y1419423D01*
X2773896Y1421347D01*
X2771971Y1422927D01*
X2769776Y1424100D01*
X2767393Y1424823D01*
X2764916Y1425067D01*
X2765211Y1374266D02*
X2767672Y1374473D01*
X2770041Y1375172D01*
X2772221Y1376334D01*
X2774122Y1377912D01*
X2775666Y1379840D01*
X2776789Y1382039D01*
X2777447Y1384420D01*
X2777611Y1386885D01*
X2790316Y1386713D02*
X2790560Y1384258D01*
X2791284Y1381900D01*
X2792459Y1379731D01*
X2794038Y1377836D01*
X2795960Y1376290D01*
X2798150Y1375153D01*
X2800520Y1374471D01*
X2802979Y1374269D01*
X2803016Y1425067D02*
X2800538Y1424823D01*
X2798156Y1424100D01*
X2795960Y1422927D01*
X2794036Y1421347D01*
X2792456Y1419423D01*
X2791282Y1417227D01*
X2790560Y1414845D01*
X2790316Y1412367D01*
X2079116Y1603121D02*
X2078877Y1605549D01*
X2078168Y1607884D01*
X2077018Y1610036D01*
X2075470Y1611922D01*
X2073584Y1613470D01*
X2071433Y1614620D01*
X2069098Y1615328D01*
X2066670Y1615567D01*
X2066924Y1533017D02*
X2069302Y1533251D01*
X2071589Y1533945D01*
X2073697Y1535072D01*
X2075545Y1536588D01*
X2077061Y1538436D01*
X2078188Y1540543D01*
X2078882Y1542831D01*
X2079116Y1545209D01*
Y1507871D02*
X2078866Y1510352D01*
X2078126Y1512734D01*
X2076927Y1514921D01*
X2075316Y1516824D01*
X2073357Y1518368D01*
X2071130Y1519490D01*
X2068724Y1520146D01*
X2066235Y1520309D01*
X2091816Y1520063D02*
X2092055Y1517635D01*
X2092763Y1515300D01*
X2093913Y1513148D01*
X2095461Y1511262D01*
X2097347Y1509715D01*
X2099499Y1508564D01*
X2101834Y1507856D01*
X2104262Y1507617D01*
X2091816Y1450213D02*
X2092055Y1447785D01*
X2092763Y1445450D01*
X2093913Y1443298D01*
X2095461Y1441412D01*
X2097347Y1439865D01*
X2099499Y1438714D01*
X2101834Y1438006D01*
X2104262Y1437767D01*
X2066670D02*
X2069098Y1438006D01*
X2071433Y1438714D01*
X2073584Y1439865D01*
X2075470Y1441412D01*
X2077018Y1443298D01*
X2078168Y1445450D01*
X2078877Y1447785D01*
X2079116Y1450213D01*
X2523616Y1482471D02*
X2523377Y1484899D01*
X2522668Y1487234D01*
X2521518Y1489386D01*
X2519970Y1491272D01*
X2518084Y1492820D01*
X2515933Y1493970D01*
X2513598Y1494678D01*
X2511170Y1494917D01*
Y1437767D02*
X2513625Y1438011D01*
X2515983Y1438735D01*
X2518152Y1439910D01*
X2520047Y1441490D01*
X2521593Y1443412D01*
X2522730Y1445601D01*
X2523412Y1447972D01*
X2523614Y1450430D01*
X2536316Y1450721D02*
X2536559Y1448221D01*
X2537280Y1445816D01*
X2538452Y1443595D01*
X2540030Y1441641D01*
X2541956Y1440029D01*
X2544156Y1438819D01*
X2546549Y1438056D01*
X2549044Y1437769D01*
X2548508Y1494917D02*
X2546051Y1494667D01*
X2543695Y1493927D01*
X2541537Y1492727D01*
X2539664Y1491117D01*
X2538154Y1489163D01*
X2537069Y1486945D01*
X2536454Y1484553D01*
X2536332Y1482087D01*
X2104516Y1494917D02*
X2102038Y1494673D01*
X2099656Y1493950D01*
X2097460Y1492777D01*
X2095535Y1491197D01*
X2093956Y1489273D01*
X2092782Y1487077D01*
X2092060Y1484695D01*
X2091816Y1482217D01*
X2104516Y1615567D02*
X2102038Y1615323D01*
X2099656Y1614600D01*
X2097460Y1613427D01*
X2095535Y1611847D01*
X2093956Y1609923D01*
X2092782Y1607727D01*
X2092060Y1605345D01*
X2091816Y1602867D01*
X1863216Y1450467D02*
X1863454Y1448017D01*
X1864161Y1445658D01*
X1865310Y1443481D01*
X1866857Y1441565D01*
X1868745Y1439985D01*
X1870903Y1438798D01*
X1873248Y1438050D01*
X1875694Y1437769D01*
X1875916Y1520317D02*
X1873438Y1520073D01*
X1871056Y1519350D01*
X1868860Y1518177D01*
X1866935Y1516597D01*
X1865356Y1514673D01*
X1864182Y1512477D01*
X1863460Y1510095D01*
X1863216Y1507617D01*
Y1545717D02*
X1863460Y1543239D01*
X1864182Y1540857D01*
X1865356Y1538661D01*
X1866935Y1536737D01*
X1868860Y1535157D01*
X1871056Y1533984D01*
X1873438Y1533261D01*
X1875916Y1533017D01*
Y1615567D02*
X1873438Y1615323D01*
X1871056Y1614600D01*
X1868860Y1613427D01*
X1866935Y1611847D01*
X1865356Y1609923D01*
X1864182Y1607727D01*
X1863460Y1605345D01*
X1863216Y1602867D01*
Y1640967D02*
X1863460Y1638489D01*
X1864182Y1636107D01*
X1865356Y1633911D01*
X1866935Y1631987D01*
X1868860Y1630407D01*
X1871056Y1629234D01*
X1873438Y1628511D01*
X1875916Y1628267D01*
Y1679067D02*
X1873438Y1678823D01*
X1871056Y1678100D01*
X1868860Y1676927D01*
X1866935Y1675347D01*
X1865356Y1673423D01*
X1864182Y1671227D01*
X1863460Y1668845D01*
X1863216Y1666367D01*
X2637916D02*
X2637672Y1668845D01*
X2636949Y1671227D01*
X2635775Y1673423D01*
X2634196Y1675347D01*
X2632271Y1676927D01*
X2630076Y1678100D01*
X2627693Y1678823D01*
X2625216Y1679067D01*
X2663316D02*
X2660838Y1678823D01*
X2658456Y1678100D01*
X2656260Y1676927D01*
X2654336Y1675347D01*
X2652756Y1673423D01*
X2651583Y1671227D01*
X2650860Y1668845D01*
X2650616Y1666367D01*
X2625216Y1628267D02*
X2627693Y1628511D01*
X2630076Y1629234D01*
X2632271Y1630407D01*
X2634196Y1631987D01*
X2635775Y1633911D01*
X2636949Y1636107D01*
X2637672Y1638489D01*
X2637916Y1640967D01*
Y1602867D02*
X2637672Y1605345D01*
X2636949Y1607727D01*
X2635775Y1609923D01*
X2634196Y1611847D01*
X2632271Y1613427D01*
X2630076Y1614600D01*
X2627693Y1615323D01*
X2625216Y1615567D01*
X1875916Y1425067D02*
X1873438Y1424823D01*
X1871056Y1424100D01*
X1868860Y1422927D01*
X1866935Y1421347D01*
X1865356Y1419423D01*
X1864182Y1417227D01*
X1863460Y1414845D01*
X1863216Y1412367D01*
X2625437Y1507616D02*
X2627884Y1507898D01*
X2630230Y1508646D01*
X2632388Y1509833D01*
X2634276Y1511414D01*
X2635823Y1513329D01*
X2636972Y1515507D01*
X2637680Y1517866D01*
X2637918Y1520317D01*
X1863216Y1386967D02*
X1863454Y1384516D01*
X1864161Y1382158D01*
X1865310Y1379980D01*
X1866857Y1378065D01*
X1868745Y1376485D01*
X1870903Y1375298D01*
X1873248Y1374550D01*
X1875694Y1374269D01*
X2637916Y1482471D02*
X2637677Y1484899D01*
X2636968Y1487234D01*
X2635818Y1489386D01*
X2634270Y1491272D01*
X2632384Y1492820D01*
X2630233Y1493970D01*
X2627898Y1494678D01*
X2625470Y1494917D01*
X2650616Y1450213D02*
X2650860Y1447758D01*
X2651584Y1445400D01*
X2652759Y1443231D01*
X2654338Y1441336D01*
X2656260Y1439790D01*
X2658450Y1438653D01*
X2660820Y1437970D01*
X2663279Y1437769D01*
X2625216Y1437767D02*
X2627693Y1438011D01*
X2630076Y1438734D01*
X2632271Y1439907D01*
X2634196Y1441487D01*
X2635775Y1443411D01*
X2636949Y1445607D01*
X2637672Y1447989D01*
X2637916Y1450467D01*
X2942716Y1374267D02*
X2945193Y1374511D01*
X2947576Y1375234D01*
X2949771Y1376407D01*
X2951696Y1377987D01*
X2953275Y1379911D01*
X2954449Y1382107D01*
X2955172Y1384489D01*
X2955416Y1386967D01*
X2955416Y1412589D02*
X2955135Y1415035D01*
X2954387Y1417381D01*
X2953200Y1419539D01*
X2951619Y1421427D01*
X2949704Y1422975D01*
X2947526Y1424124D01*
X2945167Y1424831D01*
X2942716Y1425069D01*
Y1437767D02*
X2945193Y1438011D01*
X2947576Y1438734D01*
X2949771Y1439907D01*
X2951696Y1441487D01*
X2953275Y1443411D01*
X2954449Y1445607D01*
X2955172Y1447989D01*
X2955416Y1450467D01*
Y1666621D02*
X2955166Y1669102D01*
X2954426Y1671484D01*
X2953227Y1673671D01*
X2951616Y1675574D01*
X2949657Y1677118D01*
X2947430Y1678240D01*
X2945024Y1678896D01*
X2942535Y1679059D01*
X2650616Y1520317D02*
X2650860Y1517839D01*
X2651583Y1515457D01*
X2652756Y1513261D01*
X2654336Y1511337D01*
X2656260Y1509757D01*
X2658456Y1508584D01*
X2660838Y1507861D01*
X2663316Y1507617D01*
X2942716D02*
X2945193Y1507861D01*
X2947576Y1508584D01*
X2949771Y1509757D01*
X2951696Y1511337D01*
X2953275Y1513261D01*
X2954449Y1515457D01*
X2955172Y1517839D01*
X2955416Y1520317D01*
X2663316Y1494917D02*
X2660838Y1494673D01*
X2658456Y1493950D01*
X2656260Y1492777D01*
X2654336Y1491197D01*
X2652756Y1489273D01*
X2651583Y1487077D01*
X2650860Y1484695D01*
X2650616Y1482217D01*
X2955416Y1482471D02*
X2955177Y1484899D01*
X2954468Y1487234D01*
X2953318Y1489386D01*
X2951770Y1491272D01*
X2949884Y1492820D01*
X2947733Y1493970D01*
X2945398Y1494678D01*
X2942970Y1494917D01*
X2650616Y1450467D02*
Y1482217D01*
X2955416Y1520317D02*
Y1666367D01*
X2650616Y1520317D02*
Y1666367D01*
X1863216Y1386967D02*
Y1412367D01*
X2955416Y1450467D02*
Y1475867D01*
Y1386967D02*
Y1412367D01*
X2637916Y1450467D02*
Y1482217D01*
X2536316Y1450467D02*
Y1482217D01*
X2091816Y1450467D02*
Y1482217D01*
X2523616Y1450467D02*
Y1482217D01*
X2091816Y1520317D02*
Y1602867D01*
X2637916Y1520317D02*
Y1602867D01*
Y1640967D02*
Y1666367D01*
X1863216Y1640967D02*
Y1666367D01*
X2079116Y1545717D02*
Y1602867D01*
X1863216Y1545717D02*
Y1602867D01*
X2079116Y1450467D02*
Y1507617D01*
X1863216Y1450467D02*
Y1507617D01*
X2790316Y1386967D02*
Y1412367D01*
X2777616Y1386967D02*
Y1412367D01*
X2326766Y1386967D02*
Y1412367D01*
X2314066Y1386967D02*
Y1412367D01*
X2663316Y1494917D02*
X2942716D01*
X2663316Y1507617D02*
X2942716D01*
X2104516D02*
X2625216D01*
X2663316Y1679067D02*
X2942716D01*
X2663316Y1437767D02*
X2942716D01*
X2549016Y1494917D02*
X2625216D01*
X2549016Y1437767D02*
X2625216D01*
X2104516D02*
X2510916D01*
X2104516Y1494917D02*
X2510916D01*
X2104516Y1615567D02*
X2625216D01*
X1875916Y1628267D02*
X2625216D01*
X1875916Y1615567D02*
X2066416D01*
X1875916Y1533017D02*
X2066416D01*
X1875916Y1520317D02*
X2066416D01*
X1875916Y1437767D02*
X2066416D01*
X1875916Y1679067D02*
X2625216D01*
X2803016Y1425067D02*
X2942716D01*
X2803016Y1374267D02*
X2942716D01*
X2339466Y1425067D02*
X2764916D01*
X1875916D02*
X2301366D01*
X1875916Y1374267D02*
X2301366D01*
X2339466D02*
X2764916D01*
D36*
X1778128Y1367914D02*
X1777237Y1370363D01*
X1774980Y1371667D01*
X1772413Y1371214D01*
X1770738Y1369218D01*
Y1366611D01*
X1772413Y1364615D01*
X1774980Y1364162D01*
X1777237Y1365465D01*
X1778128Y1367914D01*
X1776858D02*
X1775588Y1370114D01*
X1773048D01*
X1771778Y1367914D01*
X1773048Y1365715D01*
X1775588D01*
X1776858Y1367914D01*
X1779398D02*
X1778816Y1370275D01*
X1777204Y1372095D01*
X1774931Y1372957D01*
X1772517Y1372664D01*
X1770516Y1371283D01*
X1769386Y1369130D01*
Y1366699D01*
X1770516Y1364546D01*
X1772517Y1363165D01*
X1774931Y1362872D01*
X1777204Y1363734D01*
X1778816Y1365554D01*
X1779398Y1367914D01*
X1775588D02*
X1773683Y1369014D01*
Y1366815D01*
X1775588Y1367914D01*
X1774953D02*
X1773683D01*
X1774953D01*
X1793368D02*
X1793198Y1370454D01*
X1792691Y1372947D01*
X1791857Y1375351D01*
X1790709Y1377623D01*
X1789269Y1379721D01*
X1787562Y1381608D01*
X1785618Y1383251D01*
X1783473Y1384620D01*
X1781165Y1385692D01*
X1778734Y1386445D01*
X1776225Y1386869D01*
X1773682Y1386954D01*
X1771150Y1386699D01*
X1768674Y1386109D01*
X1766299Y1385195D01*
X1764068Y1383972D01*
X1762019Y1382462D01*
X1760190Y1380693D01*
X1758613Y1378696D01*
X1757316Y1376506D01*
X1756322Y1374163D01*
X1755650Y1371709D01*
X1755311Y1369187D01*
Y1366642D01*
X1755650Y1364120D01*
X1756322Y1361666D01*
X1757316Y1359323D01*
X1758613Y1357133D01*
X1760190Y1355136D01*
X1762019Y1353367D01*
X1764068Y1351857D01*
X1766299Y1350634D01*
X1768674Y1349720D01*
X1771150Y1349130D01*
X1773682Y1348875D01*
X1776225Y1348960D01*
X1778734Y1349383D01*
X1781165Y1350137D01*
X1783473Y1351209D01*
X1785618Y1352578D01*
X1787562Y1354221D01*
X1789269Y1356108D01*
X1790709Y1358206D01*
X1791857Y1360478D01*
X1792691Y1362882D01*
X1793198Y1365375D01*
X1793368Y1367914D01*
X1787018D02*
X1786758Y1370471D01*
X1785989Y1372923D01*
X1784742Y1375170D01*
X1783068Y1377119D01*
X1781036Y1378692D01*
X1778729Y1379824D01*
X1776241Y1380468D01*
X1773675Y1380598D01*
X1771135Y1380209D01*
X1768725Y1379317D01*
X1766544Y1377957D01*
X1764682Y1376187D01*
X1763214Y1374078D01*
X1762201Y1371716D01*
X1761683Y1369199D01*
Y1366630D01*
X1762201Y1364113D01*
X1763214Y1361751D01*
X1764682Y1359642D01*
X1766544Y1357872D01*
X1768725Y1356512D01*
X1771135Y1355620D01*
X1773675Y1355231D01*
X1776241Y1355361D01*
X1778729Y1356005D01*
X1781036Y1357137D01*
X1783068Y1358710D01*
X1784742Y1360659D01*
X1785989Y1362906D01*
X1786758Y1365358D01*
X1787018Y1367914D01*
X1787016Y2891917D02*
X1786756Y2894474D01*
X1785986Y2896925D01*
X1784739Y2899172D01*
X1783066Y2901122D01*
X1781034Y2902695D01*
X1778727Y2903827D01*
X1776239Y2904471D01*
X1773672Y2904601D01*
X1771132Y2904212D01*
X1768723Y2903319D01*
X1766542Y2901960D01*
X1764680Y2900190D01*
X1763212Y2898080D01*
X1762198Y2895719D01*
X1761681Y2893202D01*
Y2890632D01*
X1762198Y2888115D01*
X1763212Y2885754D01*
X1764680Y2883645D01*
X1766542Y2881874D01*
X1768723Y2880515D01*
X1771132Y2879622D01*
X1773672Y2879233D01*
X1776239Y2879363D01*
X1778727Y2880008D01*
X1781034Y2881139D01*
X1783066Y2882712D01*
X1784739Y2884662D01*
X1785986Y2886909D01*
X1786756Y2889360D01*
X1787016Y2891917D01*
X1779396D02*
X1778814Y2894278D01*
X1777202Y2896098D01*
X1774928Y2896960D01*
X1772514Y2896667D01*
X1770513Y2895286D01*
X1769383Y2893133D01*
Y2890701D01*
X1770513Y2888548D01*
X1772514Y2887167D01*
X1774928Y2886874D01*
X1777202Y2887736D01*
X1778814Y2889556D01*
X1779396Y2891917D01*
X1778126D02*
X1777234Y2894366D01*
X1774977Y2895669D01*
X1772411Y2895217D01*
X1770735Y2893220D01*
Y2890614D01*
X1772411Y2888617D01*
X1774977Y2888165D01*
X1777234Y2889468D01*
X1778126Y2891917D01*
X1776856D02*
X1775586Y2894117D01*
X1773046D01*
X1771776Y2891917D01*
X1773046Y2889717D01*
X1775586D01*
X1776856Y2891917D01*
X1775586D02*
X1773681Y2893017D01*
Y2890817D01*
X1775586Y2891917D01*
X1774951D02*
X1773681D01*
X1774951D01*
X1793366D02*
X1793196Y2894456D01*
X1792689Y2896950D01*
X1791854Y2899354D01*
X1790706Y2901625D01*
X1789266Y2903723D01*
X1787559Y2905611D01*
X1785616Y2907254D01*
X1783471Y2908623D01*
X1781163Y2909694D01*
X1778732Y2910448D01*
X1776223Y2910871D01*
X1773679Y2910956D01*
X1771147Y2910702D01*
X1768672Y2910112D01*
X1766297Y2909197D01*
X1764065Y2907974D01*
X1762016Y2906465D01*
X1760187Y2904695D01*
X1758610Y2902698D01*
X1757313Y2900509D01*
X1756320Y2898166D01*
X1755647Y2895711D01*
X1755308Y2893189D01*
Y2890645D01*
X1755647Y2888123D01*
X1756320Y2885668D01*
X1757313Y2883325D01*
X1758610Y2881136D01*
X1760187Y2879138D01*
X1762016Y2877369D01*
X1764065Y2875860D01*
X1766297Y2874637D01*
X1768672Y2873722D01*
X1771147Y2873132D01*
X1773679Y2872878D01*
X1776223Y2872963D01*
X1778732Y2873386D01*
X1781163Y2874140D01*
X1783471Y2875211D01*
X1785616Y2876581D01*
X1787559Y2878223D01*
X1789266Y2880111D01*
X1790706Y2882209D01*
X1791854Y2884480D01*
X1792689Y2886884D01*
X1793196Y2889378D01*
X1793366Y2891917D01*
X3554858Y1367914D02*
X3553588Y1370114D01*
X3551048D01*
X3549778Y1367914D01*
X3551048Y1365715D01*
X3553588D01*
X3554858Y1367914D01*
X3556128D02*
X3555237Y1370363D01*
X3552980Y1371667D01*
X3550413Y1371214D01*
X3548738Y1369218D01*
Y1366611D01*
X3550413Y1364615D01*
X3552980Y1364162D01*
X3555237Y1365465D01*
X3556128Y1367914D01*
X3557398D02*
X3556816Y1370275D01*
X3555204Y1372095D01*
X3552931Y1372957D01*
X3550517Y1372664D01*
X3548516Y1371283D01*
X3547386Y1369130D01*
Y1366699D01*
X3548516Y1364546D01*
X3550517Y1363165D01*
X3552931Y1362872D01*
X3555204Y1363734D01*
X3556816Y1365554D01*
X3557398Y1367914D01*
X3553588D02*
X3551683Y1369014D01*
Y1366815D01*
X3553588Y1367914D01*
X3552953D02*
X3551683D01*
X3552953D01*
X3571368D02*
X3571198Y1370454D01*
X3570692Y1372947D01*
X3569857Y1375351D01*
X3568709Y1377623D01*
X3567269Y1379721D01*
X3565562Y1381608D01*
X3563618Y1383251D01*
X3561473Y1384620D01*
X3559165Y1385692D01*
X3556734Y1386445D01*
X3554225Y1386869D01*
X3551682Y1386954D01*
X3549150Y1386699D01*
X3546674Y1386109D01*
X3544300Y1385195D01*
X3542068Y1383972D01*
X3540019Y1382462D01*
X3538190Y1380693D01*
X3536613Y1378696D01*
X3535316Y1376506D01*
X3534322Y1374163D01*
X3533650Y1371709D01*
X3533311Y1369187D01*
Y1366642D01*
X3533650Y1364120D01*
X3534322Y1361666D01*
X3535316Y1359323D01*
X3536613Y1357133D01*
X3538190Y1355136D01*
X3540019Y1353367D01*
X3542068Y1351857D01*
X3544300Y1350634D01*
X3546674Y1349720D01*
X3549150Y1349130D01*
X3551682Y1348875D01*
X3554225Y1348960D01*
X3556735Y1349383D01*
X3559165Y1350137D01*
X3561473Y1351209D01*
X3563618Y1352578D01*
X3565562Y1354221D01*
X3567269Y1356108D01*
X3568709Y1358206D01*
X3569857Y1360478D01*
X3570692Y1362882D01*
X3571198Y1365375D01*
X3571368Y1367914D01*
X3565018D02*
X3564758Y1370471D01*
X3563989Y1372923D01*
X3562742Y1375170D01*
X3561068Y1377119D01*
X3559036Y1378692D01*
X3556729Y1379824D01*
X3554241Y1380468D01*
X3551675Y1380598D01*
X3549135Y1380209D01*
X3546725Y1379317D01*
X3544544Y1377957D01*
X3542682Y1376187D01*
X3541214Y1374078D01*
X3540201Y1371716D01*
X3539684Y1369199D01*
Y1366630D01*
X3540201Y1364113D01*
X3541214Y1361751D01*
X3542682Y1359642D01*
X3544544Y1357872D01*
X3546725Y1356512D01*
X3549135Y1355620D01*
X3551675Y1355231D01*
X3554241Y1355361D01*
X3556729Y1356005D01*
X3559036Y1357137D01*
X3561068Y1358710D01*
X3562742Y1360659D01*
X3563989Y1362906D01*
X3564758Y1365358D01*
X3565018Y1367914D01*
X1759076Y1290574D02*
X1762378Y1291717D01*
X1759076Y1292860D02*
X1762378Y1291717D01*
X1756409Y1286764D02*
X1771141Y1291717D01*
X1756409Y1296670D02*
X1771141Y1291717D01*
X1758187Y1289304D02*
X1765299Y1291717D01*
X1758187Y1294130D02*
X1765299Y1291717D01*
X1698116Y1355979D02*
X1699259Y1352677D01*
X1696973D02*
X1698116Y1355979D01*
Y1364742D02*
X1703069Y1350010D01*
X1693163D02*
X1698116Y1364742D01*
Y1358900D02*
X1700529Y1351788D01*
X1695703D02*
X1698116Y1358900D01*
Y1361821D02*
X1701799Y1350899D01*
X1694433D02*
X1698116Y1361821D01*
X1691766Y1348867D02*
X1698116Y1367917D01*
X1704466Y1348867D01*
X1757298Y1288034D02*
X1768220Y1291717D01*
X1757298Y1295400D02*
X1768220Y1291717D01*
X1755266Y1298067D02*
X1774316Y1291717D01*
X1755266Y1285367D02*
X1774316Y1291717D01*
X3543426Y1376807D02*
X3552316Y1367917D01*
X3561206Y1359027D01*
X1765426Y1376807D02*
X1774316Y1367917D01*
X1783206Y1359027D01*
X3552316Y1367917D02*
X3561206Y1376807D01*
X3543426Y1359027D02*
X3552316Y1367917D01*
X1765426Y1359027D02*
X1774316Y1367917D01*
X1783206Y1376807D01*
X3552318Y1310764D02*
Y1348864D01*
Y1386965D02*
Y1399664D01*
X1774316Y2860167D02*
Y2872867D01*
Y2910967D02*
Y2923667D01*
Y2891917D02*
Y2904617D01*
Y2879217D02*
Y2891917D01*
X3552316Y1240917D02*
Y1291717D01*
X3526916Y1272667D02*
Y1291717D01*
X3501516Y1272667D02*
Y1291717D01*
X3476116Y1272667D02*
Y1291717D01*
X3450716Y1272667D02*
Y1291717D01*
X3425316Y1253617D02*
Y1291717D01*
X3399916Y1272667D02*
Y1291717D01*
X3374516Y1272667D02*
Y1291717D01*
X3349116Y1272667D02*
Y1291717D01*
X3323716Y1272667D02*
Y1291717D01*
X3298316Y1240917D02*
Y1291717D01*
X3272916Y1272667D02*
Y1291717D01*
X3247516Y1272667D02*
Y1291717D01*
X3222116Y1272667D02*
Y1291717D01*
X3196716Y1272667D02*
Y1291717D01*
X3171316Y1253617D02*
Y1291717D01*
X3145916Y1272667D02*
Y1291717D01*
X3120516Y1272667D02*
Y1291717D01*
X3095116Y1272667D02*
Y1291717D01*
X3069716Y1272667D02*
Y1291717D01*
X3044316Y1240917D02*
Y1291717D01*
X3018916Y1272667D02*
Y1291717D01*
X2993516Y1272667D02*
Y1291717D01*
X2968116Y1272667D02*
Y1291717D01*
X2942716Y1272667D02*
Y1291717D01*
X2917316Y1253617D02*
Y1291717D01*
X2891916Y1272667D02*
Y1291717D01*
X2866516Y1272667D02*
Y1291717D01*
X2841116Y1272667D02*
Y1291717D01*
X2815716Y1272667D02*
Y1291717D01*
X2790316Y1240917D02*
Y1291717D01*
X2764916Y1272667D02*
Y1291717D01*
X2739516Y1272667D02*
Y1291717D01*
X2714116Y1272667D02*
Y1291717D01*
X2688716Y1272667D02*
Y1291717D01*
X2663316Y1253617D02*
Y1291717D01*
X2637916Y1272667D02*
Y1291717D01*
X2612516Y1272667D02*
Y1291717D01*
X2587116Y1272667D02*
Y1291717D01*
X2561716Y1272667D02*
Y1291717D01*
X2536316Y1240917D02*
Y1291717D01*
X2510916Y1272667D02*
Y1291717D01*
X2485516Y1272667D02*
Y1291717D01*
X2460116Y1272667D02*
Y1291717D01*
X2434716Y1272667D02*
Y1291717D01*
X2409316Y1253617D02*
Y1291717D01*
X2383916Y1272667D02*
Y1291717D01*
X2358516Y1272667D02*
Y1291717D01*
X2333116Y1272667D02*
Y1291717D01*
X2307716Y1272667D02*
Y1291717D01*
X2282316Y1240917D02*
Y1291717D01*
X2256916Y1272667D02*
Y1291717D01*
X2231516Y1272667D02*
Y1291717D01*
X2206116Y1272667D02*
Y1291717D01*
X2180716Y1272667D02*
Y1291717D01*
X2155316Y1253617D02*
Y1291717D01*
X2129916Y1272667D02*
Y1291717D01*
X2104516Y1272667D02*
Y1291717D01*
X2079116Y1272667D02*
Y1291717D01*
X2053716Y1272667D02*
Y1291717D01*
X2028316Y1240917D02*
Y1291717D01*
X2002916Y1272667D02*
Y1291717D01*
X1977516Y1272667D02*
Y1291717D01*
X1952116Y1272667D02*
Y1291717D01*
X1926716Y1272667D02*
Y1291717D01*
X1901316Y1253617D02*
Y1291717D01*
X1875916Y1272667D02*
Y1291717D01*
X1850516Y1272667D02*
Y1291717D01*
X1825116Y1272667D02*
Y1291717D01*
X1799716Y1272667D02*
Y1291717D01*
X1774316Y1240917D02*
Y1291717D01*
X1759076Y1290574D02*
Y1292860D01*
X1756409Y1286764D02*
Y1296670D01*
X1758187Y1289304D02*
Y1294130D01*
X1698116Y1342517D02*
Y1348867D01*
X1757298Y1288034D02*
Y1295400D01*
X1755266Y1285367D02*
Y1298067D01*
X1698116Y1291717D02*
Y1310767D01*
X1774318Y1386965D02*
Y1399664D01*
Y1310764D02*
Y1348864D01*
X3571368Y1367914D02*
X3584068D01*
X3520568D02*
X3533268D01*
X1793366Y2891917D02*
X1806066D01*
X1717166D02*
X1755266D01*
X1761616D02*
X1774316D01*
X1787016D01*
X1647316D02*
X1698116D01*
X1679066Y2866517D02*
X1698116D01*
X1679066Y2841117D02*
X1698116D01*
X1679066Y2815717D02*
X1698116D01*
X1679066Y2790317D02*
X1698116D01*
X1660016Y2764917D02*
X1698116D01*
X1679066Y2739517D02*
X1698116D01*
X1679066Y2714117D02*
X1698116D01*
X1679066Y2688717D02*
X1698116D01*
X1679066Y2663317D02*
X1698116D01*
X1647316Y2637917D02*
X1698116D01*
X1679066Y2612517D02*
X1698116D01*
X1679066Y2587117D02*
X1698116D01*
X1679066Y2561717D02*
X1698116D01*
X1679066Y2536317D02*
X1698116D01*
X1660016Y2510917D02*
X1698116D01*
X1679066Y2485517D02*
X1698116D01*
X1679066Y2460117D02*
X1698116D01*
X1679066Y2434717D02*
X1698116D01*
X1679066Y2409317D02*
X1698116D01*
X1647316Y2383917D02*
X1698116D01*
X1679066Y2358517D02*
X1698116D01*
X1679066Y2333117D02*
X1698116D01*
X1679066Y2307717D02*
X1698116D01*
X1679066Y2282317D02*
X1698116D01*
X1660016Y2256917D02*
X1698116D01*
X1679066Y2231517D02*
X1698116D01*
X1679066Y2206117D02*
X1698116D01*
X1679066Y2180717D02*
X1698116D01*
X1679066Y2155317D02*
X1698116D01*
X1647316Y2129917D02*
X1698116D01*
X1679066Y2104517D02*
X1698116D01*
X1679066Y2079117D02*
X1698116D01*
X1679066Y2053717D02*
X1698116D01*
X1679066Y2028317D02*
X1698116D01*
X1660016Y2002917D02*
X1698116D01*
X1679066Y1977517D02*
X1698116D01*
X1679066Y1952117D02*
X1698116D01*
X1679066Y1926717D02*
X1698116D01*
X1679066Y1901317D02*
X1698116D01*
X1647316Y1875917D02*
X1698116D01*
X1679066Y1850517D02*
X1698116D01*
X1679066Y1825117D02*
X1698116D01*
X1679066Y1799717D02*
X1698116D01*
X1679066Y1774317D02*
X1698116D01*
X1660016Y1748917D02*
X1698116D01*
X1679066Y1723517D02*
X1698116D01*
X1679066Y1698117D02*
X1698116D01*
X1679066Y1672717D02*
X1698116D01*
X1679066Y1647317D02*
X1698116D01*
X1647316Y1621917D02*
X1698116D01*
X1679066Y1596517D02*
X1698116D01*
X1679066Y1571117D02*
X1698116D01*
X1679066Y1545717D02*
X1698116D01*
X1679066Y1520317D02*
X1698116D01*
X1660016Y1494917D02*
X1698116D01*
X1679066Y1469517D02*
X1698116D01*
X1679066Y1444117D02*
X1698116D01*
X1679066Y1418717D02*
X1698116D01*
X1679066Y1393317D02*
X1698116D01*
X1647316Y1367917D02*
X1698116D01*
X1748916Y1291717D02*
X1755266D01*
X1696973Y1352677D02*
X1699259D01*
X1693163Y1350010D02*
X1703069D01*
X1695703Y1351788D02*
X1700529D01*
X1694433Y1350899D02*
X1701799D01*
X1691766Y1348867D02*
X1704466D01*
X1698116Y1291717D02*
X1717166D01*
X1717168Y1367914D02*
X1755268D01*
X1793368D02*
X1806068D01*
D37*
X2278273Y1846456D02*
X2283352D01*
X2280813D01*
Y1861691D01*
X2278273Y1859151D01*
X2290969Y1848995D02*
X2293509Y1846456D01*
X2298587D01*
X2301126Y1848995D01*
Y1859151D01*
X2298587Y1861691D01*
X2293509D01*
X2290969Y1859151D01*
Y1856612D01*
X2293509Y1854073D01*
X2301126D01*
X2306205Y1846456D02*
Y1848995D01*
X2308744D01*
Y1846456D01*
X2306205D01*
X2318900Y1859151D02*
X2321440Y1861691D01*
X2326518D01*
X2329057Y1859151D01*
Y1848995D01*
X2326518Y1846456D01*
X2321440D01*
X2318900Y1848995D01*
Y1859151D01*
X2344292Y1861691D02*
X2334135D01*
Y1854073D01*
X2339214Y1856612D01*
X2341753D01*
X2344292Y1854073D01*
Y1848995D01*
X2341753Y1846456D01*
X2336675D01*
X2334135Y1848995D01*
X2369684Y1846456D02*
X2364606Y1851534D01*
Y1856612D01*
X2369684Y1861691D01*
X2377301Y1846456D02*
Y1856612D01*
X2379841D01*
X2382380Y1854073D01*
Y1846456D01*
Y1854073D01*
X2384919Y1856612D01*
X2387458Y1854073D01*
Y1846456D01*
X2392536D02*
Y1856612D01*
X2395076D01*
X2397615Y1854073D01*
Y1846456D01*
Y1854073D01*
X2400154Y1856612D01*
X2402693Y1854073D01*
Y1846456D01*
X2407772D02*
X2412850Y1851534D01*
Y1856612D01*
X2407772Y1861691D01*
X2182242Y2086502D02*
Y2076345D01*
X2189860D01*
X2187321Y2081423D01*
Y2083963D01*
X2189860Y2086502D01*
X2194938D01*
X2197477Y2083963D01*
Y2078884D01*
X2194938Y2076345D01*
X2197477Y2101737D02*
Y2091580D01*
X2187321Y2101737D01*
X2184781D01*
X2182242Y2099198D01*
Y2094120D01*
X2184781Y2091580D01*
X2197477Y2106815D02*
X2194938D01*
Y2109355D01*
X2197477D01*
Y2106815D01*
X2184781Y2119511D02*
X2182242Y2122050D01*
Y2127129D01*
X2184781Y2129668D01*
X2194938D01*
X2197477Y2127129D01*
Y2122050D01*
X2194938Y2119511D01*
X2184781D01*
X2182242Y2134746D02*
Y2144903D01*
X2184781D01*
X2194938Y2134746D01*
X2197477D01*
Y2170295D02*
X2192399Y2165216D01*
X2187321D01*
X2182242Y2170295D01*
X2197477Y2177912D02*
X2187321D01*
Y2180452D01*
X2189860Y2182991D01*
X2197477D01*
X2189860D01*
X2187321Y2185530D01*
X2189860Y2188069D01*
X2197477D01*
Y2193147D02*
X2187321D01*
Y2195687D01*
X2189860Y2198226D01*
X2197477D01*
X2189860D01*
X2187321Y2200765D01*
X2189860Y2203304D01*
X2197477D01*
Y2208383D02*
X2192399Y2213461D01*
X2187321D01*
X2182242Y2208383D01*
M02*
