%FSLAX44Y44*%
%MOMM*%
G71*
G01*
G75*
%ADD10C,0.2000*%
%ADD11R,0.6000X0.5000*%
%ADD12C,1.0000*%
%ADD13C,0.6000*%
%ADD14C,0.3300*%
%ADD15C,0.4000*%
%ADD16C,0.3000*%
%ADD17C,0.7000*%
%ADD18C,0.5000*%
%ADD19C,0.2540*%
%ADD20C,0.2286*%
%ADD21C,1.5000*%
%ADD22R,1.5000X1.5000*%
%ADD23C,1.4500*%
%ADD24R,1.4500X1.4500*%
%ADD25C,0.1500*%
%ADD26C,0.1270*%
%ADD27C,0.3500*%
D10*
X2327136Y2383858D02*
X2324601Y2384015D01*
X2322073Y2383777D01*
X2319611Y2383151D01*
X2317277Y2382152D01*
X2315125Y2380802D01*
X2313208Y2379136D01*
X2311573Y2377193D01*
X2310258Y2375020D01*
X2309295Y2372670D01*
X2308708Y2370199D01*
X2308511Y2367667D01*
X2385511Y2361317D02*
X2385314Y2363836D01*
X2384727Y2366294D01*
X2383766Y2368631D01*
X2382453Y2370789D01*
X2380820Y2372718D01*
X2378907Y2374369D01*
X2376761Y2375702D01*
X2374434Y2376686D01*
Y1916848D02*
X2376761Y1917832D01*
X2378907Y1919165D01*
X2380820Y1920816D01*
X2382453Y1922745D01*
X2383766Y1924904D01*
X2384727Y1927240D01*
X2385314Y1929698D01*
X2385511Y1932217D01*
X2308511Y1925867D02*
X2308708Y1923335D01*
X2309295Y1920864D01*
X2310258Y1918514D01*
X2311573Y1916341D01*
X2313208Y1914398D01*
X2315125Y1912732D01*
X2317277Y1911382D01*
X2319611Y1910383D01*
X2322073Y1909756D01*
X2324601Y1909519D01*
X2327136Y1909676D01*
X2327136D02*
X2374434Y1916848D01*
X2327136Y2383858D02*
X2374434Y2376686D01*
X2385511Y1879317D02*
Y2414317D01*
X2308511D02*
X2385511D01*
X2308511Y1879317D02*
Y2414317D01*
Y1879317D02*
X2385511D01*
X2296286Y1917827D02*
X2302636Y1924177D01*
X2289936D02*
X2296286Y1917827D01*
X2289936Y1924177D02*
X2302636D01*
X2391536Y2406777D02*
X2404236D01*
X2391536D02*
X2397886Y2400427D01*
X2404236Y2406777D01*
D16*
X2256916Y2401697D02*
X2302636D01*
Y2373757D02*
Y2401697D01*
X2256916Y2373757D02*
X2302636D01*
X2256916D02*
Y2401697D01*
D19*
X2300091Y2245997D02*
Y2235840D01*
X2297552D01*
X2287395Y2245997D01*
X2284856D01*
Y2235840D01*
X2297552Y2230762D02*
X2300091Y2228223D01*
Y2223144D01*
X2297552Y2220605D01*
X2295013D01*
X2292473Y2223144D01*
X2289934Y2220605D01*
X2287395D01*
X2284856Y2223144D01*
Y2228223D01*
X2287395Y2230762D01*
X2289934D01*
X2292473Y2228223D01*
X2295013Y2230762D01*
X2297552D01*
X2292473Y2228223D02*
Y2223144D01*
X2297552Y2215527D02*
X2300091Y2212988D01*
Y2207909D01*
X2297552Y2205370D01*
X2287395D01*
X2284856Y2207909D01*
Y2212988D01*
X2287395Y2215527D01*
X2297552D01*
X2292473Y2200292D02*
Y2190135D01*
X2300091Y2185057D02*
Y2179978D01*
Y2182518D01*
X2284856D01*
Y2185057D01*
Y2179978D01*
X2297552Y2162204D02*
X2300091Y2164743D01*
Y2169822D01*
X2297552Y2172361D01*
X2287395D01*
X2284856Y2169822D01*
Y2164743D01*
X2287395Y2162204D01*
X2300091Y2146969D02*
Y2157126D01*
X2284856D01*
Y2146969D01*
X2292473Y2157126D02*
Y2152047D01*
X2300091Y2126656D02*
X2284856D01*
X2292473D01*
Y2116499D01*
X2300091D01*
X2284856D01*
Y2103803D02*
Y2108881D01*
X2287395Y2111420D01*
X2292473D01*
X2295013Y2108881D01*
Y2103803D01*
X2292473Y2101264D01*
X2289934D01*
Y2111420D01*
X2295013Y2093646D02*
Y2088568D01*
X2292473Y2086029D01*
X2284856D01*
Y2093646D01*
X2287395Y2096185D01*
X2289934Y2093646D01*
Y2086029D01*
X2300091Y2070794D02*
X2284856D01*
Y2078411D01*
X2287395Y2080950D01*
X2292473D01*
X2295013Y2078411D01*
Y2070794D01*
X2284856Y2058098D02*
Y2063176D01*
X2287395Y2065715D01*
X2292473D01*
X2295013Y2063176D01*
Y2058098D01*
X2292473Y2055559D01*
X2289934D01*
Y2065715D01*
X2295013Y2050480D02*
X2284856D01*
X2289934D01*
X2292473Y2047941D01*
X2295013Y2045402D01*
Y2042863D01*
D20*
X2872684Y1389144D02*
X2871596Y1388055D01*
X2872684Y1386967D01*
X2873772Y1388055D01*
X2872684Y1389144D01*
X2895104Y1404380D02*
X2894016Y1406557D01*
X2891839Y1408734D01*
X2889662Y1409822D01*
X2885309D01*
X2883132Y1408734D01*
X2880956Y1406557D01*
X2879867Y1404380D01*
X2878779Y1401115D01*
Y1395674D01*
X2879867Y1392409D01*
X2880956Y1390232D01*
X2883132Y1388055D01*
X2885309Y1386967D01*
X2889662D01*
X2891839Y1388055D01*
X2894016Y1390232D01*
X2895104Y1392409D01*
Y1395674D01*
X2889662D02*
X2895104D01*
X2907946Y1409822D02*
Y1386967D01*
X2900328Y1409822D02*
X2915565D01*
X2924815D02*
X2922639Y1408734D01*
X2920462Y1406557D01*
X2919374Y1404380D01*
X2918286Y1401115D01*
Y1395674D01*
X2919374Y1392409D01*
X2920462Y1390232D01*
X2922639Y1388055D01*
X2924815Y1386967D01*
X2929169D01*
X2931346Y1388055D01*
X2933522Y1390232D01*
X2934611Y1392409D01*
X2935699Y1395674D01*
Y1401115D01*
X2934611Y1404380D01*
X2933522Y1406557D01*
X2931346Y1408734D01*
X2929169Y1409822D01*
X2924815D01*
D25*
X2287476Y1982677D02*
Y1987677D01*
X2297476Y1982677D02*
Y1987677D01*
Y1997677D02*
Y2002677D01*
X2287476Y1997677D02*
Y2002677D01*
Y1982677D02*
X2297476D01*
X2287476Y2002677D02*
X2297476D01*
X2287476Y2013157D02*
Y2018157D01*
X2297476Y2013157D02*
Y2018157D01*
Y2028157D02*
Y2033157D01*
X2287476Y2028157D02*
Y2033157D01*
Y2013157D02*
X2297476D01*
X2287476Y2033157D02*
X2297476D01*
X2287476Y2256997D02*
Y2261997D01*
X2297476Y2256997D02*
Y2261997D01*
Y2271997D02*
Y2276997D01*
X2287476Y2271997D02*
Y2276997D01*
Y2256997D02*
X2297476D01*
X2287476Y2276997D02*
X2297476D01*
X2394156Y2043637D02*
Y2048637D01*
X2404156Y2043637D02*
Y2048637D01*
Y2058637D02*
Y2063637D01*
X2394156Y2058637D02*
Y2063637D01*
Y2043637D02*
X2404156D01*
X2394156Y2063637D02*
X2404156D01*
X2394156Y2008077D02*
Y2013077D01*
X2404156Y2008077D02*
Y2013077D01*
Y2023077D02*
Y2028077D01*
X2394156Y2023077D02*
Y2028077D01*
Y2008077D02*
X2404156D01*
X2394156Y2028077D02*
X2404156D01*
X2394156Y1982677D02*
Y1987677D01*
X2404156Y1982677D02*
Y1987677D01*
Y1997677D02*
Y2002677D01*
X2394156Y1997677D02*
Y2002677D01*
Y1982677D02*
X2404156D01*
X2394156Y2002677D02*
X2404156D01*
X2303511Y2353817D02*
Y2358815D01*
Y2356316D01*
X2288516D01*
X2291015Y2353817D01*
D26*
X2395191Y2080817D02*
X2403189D01*
Y2076818D01*
X2401856Y2075485D01*
X2399190D01*
X2397857Y2076818D01*
Y2080817D01*
Y2078151D02*
X2395191Y2075485D01*
Y2067488D02*
Y2072820D01*
X2400523Y2067488D01*
X2401856D01*
X2403189Y2068821D01*
Y2071487D01*
X2401856Y2072820D01*
X2288291Y2290317D02*
X2296288D01*
Y2286318D01*
X2294955Y2284985D01*
X2292289D01*
X2290956Y2286318D01*
Y2290317D01*
Y2287651D02*
X2288291Y2284985D01*
Y2282320D02*
Y2279654D01*
Y2280987D01*
X2296288D01*
X2294955Y2282320D01*
X2405916Y2024317D02*
X2413913D01*
Y2020318D01*
X2412580Y2018985D01*
X2409915D01*
X2408582Y2020318D01*
Y2024317D01*
Y2021651D02*
X2405916Y2018985D01*
Y2012321D02*
X2413913D01*
X2409915Y2016320D01*
Y2010988D01*
X2395363Y1979349D02*
X2403361D01*
Y1975351D01*
X2402028Y1974018D01*
X2399362D01*
X2398029Y1975351D01*
Y1979349D01*
Y1976684D02*
X2395363Y1974018D01*
X2403361Y1966020D02*
X2402028Y1968686D01*
X2399362Y1971352D01*
X2396696D01*
X2395363Y1970019D01*
Y1967353D01*
X2396696Y1966020D01*
X2398029D01*
X2399362Y1967353D01*
Y1971352D01*
X2298904Y2029005D02*
X2306902D01*
Y2025006D01*
X2305569Y2023673D01*
X2302903D01*
X2301570Y2025006D01*
Y2029005D01*
Y2026339D02*
X2298904Y2023673D01*
X2305569Y2021007D02*
X2306902Y2019675D01*
Y2017009D01*
X2305569Y2015676D01*
X2304236D01*
X2302903Y2017009D01*
Y2018342D01*
Y2017009D01*
X2301570Y2015676D01*
X2300237D01*
X2298904Y2017009D01*
Y2019675D01*
X2300237Y2021007D01*
X2288536Y1978817D02*
X2296533D01*
Y1974818D01*
X2295200Y1973485D01*
X2292534D01*
X2291201Y1974818D01*
Y1978817D01*
Y1976151D02*
X2288536Y1973485D01*
X2296533Y1965488D02*
Y1970820D01*
X2292534D01*
X2293867Y1968154D01*
Y1966821D01*
X2292534Y1965488D01*
X2289869D01*
X2288536Y1966821D01*
Y1969487D01*
X2289869Y1970820D01*
D27*
X2289936Y2377817D02*
X2296600D01*
X2293268D01*
Y2397811D01*
X2289936Y2394478D01*
M02*
