%FSLAX44Y44*%
%MOMM*%
G71*
G01*
G75*
%ADD10C,0.2000*%
%ADD11R,0.6000X0.5000*%
%ADD12C,1.0000*%
%ADD13C,0.6000*%
%ADD14C,0.3300*%
%ADD15C,0.4000*%
%ADD16C,0.3000*%
%ADD17C,0.7000*%
%ADD18C,0.5000*%
%ADD19C,0.2540*%
%ADD20C,0.2286*%
%ADD21C,1.5000*%
%ADD22R,1.5000X1.5000*%
%ADD23C,1.4500*%
%ADD24R,1.4500X1.4500*%
%ADD25C,0.1500*%
%ADD26C,0.1270*%
%ADD27C,0.3500*%
D19*
X2410586Y1892427D02*
X2435986D01*
Y2400427D01*
X2410586Y1892427D02*
Y2400427D01*
X2435986D01*
X2258186Y1892427D02*
X2283586D01*
Y2400427D01*
X2258186Y1892427D02*
Y2400427D01*
X2283586D01*
X2258186Y2375027D02*
X2283586D01*
X2290886Y2387727D02*
X2303386Y2377727D01*
X2290886Y2387727D02*
X2303386Y2397727D01*
Y2377727D02*
Y2397727D01*
X2305176Y2203577D02*
X2289941D01*
Y2195959D01*
X2292480Y2193420D01*
X2297558D01*
X2300097Y2195959D01*
Y2203577D01*
X2292480Y2178185D02*
X2289941Y2180724D01*
Y2185803D01*
X2292480Y2188342D01*
X2302637D01*
X2305176Y2185803D01*
Y2180724D01*
X2302637Y2178185D01*
X2289941Y2173107D02*
X2305176D01*
Y2165489D01*
X2302637Y2162950D01*
X2300097D01*
X2297558Y2165489D01*
Y2173107D01*
Y2165489D01*
X2295019Y2162950D01*
X2292480D01*
X2289941Y2165489D01*
Y2173107D01*
Y2142637D02*
X2300097D01*
X2305176Y2137558D01*
X2300097Y2132480D01*
X2289941D01*
X2305176Y2127402D02*
Y2122323D01*
Y2124863D01*
X2289941D01*
X2292480Y2127402D01*
X2305176Y2114706D02*
X2302637D01*
Y2112167D01*
X2305176D01*
Y2114706D01*
Y2102010D02*
Y2096931D01*
Y2099471D01*
X2289941D01*
X2292480Y2102010D01*
X2389001Y2312800D02*
X2404236D01*
Y2320418D01*
X2401696Y2322957D01*
X2396618D01*
X2394079Y2320418D01*
Y2312800D01*
X2404236Y2300104D02*
Y2305183D01*
X2401696Y2307722D01*
X2396618D01*
X2394079Y2305183D01*
Y2300104D01*
X2396618Y2297565D01*
X2399157D01*
Y2307722D01*
X2389001Y2292487D02*
X2404236D01*
Y2284869D01*
X2401696Y2282330D01*
X2399157D01*
X2396618D01*
X2394079Y2284869D01*
Y2292487D01*
Y2277252D02*
X2401696D01*
X2404236Y2274713D01*
Y2267095D01*
X2394079D01*
X2409314Y2256938D02*
Y2254399D01*
X2406775Y2251860D01*
X2394079D01*
Y2259478D01*
X2396618Y2262017D01*
X2401696D01*
X2404236Y2259478D01*
Y2251860D01*
Y2246782D02*
Y2241703D01*
Y2244243D01*
X2394079D01*
Y2246782D01*
X2404236Y2234086D02*
X2394079D01*
Y2226468D01*
X2396618Y2223929D01*
X2404236D01*
Y2218851D02*
X2394079D01*
Y2211233D01*
X2396618Y2208694D01*
X2404236D01*
Y2201076D02*
Y2195998D01*
X2401696Y2193459D01*
X2396618D01*
X2394079Y2195998D01*
Y2201076D01*
X2396618Y2203616D01*
X2401696D01*
X2404236Y2201076D01*
X2394079Y2188380D02*
X2404236Y2183302D01*
X2394079Y2178224D01*
Y2170606D02*
Y2165528D01*
X2396618Y2162989D01*
X2404236D01*
Y2170606D01*
X2401696Y2173145D01*
X2399157Y2170606D01*
Y2162989D01*
X2391540Y2155371D02*
X2394079D01*
Y2157910D01*
Y2152832D01*
Y2155371D01*
X2401696D01*
X2404236Y2152832D01*
Y2145215D02*
Y2140136D01*
Y2142675D01*
X2394079D01*
Y2145215D01*
X2404236Y2129979D02*
Y2124901D01*
X2401696Y2122362D01*
X2396618D01*
X2394079Y2124901D01*
Y2129979D01*
X2396618Y2132519D01*
X2401696D01*
X2404236Y2129979D01*
Y2117283D02*
X2394079D01*
Y2109666D01*
X2396618Y2107127D01*
X2404236D01*
Y2102048D02*
Y2094431D01*
X2401696Y2091892D01*
X2399157Y2094431D01*
Y2099509D01*
X2396618Y2102048D01*
X2394079Y2099509D01*
Y2091892D01*
X2404236Y2086813D02*
X2401696D01*
Y2084274D01*
X2404236D01*
Y2086813D01*
X2394079Y2063961D02*
Y2071578D01*
X2396618Y2074117D01*
X2401696D01*
X2404236Y2071578D01*
Y2063961D01*
Y2056343D02*
Y2051265D01*
X2401696Y2048726D01*
X2396618D01*
X2394079Y2051265D01*
Y2056343D01*
X2396618Y2058882D01*
X2401696D01*
X2404236Y2056343D01*
Y2043647D02*
X2394079D01*
Y2041108D01*
X2396618Y2038569D01*
X2404236D01*
X2396618D01*
X2394079Y2036030D01*
X2396618Y2033491D01*
X2404236D01*
Y2028412D02*
X2394079Y2018256D01*
X2389001Y2013177D02*
Y2003020D01*
X2391540D01*
X2401696Y2013177D01*
X2404236D01*
Y2003020D01*
X2391540Y1997942D02*
X2389001Y1995403D01*
Y1990325D01*
X2391540Y1987785D01*
X2394079D01*
X2396618Y1990325D01*
X2399157Y1987785D01*
X2401696D01*
X2404236Y1990325D01*
Y1995403D01*
X2401696Y1997942D01*
X2399157D01*
X2396618Y1995403D01*
X2394079Y1997942D01*
X2391540D01*
X2396618Y1995403D02*
Y1990325D01*
X2391540Y1982707D02*
X2389001Y1980168D01*
Y1975090D01*
X2391540Y1972550D01*
X2401696D01*
X2404236Y1975090D01*
Y1980168D01*
X2401696Y1982707D01*
X2391540D01*
D25*
X2367016Y1914520D02*
X2369515Y1919519D01*
X2374513Y1924517D01*
X2379512D01*
X2382011Y1922018D01*
Y1917019D01*
X2379512Y1914520D01*
X2377012D01*
X2374513Y1917019D01*
Y1924517D01*
X2369515Y1909522D02*
X2367016Y1907023D01*
Y1902024D01*
X2369515Y1899525D01*
X2372014D01*
X2374513Y1902024D01*
X2377012Y1899525D01*
X2379512D01*
X2382011Y1902024D01*
Y1907023D01*
X2379512Y1909522D01*
X2377012D01*
X2374513Y1907023D01*
X2372014Y1909522D01*
X2369515D01*
X2374513Y1907023D02*
Y1902024D01*
X2331415Y1924517D02*
X2328916Y1922018D01*
Y1917019D01*
X2331415Y1914520D01*
X2333914D01*
X2336413Y1917019D01*
Y1919519D01*
Y1917019D01*
X2338912Y1914520D01*
X2341411D01*
X2343911Y1917019D01*
Y1922018D01*
X2341411Y1924517D01*
X2343911Y1902024D02*
X2328916D01*
X2336413Y1909522D01*
Y1899525D01*
X2324861Y2375367D02*
Y2370369D01*
Y2372868D01*
X2309866D01*
X2312365Y2375367D01*
X2350465Y2394417D02*
X2347966Y2391918D01*
Y2386919D01*
X2350465Y2384420D01*
X2352964D01*
X2355463Y2386919D01*
Y2389419D01*
Y2386919D01*
X2357962Y2384420D01*
X2360461D01*
X2362961Y2386919D01*
Y2391918D01*
X2360461Y2394417D01*
X2347966Y2369425D02*
Y2379422D01*
X2355463D01*
X2352964Y2374424D01*
Y2371924D01*
X2355463Y2369425D01*
X2360461D01*
X2362961Y2371924D01*
Y2376923D01*
X2360461Y2379422D01*
M02*
